%FSLAX45Y45*%
G04 Gerber Fmt 4.5, Leading zero omitted, Abs format (unit mm)*
G04 Created by KiCad (PCBNEW (6.0.5-0)) date 2023-02-07 22:36:53*
%MOMM*%
%LPD*%
G01*
G04 APERTURE LIST*
%TA.AperFunction,Profile*%
%ADD10C,0.050000*%
%TD*%
%TA.AperFunction,Profile*%
%ADD11C,0.100000*%
%TD*%
%ADD12C,0.200000*%
G04 APERTURE END LIST*
D10*
X9800000Y-9375000D02*
X11200000Y-9375000D01*
X11200000Y-9375000D02*
X11200000Y-10775000D01*
X11200000Y-10775000D02*
X9800000Y-10775000D01*
X9800000Y-10775000D02*
X9800000Y-9375000D01*
X4400000Y-6400000D02*
X5800000Y-6400000D01*
X5800000Y-6400000D02*
X5800000Y-7800000D01*
X5800000Y-7800000D02*
X4400000Y-7800000D01*
X4400000Y-7800000D02*
X4400000Y-6400000D01*
X6200000Y-8525000D02*
X7600000Y-8525000D01*
X7600000Y-8525000D02*
X7600000Y-9925000D01*
X7600000Y-9925000D02*
X6200000Y-9925000D01*
X6200000Y-9925000D02*
X6200000Y-8525000D01*
D11*
X7200002Y-4249998D02*
X9600002Y-4249998D01*
D10*
X6200000Y-6825000D02*
X7600000Y-6825000D01*
X7600000Y-6825000D02*
X7600000Y-8225000D01*
X7600000Y-8225000D02*
X6200000Y-8225000D01*
X6200000Y-8225000D02*
X6200000Y-6825000D01*
D11*
X3300002Y-5498957D02*
G75*
G03*
X5850002Y-4599998I-400047J5200944D01*
G01*
D10*
X13976265Y-12816463D02*
X13613918Y-14168759D01*
X12261622Y-13806412D01*
X12623969Y-12454116D01*
X13976265Y-12816463D01*
D11*
X7200002Y-4249998D02*
G75*
G03*
X5850002Y-4599998I-21892J-2694132D01*
G01*
X10950002Y-4599998D02*
G75*
G03*
X13500002Y-5499998I2954423J4308366D01*
G01*
X14400002Y-15449998D02*
G75*
G03*
X10950002Y-14549998I-3404422J-5987782D01*
G01*
X10950003Y-4599997D02*
G75*
G03*
X9600002Y-4249998I-1328113J-2344153D01*
G01*
X15800000Y-12800000D02*
X13500000Y-11800000D01*
D10*
X4400000Y-9800000D02*
X5800000Y-9800000D01*
X5800000Y-9800000D02*
X5800000Y-11200000D01*
X5800000Y-11200000D02*
X4400000Y-11200000D01*
X4400000Y-11200000D02*
X4400000Y-9800000D01*
X16103436Y-13870000D02*
X15403436Y-15082436D01*
X14191000Y-14382436D01*
X14891000Y-13170000D01*
X16103436Y-13870000D01*
D11*
X14400002Y-15449998D02*
G75*
G03*
X15800000Y-12800000I757850J1294436D01*
G01*
D10*
X8000000Y-6400000D02*
X9400000Y-6400000D01*
X9400000Y-6400000D02*
X9400000Y-7800000D01*
X9400000Y-7800000D02*
X8000000Y-7800000D01*
X8000000Y-7800000D02*
X8000000Y-6400000D01*
D11*
X3900002Y-11849998D02*
X8250002Y-11849998D01*
D10*
X4400000Y-8100000D02*
X5800000Y-8100000D01*
X5800000Y-8100000D02*
X5800000Y-9500000D01*
X5800000Y-9500000D02*
X4400000Y-9500000D01*
X4400000Y-9500000D02*
X4400000Y-8100000D01*
X2600000Y-6825000D02*
X4000000Y-6825000D01*
X4000000Y-6825000D02*
X4000000Y-8225000D01*
X4000000Y-8225000D02*
X2600000Y-8225000D01*
X2600000Y-8225000D02*
X2600000Y-6825000D01*
X8000000Y-8100000D02*
X9400000Y-8100000D01*
X9400000Y-8100000D02*
X9400000Y-9500000D01*
X9400000Y-9500000D02*
X8000000Y-9500000D01*
X8000000Y-9500000D02*
X8000000Y-8100000D01*
X11600000Y-8100000D02*
X13000000Y-8100000D01*
X13000000Y-8100000D02*
X13000000Y-9500000D01*
X13000000Y-9500000D02*
X11600000Y-9500000D01*
X11600000Y-9500000D02*
X11600000Y-8100000D01*
D11*
X9450002Y-13049998D02*
G75*
G03*
X10950002Y-14549998I1499998J-2D01*
G01*
D10*
X11600000Y-6400000D02*
X13000000Y-6400000D01*
X13000000Y-6400000D02*
X13000000Y-7800000D01*
X13000000Y-7800000D02*
X11600000Y-7800000D01*
X11600000Y-7800000D02*
X11600000Y-6400000D01*
D11*
X13500002Y-5499998D02*
X13500000Y-11800000D01*
X2100002Y-10049998D02*
G75*
G03*
X3900002Y-11849998I1800000J0D01*
G01*
D10*
X11600000Y-9800000D02*
X13000000Y-9800000D01*
X13000000Y-9800000D02*
X13000000Y-11200000D01*
X13000000Y-11200000D02*
X11600000Y-11200000D01*
X11600000Y-11200000D02*
X11600000Y-9800000D01*
X8000000Y-4700000D02*
X9400000Y-4700000D01*
X9400000Y-4700000D02*
X9400000Y-6100000D01*
X9400000Y-6100000D02*
X8000000Y-6100000D01*
X8000000Y-6100000D02*
X8000000Y-4700000D01*
X9800000Y-5975000D02*
X11200000Y-5975000D01*
X11200000Y-5975000D02*
X11200000Y-7375000D01*
X11200000Y-7375000D02*
X9800000Y-7375000D01*
X9800000Y-7375000D02*
X9800000Y-5975000D01*
X10250000Y-12350000D02*
X11650000Y-12350000D01*
X11650000Y-12350000D02*
X11650000Y-13750000D01*
X11650000Y-13750000D02*
X10250000Y-13750000D01*
X10250000Y-13750000D02*
X10250000Y-12350000D01*
D11*
X3300002Y-5498956D02*
G75*
G03*
X2100002Y-6749998I25521J-1225521D01*
G01*
X2100002Y-10049998D02*
X2100002Y-6749998D01*
D10*
X2600000Y-8525000D02*
X4000000Y-8525000D01*
X4000000Y-8525000D02*
X4000000Y-9925000D01*
X4000000Y-9925000D02*
X2600000Y-9925000D01*
X2600000Y-9925000D02*
X2600000Y-8525000D01*
X9800000Y-7675000D02*
X11200000Y-7675000D01*
X11200000Y-7675000D02*
X11200000Y-9075000D01*
X11200000Y-9075000D02*
X9800000Y-9075000D01*
X9800000Y-9075000D02*
X9800000Y-7675000D01*
D11*
X9450002Y-13049998D02*
G75*
G03*
X8250002Y-11849998I-1200002J-2D01*
G01*
D10*
X6200000Y-5125000D02*
X7600000Y-5125000D01*
X7600000Y-5125000D02*
X7600000Y-6525000D01*
X7600000Y-6525000D02*
X6200000Y-6525000D01*
X6200000Y-6525000D02*
X6200000Y-5125000D01*
D12*
X2352356Y-15971006D02*
X2352356Y-15771006D01*
X2399975Y-15771006D01*
X2428546Y-15780529D01*
X2447594Y-15799577D01*
X2457117Y-15818625D01*
X2466641Y-15856720D01*
X2466641Y-15885291D01*
X2457117Y-15923387D01*
X2447594Y-15942434D01*
X2428546Y-15961482D01*
X2399975Y-15971006D01*
X2352356Y-15971006D01*
X2552356Y-15971006D02*
X2552356Y-15837672D01*
X2552356Y-15875767D02*
X2561879Y-15856720D01*
X2571403Y-15847196D01*
X2590451Y-15837672D01*
X2609498Y-15837672D01*
X2676165Y-15971006D02*
X2676165Y-15837672D01*
X2676165Y-15771006D02*
X2666641Y-15780529D01*
X2676165Y-15790053D01*
X2685689Y-15780529D01*
X2676165Y-15771006D01*
X2676165Y-15790053D01*
X2799974Y-15971006D02*
X2780927Y-15961482D01*
X2771403Y-15942434D01*
X2771403Y-15771006D01*
X2904736Y-15971006D02*
X2885689Y-15961482D01*
X2876165Y-15942434D01*
X2876165Y-15771006D01*
X3133308Y-15971006D02*
X3133308Y-15771006D01*
X3199974Y-15913863D01*
X3266641Y-15771006D01*
X3266641Y-15971006D01*
X3447594Y-15971006D02*
X3447594Y-15866244D01*
X3438070Y-15847196D01*
X3419022Y-15837672D01*
X3380927Y-15837672D01*
X3361879Y-15847196D01*
X3447594Y-15961482D02*
X3428546Y-15971006D01*
X3380927Y-15971006D01*
X3361879Y-15961482D01*
X3352355Y-15942434D01*
X3352355Y-15923387D01*
X3361879Y-15904339D01*
X3380927Y-15894815D01*
X3428546Y-15894815D01*
X3447594Y-15885291D01*
X3542832Y-15837672D02*
X3542832Y-16037672D01*
X3542832Y-15847196D02*
X3561879Y-15837672D01*
X3599974Y-15837672D01*
X3619022Y-15847196D01*
X3628546Y-15856720D01*
X3638070Y-15875767D01*
X3638070Y-15932910D01*
X3628546Y-15951958D01*
X3619022Y-15961482D01*
X3599974Y-15971006D01*
X3561879Y-15971006D01*
X3542832Y-15961482D01*
X3723784Y-15951958D02*
X3733308Y-15961482D01*
X3723784Y-15971006D01*
X3714260Y-15961482D01*
X3723784Y-15951958D01*
X3723784Y-15971006D01*
X3723784Y-15847196D02*
X3733308Y-15856720D01*
X3723784Y-15866244D01*
X3714260Y-15856720D01*
X3723784Y-15847196D01*
X3723784Y-15866244D01*
M02*
