G04 #@! TF.GenerationSoftware,KiCad,Pcbnew,(6.0.5-0)*
G04 #@! TF.CreationDate,2023-02-07T22:36:45+01:00*
G04 #@! TF.ProjectId,awokb_plate,61776f6b-625f-4706-9c61-74652e6b6963,rev?*
G04 #@! TF.SameCoordinates,Original*
G04 #@! TF.FileFunction,Profile,NP*
%FSLAX46Y46*%
G04 Gerber Fmt 4.6, Leading zero omitted, Abs format (unit mm)*
G04 Created by KiCad (PCBNEW (6.0.5-0)) date 2023-02-07 22:36:45*
%MOMM*%
%LPD*%
G01*
G04 APERTURE LIST*
G04 #@! TA.AperFunction,Profile*
%ADD10C,0.050000*%
G04 #@! TD*
G04 #@! TA.AperFunction,Profile*
%ADD11C,0.100000*%
G04 #@! TD*
G04 APERTURE END LIST*
D10*
X98000000Y-93750000D02*
X112000000Y-93750000D01*
X112000000Y-93750000D02*
X112000000Y-107750000D01*
X112000000Y-107750000D02*
X98000000Y-107750000D01*
X98000000Y-107750000D02*
X98000000Y-93750000D01*
X44000000Y-64000000D02*
X58000000Y-64000000D01*
X58000000Y-64000000D02*
X58000000Y-78000000D01*
X58000000Y-78000000D02*
X44000000Y-78000000D01*
X44000000Y-78000000D02*
X44000000Y-64000000D01*
X62000000Y-85250000D02*
X76000000Y-85250000D01*
X76000000Y-85250000D02*
X76000000Y-99250000D01*
X76000000Y-99250000D02*
X62000000Y-99250000D01*
X62000000Y-99250000D02*
X62000000Y-85250000D01*
D11*
X72000022Y-42499978D02*
X96000022Y-42499978D01*
D10*
X62000000Y-68250000D02*
X76000000Y-68250000D01*
X76000000Y-68250000D02*
X76000000Y-82250000D01*
X76000000Y-82250000D02*
X62000000Y-82250000D01*
X62000000Y-82250000D02*
X62000000Y-68250000D01*
D11*
X33000022Y-54989565D02*
G75*
G03*
X58500022Y-45999978I-4000472J52009435D01*
G01*
D10*
X139762651Y-128164626D02*
X136139184Y-141687588D01*
X122616223Y-138064122D01*
X126239689Y-124541160D01*
X139762651Y-128164626D01*
D11*
X72000022Y-42499980D02*
G75*
G03*
X58500022Y-45999978I-218922J-26941320D01*
G01*
X109500021Y-45999980D02*
G75*
G03*
X135000022Y-54999978I29544229J43083660D01*
G01*
X144000020Y-154499981D02*
G75*
G03*
X109500022Y-145499978I-34044220J-59877819D01*
G01*
X109500025Y-45999972D02*
G75*
G03*
X96000022Y-42499978I-13281125J-23441528D01*
G01*
X158000000Y-128000000D02*
X135000000Y-118000000D01*
D10*
X44000000Y-98000000D02*
X58000000Y-98000000D01*
X58000000Y-98000000D02*
X58000000Y-112000000D01*
X58000000Y-112000000D02*
X44000000Y-112000000D01*
X44000000Y-112000000D02*
X44000000Y-98000000D01*
X161034356Y-138699999D02*
X154034356Y-150824356D01*
X141910001Y-143824356D01*
X148910000Y-131700000D01*
X161034356Y-138699999D01*
D11*
X144000018Y-154499984D02*
G75*
G03*
X158000000Y-128000000I7578502J12944364D01*
G01*
D10*
X80000000Y-64000000D02*
X94000000Y-64000000D01*
X94000000Y-64000000D02*
X94000000Y-78000000D01*
X94000000Y-78000000D02*
X80000000Y-78000000D01*
X80000000Y-78000000D02*
X80000000Y-64000000D01*
D11*
X39000022Y-118499978D02*
X82500022Y-118499978D01*
D10*
X44000000Y-81000000D02*
X58000000Y-81000000D01*
X58000000Y-81000000D02*
X58000000Y-95000000D01*
X58000000Y-95000000D02*
X44000000Y-95000000D01*
X44000000Y-95000000D02*
X44000000Y-81000000D01*
X26000000Y-68250000D02*
X40000000Y-68250000D01*
X40000000Y-68250000D02*
X40000000Y-82250000D01*
X40000000Y-82250000D02*
X26000000Y-82250000D01*
X26000000Y-82250000D02*
X26000000Y-68250000D01*
X80000000Y-81000000D02*
X94000000Y-81000000D01*
X94000000Y-81000000D02*
X94000000Y-95000000D01*
X94000000Y-95000000D02*
X80000000Y-95000000D01*
X80000000Y-95000000D02*
X80000000Y-81000000D01*
X116000000Y-81000000D02*
X130000000Y-81000000D01*
X130000000Y-81000000D02*
X130000000Y-95000000D01*
X130000000Y-95000000D02*
X116000000Y-95000000D01*
X116000000Y-95000000D02*
X116000000Y-81000000D01*
D11*
X94500022Y-130499978D02*
G75*
G03*
X109500022Y-145499978I14999978J-22D01*
G01*
D10*
X116000000Y-64000000D02*
X130000000Y-64000000D01*
X130000000Y-64000000D02*
X130000000Y-78000000D01*
X130000000Y-78000000D02*
X116000000Y-78000000D01*
X116000000Y-78000000D02*
X116000000Y-64000000D01*
D11*
X135000022Y-54999978D02*
X135000000Y-118000000D01*
X21000022Y-100499978D02*
G75*
G03*
X39000022Y-118499978I17999998J-2D01*
G01*
D10*
X116000000Y-98000000D02*
X130000000Y-98000000D01*
X130000000Y-98000000D02*
X130000000Y-112000000D01*
X130000000Y-112000000D02*
X116000000Y-112000000D01*
X116000000Y-112000000D02*
X116000000Y-98000000D01*
X80000000Y-47000000D02*
X94000000Y-47000000D01*
X94000000Y-47000000D02*
X94000000Y-61000000D01*
X94000000Y-61000000D02*
X80000000Y-61000000D01*
X80000000Y-61000000D02*
X80000000Y-47000000D01*
X98000000Y-59750000D02*
X112000000Y-59750000D01*
X112000000Y-59750000D02*
X112000000Y-73750000D01*
X112000000Y-73750000D02*
X98000000Y-73750000D01*
X98000000Y-73750000D02*
X98000000Y-59750000D01*
X102500000Y-123500000D02*
X116500000Y-123500000D01*
X116500000Y-123500000D02*
X116500000Y-137500000D01*
X116500000Y-137500000D02*
X102500000Y-137500000D01*
X102500000Y-137500000D02*
X102500000Y-123500000D01*
D11*
X33000022Y-54989562D02*
G75*
G03*
X21000022Y-67499978I255208J-12255208D01*
G01*
X21000022Y-100499978D02*
X21000022Y-67499978D01*
D10*
X26000000Y-85250000D02*
X40000000Y-85250000D01*
X40000000Y-85250000D02*
X40000000Y-99250000D01*
X40000000Y-99250000D02*
X26000000Y-99250000D01*
X26000000Y-99250000D02*
X26000000Y-85250000D01*
X98000000Y-76750000D02*
X112000000Y-76750000D01*
X112000000Y-76750000D02*
X112000000Y-90750000D01*
X112000000Y-90750000D02*
X98000000Y-90750000D01*
X98000000Y-90750000D02*
X98000000Y-76750000D01*
D11*
X94500022Y-130499978D02*
G75*
G03*
X82500022Y-118499978I-12000022J-22D01*
G01*
D10*
X62000000Y-51250000D02*
X76000000Y-51250000D01*
X76000000Y-51250000D02*
X76000000Y-65250000D01*
X76000000Y-65250000D02*
X62000000Y-65250000D01*
X62000000Y-65250000D02*
X62000000Y-51250000D01*
M02*
