M48
; DRILL file {KiCad (6.0.5-0)} date Tuesday, 07 February 2023 at 22:36:52
; FORMAT={-:-/ absolute / metric / decimal}
; #@! TF.CreationDate,2023-02-07T22:36:52+01:00
; #@! TF.GenerationSoftware,Kicad,Pcbnew,(6.0.5-0)
; #@! TF.FileFunction,Plated,1,2,PTH
FMAT,2
METRIC
; #@! TA.AperFunction,Plated,PTH,ComponentDrill
T1C0.500
; #@! TA.AperFunction,Plated,PTH,ComponentDrill
T2C3.200
%
G90
G05
T1
X30.6Y-105.0
X31.303Y-103.303
X31.303Y-106.697
X33.0Y-102.6
X33.0Y-107.4
X34.697Y-103.303
X34.697Y-106.697
X35.4Y-105.0
X48.6Y-58.0
X49.303Y-56.303
X49.303Y-59.697
X51.0Y-55.6
X51.0Y-60.4
X52.697Y-56.303
X52.697Y-59.697
X53.4Y-58.0
X102.6Y-54.0
X103.303Y-52.303
X103.303Y-55.697
X105.0Y-51.6
X105.0Y-56.4
X105.1Y-115.5
X105.803Y-113.803
X105.803Y-117.197
X106.697Y-52.303
X106.697Y-55.697
X107.4Y-54.0
X107.5Y-113.1
X107.5Y-117.9
X109.197Y-113.803
X109.197Y-117.197
X109.9Y-115.5
T2
X33.0Y-105.0
X51.0Y-58.0
X105.0Y-54.0
X107.5Y-115.5
T0
M30
