%FSLAX45Y45*%
G04 Gerber Fmt 4.5, Leading zero omitted, Abs format (unit mm)*
G04 Created by KiCad (PCBNEW (6.0.5-0)) date 2023-02-07 22:36:53*
%MOMM*%
%LPD*%
G01*
G04 APERTURE LIST*
%TA.AperFunction,Profile*%
%ADD10C,0.050000*%
%TD*%
%TA.AperFunction,Profile*%
%ADD11C,0.100000*%
%TD*%
%ADD12C,0.200000*%
%ADD13C,0.050000*%
%ADD14C,0.320000*%
G04 APERTURE END LIST*
D10*
X9800000Y-9375000D02*
X11200000Y-9375000D01*
X11200000Y-9375000D02*
X11200000Y-10775000D01*
X11200000Y-10775000D02*
X9800000Y-10775000D01*
X9800000Y-10775000D02*
X9800000Y-9375000D01*
X4400000Y-6400000D02*
X5800000Y-6400000D01*
X5800000Y-6400000D02*
X5800000Y-7800000D01*
X5800000Y-7800000D02*
X4400000Y-7800000D01*
X4400000Y-7800000D02*
X4400000Y-6400000D01*
X6200000Y-8525000D02*
X7600000Y-8525000D01*
X7600000Y-8525000D02*
X7600000Y-9925000D01*
X7600000Y-9925000D02*
X6200000Y-9925000D01*
X6200000Y-9925000D02*
X6200000Y-8525000D01*
D11*
X7200002Y-4249998D02*
X9600002Y-4249998D01*
D10*
X6200000Y-6825000D02*
X7600000Y-6825000D01*
X7600000Y-6825000D02*
X7600000Y-8225000D01*
X7600000Y-8225000D02*
X6200000Y-8225000D01*
X6200000Y-8225000D02*
X6200000Y-6825000D01*
D11*
X3300002Y-5498957D02*
G75*
G03*
X5850002Y-4599998I-400047J5200944D01*
G01*
D10*
X13976265Y-12816463D02*
X13613918Y-14168759D01*
X12261622Y-13806412D01*
X12623969Y-12454116D01*
X13976265Y-12816463D01*
D11*
X7200002Y-4249998D02*
G75*
G03*
X5850002Y-4599998I-21892J-2694132D01*
G01*
X10950002Y-4599998D02*
G75*
G03*
X13500002Y-5499998I2954423J4308366D01*
G01*
X14400002Y-15449998D02*
G75*
G03*
X10950002Y-14549998I-3404422J-5987782D01*
G01*
X10950003Y-4599997D02*
G75*
G03*
X9600002Y-4249998I-1328113J-2344153D01*
G01*
X15800000Y-12800000D02*
X13500000Y-11800000D01*
D10*
X4400000Y-9800000D02*
X5800000Y-9800000D01*
X5800000Y-9800000D02*
X5800000Y-11200000D01*
X5800000Y-11200000D02*
X4400000Y-11200000D01*
X4400000Y-11200000D02*
X4400000Y-9800000D01*
X16103436Y-13870000D02*
X15403436Y-15082436D01*
X14191000Y-14382436D01*
X14891000Y-13170000D01*
X16103436Y-13870000D01*
D11*
X14400002Y-15449998D02*
G75*
G03*
X15800000Y-12800000I757850J1294436D01*
G01*
D10*
X8000000Y-6400000D02*
X9400000Y-6400000D01*
X9400000Y-6400000D02*
X9400000Y-7800000D01*
X9400000Y-7800000D02*
X8000000Y-7800000D01*
X8000000Y-7800000D02*
X8000000Y-6400000D01*
D11*
X3900002Y-11849998D02*
X8250002Y-11849998D01*
D10*
X4400000Y-8100000D02*
X5800000Y-8100000D01*
X5800000Y-8100000D02*
X5800000Y-9500000D01*
X5800000Y-9500000D02*
X4400000Y-9500000D01*
X4400000Y-9500000D02*
X4400000Y-8100000D01*
X2600000Y-6825000D02*
X4000000Y-6825000D01*
X4000000Y-6825000D02*
X4000000Y-8225000D01*
X4000000Y-8225000D02*
X2600000Y-8225000D01*
X2600000Y-8225000D02*
X2600000Y-6825000D01*
X8000000Y-8100000D02*
X9400000Y-8100000D01*
X9400000Y-8100000D02*
X9400000Y-9500000D01*
X9400000Y-9500000D02*
X8000000Y-9500000D01*
X8000000Y-9500000D02*
X8000000Y-8100000D01*
X11600000Y-8100000D02*
X13000000Y-8100000D01*
X13000000Y-8100000D02*
X13000000Y-9500000D01*
X13000000Y-9500000D02*
X11600000Y-9500000D01*
X11600000Y-9500000D02*
X11600000Y-8100000D01*
D11*
X9450002Y-13049998D02*
G75*
G03*
X10950002Y-14549998I1499998J-2D01*
G01*
D10*
X11600000Y-6400000D02*
X13000000Y-6400000D01*
X13000000Y-6400000D02*
X13000000Y-7800000D01*
X13000000Y-7800000D02*
X11600000Y-7800000D01*
X11600000Y-7800000D02*
X11600000Y-6400000D01*
D11*
X13500002Y-5499998D02*
X13500000Y-11800000D01*
X2100002Y-10049998D02*
G75*
G03*
X3900002Y-11849998I1800000J0D01*
G01*
D10*
X11600000Y-9800000D02*
X13000000Y-9800000D01*
X13000000Y-9800000D02*
X13000000Y-11200000D01*
X13000000Y-11200000D02*
X11600000Y-11200000D01*
X11600000Y-11200000D02*
X11600000Y-9800000D01*
X8000000Y-4700000D02*
X9400000Y-4700000D01*
X9400000Y-4700000D02*
X9400000Y-6100000D01*
X9400000Y-6100000D02*
X8000000Y-6100000D01*
X8000000Y-6100000D02*
X8000000Y-4700000D01*
X9800000Y-5975000D02*
X11200000Y-5975000D01*
X11200000Y-5975000D02*
X11200000Y-7375000D01*
X11200000Y-7375000D02*
X9800000Y-7375000D01*
X9800000Y-7375000D02*
X9800000Y-5975000D01*
X10250000Y-12350000D02*
X11650000Y-12350000D01*
X11650000Y-12350000D02*
X11650000Y-13750000D01*
X11650000Y-13750000D02*
X10250000Y-13750000D01*
X10250000Y-13750000D02*
X10250000Y-12350000D01*
D11*
X3300002Y-5498956D02*
G75*
G03*
X2100002Y-6749998I25521J-1225521D01*
G01*
X2100002Y-10049998D02*
X2100002Y-6749998D01*
D10*
X2600000Y-8525000D02*
X4000000Y-8525000D01*
X4000000Y-8525000D02*
X4000000Y-9925000D01*
X4000000Y-9925000D02*
X2600000Y-9925000D01*
X2600000Y-9925000D02*
X2600000Y-8525000D01*
X9800000Y-7675000D02*
X11200000Y-7675000D01*
X11200000Y-7675000D02*
X11200000Y-9075000D01*
X11200000Y-9075000D02*
X9800000Y-9075000D01*
X9800000Y-9075000D02*
X9800000Y-7675000D01*
D11*
X9450002Y-13049998D02*
G75*
G03*
X8250002Y-11849998I-1200002J-2D01*
G01*
D10*
X6200000Y-5125000D02*
X7600000Y-5125000D01*
X7600000Y-5125000D02*
X7600000Y-6525000D01*
X7600000Y-6525000D02*
X6200000Y-6525000D01*
X6200000Y-6525000D02*
X6200000Y-5125000D01*
D12*
D13*
X3035000Y-10475000D02*
X3085000Y-10525000D01*
X3085000Y-10475000D02*
X3035000Y-10525000D01*
X3105294Y-10305294D02*
X3155294Y-10355294D01*
X3155294Y-10305294D02*
X3105294Y-10355294D01*
X3105294Y-10644706D02*
X3155294Y-10694706D01*
X3155294Y-10644706D02*
X3105294Y-10694706D01*
X3275000Y-10235000D02*
X3325000Y-10285000D01*
X3325000Y-10235000D02*
X3275000Y-10285000D01*
X3275000Y-10715000D02*
X3325000Y-10765000D01*
X3325000Y-10715000D02*
X3275000Y-10765000D01*
X3444706Y-10305294D02*
X3494706Y-10355294D01*
X3494706Y-10305294D02*
X3444706Y-10355294D01*
X3444706Y-10644706D02*
X3494706Y-10694706D01*
X3494706Y-10644706D02*
X3444706Y-10694706D01*
X3515000Y-10475000D02*
X3565000Y-10525000D01*
X3565000Y-10475000D02*
X3515000Y-10525000D01*
X4835000Y-5775000D02*
X4885000Y-5825000D01*
X4885000Y-5775000D02*
X4835000Y-5825000D01*
X4905294Y-5605294D02*
X4955294Y-5655294D01*
X4955294Y-5605294D02*
X4905294Y-5655294D01*
X4905294Y-5944706D02*
X4955294Y-5994706D01*
X4955294Y-5944706D02*
X4905294Y-5994706D01*
X5075000Y-5535000D02*
X5125000Y-5585000D01*
X5125000Y-5535000D02*
X5075000Y-5585000D01*
X5075000Y-6015000D02*
X5125000Y-6065000D01*
X5125000Y-6015000D02*
X5075000Y-6065000D01*
X5244706Y-5605294D02*
X5294706Y-5655294D01*
X5294706Y-5605294D02*
X5244706Y-5655294D01*
X5244706Y-5944706D02*
X5294706Y-5994706D01*
X5294706Y-5944706D02*
X5244706Y-5994706D01*
X5315000Y-5775000D02*
X5365000Y-5825000D01*
X5365000Y-5775000D02*
X5315000Y-5825000D01*
X10235000Y-5375000D02*
X10285000Y-5425000D01*
X10285000Y-5375000D02*
X10235000Y-5425000D01*
X10305294Y-5205294D02*
X10355294Y-5255294D01*
X10355294Y-5205294D02*
X10305294Y-5255294D01*
X10305294Y-5544706D02*
X10355294Y-5594706D01*
X10355294Y-5544706D02*
X10305294Y-5594706D01*
X10475000Y-5135000D02*
X10525000Y-5185000D01*
X10525000Y-5135000D02*
X10475000Y-5185000D01*
X10475000Y-5615000D02*
X10525000Y-5665000D01*
X10525000Y-5615000D02*
X10475000Y-5665000D01*
X10485000Y-11525000D02*
X10535000Y-11575000D01*
X10535000Y-11525000D02*
X10485000Y-11575000D01*
X10555294Y-11355294D02*
X10605294Y-11405294D01*
X10605294Y-11355294D02*
X10555294Y-11405294D01*
X10555294Y-11694706D02*
X10605294Y-11744706D01*
X10605294Y-11694706D02*
X10555294Y-11744706D01*
X10644706Y-5205294D02*
X10694706Y-5255294D01*
X10694706Y-5205294D02*
X10644706Y-5255294D01*
X10644706Y-5544706D02*
X10694706Y-5594706D01*
X10694706Y-5544706D02*
X10644706Y-5594706D01*
X10715000Y-5375000D02*
X10765000Y-5425000D01*
X10765000Y-5375000D02*
X10715000Y-5425000D01*
X10725000Y-11285000D02*
X10775000Y-11335000D01*
X10775000Y-11285000D02*
X10725000Y-11335000D01*
X10725000Y-11765000D02*
X10775000Y-11815000D01*
X10775000Y-11765000D02*
X10725000Y-11815000D01*
X10894706Y-11355294D02*
X10944706Y-11405294D01*
X10944706Y-11355294D02*
X10894706Y-11405294D01*
X10894706Y-11694706D02*
X10944706Y-11744706D01*
X10944706Y-11694706D02*
X10894706Y-11744706D01*
X10965000Y-11525000D02*
X11015000Y-11575000D01*
X11015000Y-11525000D02*
X10965000Y-11575000D01*
D14*
X3460000Y-10500000D02*
G75*
G03*
X3460000Y-10500000I-160000J0D01*
G01*
X5260000Y-5800000D02*
G75*
G03*
X5260000Y-5800000I-160000J0D01*
G01*
X10660000Y-5400000D02*
G75*
G03*
X10660000Y-5400000I-160000J0D01*
G01*
X10910000Y-11550000D02*
G75*
G03*
X10910000Y-11550000I-160000J0D01*
G01*
D12*
X2352356Y-15971006D02*
X2352356Y-15771006D01*
X2399975Y-15771006D01*
X2428546Y-15780529D01*
X2447594Y-15799577D01*
X2457117Y-15818625D01*
X2466641Y-15856720D01*
X2466641Y-15885291D01*
X2457117Y-15923387D01*
X2447594Y-15942434D01*
X2428546Y-15961482D01*
X2399975Y-15971006D01*
X2352356Y-15971006D01*
X2552356Y-15971006D02*
X2552356Y-15837672D01*
X2552356Y-15875767D02*
X2561879Y-15856720D01*
X2571403Y-15847196D01*
X2590451Y-15837672D01*
X2609498Y-15837672D01*
X2676165Y-15971006D02*
X2676165Y-15837672D01*
X2676165Y-15771006D02*
X2666641Y-15780529D01*
X2676165Y-15790053D01*
X2685689Y-15780529D01*
X2676165Y-15771006D01*
X2676165Y-15790053D01*
X2799974Y-15971006D02*
X2780927Y-15961482D01*
X2771403Y-15942434D01*
X2771403Y-15771006D01*
X2904736Y-15971006D02*
X2885689Y-15961482D01*
X2876165Y-15942434D01*
X2876165Y-15771006D01*
X3133308Y-15971006D02*
X3133308Y-15771006D01*
X3199974Y-15913863D01*
X3266641Y-15771006D01*
X3266641Y-15971006D01*
X3447594Y-15971006D02*
X3447594Y-15866244D01*
X3438070Y-15847196D01*
X3419022Y-15837672D01*
X3380927Y-15837672D01*
X3361879Y-15847196D01*
X3447594Y-15961482D02*
X3428546Y-15971006D01*
X3380927Y-15971006D01*
X3361879Y-15961482D01*
X3352355Y-15942434D01*
X3352355Y-15923387D01*
X3361879Y-15904339D01*
X3380927Y-15894815D01*
X3428546Y-15894815D01*
X3447594Y-15885291D01*
X3542832Y-15837672D02*
X3542832Y-16037672D01*
X3542832Y-15847196D02*
X3561879Y-15837672D01*
X3599974Y-15837672D01*
X3619022Y-15847196D01*
X3628546Y-15856720D01*
X3638070Y-15875767D01*
X3638070Y-15932910D01*
X3628546Y-15951958D01*
X3619022Y-15961482D01*
X3599974Y-15971006D01*
X3561879Y-15971006D01*
X3542832Y-15961482D01*
X3723784Y-15951958D02*
X3733308Y-15961482D01*
X3723784Y-15971006D01*
X3714260Y-15961482D01*
X3723784Y-15951958D01*
X3723784Y-15971006D01*
X3723784Y-15847196D02*
X3733308Y-15856720D01*
X3723784Y-15866244D01*
X3714260Y-15856720D01*
X3723784Y-15847196D01*
X3723784Y-15866244D01*
D13*
X2044736Y-16275529D02*
X2094736Y-16325529D01*
X2094736Y-16275529D02*
X2044736Y-16325529D01*
D12*
X2390451Y-16191006D02*
X2409498Y-16191006D01*
X2428546Y-16200529D01*
X2438070Y-16210053D01*
X2447594Y-16229101D01*
X2457117Y-16267196D01*
X2457117Y-16314815D01*
X2447594Y-16352910D01*
X2438070Y-16371958D01*
X2428546Y-16381482D01*
X2409498Y-16391006D01*
X2390451Y-16391006D01*
X2371403Y-16381482D01*
X2361879Y-16371958D01*
X2352356Y-16352910D01*
X2342832Y-16314815D01*
X2342832Y-16267196D01*
X2352356Y-16229101D01*
X2361879Y-16210053D01*
X2371403Y-16200529D01*
X2390451Y-16191006D01*
X2542832Y-16371958D02*
X2552356Y-16381482D01*
X2542832Y-16391006D01*
X2533308Y-16381482D01*
X2542832Y-16371958D01*
X2542832Y-16391006D01*
X2733308Y-16191006D02*
X2638070Y-16191006D01*
X2628546Y-16286244D01*
X2638070Y-16276720D01*
X2657117Y-16267196D01*
X2704737Y-16267196D01*
X2723784Y-16276720D01*
X2733308Y-16286244D01*
X2742832Y-16305291D01*
X2742832Y-16352910D01*
X2733308Y-16371958D01*
X2723784Y-16381482D01*
X2704737Y-16391006D01*
X2657117Y-16391006D01*
X2638070Y-16381482D01*
X2628546Y-16371958D01*
X2866641Y-16191006D02*
X2885689Y-16191006D01*
X2904736Y-16200529D01*
X2914260Y-16210053D01*
X2923784Y-16229101D01*
X2933308Y-16267196D01*
X2933308Y-16314815D01*
X2923784Y-16352910D01*
X2914260Y-16371958D01*
X2904736Y-16381482D01*
X2885689Y-16391006D01*
X2866641Y-16391006D01*
X2847594Y-16381482D01*
X2838070Y-16371958D01*
X2828546Y-16352910D01*
X2819022Y-16314815D01*
X2819022Y-16267196D01*
X2828546Y-16229101D01*
X2838070Y-16210053D01*
X2847594Y-16200529D01*
X2866641Y-16191006D01*
X3057117Y-16191006D02*
X3076165Y-16191006D01*
X3095213Y-16200529D01*
X3104736Y-16210053D01*
X3114260Y-16229101D01*
X3123784Y-16267196D01*
X3123784Y-16314815D01*
X3114260Y-16352910D01*
X3104736Y-16371958D01*
X3095213Y-16381482D01*
X3076165Y-16391006D01*
X3057117Y-16391006D01*
X3038070Y-16381482D01*
X3028546Y-16371958D01*
X3019022Y-16352910D01*
X3009498Y-16314815D01*
X3009498Y-16267196D01*
X3019022Y-16229101D01*
X3028546Y-16210053D01*
X3038070Y-16200529D01*
X3057117Y-16191006D01*
X3209498Y-16391006D02*
X3209498Y-16257672D01*
X3209498Y-16276720D02*
X3219022Y-16267196D01*
X3238070Y-16257672D01*
X3266641Y-16257672D01*
X3285689Y-16267196D01*
X3295213Y-16286244D01*
X3295213Y-16391006D01*
X3295213Y-16286244D02*
X3304736Y-16267196D01*
X3323784Y-16257672D01*
X3352355Y-16257672D01*
X3371403Y-16267196D01*
X3380927Y-16286244D01*
X3380927Y-16391006D01*
X3476165Y-16391006D02*
X3476165Y-16257672D01*
X3476165Y-16276720D02*
X3485689Y-16267196D01*
X3504736Y-16257672D01*
X3533308Y-16257672D01*
X3552355Y-16267196D01*
X3561879Y-16286244D01*
X3561879Y-16391006D01*
X3561879Y-16286244D02*
X3571403Y-16267196D01*
X3590451Y-16257672D01*
X3619022Y-16257672D01*
X3638070Y-16267196D01*
X3647594Y-16286244D01*
X3647594Y-16391006D01*
X4038070Y-16181482D02*
X3866641Y-16438625D01*
X4295213Y-16191006D02*
X4314260Y-16191006D01*
X4333308Y-16200529D01*
X4342832Y-16210053D01*
X4352356Y-16229101D01*
X4361879Y-16267196D01*
X4361879Y-16314815D01*
X4352356Y-16352910D01*
X4342832Y-16371958D01*
X4333308Y-16381482D01*
X4314260Y-16391006D01*
X4295213Y-16391006D01*
X4276165Y-16381482D01*
X4266641Y-16371958D01*
X4257117Y-16352910D01*
X4247594Y-16314815D01*
X4247594Y-16267196D01*
X4257117Y-16229101D01*
X4266641Y-16210053D01*
X4276165Y-16200529D01*
X4295213Y-16191006D01*
X4447594Y-16371958D02*
X4457117Y-16381482D01*
X4447594Y-16391006D01*
X4438070Y-16381482D01*
X4447594Y-16371958D01*
X4447594Y-16391006D01*
X4580927Y-16191006D02*
X4599975Y-16191006D01*
X4619022Y-16200529D01*
X4628546Y-16210053D01*
X4638070Y-16229101D01*
X4647594Y-16267196D01*
X4647594Y-16314815D01*
X4638070Y-16352910D01*
X4628546Y-16371958D01*
X4619022Y-16381482D01*
X4599975Y-16391006D01*
X4580927Y-16391006D01*
X4561879Y-16381482D01*
X4552356Y-16371958D01*
X4542832Y-16352910D01*
X4533308Y-16314815D01*
X4533308Y-16267196D01*
X4542832Y-16229101D01*
X4552356Y-16210053D01*
X4561879Y-16200529D01*
X4580927Y-16191006D01*
X4838070Y-16391006D02*
X4723784Y-16391006D01*
X4780927Y-16391006D02*
X4780927Y-16191006D01*
X4761879Y-16219577D01*
X4742832Y-16238625D01*
X4723784Y-16248148D01*
X4933308Y-16391006D02*
X4971403Y-16391006D01*
X4990451Y-16381482D01*
X4999975Y-16371958D01*
X5019022Y-16343387D01*
X5028546Y-16305291D01*
X5028546Y-16229101D01*
X5019022Y-16210053D01*
X5009498Y-16200529D01*
X4990451Y-16191006D01*
X4952356Y-16191006D01*
X4933308Y-16200529D01*
X4923784Y-16210053D01*
X4914260Y-16229101D01*
X4914260Y-16276720D01*
X4923784Y-16295767D01*
X4933308Y-16305291D01*
X4952356Y-16314815D01*
X4990451Y-16314815D01*
X5009498Y-16305291D01*
X5019022Y-16295767D01*
X5028546Y-16276720D01*
X5095213Y-16191006D02*
X5228546Y-16191006D01*
X5142832Y-16391006D01*
X5295213Y-16191006D02*
X5295213Y-16229101D01*
X5371403Y-16191006D02*
X5371403Y-16229101D01*
X5666641Y-16467196D02*
X5657117Y-16457672D01*
X5638070Y-16429101D01*
X5628546Y-16410053D01*
X5619022Y-16381482D01*
X5609498Y-16333863D01*
X5609498Y-16295767D01*
X5619022Y-16248148D01*
X5628546Y-16219577D01*
X5638070Y-16200529D01*
X5657117Y-16171958D01*
X5666641Y-16162434D01*
X5723784Y-16191006D02*
X5847594Y-16191006D01*
X5780927Y-16267196D01*
X5809498Y-16267196D01*
X5828546Y-16276720D01*
X5838070Y-16286244D01*
X5847594Y-16305291D01*
X5847594Y-16352910D01*
X5838070Y-16371958D01*
X5828546Y-16381482D01*
X5809498Y-16391006D01*
X5752355Y-16391006D01*
X5733308Y-16381482D01*
X5723784Y-16371958D01*
X5923784Y-16210053D02*
X5933308Y-16200529D01*
X5952355Y-16191006D01*
X5999974Y-16191006D01*
X6019022Y-16200529D01*
X6028546Y-16210053D01*
X6038070Y-16229101D01*
X6038070Y-16248148D01*
X6028546Y-16276720D01*
X5914260Y-16391006D01*
X6038070Y-16391006D01*
X6276165Y-16391006D02*
X6276165Y-16191006D01*
X6361879Y-16391006D02*
X6361879Y-16286244D01*
X6352355Y-16267196D01*
X6333308Y-16257672D01*
X6304736Y-16257672D01*
X6285689Y-16267196D01*
X6276165Y-16276720D01*
X6485689Y-16391006D02*
X6466641Y-16381482D01*
X6457117Y-16371958D01*
X6447594Y-16352910D01*
X6447594Y-16295767D01*
X6457117Y-16276720D01*
X6466641Y-16267196D01*
X6485689Y-16257672D01*
X6514260Y-16257672D01*
X6533308Y-16267196D01*
X6542832Y-16276720D01*
X6552355Y-16295767D01*
X6552355Y-16352910D01*
X6542832Y-16371958D01*
X6533308Y-16381482D01*
X6514260Y-16391006D01*
X6485689Y-16391006D01*
X6666641Y-16391006D02*
X6647594Y-16381482D01*
X6638070Y-16362434D01*
X6638070Y-16191006D01*
X6819022Y-16381482D02*
X6799974Y-16391006D01*
X6761879Y-16391006D01*
X6742832Y-16381482D01*
X6733308Y-16362434D01*
X6733308Y-16286244D01*
X6742832Y-16267196D01*
X6761879Y-16257672D01*
X6799974Y-16257672D01*
X6819022Y-16267196D01*
X6828546Y-16286244D01*
X6828546Y-16305291D01*
X6733308Y-16324339D01*
X6904736Y-16381482D02*
X6923784Y-16391006D01*
X6961879Y-16391006D01*
X6980927Y-16381482D01*
X6990451Y-16362434D01*
X6990451Y-16352910D01*
X6980927Y-16333863D01*
X6961879Y-16324339D01*
X6933308Y-16324339D01*
X6914260Y-16314815D01*
X6904736Y-16295767D01*
X6904736Y-16286244D01*
X6914260Y-16267196D01*
X6933308Y-16257672D01*
X6961879Y-16257672D01*
X6980927Y-16267196D01*
X7057117Y-16467196D02*
X7066641Y-16457672D01*
X7085689Y-16429101D01*
X7095213Y-16410053D01*
X7104736Y-16381482D01*
X7114260Y-16333863D01*
X7114260Y-16295767D01*
X7104736Y-16248148D01*
X7095213Y-16219577D01*
X7085689Y-16200529D01*
X7066641Y-16171958D01*
X7057117Y-16162434D01*
X2094736Y-16564529D02*
G75*
G03*
X2094736Y-16564529I-100000J0D01*
G01*
X2333308Y-16455006D02*
X2457117Y-16455006D01*
X2390451Y-16531196D01*
X2419022Y-16531196D01*
X2438070Y-16540720D01*
X2447594Y-16550244D01*
X2457117Y-16569291D01*
X2457117Y-16616910D01*
X2447594Y-16635958D01*
X2438070Y-16645482D01*
X2419022Y-16655006D01*
X2361879Y-16655006D01*
X2342832Y-16645482D01*
X2333308Y-16635958D01*
X2542832Y-16635958D02*
X2552356Y-16645482D01*
X2542832Y-16655006D01*
X2533308Y-16645482D01*
X2542832Y-16635958D01*
X2542832Y-16655006D01*
X2628546Y-16474053D02*
X2638070Y-16464529D01*
X2657117Y-16455006D01*
X2704737Y-16455006D01*
X2723784Y-16464529D01*
X2733308Y-16474053D01*
X2742832Y-16493101D01*
X2742832Y-16512148D01*
X2733308Y-16540720D01*
X2619022Y-16655006D01*
X2742832Y-16655006D01*
X2866641Y-16455006D02*
X2885689Y-16455006D01*
X2904736Y-16464529D01*
X2914260Y-16474053D01*
X2923784Y-16493101D01*
X2933308Y-16531196D01*
X2933308Y-16578815D01*
X2923784Y-16616910D01*
X2914260Y-16635958D01*
X2904736Y-16645482D01*
X2885689Y-16655006D01*
X2866641Y-16655006D01*
X2847594Y-16645482D01*
X2838070Y-16635958D01*
X2828546Y-16616910D01*
X2819022Y-16578815D01*
X2819022Y-16531196D01*
X2828546Y-16493101D01*
X2838070Y-16474053D01*
X2847594Y-16464529D01*
X2866641Y-16455006D01*
X3057117Y-16455006D02*
X3076165Y-16455006D01*
X3095213Y-16464529D01*
X3104736Y-16474053D01*
X3114260Y-16493101D01*
X3123784Y-16531196D01*
X3123784Y-16578815D01*
X3114260Y-16616910D01*
X3104736Y-16635958D01*
X3095213Y-16645482D01*
X3076165Y-16655006D01*
X3057117Y-16655006D01*
X3038070Y-16645482D01*
X3028546Y-16635958D01*
X3019022Y-16616910D01*
X3009498Y-16578815D01*
X3009498Y-16531196D01*
X3019022Y-16493101D01*
X3028546Y-16474053D01*
X3038070Y-16464529D01*
X3057117Y-16455006D01*
X3209498Y-16655006D02*
X3209498Y-16521672D01*
X3209498Y-16540720D02*
X3219022Y-16531196D01*
X3238070Y-16521672D01*
X3266641Y-16521672D01*
X3285689Y-16531196D01*
X3295213Y-16550244D01*
X3295213Y-16655006D01*
X3295213Y-16550244D02*
X3304736Y-16531196D01*
X3323784Y-16521672D01*
X3352355Y-16521672D01*
X3371403Y-16531196D01*
X3380927Y-16550244D01*
X3380927Y-16655006D01*
X3476165Y-16655006D02*
X3476165Y-16521672D01*
X3476165Y-16540720D02*
X3485689Y-16531196D01*
X3504736Y-16521672D01*
X3533308Y-16521672D01*
X3552355Y-16531196D01*
X3561879Y-16550244D01*
X3561879Y-16655006D01*
X3561879Y-16550244D02*
X3571403Y-16531196D01*
X3590451Y-16521672D01*
X3619022Y-16521672D01*
X3638070Y-16531196D01*
X3647594Y-16550244D01*
X3647594Y-16655006D01*
X4038070Y-16445482D02*
X3866641Y-16702625D01*
X4295213Y-16455006D02*
X4314260Y-16455006D01*
X4333308Y-16464529D01*
X4342832Y-16474053D01*
X4352356Y-16493101D01*
X4361879Y-16531196D01*
X4361879Y-16578815D01*
X4352356Y-16616910D01*
X4342832Y-16635958D01*
X4333308Y-16645482D01*
X4314260Y-16655006D01*
X4295213Y-16655006D01*
X4276165Y-16645482D01*
X4266641Y-16635958D01*
X4257117Y-16616910D01*
X4247594Y-16578815D01*
X4247594Y-16531196D01*
X4257117Y-16493101D01*
X4266641Y-16474053D01*
X4276165Y-16464529D01*
X4295213Y-16455006D01*
X4447594Y-16635958D02*
X4457117Y-16645482D01*
X4447594Y-16655006D01*
X4438070Y-16645482D01*
X4447594Y-16635958D01*
X4447594Y-16655006D01*
X4647594Y-16655006D02*
X4533308Y-16655006D01*
X4590451Y-16655006D02*
X4590451Y-16455006D01*
X4571403Y-16483577D01*
X4552356Y-16502625D01*
X4533308Y-16512148D01*
X4723784Y-16474053D02*
X4733308Y-16464529D01*
X4752356Y-16455006D01*
X4799975Y-16455006D01*
X4819022Y-16464529D01*
X4828546Y-16474053D01*
X4838070Y-16493101D01*
X4838070Y-16512148D01*
X4828546Y-16540720D01*
X4714260Y-16655006D01*
X4838070Y-16655006D01*
X5009498Y-16455006D02*
X4971403Y-16455006D01*
X4952356Y-16464529D01*
X4942832Y-16474053D01*
X4923784Y-16502625D01*
X4914260Y-16540720D01*
X4914260Y-16616910D01*
X4923784Y-16635958D01*
X4933308Y-16645482D01*
X4952356Y-16655006D01*
X4990451Y-16655006D01*
X5009498Y-16645482D01*
X5019022Y-16635958D01*
X5028546Y-16616910D01*
X5028546Y-16569291D01*
X5019022Y-16550244D01*
X5009498Y-16540720D01*
X4990451Y-16531196D01*
X4952356Y-16531196D01*
X4933308Y-16540720D01*
X4923784Y-16550244D01*
X4914260Y-16569291D01*
X5152356Y-16455006D02*
X5171403Y-16455006D01*
X5190451Y-16464529D01*
X5199975Y-16474053D01*
X5209498Y-16493101D01*
X5219022Y-16531196D01*
X5219022Y-16578815D01*
X5209498Y-16616910D01*
X5199975Y-16635958D01*
X5190451Y-16645482D01*
X5171403Y-16655006D01*
X5152356Y-16655006D01*
X5133308Y-16645482D01*
X5123784Y-16635958D01*
X5114260Y-16616910D01*
X5104736Y-16578815D01*
X5104736Y-16531196D01*
X5114260Y-16493101D01*
X5123784Y-16474053D01*
X5133308Y-16464529D01*
X5152356Y-16455006D01*
X5295213Y-16455006D02*
X5295213Y-16493101D01*
X5371403Y-16455006D02*
X5371403Y-16493101D01*
X5666641Y-16731196D02*
X5657117Y-16721672D01*
X5638070Y-16693101D01*
X5628546Y-16674053D01*
X5619022Y-16645482D01*
X5609498Y-16597863D01*
X5609498Y-16559767D01*
X5619022Y-16512148D01*
X5628546Y-16483577D01*
X5638070Y-16464529D01*
X5657117Y-16435958D01*
X5666641Y-16426434D01*
X5828546Y-16521672D02*
X5828546Y-16655006D01*
X5780927Y-16445482D02*
X5733308Y-16588339D01*
X5857117Y-16588339D01*
X6085689Y-16655006D02*
X6085689Y-16455006D01*
X6171403Y-16655006D02*
X6171403Y-16550244D01*
X6161879Y-16531196D01*
X6142832Y-16521672D01*
X6114260Y-16521672D01*
X6095213Y-16531196D01*
X6085689Y-16540720D01*
X6295213Y-16655006D02*
X6276165Y-16645482D01*
X6266641Y-16635958D01*
X6257117Y-16616910D01*
X6257117Y-16559767D01*
X6266641Y-16540720D01*
X6276165Y-16531196D01*
X6295213Y-16521672D01*
X6323784Y-16521672D01*
X6342832Y-16531196D01*
X6352355Y-16540720D01*
X6361879Y-16559767D01*
X6361879Y-16616910D01*
X6352355Y-16635958D01*
X6342832Y-16645482D01*
X6323784Y-16655006D01*
X6295213Y-16655006D01*
X6476165Y-16655006D02*
X6457117Y-16645482D01*
X6447594Y-16626434D01*
X6447594Y-16455006D01*
X6628546Y-16645482D02*
X6609498Y-16655006D01*
X6571403Y-16655006D01*
X6552355Y-16645482D01*
X6542832Y-16626434D01*
X6542832Y-16550244D01*
X6552355Y-16531196D01*
X6571403Y-16521672D01*
X6609498Y-16521672D01*
X6628546Y-16531196D01*
X6638070Y-16550244D01*
X6638070Y-16569291D01*
X6542832Y-16588339D01*
X6714260Y-16645482D02*
X6733308Y-16655006D01*
X6771403Y-16655006D01*
X6790451Y-16645482D01*
X6799974Y-16626434D01*
X6799974Y-16616910D01*
X6790451Y-16597863D01*
X6771403Y-16588339D01*
X6742832Y-16588339D01*
X6723784Y-16578815D01*
X6714260Y-16559767D01*
X6714260Y-16550244D01*
X6723784Y-16531196D01*
X6742832Y-16521672D01*
X6771403Y-16521672D01*
X6790451Y-16531196D01*
X6866641Y-16731196D02*
X6876165Y-16721672D01*
X6895213Y-16693101D01*
X6904736Y-16674053D01*
X6914260Y-16645482D01*
X6923784Y-16597863D01*
X6923784Y-16559767D01*
X6914260Y-16512148D01*
X6904736Y-16483577D01*
X6895213Y-16464529D01*
X6876165Y-16435958D01*
X6866641Y-16426434D01*
M02*
