G04 #@! TF.GenerationSoftware,KiCad,Pcbnew,(6.0.5-0)*
G04 #@! TF.CreationDate,2023-02-07T22:55:57+01:00*
G04 #@! TF.ProjectId,awokb,61776f6b-622e-46b6-9963-61645f706362,rev?*
G04 #@! TF.SameCoordinates,Original*
G04 #@! TF.FileFunction,Legend,Top*
G04 #@! TF.FilePolarity,Positive*
%FSLAX46Y46*%
G04 Gerber Fmt 4.6, Leading zero omitted, Abs format (unit mm)*
G04 Created by KiCad (PCBNEW (6.0.5-0)) date 2023-02-07 22:55:57*
%MOMM*%
%LPD*%
G01*
G04 APERTURE LIST*
G04 Aperture macros list*
%AMRoundRect*
0 Rectangle with rounded corners*
0 $1 Rounding radius*
0 $2 $3 $4 $5 $6 $7 $8 $9 X,Y pos of 4 corners*
0 Add a 4 corners polygon primitive as box body*
4,1,4,$2,$3,$4,$5,$6,$7,$8,$9,$2,$3,0*
0 Add four circle primitives for the rounded corners*
1,1,$1+$1,$2,$3*
1,1,$1+$1,$4,$5*
1,1,$1+$1,$6,$7*
1,1,$1+$1,$8,$9*
0 Add four rect primitives between the rounded corners*
20,1,$1+$1,$2,$3,$4,$5,0*
20,1,$1+$1,$4,$5,$6,$7,0*
20,1,$1+$1,$6,$7,$8,$9,0*
20,1,$1+$1,$8,$9,$2,$3,0*%
%AMRotRect*
0 Rectangle, with rotation*
0 The origin of the aperture is its center*
0 $1 length*
0 $2 width*
0 $3 Rotation angle, in degrees counterclockwise*
0 Add horizontal line*
21,1,$1,$2,0,0,$3*%
%AMOutline5P*
0 Free polygon, 5 corners , with rotation*
0 The origin of the aperture is its center*
0 number of corners: always 5*
0 $1 to $10 corner X, Y*
0 $11 Rotation angle, in degrees counterclockwise*
0 create outline with 5 corners*
4,1,5,$1,$2,$3,$4,$5,$6,$7,$8,$9,$10,$1,$2,$11*%
%AMOutline6P*
0 Free polygon, 6 corners , with rotation*
0 The origin of the aperture is its center*
0 number of corners: always 6*
0 $1 to $12 corner X, Y*
0 $13 Rotation angle, in degrees counterclockwise*
0 create outline with 6 corners*
4,1,6,$1,$2,$3,$4,$5,$6,$7,$8,$9,$10,$11,$12,$1,$2,$13*%
%AMOutline7P*
0 Free polygon, 7 corners , with rotation*
0 The origin of the aperture is its center*
0 number of corners: always 7*
0 $1 to $14 corner X, Y*
0 $15 Rotation angle, in degrees counterclockwise*
0 create outline with 7 corners*
4,1,7,$1,$2,$3,$4,$5,$6,$7,$8,$9,$10,$11,$12,$13,$14,$1,$2,$15*%
%AMOutline8P*
0 Free polygon, 8 corners , with rotation*
0 The origin of the aperture is its center*
0 number of corners: always 8*
0 $1 to $16 corner X, Y*
0 $17 Rotation angle, in degrees counterclockwise*
0 create outline with 8 corners*
4,1,8,$1,$2,$3,$4,$5,$6,$7,$8,$9,$10,$11,$12,$13,$14,$15,$16,$1,$2,$17*%
G04 Aperture macros list end*
%ADD10C,0.150000*%
%ADD11C,0.125000*%
%ADD12C,0.062500*%
%ADD13C,0.080000*%
%ADD14C,0.120000*%
%ADD15C,0.127000*%
%ADD16C,3.000000*%
%ADD17C,3.429000*%
%ADD18C,1.701800*%
%ADD19RotRect,2.600000X2.600000X165.000000*%
%ADD20RotRect,0.900000X1.200000X75.000000*%
%ADD21Outline5P,-1.300000X0.000000X0.000000X1.300000X1.300000X1.300000X1.300000X-1.300000X-1.300000X-1.300000X165.000000*%
%ADD22R,2.600000X2.600000*%
%ADD23R,1.200000X0.900000*%
%ADD24Outline5P,-1.300000X0.000000X0.000000X1.300000X1.300000X1.300000X1.300000X-1.300000X-1.300000X-1.300000X180.000000*%
%ADD25C,1.500000*%
%ADD26O,1.600000X3.300000*%
%ADD27O,1.600000X2.200000*%
%ADD28C,0.800000*%
%ADD29C,6.400000*%
%ADD30RotRect,2.600000X2.600000X150.000000*%
%ADD31RotRect,0.900000X1.200000X60.000000*%
%ADD32Outline5P,-1.300000X0.000000X0.000000X1.300000X1.300000X1.300000X1.300000X-1.300000X-1.300000X-1.300000X150.000000*%
%ADD33R,2.000000X0.800000*%
%ADD34R,0.800000X1.000000*%
%ADD35R,0.800000X0.900000*%
%ADD36RoundRect,0.208333X0.291667X0.541667X-0.291667X0.541667X-0.291667X-0.541667X0.291667X-0.541667X0*%
%ADD37O,1.000000X1.500000*%
%ADD38O,2.750000X1.800000*%
%ADD39C,1.397000*%
G04 APERTURE END LIST*
D10*
X146480952Y-95952380D02*
X146480952Y-96666666D01*
X146433333Y-96809523D01*
X146338095Y-96904761D01*
X146195238Y-96952380D01*
X146100000Y-96952380D01*
X147433333Y-96952380D02*
X146957142Y-96952380D01*
X146957142Y-95952380D01*
X148338095Y-96857142D02*
X148290476Y-96904761D01*
X148147619Y-96952380D01*
X148052380Y-96952380D01*
X147909523Y-96904761D01*
X147814285Y-96809523D01*
X147766666Y-96714285D01*
X147719047Y-96523809D01*
X147719047Y-96380952D01*
X147766666Y-96190476D01*
X147814285Y-96095238D01*
X147909523Y-96000000D01*
X148052380Y-95952380D01*
X148147619Y-95952380D01*
X148290476Y-96000000D01*
X148338095Y-96047619D01*
X149052380Y-95952380D02*
X149052380Y-96666666D01*
X149004761Y-96809523D01*
X148909523Y-96904761D01*
X148766666Y-96952380D01*
X148671428Y-96952380D01*
X150004761Y-96952380D02*
X149528571Y-96952380D01*
X149528571Y-95952380D01*
X150909523Y-96857142D02*
X150861904Y-96904761D01*
X150719047Y-96952380D01*
X150623809Y-96952380D01*
X150480952Y-96904761D01*
X150385714Y-96809523D01*
X150338095Y-96714285D01*
X150290476Y-96523809D01*
X150290476Y-96380952D01*
X150338095Y-96190476D01*
X150385714Y-96095238D01*
X150480952Y-96000000D01*
X150623809Y-95952380D01*
X150719047Y-95952380D01*
X150861904Y-96000000D01*
X150909523Y-96047619D01*
X151623809Y-95952380D02*
X151623809Y-96666666D01*
X151576190Y-96809523D01*
X151480952Y-96904761D01*
X151338095Y-96952380D01*
X151242857Y-96952380D01*
X152576190Y-96952380D02*
X152100000Y-96952380D01*
X152100000Y-95952380D01*
X153480952Y-96857142D02*
X153433333Y-96904761D01*
X153290476Y-96952380D01*
X153195238Y-96952380D01*
X153052380Y-96904761D01*
X152957142Y-96809523D01*
X152909523Y-96714285D01*
X152861904Y-96523809D01*
X152861904Y-96380952D01*
X152909523Y-96190476D01*
X152957142Y-96095238D01*
X153052380Y-96000000D01*
X153195238Y-95952380D01*
X153290476Y-95952380D01*
X153433333Y-96000000D01*
X153480952Y-96047619D01*
X154195238Y-95952380D02*
X154195238Y-96666666D01*
X154147619Y-96809523D01*
X154052380Y-96904761D01*
X153909523Y-96952380D01*
X153814285Y-96952380D01*
X155147619Y-96952380D02*
X154671428Y-96952380D01*
X154671428Y-95952380D01*
X156052380Y-96857142D02*
X156004761Y-96904761D01*
X155861904Y-96952380D01*
X155766666Y-96952380D01*
X155623809Y-96904761D01*
X155528571Y-96809523D01*
X155480952Y-96714285D01*
X155433333Y-96523809D01*
X155433333Y-96380952D01*
X155480952Y-96190476D01*
X155528571Y-96095238D01*
X155623809Y-96000000D01*
X155766666Y-95952380D01*
X155861904Y-95952380D01*
X156004761Y-96000000D01*
X156052380Y-96047619D01*
D11*
X164373809Y-99080952D02*
X164373809Y-98842857D01*
X164873809Y-98842857D01*
X164373809Y-99319047D02*
X164397619Y-99271428D01*
X164445238Y-99247619D01*
X164873809Y-99247619D01*
X164707142Y-99723809D02*
X164373809Y-99723809D01*
X164707142Y-99509523D02*
X164445238Y-99509523D01*
X164397619Y-99533333D01*
X164373809Y-99580952D01*
X164373809Y-99652380D01*
X164397619Y-99700000D01*
X164421428Y-99723809D01*
X164373809Y-99961904D02*
X164707142Y-99961904D01*
X164897619Y-100009523D02*
X164826190Y-99938095D01*
X164397619Y-100176190D02*
X164373809Y-100223809D01*
X164373809Y-100319047D01*
X164397619Y-100366666D01*
X164445238Y-100390476D01*
X164469047Y-100390476D01*
X164516666Y-100366666D01*
X164540476Y-100319047D01*
X164540476Y-100247619D01*
X164564285Y-100200000D01*
X164611904Y-100176190D01*
X164635714Y-100176190D01*
X164683333Y-100200000D01*
X164707142Y-100247619D01*
X164707142Y-100319047D01*
X164683333Y-100366666D01*
X164373809Y-100985714D02*
X164873809Y-100985714D01*
X164516666Y-101152380D01*
X164873809Y-101319047D01*
X164373809Y-101319047D01*
X164397619Y-101747619D02*
X164373809Y-101700000D01*
X164373809Y-101604761D01*
X164397619Y-101557142D01*
X164445238Y-101533333D01*
X164635714Y-101533333D01*
X164683333Y-101557142D01*
X164707142Y-101604761D01*
X164707142Y-101700000D01*
X164683333Y-101747619D01*
X164635714Y-101771428D01*
X164588095Y-101771428D01*
X164540476Y-101533333D01*
X164373809Y-101985714D02*
X164707142Y-101985714D01*
X164611904Y-101985714D02*
X164659523Y-102009523D01*
X164683333Y-102033333D01*
X164707142Y-102080952D01*
X164707142Y-102128571D01*
X164373809Y-102366666D02*
X164397619Y-102319047D01*
X164445238Y-102295238D01*
X164873809Y-102295238D01*
X164373809Y-102628571D02*
X164397619Y-102580952D01*
X164421428Y-102557142D01*
X164469047Y-102533333D01*
X164611904Y-102533333D01*
X164659523Y-102557142D01*
X164683333Y-102580952D01*
X164707142Y-102628571D01*
X164707142Y-102700000D01*
X164683333Y-102747619D01*
X164659523Y-102771428D01*
X164611904Y-102795238D01*
X164469047Y-102795238D01*
X164421428Y-102771428D01*
X164397619Y-102747619D01*
X164373809Y-102700000D01*
X164373809Y-102628571D01*
X164397619Y-102985714D02*
X164373809Y-103033333D01*
X164373809Y-103128571D01*
X164397619Y-103176190D01*
X164445238Y-103200000D01*
X164469047Y-103200000D01*
X164516666Y-103176190D01*
X164540476Y-103128571D01*
X164540476Y-103057142D01*
X164564285Y-103009523D01*
X164611904Y-102985714D01*
X164635714Y-102985714D01*
X164683333Y-103009523D01*
X164707142Y-103057142D01*
X164707142Y-103128571D01*
X164683333Y-103176190D01*
X164373809Y-103795238D02*
X164873809Y-103795238D01*
X164873809Y-103985714D01*
X164850000Y-104033333D01*
X164826190Y-104057142D01*
X164778571Y-104080952D01*
X164707142Y-104080952D01*
X164659523Y-104057142D01*
X164635714Y-104033333D01*
X164611904Y-103985714D01*
X164611904Y-103795238D01*
X164373809Y-104295238D02*
X164707142Y-104295238D01*
X164873809Y-104295238D02*
X164850000Y-104271428D01*
X164826190Y-104295238D01*
X164850000Y-104319047D01*
X164873809Y-104295238D01*
X164826190Y-104295238D01*
X164397619Y-104723809D02*
X164373809Y-104676190D01*
X164373809Y-104580952D01*
X164397619Y-104533333D01*
X164445238Y-104509523D01*
X164635714Y-104509523D01*
X164683333Y-104533333D01*
X164707142Y-104580952D01*
X164707142Y-104676190D01*
X164683333Y-104723809D01*
X164635714Y-104747619D01*
X164588095Y-104747619D01*
X164540476Y-104509523D01*
X164373809Y-104961904D02*
X164707142Y-104961904D01*
X164611904Y-104961904D02*
X164659523Y-104985714D01*
X164683333Y-105009523D01*
X164707142Y-105057142D01*
X164707142Y-105104761D01*
X164373809Y-105271428D02*
X164707142Y-105271428D01*
X164873809Y-105271428D02*
X164850000Y-105247619D01*
X164826190Y-105271428D01*
X164850000Y-105295238D01*
X164873809Y-105271428D01*
X164826190Y-105271428D01*
X164826190Y-105866666D02*
X164850000Y-105890476D01*
X164873809Y-105938095D01*
X164873809Y-106057142D01*
X164850000Y-106104761D01*
X164826190Y-106128571D01*
X164778571Y-106152380D01*
X164730952Y-106152380D01*
X164659523Y-106128571D01*
X164373809Y-105842857D01*
X164373809Y-106152380D01*
X164873809Y-106461904D02*
X164873809Y-106509523D01*
X164850000Y-106557142D01*
X164826190Y-106580952D01*
X164778571Y-106604761D01*
X164683333Y-106628571D01*
X164564285Y-106628571D01*
X164469047Y-106604761D01*
X164421428Y-106580952D01*
X164397619Y-106557142D01*
X164373809Y-106509523D01*
X164373809Y-106461904D01*
X164397619Y-106414285D01*
X164421428Y-106390476D01*
X164469047Y-106366666D01*
X164564285Y-106342857D01*
X164683333Y-106342857D01*
X164778571Y-106366666D01*
X164826190Y-106390476D01*
X164850000Y-106414285D01*
X164873809Y-106461904D01*
X164826190Y-106819047D02*
X164850000Y-106842857D01*
X164873809Y-106890476D01*
X164873809Y-107009523D01*
X164850000Y-107057142D01*
X164826190Y-107080952D01*
X164778571Y-107104761D01*
X164730952Y-107104761D01*
X164659523Y-107080952D01*
X164373809Y-106795238D01*
X164373809Y-107104761D01*
X164873809Y-107271428D02*
X164873809Y-107580952D01*
X164683333Y-107414285D01*
X164683333Y-107485714D01*
X164659523Y-107533333D01*
X164635714Y-107557142D01*
X164588095Y-107580952D01*
X164469047Y-107580952D01*
X164421428Y-107557142D01*
X164397619Y-107533333D01*
X164373809Y-107485714D01*
X164373809Y-107342857D01*
X164397619Y-107295238D01*
X164421428Y-107271428D01*
D10*
X164433333Y-79509523D02*
X164433333Y-79985714D01*
X164147619Y-79414285D02*
X165147619Y-79747619D01*
X164147619Y-80080952D01*
X164814285Y-80414285D02*
X164147619Y-80414285D01*
X164719047Y-80414285D02*
X164766666Y-80461904D01*
X164814285Y-80557142D01*
X164814285Y-80700000D01*
X164766666Y-80795238D01*
X164671428Y-80842857D01*
X164147619Y-80842857D01*
X165147619Y-82271428D02*
X165147619Y-82461904D01*
X165100000Y-82557142D01*
X165004761Y-82652380D01*
X164814285Y-82700000D01*
X164480952Y-82700000D01*
X164290476Y-82652380D01*
X164195238Y-82557142D01*
X164147619Y-82461904D01*
X164147619Y-82271428D01*
X164195238Y-82176190D01*
X164290476Y-82080952D01*
X164480952Y-82033333D01*
X164814285Y-82033333D01*
X165004761Y-82080952D01*
X165100000Y-82176190D01*
X165147619Y-82271428D01*
X164814285Y-82985714D02*
X164814285Y-83366666D01*
X165147619Y-83128571D02*
X164290476Y-83128571D01*
X164195238Y-83176190D01*
X164147619Y-83271428D01*
X164147619Y-83366666D01*
X164814285Y-83557142D02*
X164814285Y-83938095D01*
X165147619Y-83700000D02*
X164290476Y-83700000D01*
X164195238Y-83747619D01*
X164147619Y-83842857D01*
X164147619Y-83938095D01*
X164195238Y-84652380D02*
X164147619Y-84557142D01*
X164147619Y-84366666D01*
X164195238Y-84271428D01*
X164290476Y-84223809D01*
X164671428Y-84223809D01*
X164766666Y-84271428D01*
X164814285Y-84366666D01*
X164814285Y-84557142D01*
X164766666Y-84652380D01*
X164671428Y-84700000D01*
X164576190Y-84700000D01*
X164480952Y-84223809D01*
X164147619Y-85128571D02*
X164814285Y-85128571D01*
X164623809Y-85128571D02*
X164719047Y-85176190D01*
X164766666Y-85223809D01*
X164814285Y-85319047D01*
X164814285Y-85414285D01*
X164147619Y-86509523D02*
X165147619Y-86509523D01*
X164147619Y-87080952D02*
X164719047Y-86652380D01*
X165147619Y-87080952D02*
X164576190Y-86509523D01*
X164195238Y-87890476D02*
X164147619Y-87795238D01*
X164147619Y-87604761D01*
X164195238Y-87509523D01*
X164290476Y-87461904D01*
X164671428Y-87461904D01*
X164766666Y-87509523D01*
X164814285Y-87604761D01*
X164814285Y-87795238D01*
X164766666Y-87890476D01*
X164671428Y-87938095D01*
X164576190Y-87938095D01*
X164480952Y-87461904D01*
X164814285Y-88271428D02*
X164147619Y-88509523D01*
X164814285Y-88747619D02*
X164147619Y-88509523D01*
X163909523Y-88414285D01*
X163861904Y-88366666D01*
X163814285Y-88271428D01*
X164147619Y-89128571D02*
X165147619Y-89128571D01*
X164766666Y-89128571D02*
X164814285Y-89223809D01*
X164814285Y-89414285D01*
X164766666Y-89509523D01*
X164719047Y-89557142D01*
X164623809Y-89604761D01*
X164338095Y-89604761D01*
X164242857Y-89557142D01*
X164195238Y-89509523D01*
X164147619Y-89414285D01*
X164147619Y-89223809D01*
X164195238Y-89128571D01*
X164147619Y-90176190D02*
X164195238Y-90080952D01*
X164242857Y-90033333D01*
X164338095Y-89985714D01*
X164623809Y-89985714D01*
X164719047Y-90033333D01*
X164766666Y-90080952D01*
X164814285Y-90176190D01*
X164814285Y-90319047D01*
X164766666Y-90414285D01*
X164719047Y-90461904D01*
X164623809Y-90509523D01*
X164338095Y-90509523D01*
X164242857Y-90461904D01*
X164195238Y-90414285D01*
X164147619Y-90319047D01*
X164147619Y-90176190D01*
X164147619Y-91366666D02*
X164671428Y-91366666D01*
X164766666Y-91319047D01*
X164814285Y-91223809D01*
X164814285Y-91033333D01*
X164766666Y-90938095D01*
X164195238Y-91366666D02*
X164147619Y-91271428D01*
X164147619Y-91033333D01*
X164195238Y-90938095D01*
X164290476Y-90890476D01*
X164385714Y-90890476D01*
X164480952Y-90938095D01*
X164528571Y-91033333D01*
X164528571Y-91271428D01*
X164576190Y-91366666D01*
X164147619Y-91842857D02*
X164814285Y-91842857D01*
X164623809Y-91842857D02*
X164719047Y-91890476D01*
X164766666Y-91938095D01*
X164814285Y-92033333D01*
X164814285Y-92128571D01*
X164147619Y-92890476D02*
X165147619Y-92890476D01*
X164195238Y-92890476D02*
X164147619Y-92795238D01*
X164147619Y-92604761D01*
X164195238Y-92509523D01*
X164242857Y-92461904D01*
X164338095Y-92414285D01*
X164623809Y-92414285D01*
X164719047Y-92461904D01*
X164766666Y-92509523D01*
X164814285Y-92604761D01*
X164814285Y-92795238D01*
X164766666Y-92890476D01*
X164147619Y-94128571D02*
X164814285Y-94128571D01*
X164623809Y-94128571D02*
X164719047Y-94176190D01*
X164766666Y-94223809D01*
X164814285Y-94319047D01*
X164814285Y-94414285D01*
X164195238Y-95128571D02*
X164147619Y-95033333D01*
X164147619Y-94842857D01*
X164195238Y-94747619D01*
X164290476Y-94700000D01*
X164671428Y-94700000D01*
X164766666Y-94747619D01*
X164814285Y-94842857D01*
X164814285Y-95033333D01*
X164766666Y-95128571D01*
X164671428Y-95176190D01*
X164576190Y-95176190D01*
X164480952Y-94700000D01*
X164814285Y-95509523D02*
X164147619Y-95747619D01*
X164814285Y-95985714D01*
X165052380Y-96319047D02*
X165100000Y-96366666D01*
X165147619Y-96461904D01*
X165147619Y-96700000D01*
X165100000Y-96795238D01*
X165052380Y-96842857D01*
X164957142Y-96890476D01*
X164861904Y-96890476D01*
X164719047Y-96842857D01*
X164147619Y-96271428D01*
X164147619Y-96890476D01*
D12*
X159880952Y-120113095D02*
X159880952Y-120291666D01*
X159869047Y-120327380D01*
X159845238Y-120351190D01*
X159809523Y-120363095D01*
X159785714Y-120363095D01*
X160000000Y-120267857D02*
X160190476Y-120267857D01*
X160095238Y-120363095D02*
X160095238Y-120172619D01*
X159435714Y-67530952D02*
X159664285Y-67530952D01*
X159550000Y-67930952D02*
X159550000Y-67530952D01*
X160026190Y-67930952D02*
X159892857Y-67740476D01*
X159797619Y-67930952D02*
X159797619Y-67530952D01*
X159950000Y-67530952D01*
X159988095Y-67550000D01*
X160007142Y-67569047D01*
X160026190Y-67607142D01*
X160026190Y-67664285D01*
X160007142Y-67702380D01*
X159988095Y-67721428D01*
X159950000Y-67740476D01*
X159797619Y-67740476D01*
X160423809Y-60030952D02*
X160233333Y-60030952D01*
X160214285Y-60221428D01*
X160233333Y-60202380D01*
X160271428Y-60183333D01*
X160366666Y-60183333D01*
X160404761Y-60202380D01*
X160423809Y-60221428D01*
X160442857Y-60259523D01*
X160442857Y-60354761D01*
X160423809Y-60392857D01*
X160404761Y-60411904D01*
X160366666Y-60430952D01*
X160271428Y-60430952D01*
X160233333Y-60411904D01*
X160214285Y-60392857D01*
X160557142Y-60030952D02*
X160690476Y-60430952D01*
X160823809Y-60030952D01*
X160195238Y-63050000D02*
X160157142Y-63030952D01*
X160100000Y-63030952D01*
X160042857Y-63050000D01*
X160004761Y-63088095D01*
X159985714Y-63126190D01*
X159966666Y-63202380D01*
X159966666Y-63259523D01*
X159985714Y-63335714D01*
X160004761Y-63373809D01*
X160042857Y-63411904D01*
X160100000Y-63430952D01*
X160138095Y-63430952D01*
X160195238Y-63411904D01*
X160214285Y-63392857D01*
X160214285Y-63259523D01*
X160138095Y-63259523D01*
X160385714Y-63430952D02*
X160385714Y-63030952D01*
X160614285Y-63430952D01*
X160614285Y-63030952D01*
X160804761Y-63430952D02*
X160804761Y-63030952D01*
X160900000Y-63030952D01*
X160957142Y-63050000D01*
X160995238Y-63088095D01*
X161014285Y-63126190D01*
X161033333Y-63202380D01*
X161033333Y-63259523D01*
X161014285Y-63335714D01*
X160995238Y-63373809D01*
X160957142Y-63411904D01*
X160900000Y-63430952D01*
X160804761Y-63430952D01*
X161221428Y-67930952D02*
X161088095Y-67740476D01*
X160992857Y-67930952D02*
X160992857Y-67530952D01*
X161145238Y-67530952D01*
X161183333Y-67550000D01*
X161202380Y-67569047D01*
X161221428Y-67607142D01*
X161221428Y-67664285D01*
X161202380Y-67702380D01*
X161183333Y-67721428D01*
X161145238Y-67740476D01*
X160992857Y-67740476D01*
X161335714Y-67530952D02*
X161564285Y-67530952D01*
X161450000Y-67930952D02*
X161450000Y-67530952D01*
X159863095Y-118732142D02*
X159898809Y-118744047D01*
X159910714Y-118755952D01*
X159922619Y-118779761D01*
X159922619Y-118815476D01*
X159910714Y-118839285D01*
X159898809Y-118851190D01*
X159875000Y-118863095D01*
X159779761Y-118863095D01*
X159779761Y-118613095D01*
X159863095Y-118613095D01*
X159886904Y-118625000D01*
X159898809Y-118636904D01*
X159910714Y-118660714D01*
X159910714Y-118684523D01*
X159898809Y-118708333D01*
X159886904Y-118720238D01*
X159863095Y-118732142D01*
X159779761Y-118732142D01*
X160029761Y-118767857D02*
X160220238Y-118767857D01*
X160125000Y-118863095D02*
X160125000Y-118672619D01*
X159934523Y-123363095D02*
X160065476Y-123196428D01*
X159934523Y-123196428D02*
X160065476Y-123363095D01*
D10*
X131853946Y-137276907D02*
X131728282Y-137193937D01*
X131498299Y-137132313D01*
X131393982Y-137153660D01*
X131335661Y-137187332D01*
X131265015Y-137267000D01*
X131240365Y-137358993D01*
X131261712Y-137463311D01*
X131295384Y-137521632D01*
X131375052Y-137592278D01*
X131546713Y-137687573D01*
X131626382Y-137758219D01*
X131660053Y-137816540D01*
X131681400Y-137920858D01*
X131656751Y-138012851D01*
X131586105Y-138092519D01*
X131527784Y-138126191D01*
X131423466Y-138147538D01*
X131193484Y-138085914D01*
X131067819Y-138002944D01*
X130394384Y-136836520D02*
X130946342Y-136984417D01*
X130670363Y-136910468D02*
X130411544Y-137876394D01*
X130540511Y-137763054D01*
X130657153Y-137695711D01*
X130761471Y-137674364D01*
X129813590Y-137716173D02*
X129215636Y-137555951D01*
X129636209Y-137274253D01*
X129498219Y-137237279D01*
X129418551Y-137166633D01*
X129384879Y-137108311D01*
X129363532Y-137003994D01*
X129425156Y-136774011D01*
X129495802Y-136694343D01*
X129554123Y-136660671D01*
X129658441Y-136639324D01*
X129934419Y-136713273D01*
X130014088Y-136783919D01*
X130047759Y-136842240D01*
X128893660Y-137469678D02*
X128295706Y-137309457D01*
X128716279Y-137027758D01*
X128578290Y-136990784D01*
X128498622Y-136920138D01*
X128464950Y-136861817D01*
X128443603Y-136757499D01*
X128505227Y-136527517D01*
X128575872Y-136447849D01*
X128634194Y-136414177D01*
X128738511Y-136392830D01*
X129014490Y-136466778D01*
X129094158Y-136537424D01*
X129127830Y-136595746D01*
X85285719Y-92654761D02*
X85428576Y-92702380D01*
X85666671Y-92702380D01*
X85761909Y-92654761D01*
X85809528Y-92607142D01*
X85857147Y-92511904D01*
X85857147Y-92416666D01*
X85809528Y-92321428D01*
X85761909Y-92273809D01*
X85666671Y-92226190D01*
X85476195Y-92178571D01*
X85380957Y-92130952D01*
X85333338Y-92083333D01*
X85285719Y-91988095D01*
X85285719Y-91892857D01*
X85333338Y-91797619D01*
X85380957Y-91750000D01*
X85476195Y-91702380D01*
X85714290Y-91702380D01*
X85857147Y-91750000D01*
X86809528Y-92702380D02*
X86238100Y-92702380D01*
X86523814Y-92702380D02*
X86523814Y-91702380D01*
X86428576Y-91845238D01*
X86333338Y-91940476D01*
X86238100Y-91988095D01*
X87190481Y-91797619D02*
X87238100Y-91750000D01*
X87333338Y-91702380D01*
X87571433Y-91702380D01*
X87666671Y-91750000D01*
X87714290Y-91797619D01*
X87761909Y-91892857D01*
X87761909Y-91988095D01*
X87714290Y-92130952D01*
X87142862Y-92702380D01*
X87761909Y-92702380D01*
X88142862Y-91797619D02*
X88190481Y-91750000D01*
X88285719Y-91702380D01*
X88523814Y-91702380D01*
X88619052Y-91750000D01*
X88666671Y-91797619D01*
X88714290Y-91892857D01*
X88714290Y-91988095D01*
X88666671Y-92130952D01*
X88095243Y-92702380D01*
X88714290Y-92702380D01*
X67285726Y-96904755D02*
X67428583Y-96952374D01*
X67666678Y-96952374D01*
X67761916Y-96904755D01*
X67809535Y-96857136D01*
X67857154Y-96761898D01*
X67857154Y-96666660D01*
X67809535Y-96571422D01*
X67761916Y-96523803D01*
X67666678Y-96476184D01*
X67476202Y-96428565D01*
X67380964Y-96380946D01*
X67333345Y-96333327D01*
X67285726Y-96238089D01*
X67285726Y-96142851D01*
X67333345Y-96047613D01*
X67380964Y-95999994D01*
X67476202Y-95952374D01*
X67714297Y-95952374D01*
X67857154Y-95999994D01*
X68809535Y-96952374D02*
X68238107Y-96952374D01*
X68523821Y-96952374D02*
X68523821Y-95952374D01*
X68428583Y-96095232D01*
X68333345Y-96190470D01*
X68238107Y-96238089D01*
X69761916Y-96952374D02*
X69190488Y-96952374D01*
X69476202Y-96952374D02*
X69476202Y-95952374D01*
X69380964Y-96095232D01*
X69285726Y-96190470D01*
X69190488Y-96238089D01*
X70142869Y-96047613D02*
X70190488Y-95999994D01*
X70285726Y-95952374D01*
X70523821Y-95952374D01*
X70619059Y-95999994D01*
X70666678Y-96047613D01*
X70714297Y-96142851D01*
X70714297Y-96238089D01*
X70666678Y-96380946D01*
X70095250Y-96952374D01*
X70714297Y-96952374D01*
X85285718Y-75654755D02*
X85428575Y-75702374D01*
X85666670Y-75702374D01*
X85761908Y-75654755D01*
X85809527Y-75607136D01*
X85857146Y-75511898D01*
X85857146Y-75416660D01*
X85809527Y-75321422D01*
X85761908Y-75273803D01*
X85666670Y-75226184D01*
X85476194Y-75178565D01*
X85380956Y-75130946D01*
X85333337Y-75083327D01*
X85285718Y-74988089D01*
X85285718Y-74892851D01*
X85333337Y-74797613D01*
X85380956Y-74749994D01*
X85476194Y-74702374D01*
X85714289Y-74702374D01*
X85857146Y-74749994D01*
X86809527Y-75702374D02*
X86238099Y-75702374D01*
X86523813Y-75702374D02*
X86523813Y-74702374D01*
X86428575Y-74845232D01*
X86333337Y-74940470D01*
X86238099Y-74988089D01*
X87190480Y-74797613D02*
X87238099Y-74749994D01*
X87333337Y-74702374D01*
X87571432Y-74702374D01*
X87666670Y-74749994D01*
X87714289Y-74797613D01*
X87761908Y-74892851D01*
X87761908Y-74988089D01*
X87714289Y-75130946D01*
X87142861Y-75702374D01*
X87761908Y-75702374D01*
X88714289Y-75702374D02*
X88142861Y-75702374D01*
X88428575Y-75702374D02*
X88428575Y-74702374D01*
X88333337Y-74845232D01*
X88238099Y-74940470D01*
X88142861Y-74988089D01*
X49285717Y-109654759D02*
X49428574Y-109702378D01*
X49666669Y-109702378D01*
X49761907Y-109654759D01*
X49809526Y-109607140D01*
X49857145Y-109511902D01*
X49857145Y-109416664D01*
X49809526Y-109321426D01*
X49761907Y-109273807D01*
X49666669Y-109226188D01*
X49476193Y-109178569D01*
X49380955Y-109130950D01*
X49333336Y-109083331D01*
X49285717Y-108988093D01*
X49285717Y-108892855D01*
X49333336Y-108797617D01*
X49380955Y-108749998D01*
X49476193Y-108702378D01*
X49714288Y-108702378D01*
X49857145Y-108749998D01*
X50809526Y-109702378D02*
X50238098Y-109702378D01*
X50523812Y-109702378D02*
X50523812Y-108702378D01*
X50428574Y-108845236D01*
X50333336Y-108940474D01*
X50238098Y-108988093D01*
X51428574Y-108702378D02*
X51523812Y-108702378D01*
X51619050Y-108749998D01*
X51666669Y-108797617D01*
X51714288Y-108892855D01*
X51761907Y-109083331D01*
X51761907Y-109321426D01*
X51714288Y-109511902D01*
X51666669Y-109607140D01*
X51619050Y-109654759D01*
X51523812Y-109702378D01*
X51428574Y-109702378D01*
X51333336Y-109654759D01*
X51285717Y-109607140D01*
X51238098Y-109511902D01*
X51190479Y-109321426D01*
X51190479Y-109083331D01*
X51238098Y-108892855D01*
X51285717Y-108797617D01*
X51333336Y-108749998D01*
X51428574Y-108702378D01*
X52142860Y-108797617D02*
X52190479Y-108749998D01*
X52285717Y-108702378D01*
X52523812Y-108702378D01*
X52619050Y-108749998D01*
X52666669Y-108797617D01*
X52714288Y-108892855D01*
X52714288Y-108988093D01*
X52666669Y-109130950D01*
X52095241Y-109702378D01*
X52714288Y-109702378D01*
X103285719Y-71404756D02*
X103428576Y-71452375D01*
X103666671Y-71452375D01*
X103761909Y-71404756D01*
X103809528Y-71357137D01*
X103857147Y-71261899D01*
X103857147Y-71166661D01*
X103809528Y-71071423D01*
X103761909Y-71023804D01*
X103666671Y-70976185D01*
X103476195Y-70928566D01*
X103380957Y-70880947D01*
X103333338Y-70833328D01*
X103285719Y-70738090D01*
X103285719Y-70642852D01*
X103333338Y-70547614D01*
X103380957Y-70499995D01*
X103476195Y-70452375D01*
X103714290Y-70452375D01*
X103857147Y-70499995D01*
X104809528Y-71452375D02*
X104238100Y-71452375D01*
X104523814Y-71452375D02*
X104523814Y-70452375D01*
X104428576Y-70595233D01*
X104333338Y-70690471D01*
X104238100Y-70738090D01*
X105142862Y-70452375D02*
X105761909Y-70452375D01*
X105428576Y-70833328D01*
X105571433Y-70833328D01*
X105666671Y-70880947D01*
X105714290Y-70928566D01*
X105761909Y-71023804D01*
X105761909Y-71261899D01*
X105714290Y-71357137D01*
X105666671Y-71404756D01*
X105571433Y-71452375D01*
X105285719Y-71452375D01*
X105190481Y-71404756D01*
X105142862Y-71357137D01*
X106380957Y-70452375D02*
X106476195Y-70452375D01*
X106571433Y-70499995D01*
X106619052Y-70547614D01*
X106666671Y-70642852D01*
X106714290Y-70833328D01*
X106714290Y-71071423D01*
X106666671Y-71261899D01*
X106619052Y-71357137D01*
X106571433Y-71404756D01*
X106476195Y-71452375D01*
X106380957Y-71452375D01*
X106285719Y-71404756D01*
X106238100Y-71357137D01*
X106190481Y-71261899D01*
X106142862Y-71071423D01*
X106142862Y-70833328D01*
X106190481Y-70642852D01*
X106238100Y-70547614D01*
X106285719Y-70499995D01*
X106380957Y-70452375D01*
X121285716Y-109654753D02*
X121428573Y-109702372D01*
X121666668Y-109702372D01*
X121761906Y-109654753D01*
X121809525Y-109607134D01*
X121857144Y-109511896D01*
X121857144Y-109416658D01*
X121809525Y-109321420D01*
X121761906Y-109273801D01*
X121666668Y-109226182D01*
X121476192Y-109178563D01*
X121380954Y-109130944D01*
X121333335Y-109083325D01*
X121285716Y-108988087D01*
X121285716Y-108892849D01*
X121333335Y-108797611D01*
X121380954Y-108749992D01*
X121476192Y-108702372D01*
X121714287Y-108702372D01*
X121857144Y-108749992D01*
X122809525Y-109702372D02*
X122238097Y-109702372D01*
X122523811Y-109702372D02*
X122523811Y-108702372D01*
X122428573Y-108845230D01*
X122333335Y-108940468D01*
X122238097Y-108988087D01*
X123666668Y-109035706D02*
X123666668Y-109702372D01*
X123428573Y-108654753D02*
X123190478Y-109369039D01*
X123809525Y-109369039D01*
X124142859Y-108797611D02*
X124190478Y-108749992D01*
X124285716Y-108702372D01*
X124523811Y-108702372D01*
X124619049Y-108749992D01*
X124666668Y-108797611D01*
X124714287Y-108892849D01*
X124714287Y-108988087D01*
X124666668Y-109130944D01*
X124095240Y-109702372D01*
X124714287Y-109702372D01*
X103285721Y-105404765D02*
X103428578Y-105452384D01*
X103666673Y-105452384D01*
X103761911Y-105404765D01*
X103809530Y-105357146D01*
X103857149Y-105261908D01*
X103857149Y-105166670D01*
X103809530Y-105071432D01*
X103761911Y-105023813D01*
X103666673Y-104976194D01*
X103476197Y-104928575D01*
X103380959Y-104880956D01*
X103333340Y-104833337D01*
X103285721Y-104738099D01*
X103285721Y-104642861D01*
X103333340Y-104547623D01*
X103380959Y-104500004D01*
X103476197Y-104452384D01*
X103714292Y-104452384D01*
X103857149Y-104500004D01*
X104809530Y-105452384D02*
X104238102Y-105452384D01*
X104523816Y-105452384D02*
X104523816Y-104452384D01*
X104428578Y-104595242D01*
X104333340Y-104690480D01*
X104238102Y-104738099D01*
X105142864Y-104452384D02*
X105761911Y-104452384D01*
X105428578Y-104833337D01*
X105571435Y-104833337D01*
X105666673Y-104880956D01*
X105714292Y-104928575D01*
X105761911Y-105023813D01*
X105761911Y-105261908D01*
X105714292Y-105357146D01*
X105666673Y-105404765D01*
X105571435Y-105452384D01*
X105285721Y-105452384D01*
X105190483Y-105404765D01*
X105142864Y-105357146D01*
X106142864Y-104547623D02*
X106190483Y-104500004D01*
X106285721Y-104452384D01*
X106523816Y-104452384D01*
X106619054Y-104500004D01*
X106666673Y-104547623D01*
X106714292Y-104642861D01*
X106714292Y-104738099D01*
X106666673Y-104880956D01*
X106095245Y-105452384D01*
X106714292Y-105452384D01*
X85285710Y-58654753D02*
X85428567Y-58702372D01*
X85666662Y-58702372D01*
X85761900Y-58654753D01*
X85809519Y-58607134D01*
X85857138Y-58511896D01*
X85857138Y-58416658D01*
X85809519Y-58321420D01*
X85761900Y-58273801D01*
X85666662Y-58226182D01*
X85476186Y-58178563D01*
X85380948Y-58130944D01*
X85333329Y-58083325D01*
X85285710Y-57988087D01*
X85285710Y-57892849D01*
X85333329Y-57797611D01*
X85380948Y-57749992D01*
X85476186Y-57702372D01*
X85714281Y-57702372D01*
X85857138Y-57749992D01*
X86809519Y-58702372D02*
X86238091Y-58702372D01*
X86523805Y-58702372D02*
X86523805Y-57702372D01*
X86428567Y-57845230D01*
X86333329Y-57940468D01*
X86238091Y-57988087D01*
X87190472Y-57797611D02*
X87238091Y-57749992D01*
X87333329Y-57702372D01*
X87571424Y-57702372D01*
X87666662Y-57749992D01*
X87714281Y-57797611D01*
X87761900Y-57892849D01*
X87761900Y-57988087D01*
X87714281Y-58130944D01*
X87142853Y-58702372D01*
X87761900Y-58702372D01*
X88380948Y-57702372D02*
X88476186Y-57702372D01*
X88571424Y-57749992D01*
X88619043Y-57797611D01*
X88666662Y-57892849D01*
X88714281Y-58083325D01*
X88714281Y-58321420D01*
X88666662Y-58511896D01*
X88619043Y-58607134D01*
X88571424Y-58654753D01*
X88476186Y-58702372D01*
X88380948Y-58702372D01*
X88285710Y-58654753D01*
X88238091Y-58607134D01*
X88190472Y-58511896D01*
X88142853Y-58321420D01*
X88142853Y-58083325D01*
X88190472Y-57892849D01*
X88238091Y-57797611D01*
X88285710Y-57749992D01*
X88380948Y-57702372D01*
X107785720Y-135154759D02*
X107928577Y-135202378D01*
X108166672Y-135202378D01*
X108261910Y-135154759D01*
X108309529Y-135107140D01*
X108357148Y-135011902D01*
X108357148Y-134916664D01*
X108309529Y-134821426D01*
X108261910Y-134773807D01*
X108166672Y-134726188D01*
X107976196Y-134678569D01*
X107880958Y-134630950D01*
X107833339Y-134583331D01*
X107785720Y-134488093D01*
X107785720Y-134392855D01*
X107833339Y-134297617D01*
X107880958Y-134249998D01*
X107976196Y-134202378D01*
X108214291Y-134202378D01*
X108357148Y-134249998D01*
X109309529Y-135202378D02*
X108738101Y-135202378D01*
X109023815Y-135202378D02*
X109023815Y-134202378D01*
X108928577Y-134345236D01*
X108833339Y-134440474D01*
X108738101Y-134488093D01*
X109690482Y-134297617D02*
X109738101Y-134249998D01*
X109833339Y-134202378D01*
X110071434Y-134202378D01*
X110166672Y-134249998D01*
X110214291Y-134297617D01*
X110261910Y-134392855D01*
X110261910Y-134488093D01*
X110214291Y-134630950D01*
X109642863Y-135202378D01*
X110261910Y-135202378D01*
X110595244Y-134202378D02*
X111214291Y-134202378D01*
X110880958Y-134583331D01*
X111023815Y-134583331D01*
X111119053Y-134630950D01*
X111166672Y-134678569D01*
X111214291Y-134773807D01*
X111214291Y-135011902D01*
X111166672Y-135107140D01*
X111119053Y-135154759D01*
X111023815Y-135202378D01*
X110738101Y-135202378D01*
X110642863Y-135154759D01*
X110595244Y-135107140D01*
X121285718Y-75654749D02*
X121428575Y-75702368D01*
X121666670Y-75702368D01*
X121761908Y-75654749D01*
X121809527Y-75607130D01*
X121857146Y-75511892D01*
X121857146Y-75416654D01*
X121809527Y-75321416D01*
X121761908Y-75273797D01*
X121666670Y-75226178D01*
X121476194Y-75178559D01*
X121380956Y-75130940D01*
X121333337Y-75083321D01*
X121285718Y-74988083D01*
X121285718Y-74892845D01*
X121333337Y-74797607D01*
X121380956Y-74749988D01*
X121476194Y-74702368D01*
X121714289Y-74702368D01*
X121857146Y-74749988D01*
X122809527Y-75702368D02*
X122238099Y-75702368D01*
X122523813Y-75702368D02*
X122523813Y-74702368D01*
X122428575Y-74845226D01*
X122333337Y-74940464D01*
X122238099Y-74988083D01*
X123666670Y-75035702D02*
X123666670Y-75702368D01*
X123428575Y-74654749D02*
X123190480Y-75369035D01*
X123809527Y-75369035D01*
X124380956Y-74702368D02*
X124476194Y-74702368D01*
X124571432Y-74749988D01*
X124619051Y-74797607D01*
X124666670Y-74892845D01*
X124714289Y-75083321D01*
X124714289Y-75321416D01*
X124666670Y-75511892D01*
X124619051Y-75607130D01*
X124571432Y-75654749D01*
X124476194Y-75702368D01*
X124380956Y-75702368D01*
X124285718Y-75654749D01*
X124238099Y-75607130D01*
X124190480Y-75511892D01*
X124142861Y-75321416D01*
X124142861Y-75083321D01*
X124190480Y-74892845D01*
X124238099Y-74797607D01*
X124285718Y-74749988D01*
X124380956Y-74702368D01*
X31285718Y-96904758D02*
X31428575Y-96952377D01*
X31666670Y-96952377D01*
X31761908Y-96904758D01*
X31809527Y-96857139D01*
X31857146Y-96761901D01*
X31857146Y-96666663D01*
X31809527Y-96571425D01*
X31761908Y-96523806D01*
X31666670Y-96476187D01*
X31476194Y-96428568D01*
X31380956Y-96380949D01*
X31333337Y-96333330D01*
X31285718Y-96238092D01*
X31285718Y-96142854D01*
X31333337Y-96047616D01*
X31380956Y-95999997D01*
X31476194Y-95952377D01*
X31714289Y-95952377D01*
X31857146Y-95999997D01*
X32809527Y-96952377D02*
X32238099Y-96952377D01*
X32523813Y-96952377D02*
X32523813Y-95952377D01*
X32428575Y-96095235D01*
X32333337Y-96190473D01*
X32238099Y-96238092D01*
X33761908Y-96952377D02*
X33190480Y-96952377D01*
X33476194Y-96952377D02*
X33476194Y-95952377D01*
X33380956Y-96095235D01*
X33285718Y-96190473D01*
X33190480Y-96238092D01*
X34095242Y-95952377D02*
X34714289Y-95952377D01*
X34380956Y-96333330D01*
X34523813Y-96333330D01*
X34619051Y-96380949D01*
X34666670Y-96428568D01*
X34714289Y-96523806D01*
X34714289Y-96761901D01*
X34666670Y-96857139D01*
X34619051Y-96904758D01*
X34523813Y-96952377D01*
X34238099Y-96952377D01*
X34142861Y-96904758D01*
X34095242Y-96857139D01*
X151031561Y-145450609D02*
X150931653Y-145337941D01*
X150725457Y-145218894D01*
X150619168Y-145212514D01*
X150554120Y-145229944D01*
X150465261Y-145288613D01*
X150417642Y-145371092D01*
X150411262Y-145477380D01*
X150428692Y-145542428D01*
X150487361Y-145631287D01*
X150628509Y-145767764D01*
X150687178Y-145856623D01*
X150704608Y-145921671D01*
X150698228Y-146027960D01*
X150650609Y-146110438D01*
X150561751Y-146169107D01*
X150496702Y-146186537D01*
X150390414Y-146180157D01*
X150184217Y-146061110D01*
X150084309Y-145948442D01*
X149735713Y-144647465D02*
X150230585Y-144933179D01*
X149983149Y-144790322D02*
X149483149Y-145656348D01*
X149637056Y-145580249D01*
X149767154Y-145545389D01*
X149873442Y-145551769D01*
X148660072Y-144796244D02*
X148993406Y-144218894D01*
X148675793Y-145245206D02*
X149239132Y-144745664D01*
X148703021Y-144436140D01*
X148122252Y-144870633D02*
X147586141Y-144561110D01*
X148065292Y-144397862D01*
X147941574Y-144326433D01*
X147882905Y-144237575D01*
X147865476Y-144172526D01*
X147871855Y-144066238D01*
X147990903Y-143860041D01*
X148079761Y-143801372D01*
X148144810Y-143783943D01*
X148251098Y-143790322D01*
X148498534Y-143933179D01*
X148557203Y-144022038D01*
X148574633Y-144087087D01*
X49285714Y-75654761D02*
X49428571Y-75702380D01*
X49666666Y-75702380D01*
X49761904Y-75654761D01*
X49809523Y-75607142D01*
X49857142Y-75511904D01*
X49857142Y-75416666D01*
X49809523Y-75321428D01*
X49761904Y-75273809D01*
X49666666Y-75226190D01*
X49476190Y-75178571D01*
X49380952Y-75130952D01*
X49333333Y-75083333D01*
X49285714Y-74988095D01*
X49285714Y-74892857D01*
X49333333Y-74797619D01*
X49380952Y-74750000D01*
X49476190Y-74702380D01*
X49714285Y-74702380D01*
X49857142Y-74750000D01*
X50809523Y-75702380D02*
X50238095Y-75702380D01*
X50523809Y-75702380D02*
X50523809Y-74702380D01*
X50428571Y-74845238D01*
X50333333Y-74940476D01*
X50238095Y-74988095D01*
X51428571Y-74702380D02*
X51523809Y-74702380D01*
X51619047Y-74750000D01*
X51666666Y-74797619D01*
X51714285Y-74892857D01*
X51761904Y-75083333D01*
X51761904Y-75321428D01*
X51714285Y-75511904D01*
X51666666Y-75607142D01*
X51619047Y-75654761D01*
X51523809Y-75702380D01*
X51428571Y-75702380D01*
X51333333Y-75654761D01*
X51285714Y-75607142D01*
X51238095Y-75511904D01*
X51190476Y-75321428D01*
X51190476Y-75083333D01*
X51238095Y-74892857D01*
X51285714Y-74797619D01*
X51333333Y-74750000D01*
X51428571Y-74702380D01*
X52380952Y-74702380D02*
X52476190Y-74702380D01*
X52571428Y-74750000D01*
X52619047Y-74797619D01*
X52666666Y-74892857D01*
X52714285Y-75083333D01*
X52714285Y-75321428D01*
X52666666Y-75511904D01*
X52619047Y-75607142D01*
X52571428Y-75654761D01*
X52476190Y-75702380D01*
X52380952Y-75702380D01*
X52285714Y-75654761D01*
X52238095Y-75607142D01*
X52190476Y-75511904D01*
X52142857Y-75321428D01*
X52142857Y-75083333D01*
X52190476Y-74892857D01*
X52238095Y-74797619D01*
X52285714Y-74750000D01*
X52380952Y-74702380D01*
X67285724Y-79904749D02*
X67428581Y-79952368D01*
X67666676Y-79952368D01*
X67761914Y-79904749D01*
X67809533Y-79857130D01*
X67857152Y-79761892D01*
X67857152Y-79666654D01*
X67809533Y-79571416D01*
X67761914Y-79523797D01*
X67666676Y-79476178D01*
X67476200Y-79428559D01*
X67380962Y-79380940D01*
X67333343Y-79333321D01*
X67285724Y-79238083D01*
X67285724Y-79142845D01*
X67333343Y-79047607D01*
X67380962Y-78999988D01*
X67476200Y-78952368D01*
X67714295Y-78952368D01*
X67857152Y-78999988D01*
X68809533Y-79952368D02*
X68238105Y-79952368D01*
X68523819Y-79952368D02*
X68523819Y-78952368D01*
X68428581Y-79095226D01*
X68333343Y-79190464D01*
X68238105Y-79238083D01*
X69761914Y-79952368D02*
X69190486Y-79952368D01*
X69476200Y-79952368D02*
X69476200Y-78952368D01*
X69380962Y-79095226D01*
X69285724Y-79190464D01*
X69190486Y-79238083D01*
X70714295Y-79952368D02*
X70142867Y-79952368D01*
X70428581Y-79952368D02*
X70428581Y-78952368D01*
X70333343Y-79095226D01*
X70238105Y-79190464D01*
X70142867Y-79238083D01*
X121285717Y-92654754D02*
X121428574Y-92702373D01*
X121666669Y-92702373D01*
X121761907Y-92654754D01*
X121809526Y-92607135D01*
X121857145Y-92511897D01*
X121857145Y-92416659D01*
X121809526Y-92321421D01*
X121761907Y-92273802D01*
X121666669Y-92226183D01*
X121476193Y-92178564D01*
X121380955Y-92130945D01*
X121333336Y-92083326D01*
X121285717Y-91988088D01*
X121285717Y-91892850D01*
X121333336Y-91797612D01*
X121380955Y-91749993D01*
X121476193Y-91702373D01*
X121714288Y-91702373D01*
X121857145Y-91749993D01*
X122809526Y-92702373D02*
X122238098Y-92702373D01*
X122523812Y-92702373D02*
X122523812Y-91702373D01*
X122428574Y-91845231D01*
X122333336Y-91940469D01*
X122238098Y-91988088D01*
X123666669Y-92035707D02*
X123666669Y-92702373D01*
X123428574Y-91654754D02*
X123190479Y-92369040D01*
X123809526Y-92369040D01*
X124714288Y-92702373D02*
X124142860Y-92702373D01*
X124428574Y-92702373D02*
X124428574Y-91702373D01*
X124333336Y-91845231D01*
X124238098Y-91940469D01*
X124142860Y-91988088D01*
X103285720Y-88404763D02*
X103428577Y-88452382D01*
X103666672Y-88452382D01*
X103761910Y-88404763D01*
X103809529Y-88357144D01*
X103857148Y-88261906D01*
X103857148Y-88166668D01*
X103809529Y-88071430D01*
X103761910Y-88023811D01*
X103666672Y-87976192D01*
X103476196Y-87928573D01*
X103380958Y-87880954D01*
X103333339Y-87833335D01*
X103285720Y-87738097D01*
X103285720Y-87642859D01*
X103333339Y-87547621D01*
X103380958Y-87500002D01*
X103476196Y-87452382D01*
X103714291Y-87452382D01*
X103857148Y-87500002D01*
X104809529Y-88452382D02*
X104238101Y-88452382D01*
X104523815Y-88452382D02*
X104523815Y-87452382D01*
X104428577Y-87595240D01*
X104333339Y-87690478D01*
X104238101Y-87738097D01*
X105142863Y-87452382D02*
X105761910Y-87452382D01*
X105428577Y-87833335D01*
X105571434Y-87833335D01*
X105666672Y-87880954D01*
X105714291Y-87928573D01*
X105761910Y-88023811D01*
X105761910Y-88261906D01*
X105714291Y-88357144D01*
X105666672Y-88404763D01*
X105571434Y-88452382D01*
X105285720Y-88452382D01*
X105190482Y-88404763D01*
X105142863Y-88357144D01*
X106714291Y-88452382D02*
X106142863Y-88452382D01*
X106428577Y-88452382D02*
X106428577Y-87452382D01*
X106333339Y-87595240D01*
X106238101Y-87690478D01*
X106142863Y-87738097D01*
X31285721Y-79904758D02*
X31428578Y-79952377D01*
X31666673Y-79952377D01*
X31761911Y-79904758D01*
X31809530Y-79857139D01*
X31857149Y-79761901D01*
X31857149Y-79666663D01*
X31809530Y-79571425D01*
X31761911Y-79523806D01*
X31666673Y-79476187D01*
X31476197Y-79428568D01*
X31380959Y-79380949D01*
X31333340Y-79333330D01*
X31285721Y-79238092D01*
X31285721Y-79142854D01*
X31333340Y-79047616D01*
X31380959Y-78999997D01*
X31476197Y-78952377D01*
X31714292Y-78952377D01*
X31857149Y-78999997D01*
X32809530Y-79952377D02*
X32238102Y-79952377D01*
X32523816Y-79952377D02*
X32523816Y-78952377D01*
X32428578Y-79095235D01*
X32333340Y-79190473D01*
X32238102Y-79238092D01*
X33428578Y-78952377D02*
X33523816Y-78952377D01*
X33619054Y-78999997D01*
X33666673Y-79047616D01*
X33714292Y-79142854D01*
X33761911Y-79333330D01*
X33761911Y-79571425D01*
X33714292Y-79761901D01*
X33666673Y-79857139D01*
X33619054Y-79904758D01*
X33523816Y-79952377D01*
X33428578Y-79952377D01*
X33333340Y-79904758D01*
X33285721Y-79857139D01*
X33238102Y-79761901D01*
X33190483Y-79571425D01*
X33190483Y-79333330D01*
X33238102Y-79142854D01*
X33285721Y-79047616D01*
X33333340Y-78999997D01*
X33428578Y-78952377D01*
X34095245Y-78952377D02*
X34714292Y-78952377D01*
X34380959Y-79333330D01*
X34523816Y-79333330D01*
X34619054Y-79380949D01*
X34666673Y-79428568D01*
X34714292Y-79523806D01*
X34714292Y-79761901D01*
X34666673Y-79857139D01*
X34619054Y-79904758D01*
X34523816Y-79952377D01*
X34238102Y-79952377D01*
X34142864Y-79904758D01*
X34095245Y-79857139D01*
D13*
X164926323Y-123570666D02*
X164941561Y-123524952D01*
X164941561Y-123448761D01*
X164926323Y-123418285D01*
X164911085Y-123403047D01*
X164880609Y-123387809D01*
X164850133Y-123387809D01*
X164819657Y-123403047D01*
X164804419Y-123418285D01*
X164789180Y-123448761D01*
X164773942Y-123509714D01*
X164758704Y-123540190D01*
X164743466Y-123555428D01*
X164712990Y-123570666D01*
X164682514Y-123570666D01*
X164652038Y-123555428D01*
X164636800Y-123540190D01*
X164621561Y-123509714D01*
X164621561Y-123433523D01*
X164636800Y-123387809D01*
X164941561Y-123250666D02*
X164621561Y-123250666D01*
X164621561Y-123128761D01*
X164636800Y-123098285D01*
X164652038Y-123083047D01*
X164682514Y-123067809D01*
X164728228Y-123067809D01*
X164758704Y-123083047D01*
X164773942Y-123098285D01*
X164789180Y-123128761D01*
X164789180Y-123250666D01*
X164621561Y-122961142D02*
X164941561Y-122884952D01*
X164712990Y-122824000D01*
X164941561Y-122763047D01*
X164621561Y-122686857D01*
X164941561Y-122397333D02*
X164941561Y-122580190D01*
X164941561Y-122488761D02*
X164621561Y-122488761D01*
X164667276Y-122519238D01*
X164697752Y-122549714D01*
X164712990Y-122580190D01*
D10*
X67285720Y-62904760D02*
X67428577Y-62952379D01*
X67666672Y-62952379D01*
X67761910Y-62904760D01*
X67809529Y-62857141D01*
X67857148Y-62761903D01*
X67857148Y-62666665D01*
X67809529Y-62571427D01*
X67761910Y-62523808D01*
X67666672Y-62476189D01*
X67476196Y-62428570D01*
X67380958Y-62380951D01*
X67333339Y-62333332D01*
X67285720Y-62238094D01*
X67285720Y-62142856D01*
X67333339Y-62047618D01*
X67380958Y-61999999D01*
X67476196Y-61952379D01*
X67714291Y-61952379D01*
X67857148Y-61999999D01*
X68809529Y-62952379D02*
X68238101Y-62952379D01*
X68523815Y-62952379D02*
X68523815Y-61952379D01*
X68428577Y-62095237D01*
X68333339Y-62190475D01*
X68238101Y-62238094D01*
X69761910Y-62952379D02*
X69190482Y-62952379D01*
X69476196Y-62952379D02*
X69476196Y-61952379D01*
X69380958Y-62095237D01*
X69285720Y-62190475D01*
X69190482Y-62238094D01*
X70380958Y-61952379D02*
X70476196Y-61952379D01*
X70571434Y-61999999D01*
X70619053Y-62047618D01*
X70666672Y-62142856D01*
X70714291Y-62333332D01*
X70714291Y-62571427D01*
X70666672Y-62761903D01*
X70619053Y-62857141D01*
X70571434Y-62904760D01*
X70476196Y-62952379D01*
X70380958Y-62952379D01*
X70285720Y-62904760D01*
X70238101Y-62857141D01*
X70190482Y-62761903D01*
X70142863Y-62571427D01*
X70142863Y-62333332D01*
X70190482Y-62142856D01*
X70238101Y-62047618D01*
X70285720Y-61999999D01*
X70380958Y-61952379D01*
X158119047Y-122678571D02*
X157357142Y-122678571D01*
X157738095Y-122297619D02*
X157738095Y-123059523D01*
X156880952Y-122678571D02*
X156119047Y-122678571D01*
X155642857Y-122678571D02*
X154880952Y-122678571D01*
X155261904Y-122297619D02*
X155261904Y-123059523D01*
D12*
X146452380Y-55961904D02*
X146509523Y-55980952D01*
X146604761Y-55980952D01*
X146642857Y-55961904D01*
X146661904Y-55942857D01*
X146680952Y-55904761D01*
X146680952Y-55866666D01*
X146661904Y-55828571D01*
X146642857Y-55809523D01*
X146604761Y-55790476D01*
X146528571Y-55771428D01*
X146490476Y-55752380D01*
X146471428Y-55733333D01*
X146452380Y-55695238D01*
X146452380Y-55657142D01*
X146471428Y-55619047D01*
X146490476Y-55600000D01*
X146528571Y-55580952D01*
X146623809Y-55580952D01*
X146680952Y-55600000D01*
X146814285Y-55580952D02*
X146909523Y-55980952D01*
X146985714Y-55695238D01*
X147061904Y-55980952D01*
X147157142Y-55580952D01*
X147309523Y-55980952D02*
X147309523Y-55580952D01*
X147404761Y-55580952D01*
X147461904Y-55600000D01*
X147500000Y-55638095D01*
X147519047Y-55676190D01*
X147538095Y-55752380D01*
X147538095Y-55809523D01*
X147519047Y-55885714D01*
X147500000Y-55923809D01*
X147461904Y-55961904D01*
X147404761Y-55980952D01*
X147309523Y-55980952D01*
X147709523Y-55980952D02*
X147709523Y-55580952D01*
X147976190Y-55580952D02*
X148052380Y-55580952D01*
X148090476Y-55600000D01*
X148128571Y-55638095D01*
X148147619Y-55714285D01*
X148147619Y-55847619D01*
X148128571Y-55923809D01*
X148090476Y-55961904D01*
X148052380Y-55980952D01*
X147976190Y-55980952D01*
X147938095Y-55961904D01*
X147900000Y-55923809D01*
X147880952Y-55847619D01*
X147880952Y-55714285D01*
X147900000Y-55638095D01*
X147938095Y-55600000D01*
X147976190Y-55580952D01*
X139480952Y-73023809D02*
X139480952Y-73100000D01*
X139500000Y-73138095D01*
X139519047Y-73157142D01*
X139576190Y-73195238D01*
X139652380Y-73214285D01*
X139804761Y-73214285D01*
X139842857Y-73195238D01*
X139861904Y-73176190D01*
X139880952Y-73138095D01*
X139880952Y-73061904D01*
X139861904Y-73023809D01*
X139842857Y-73004761D01*
X139804761Y-72985714D01*
X139709523Y-72985714D01*
X139671428Y-73004761D01*
X139652380Y-73023809D01*
X139633333Y-73061904D01*
X139633333Y-73138095D01*
X139652380Y-73176190D01*
X139671428Y-73195238D01*
X139709523Y-73214285D01*
X137128571Y-59380952D02*
X137128571Y-58980952D01*
X137280952Y-58980952D01*
X137319047Y-59000000D01*
X137338095Y-59019047D01*
X137357142Y-59057142D01*
X137357142Y-59114285D01*
X137338095Y-59152380D01*
X137319047Y-59171428D01*
X137280952Y-59190476D01*
X137128571Y-59190476D01*
X137604761Y-58980952D02*
X137642857Y-58980952D01*
X137680952Y-59000000D01*
X137700000Y-59019047D01*
X137719047Y-59057142D01*
X137738095Y-59133333D01*
X137738095Y-59228571D01*
X137719047Y-59304761D01*
X137700000Y-59342857D01*
X137680952Y-59361904D01*
X137642857Y-59380952D01*
X137604761Y-59380952D01*
X137566666Y-59361904D01*
X137547619Y-59342857D01*
X137528571Y-59304761D01*
X137509523Y-59228571D01*
X137509523Y-59133333D01*
X137528571Y-59057142D01*
X137547619Y-59019047D01*
X137566666Y-59000000D01*
X137604761Y-58980952D01*
X137909523Y-59342857D02*
X137928571Y-59361904D01*
X137909523Y-59380952D01*
X137890476Y-59361904D01*
X137909523Y-59342857D01*
X137909523Y-59380952D01*
X138176190Y-58980952D02*
X138214285Y-58980952D01*
X138252380Y-59000000D01*
X138271428Y-59019047D01*
X138290476Y-59057142D01*
X138309523Y-59133333D01*
X138309523Y-59228571D01*
X138290476Y-59304761D01*
X138271428Y-59342857D01*
X138252380Y-59361904D01*
X138214285Y-59380952D01*
X138176190Y-59380952D01*
X138138095Y-59361904D01*
X138119047Y-59342857D01*
X138100000Y-59304761D01*
X138080952Y-59228571D01*
X138080952Y-59133333D01*
X138100000Y-59057142D01*
X138119047Y-59019047D01*
X138138095Y-59000000D01*
X138176190Y-58980952D01*
X138461904Y-59019047D02*
X138480952Y-59000000D01*
X138519047Y-58980952D01*
X138614285Y-58980952D01*
X138652380Y-59000000D01*
X138671428Y-59019047D01*
X138690476Y-59057142D01*
X138690476Y-59095238D01*
X138671428Y-59152380D01*
X138442857Y-59380952D01*
X138690476Y-59380952D01*
X153328571Y-72080952D02*
X153328571Y-71680952D01*
X153480952Y-71680952D01*
X153519047Y-71700000D01*
X153538095Y-71719047D01*
X153557142Y-71757142D01*
X153557142Y-71814285D01*
X153538095Y-71852380D01*
X153519047Y-71871428D01*
X153480952Y-71890476D01*
X153328571Y-71890476D01*
X153938095Y-72080952D02*
X153709523Y-72080952D01*
X153823809Y-72080952D02*
X153823809Y-71680952D01*
X153785714Y-71738095D01*
X153747619Y-71776190D01*
X153709523Y-71795238D01*
X154109523Y-72042857D02*
X154128571Y-72061904D01*
X154109523Y-72080952D01*
X154090476Y-72061904D01*
X154109523Y-72042857D01*
X154109523Y-72080952D01*
X154509523Y-72080952D02*
X154280952Y-72080952D01*
X154395238Y-72080952D02*
X154395238Y-71680952D01*
X154357142Y-71738095D01*
X154319047Y-71776190D01*
X154280952Y-71795238D01*
X154642857Y-71680952D02*
X154890476Y-71680952D01*
X154757142Y-71833333D01*
X154814285Y-71833333D01*
X154852380Y-71852380D01*
X154871428Y-71871428D01*
X154890476Y-71909523D01*
X154890476Y-72004761D01*
X154871428Y-72042857D01*
X154852380Y-72061904D01*
X154814285Y-72080952D01*
X154700000Y-72080952D01*
X154661904Y-72061904D01*
X154642857Y-72042857D01*
X137128571Y-72080952D02*
X137128571Y-71680952D01*
X137280952Y-71680952D01*
X137319047Y-71700000D01*
X137338095Y-71719047D01*
X137357142Y-71757142D01*
X137357142Y-71814285D01*
X137338095Y-71852380D01*
X137319047Y-71871428D01*
X137280952Y-71890476D01*
X137128571Y-71890476D01*
X137604761Y-71680952D02*
X137642857Y-71680952D01*
X137680952Y-71700000D01*
X137700000Y-71719047D01*
X137719047Y-71757142D01*
X137738095Y-71833333D01*
X137738095Y-71928571D01*
X137719047Y-72004761D01*
X137700000Y-72042857D01*
X137680952Y-72061904D01*
X137642857Y-72080952D01*
X137604761Y-72080952D01*
X137566666Y-72061904D01*
X137547619Y-72042857D01*
X137528571Y-72004761D01*
X137509523Y-71928571D01*
X137509523Y-71833333D01*
X137528571Y-71757142D01*
X137547619Y-71719047D01*
X137566666Y-71700000D01*
X137604761Y-71680952D01*
X137909523Y-72042857D02*
X137928571Y-72061904D01*
X137909523Y-72080952D01*
X137890476Y-72061904D01*
X137909523Y-72042857D01*
X137909523Y-72080952D01*
X138176190Y-71680952D02*
X138214285Y-71680952D01*
X138252380Y-71700000D01*
X138271428Y-71719047D01*
X138290476Y-71757142D01*
X138309523Y-71833333D01*
X138309523Y-71928571D01*
X138290476Y-72004761D01*
X138271428Y-72042857D01*
X138252380Y-72061904D01*
X138214285Y-72080952D01*
X138176190Y-72080952D01*
X138138095Y-72061904D01*
X138119047Y-72042857D01*
X138100000Y-72004761D01*
X138080952Y-71928571D01*
X138080952Y-71833333D01*
X138100000Y-71757142D01*
X138119047Y-71719047D01*
X138138095Y-71700000D01*
X138176190Y-71680952D01*
X138671428Y-71680952D02*
X138480952Y-71680952D01*
X138461904Y-71871428D01*
X138480952Y-71852380D01*
X138519047Y-71833333D01*
X138614285Y-71833333D01*
X138652380Y-71852380D01*
X138671428Y-71871428D01*
X138690476Y-71909523D01*
X138690476Y-72004761D01*
X138671428Y-72042857D01*
X138652380Y-72061904D01*
X138614285Y-72080952D01*
X138519047Y-72080952D01*
X138480952Y-72061904D01*
X138461904Y-72042857D01*
X153604761Y-64080952D02*
X153852380Y-64080952D01*
X153719047Y-64233333D01*
X153776190Y-64233333D01*
X153814285Y-64252380D01*
X153833333Y-64271428D01*
X153852380Y-64309523D01*
X153852380Y-64404761D01*
X153833333Y-64442857D01*
X153814285Y-64461904D01*
X153776190Y-64480952D01*
X153661904Y-64480952D01*
X153623809Y-64461904D01*
X153604761Y-64442857D01*
X153966666Y-64080952D02*
X154100000Y-64480952D01*
X154233333Y-64080952D01*
X154328571Y-64080952D02*
X154576190Y-64080952D01*
X154442857Y-64233333D01*
X154500000Y-64233333D01*
X154538095Y-64252380D01*
X154557142Y-64271428D01*
X154576190Y-64309523D01*
X154576190Y-64404761D01*
X154557142Y-64442857D01*
X154538095Y-64461904D01*
X154500000Y-64480952D01*
X154385714Y-64480952D01*
X154347619Y-64461904D01*
X154328571Y-64442857D01*
X139480952Y-57919047D02*
X139480952Y-57880952D01*
X139500000Y-57842857D01*
X139519047Y-57823809D01*
X139557142Y-57804761D01*
X139633333Y-57785714D01*
X139728571Y-57785714D01*
X139804761Y-57804761D01*
X139842857Y-57823809D01*
X139861904Y-57842857D01*
X139880952Y-57880952D01*
X139880952Y-57919047D01*
X139861904Y-57957142D01*
X139842857Y-57976190D01*
X139804761Y-57995238D01*
X139728571Y-58014285D01*
X139633333Y-58014285D01*
X139557142Y-57995238D01*
X139519047Y-57976190D01*
X139500000Y-57957142D01*
X139480952Y-57919047D01*
X139528571Y-75980952D02*
X139528571Y-75580952D01*
X139680952Y-75580952D01*
X139719047Y-75600000D01*
X139738095Y-75619047D01*
X139757142Y-75657142D01*
X139757142Y-75714285D01*
X139738095Y-75752380D01*
X139719047Y-75771428D01*
X139680952Y-75790476D01*
X139528571Y-75790476D01*
X140004761Y-75580952D02*
X140042857Y-75580952D01*
X140080952Y-75600000D01*
X140100000Y-75619047D01*
X140119047Y-75657142D01*
X140138095Y-75733333D01*
X140138095Y-75828571D01*
X140119047Y-75904761D01*
X140100000Y-75942857D01*
X140080952Y-75961904D01*
X140042857Y-75980952D01*
X140004761Y-75980952D01*
X139966666Y-75961904D01*
X139947619Y-75942857D01*
X139928571Y-75904761D01*
X139909523Y-75828571D01*
X139909523Y-75733333D01*
X139928571Y-75657142D01*
X139947619Y-75619047D01*
X139966666Y-75600000D01*
X140004761Y-75580952D01*
X140309523Y-75942857D02*
X140328571Y-75961904D01*
X140309523Y-75980952D01*
X140290476Y-75961904D01*
X140309523Y-75942857D01*
X140309523Y-75980952D01*
X140576190Y-75580952D02*
X140614285Y-75580952D01*
X140652380Y-75600000D01*
X140671428Y-75619047D01*
X140690476Y-75657142D01*
X140709523Y-75733333D01*
X140709523Y-75828571D01*
X140690476Y-75904761D01*
X140671428Y-75942857D01*
X140652380Y-75961904D01*
X140614285Y-75980952D01*
X140576190Y-75980952D01*
X140538095Y-75961904D01*
X140519047Y-75942857D01*
X140500000Y-75904761D01*
X140480952Y-75828571D01*
X140480952Y-75733333D01*
X140500000Y-75657142D01*
X140519047Y-75619047D01*
X140538095Y-75600000D01*
X140576190Y-75580952D01*
X140900000Y-75980952D02*
X140976190Y-75980952D01*
X141014285Y-75961904D01*
X141033333Y-75942857D01*
X141071428Y-75885714D01*
X141090476Y-75809523D01*
X141090476Y-75657142D01*
X141071428Y-75619047D01*
X141052380Y-75600000D01*
X141014285Y-75580952D01*
X140938095Y-75580952D01*
X140900000Y-75600000D01*
X140880952Y-75619047D01*
X140861904Y-75657142D01*
X140861904Y-75752380D01*
X140880952Y-75790476D01*
X140900000Y-75809523D01*
X140938095Y-75828571D01*
X141014285Y-75828571D01*
X141052380Y-75809523D01*
X141071428Y-75790476D01*
X141090476Y-75752380D01*
X152419047Y-72966666D02*
X152419047Y-73233333D01*
X152019047Y-73061904D01*
X137128571Y-64480952D02*
X137128571Y-64080952D01*
X137280952Y-64080952D01*
X137319047Y-64100000D01*
X137338095Y-64119047D01*
X137357142Y-64157142D01*
X137357142Y-64214285D01*
X137338095Y-64252380D01*
X137319047Y-64271428D01*
X137280952Y-64290476D01*
X137128571Y-64290476D01*
X137604761Y-64080952D02*
X137642857Y-64080952D01*
X137680952Y-64100000D01*
X137700000Y-64119047D01*
X137719047Y-64157142D01*
X137738095Y-64233333D01*
X137738095Y-64328571D01*
X137719047Y-64404761D01*
X137700000Y-64442857D01*
X137680952Y-64461904D01*
X137642857Y-64480952D01*
X137604761Y-64480952D01*
X137566666Y-64461904D01*
X137547619Y-64442857D01*
X137528571Y-64404761D01*
X137509523Y-64328571D01*
X137509523Y-64233333D01*
X137528571Y-64157142D01*
X137547619Y-64119047D01*
X137566666Y-64100000D01*
X137604761Y-64080952D01*
X137909523Y-64442857D02*
X137928571Y-64461904D01*
X137909523Y-64480952D01*
X137890476Y-64461904D01*
X137909523Y-64442857D01*
X137909523Y-64480952D01*
X138080952Y-64119047D02*
X138100000Y-64100000D01*
X138138095Y-64080952D01*
X138233333Y-64080952D01*
X138271428Y-64100000D01*
X138290476Y-64119047D01*
X138309523Y-64157142D01*
X138309523Y-64195238D01*
X138290476Y-64252380D01*
X138061904Y-64480952D01*
X138309523Y-64480952D01*
X138538095Y-64252380D02*
X138500000Y-64233333D01*
X138480952Y-64214285D01*
X138461904Y-64176190D01*
X138461904Y-64157142D01*
X138480952Y-64119047D01*
X138500000Y-64100000D01*
X138538095Y-64080952D01*
X138614285Y-64080952D01*
X138652380Y-64100000D01*
X138671428Y-64119047D01*
X138690476Y-64157142D01*
X138690476Y-64176190D01*
X138671428Y-64214285D01*
X138652380Y-64233333D01*
X138614285Y-64252380D01*
X138538095Y-64252380D01*
X138500000Y-64271428D01*
X138480952Y-64290476D01*
X138461904Y-64328571D01*
X138461904Y-64404761D01*
X138480952Y-64442857D01*
X138500000Y-64461904D01*
X138538095Y-64480952D01*
X138614285Y-64480952D01*
X138652380Y-64461904D01*
X138671428Y-64442857D01*
X138690476Y-64404761D01*
X138690476Y-64328571D01*
X138671428Y-64290476D01*
X138652380Y-64271428D01*
X138614285Y-64252380D01*
X139519047Y-63114285D02*
X139500000Y-63095238D01*
X139480952Y-63057142D01*
X139480952Y-62961904D01*
X139500000Y-62923809D01*
X139519047Y-62904761D01*
X139557142Y-62885714D01*
X139595238Y-62885714D01*
X139652380Y-62904761D01*
X139880952Y-63133333D01*
X139880952Y-62885714D01*
X139480952Y-65633333D02*
X139480952Y-65385714D01*
X139633333Y-65519047D01*
X139633333Y-65461904D01*
X139652380Y-65423809D01*
X139671428Y-65404761D01*
X139709523Y-65385714D01*
X139804761Y-65385714D01*
X139842857Y-65404761D01*
X139861904Y-65423809D01*
X139880952Y-65461904D01*
X139880952Y-65576190D01*
X139861904Y-65614285D01*
X139842857Y-65633333D01*
X139880952Y-60285714D02*
X139880952Y-60514285D01*
X139880952Y-60400000D02*
X139480952Y-60400000D01*
X139538095Y-60438095D01*
X139576190Y-60476190D01*
X139595238Y-60514285D01*
X139614285Y-68023809D02*
X139880952Y-68023809D01*
X139461904Y-68119047D02*
X139747619Y-68214285D01*
X139747619Y-67966666D01*
D10*
X148152380Y-65128571D02*
X148295238Y-65176190D01*
X148342857Y-65223809D01*
X148390476Y-65319047D01*
X148390476Y-65461904D01*
X148342857Y-65557142D01*
X148295238Y-65604761D01*
X148200000Y-65652380D01*
X147819047Y-65652380D01*
X147819047Y-64652380D01*
X148152380Y-64652380D01*
X148247619Y-64700000D01*
X148295238Y-64747619D01*
X148342857Y-64842857D01*
X148342857Y-64938095D01*
X148295238Y-65033333D01*
X148247619Y-65080952D01*
X148152380Y-65128571D01*
X147819047Y-65128571D01*
X148819047Y-65271428D02*
X149580952Y-65271428D01*
X149200000Y-65652380D02*
X149200000Y-64890476D01*
X148152380Y-63128571D02*
X148295238Y-63176190D01*
X148342857Y-63223809D01*
X148390476Y-63319047D01*
X148390476Y-63461904D01*
X148342857Y-63557142D01*
X148295238Y-63604761D01*
X148200000Y-63652380D01*
X147819047Y-63652380D01*
X147819047Y-62652380D01*
X148152380Y-62652380D01*
X148247619Y-62700000D01*
X148295238Y-62747619D01*
X148342857Y-62842857D01*
X148342857Y-62938095D01*
X148295238Y-63033333D01*
X148247619Y-63080952D01*
X148152380Y-63128571D01*
X147819047Y-63128571D01*
X148819047Y-63271428D02*
X149580952Y-63271428D01*
D12*
X146895238Y-60500000D02*
X146857142Y-60480952D01*
X146800000Y-60480952D01*
X146742857Y-60500000D01*
X146704761Y-60538095D01*
X146685714Y-60576190D01*
X146666666Y-60652380D01*
X146666666Y-60709523D01*
X146685714Y-60785714D01*
X146704761Y-60823809D01*
X146742857Y-60861904D01*
X146800000Y-60880952D01*
X146838095Y-60880952D01*
X146895238Y-60861904D01*
X146914285Y-60842857D01*
X146914285Y-60709523D01*
X146838095Y-60709523D01*
X147085714Y-60880952D02*
X147085714Y-60480952D01*
X147314285Y-60880952D01*
X147314285Y-60480952D01*
X147504761Y-60880952D02*
X147504761Y-60480952D01*
X147600000Y-60480952D01*
X147657142Y-60500000D01*
X147695238Y-60538095D01*
X147714285Y-60576190D01*
X147733333Y-60652380D01*
X147733333Y-60709523D01*
X147714285Y-60785714D01*
X147695238Y-60823809D01*
X147657142Y-60861904D01*
X147600000Y-60880952D01*
X147504761Y-60880952D01*
X153328571Y-69480952D02*
X153328571Y-69080952D01*
X153480952Y-69080952D01*
X153519047Y-69100000D01*
X153538095Y-69119047D01*
X153557142Y-69157142D01*
X153557142Y-69214285D01*
X153538095Y-69252380D01*
X153519047Y-69271428D01*
X153480952Y-69290476D01*
X153328571Y-69290476D01*
X153938095Y-69480952D02*
X153709523Y-69480952D01*
X153823809Y-69480952D02*
X153823809Y-69080952D01*
X153785714Y-69138095D01*
X153747619Y-69176190D01*
X153709523Y-69195238D01*
X154109523Y-69442857D02*
X154128571Y-69461904D01*
X154109523Y-69480952D01*
X154090476Y-69461904D01*
X154109523Y-69442857D01*
X154109523Y-69480952D01*
X154509523Y-69480952D02*
X154280952Y-69480952D01*
X154395238Y-69480952D02*
X154395238Y-69080952D01*
X154357142Y-69138095D01*
X154319047Y-69176190D01*
X154280952Y-69195238D01*
X154852380Y-69214285D02*
X154852380Y-69480952D01*
X154757142Y-69061904D02*
X154661904Y-69347619D01*
X154909523Y-69347619D01*
X143795238Y-55961904D02*
X143852380Y-55980952D01*
X143947619Y-55980952D01*
X143985714Y-55961904D01*
X144004761Y-55942857D01*
X144023809Y-55904761D01*
X144023809Y-55866666D01*
X144004761Y-55828571D01*
X143985714Y-55809523D01*
X143947619Y-55790476D01*
X143871428Y-55771428D01*
X143833333Y-55752380D01*
X143814285Y-55733333D01*
X143795238Y-55695238D01*
X143795238Y-55657142D01*
X143814285Y-55619047D01*
X143833333Y-55600000D01*
X143871428Y-55580952D01*
X143966666Y-55580952D01*
X144023809Y-55600000D01*
X144157142Y-55580952D02*
X144252380Y-55980952D01*
X144328571Y-55695238D01*
X144404761Y-55980952D01*
X144500000Y-55580952D01*
X144880952Y-55942857D02*
X144861904Y-55961904D01*
X144804761Y-55980952D01*
X144766666Y-55980952D01*
X144709523Y-55961904D01*
X144671428Y-55923809D01*
X144652380Y-55885714D01*
X144633333Y-55809523D01*
X144633333Y-55752380D01*
X144652380Y-55676190D01*
X144671428Y-55638095D01*
X144709523Y-55600000D01*
X144766666Y-55580952D01*
X144804761Y-55580952D01*
X144861904Y-55600000D01*
X144880952Y-55619047D01*
X145242857Y-55980952D02*
X145052380Y-55980952D01*
X145052380Y-55580952D01*
X145376190Y-55980952D02*
X145376190Y-55580952D01*
X145604761Y-55980952D02*
X145433333Y-55752380D01*
X145604761Y-55580952D02*
X145376190Y-55809523D01*
X153328571Y-66980952D02*
X153328571Y-66580952D01*
X153480952Y-66580952D01*
X153519047Y-66600000D01*
X153538095Y-66619047D01*
X153557142Y-66657142D01*
X153557142Y-66714285D01*
X153538095Y-66752380D01*
X153519047Y-66771428D01*
X153480952Y-66790476D01*
X153328571Y-66790476D01*
X153938095Y-66980952D02*
X153709523Y-66980952D01*
X153823809Y-66980952D02*
X153823809Y-66580952D01*
X153785714Y-66638095D01*
X153747619Y-66676190D01*
X153709523Y-66695238D01*
X154109523Y-66942857D02*
X154128571Y-66961904D01*
X154109523Y-66980952D01*
X154090476Y-66961904D01*
X154109523Y-66942857D01*
X154109523Y-66980952D01*
X154509523Y-66980952D02*
X154280952Y-66980952D01*
X154395238Y-66980952D02*
X154395238Y-66580952D01*
X154357142Y-66638095D01*
X154319047Y-66676190D01*
X154280952Y-66695238D01*
X154871428Y-66580952D02*
X154680952Y-66580952D01*
X154661904Y-66771428D01*
X154680952Y-66752380D01*
X154719047Y-66733333D01*
X154814285Y-66733333D01*
X154852380Y-66752380D01*
X154871428Y-66771428D01*
X154890476Y-66809523D01*
X154890476Y-66904761D01*
X154871428Y-66942857D01*
X154852380Y-66961904D01*
X154814285Y-66980952D01*
X154719047Y-66980952D01*
X154680952Y-66961904D01*
X154661904Y-66942857D01*
X141428571Y-75980952D02*
X141428571Y-75580952D01*
X141580952Y-75580952D01*
X141619047Y-75600000D01*
X141638095Y-75619047D01*
X141657142Y-75657142D01*
X141657142Y-75714285D01*
X141638095Y-75752380D01*
X141619047Y-75771428D01*
X141580952Y-75790476D01*
X141428571Y-75790476D01*
X141904761Y-75580952D02*
X141942857Y-75580952D01*
X141980952Y-75600000D01*
X142000000Y-75619047D01*
X142019047Y-75657142D01*
X142038095Y-75733333D01*
X142038095Y-75828571D01*
X142019047Y-75904761D01*
X142000000Y-75942857D01*
X141980952Y-75961904D01*
X141942857Y-75980952D01*
X141904761Y-75980952D01*
X141866666Y-75961904D01*
X141847619Y-75942857D01*
X141828571Y-75904761D01*
X141809523Y-75828571D01*
X141809523Y-75733333D01*
X141828571Y-75657142D01*
X141847619Y-75619047D01*
X141866666Y-75600000D01*
X141904761Y-75580952D01*
X142209523Y-75942857D02*
X142228571Y-75961904D01*
X142209523Y-75980952D01*
X142190476Y-75961904D01*
X142209523Y-75942857D01*
X142209523Y-75980952D01*
X142609523Y-75980952D02*
X142380952Y-75980952D01*
X142495238Y-75980952D02*
X142495238Y-75580952D01*
X142457142Y-75638095D01*
X142419047Y-75676190D01*
X142380952Y-75695238D01*
X142857142Y-75580952D02*
X142895238Y-75580952D01*
X142933333Y-75600000D01*
X142952380Y-75619047D01*
X142971428Y-75657142D01*
X142990476Y-75733333D01*
X142990476Y-75828571D01*
X142971428Y-75904761D01*
X142952380Y-75942857D01*
X142933333Y-75961904D01*
X142895238Y-75980952D01*
X142857142Y-75980952D01*
X142819047Y-75961904D01*
X142800000Y-75942857D01*
X142780952Y-75904761D01*
X142761904Y-75828571D01*
X142761904Y-75733333D01*
X142780952Y-75657142D01*
X142800000Y-75619047D01*
X142819047Y-75600000D01*
X142857142Y-75580952D01*
X137128571Y-74680952D02*
X137128571Y-74280952D01*
X137280952Y-74280952D01*
X137319047Y-74300000D01*
X137338095Y-74319047D01*
X137357142Y-74357142D01*
X137357142Y-74414285D01*
X137338095Y-74452380D01*
X137319047Y-74471428D01*
X137280952Y-74490476D01*
X137128571Y-74490476D01*
X137738095Y-74680952D02*
X137509523Y-74680952D01*
X137623809Y-74680952D02*
X137623809Y-74280952D01*
X137585714Y-74338095D01*
X137547619Y-74376190D01*
X137509523Y-74395238D01*
X137909523Y-74642857D02*
X137928571Y-74661904D01*
X137909523Y-74680952D01*
X137890476Y-74661904D01*
X137909523Y-74642857D01*
X137909523Y-74680952D01*
X138309523Y-74680952D02*
X138080952Y-74680952D01*
X138195238Y-74680952D02*
X138195238Y-74280952D01*
X138157142Y-74338095D01*
X138119047Y-74376190D01*
X138080952Y-74395238D01*
X138690476Y-74680952D02*
X138461904Y-74680952D01*
X138576190Y-74680952D02*
X138576190Y-74280952D01*
X138538095Y-74338095D01*
X138500000Y-74376190D01*
X138461904Y-74395238D01*
X152247619Y-70561904D02*
X152266666Y-70523809D01*
X152285714Y-70504761D01*
X152323809Y-70485714D01*
X152342857Y-70485714D01*
X152380952Y-70504761D01*
X152400000Y-70523809D01*
X152419047Y-70561904D01*
X152419047Y-70638095D01*
X152400000Y-70676190D01*
X152380952Y-70695238D01*
X152342857Y-70714285D01*
X152323809Y-70714285D01*
X152285714Y-70695238D01*
X152266666Y-70676190D01*
X152247619Y-70638095D01*
X152247619Y-70561904D01*
X152228571Y-70523809D01*
X152209523Y-70504761D01*
X152171428Y-70485714D01*
X152095238Y-70485714D01*
X152057142Y-70504761D01*
X152038095Y-70523809D01*
X152019047Y-70561904D01*
X152019047Y-70638095D01*
X152038095Y-70676190D01*
X152057142Y-70695238D01*
X152095238Y-70714285D01*
X152171428Y-70714285D01*
X152209523Y-70695238D01*
X152228571Y-70676190D01*
X152247619Y-70638095D01*
X154023809Y-58980952D02*
X153833333Y-58980952D01*
X153814285Y-59171428D01*
X153833333Y-59152380D01*
X153871428Y-59133333D01*
X153966666Y-59133333D01*
X154004761Y-59152380D01*
X154023809Y-59171428D01*
X154042857Y-59209523D01*
X154042857Y-59304761D01*
X154023809Y-59342857D01*
X154004761Y-59361904D01*
X153966666Y-59380952D01*
X153871428Y-59380952D01*
X153833333Y-59361904D01*
X153814285Y-59342857D01*
X154157142Y-58980952D02*
X154290476Y-59380952D01*
X154423809Y-58980952D01*
X139480952Y-70504761D02*
X139480952Y-70695238D01*
X139671428Y-70714285D01*
X139652380Y-70695238D01*
X139633333Y-70657142D01*
X139633333Y-70561904D01*
X139652380Y-70523809D01*
X139671428Y-70504761D01*
X139709523Y-70485714D01*
X139804761Y-70485714D01*
X139842857Y-70504761D01*
X139861904Y-70523809D01*
X139880952Y-70561904D01*
X139880952Y-70657142D01*
X139861904Y-70695238D01*
X139842857Y-70714285D01*
X153795238Y-61500000D02*
X153757142Y-61480952D01*
X153700000Y-61480952D01*
X153642857Y-61500000D01*
X153604761Y-61538095D01*
X153585714Y-61576190D01*
X153566666Y-61652380D01*
X153566666Y-61709523D01*
X153585714Y-61785714D01*
X153604761Y-61823809D01*
X153642857Y-61861904D01*
X153700000Y-61880952D01*
X153738095Y-61880952D01*
X153795238Y-61861904D01*
X153814285Y-61842857D01*
X153814285Y-61709523D01*
X153738095Y-61709523D01*
X153985714Y-61880952D02*
X153985714Y-61480952D01*
X154214285Y-61880952D01*
X154214285Y-61480952D01*
X154404761Y-61880952D02*
X154404761Y-61480952D01*
X154500000Y-61480952D01*
X154557142Y-61500000D01*
X154595238Y-61538095D01*
X154614285Y-61576190D01*
X154633333Y-61652380D01*
X154633333Y-61709523D01*
X154614285Y-61785714D01*
X154595238Y-61823809D01*
X154557142Y-61861904D01*
X154500000Y-61880952D01*
X154404761Y-61880952D01*
X144119047Y-60880952D02*
X143985714Y-60690476D01*
X143890476Y-60880952D02*
X143890476Y-60480952D01*
X144042857Y-60480952D01*
X144080952Y-60500000D01*
X144100000Y-60519047D01*
X144119047Y-60557142D01*
X144119047Y-60614285D01*
X144100000Y-60652380D01*
X144080952Y-60671428D01*
X144042857Y-60690476D01*
X143890476Y-60690476D01*
X144290476Y-60671428D02*
X144423809Y-60671428D01*
X144480952Y-60880952D02*
X144290476Y-60880952D01*
X144290476Y-60480952D01*
X144480952Y-60480952D01*
X144633333Y-60861904D02*
X144690476Y-60880952D01*
X144785714Y-60880952D01*
X144823809Y-60861904D01*
X144842857Y-60842857D01*
X144861904Y-60804761D01*
X144861904Y-60766666D01*
X144842857Y-60728571D01*
X144823809Y-60709523D01*
X144785714Y-60690476D01*
X144709523Y-60671428D01*
X144671428Y-60652380D01*
X144652380Y-60633333D01*
X144633333Y-60595238D01*
X144633333Y-60557142D01*
X144652380Y-60519047D01*
X144671428Y-60500000D01*
X144709523Y-60480952D01*
X144804761Y-60480952D01*
X144861904Y-60500000D01*
X145033333Y-60671428D02*
X145166666Y-60671428D01*
X145223809Y-60880952D02*
X145033333Y-60880952D01*
X145033333Y-60480952D01*
X145223809Y-60480952D01*
X145338095Y-60480952D02*
X145566666Y-60480952D01*
X145452380Y-60880952D02*
X145452380Y-60480952D01*
X137128571Y-66980952D02*
X137128571Y-66580952D01*
X137280952Y-66580952D01*
X137319047Y-66600000D01*
X137338095Y-66619047D01*
X137357142Y-66657142D01*
X137357142Y-66714285D01*
X137338095Y-66752380D01*
X137319047Y-66771428D01*
X137280952Y-66790476D01*
X137128571Y-66790476D01*
X137604761Y-66580952D02*
X137642857Y-66580952D01*
X137680952Y-66600000D01*
X137700000Y-66619047D01*
X137719047Y-66657142D01*
X137738095Y-66733333D01*
X137738095Y-66828571D01*
X137719047Y-66904761D01*
X137700000Y-66942857D01*
X137680952Y-66961904D01*
X137642857Y-66980952D01*
X137604761Y-66980952D01*
X137566666Y-66961904D01*
X137547619Y-66942857D01*
X137528571Y-66904761D01*
X137509523Y-66828571D01*
X137509523Y-66733333D01*
X137528571Y-66657142D01*
X137547619Y-66619047D01*
X137566666Y-66600000D01*
X137604761Y-66580952D01*
X137909523Y-66942857D02*
X137928571Y-66961904D01*
X137909523Y-66980952D01*
X137890476Y-66961904D01*
X137909523Y-66942857D01*
X137909523Y-66980952D01*
X138080952Y-66619047D02*
X138100000Y-66600000D01*
X138138095Y-66580952D01*
X138233333Y-66580952D01*
X138271428Y-66600000D01*
X138290476Y-66619047D01*
X138309523Y-66657142D01*
X138309523Y-66695238D01*
X138290476Y-66752380D01*
X138061904Y-66980952D01*
X138309523Y-66980952D01*
X138500000Y-66980952D02*
X138576190Y-66980952D01*
X138614285Y-66961904D01*
X138633333Y-66942857D01*
X138671428Y-66885714D01*
X138690476Y-66809523D01*
X138690476Y-66657142D01*
X138671428Y-66619047D01*
X138652380Y-66600000D01*
X138614285Y-66580952D01*
X138538095Y-66580952D01*
X138500000Y-66600000D01*
X138480952Y-66619047D01*
X138461904Y-66657142D01*
X138461904Y-66752380D01*
X138480952Y-66790476D01*
X138500000Y-66809523D01*
X138538095Y-66828571D01*
X138614285Y-66828571D01*
X138652380Y-66809523D01*
X138671428Y-66790476D01*
X138690476Y-66752380D01*
X152019047Y-65423809D02*
X152019047Y-65195238D01*
X152019047Y-65309523D02*
X152419047Y-65309523D01*
X152361904Y-65271428D01*
X152323809Y-65233333D01*
X152304761Y-65195238D01*
X152419047Y-65671428D02*
X152419047Y-65709523D01*
X152400000Y-65747619D01*
X152380952Y-65766666D01*
X152342857Y-65785714D01*
X152266666Y-65804761D01*
X152171428Y-65804761D01*
X152095238Y-65785714D01*
X152057142Y-65766666D01*
X152038095Y-65747619D01*
X152019047Y-65709523D01*
X152019047Y-65671428D01*
X152038095Y-65633333D01*
X152057142Y-65614285D01*
X152095238Y-65595238D01*
X152171428Y-65576190D01*
X152266666Y-65576190D01*
X152342857Y-65595238D01*
X152380952Y-65614285D01*
X152400000Y-65633333D01*
X152419047Y-65671428D01*
X137128571Y-61880952D02*
X137128571Y-61480952D01*
X137280952Y-61480952D01*
X137319047Y-61500000D01*
X137338095Y-61519047D01*
X137357142Y-61557142D01*
X137357142Y-61614285D01*
X137338095Y-61652380D01*
X137319047Y-61671428D01*
X137280952Y-61690476D01*
X137128571Y-61690476D01*
X137604761Y-61480952D02*
X137642857Y-61480952D01*
X137680952Y-61500000D01*
X137700000Y-61519047D01*
X137719047Y-61557142D01*
X137738095Y-61633333D01*
X137738095Y-61728571D01*
X137719047Y-61804761D01*
X137700000Y-61842857D01*
X137680952Y-61861904D01*
X137642857Y-61880952D01*
X137604761Y-61880952D01*
X137566666Y-61861904D01*
X137547619Y-61842857D01*
X137528571Y-61804761D01*
X137509523Y-61728571D01*
X137509523Y-61633333D01*
X137528571Y-61557142D01*
X137547619Y-61519047D01*
X137566666Y-61500000D01*
X137604761Y-61480952D01*
X137909523Y-61842857D02*
X137928571Y-61861904D01*
X137909523Y-61880952D01*
X137890476Y-61861904D01*
X137909523Y-61842857D01*
X137909523Y-61880952D01*
X138176190Y-61480952D02*
X138214285Y-61480952D01*
X138252380Y-61500000D01*
X138271428Y-61519047D01*
X138290476Y-61557142D01*
X138309523Y-61633333D01*
X138309523Y-61728571D01*
X138290476Y-61804761D01*
X138271428Y-61842857D01*
X138252380Y-61861904D01*
X138214285Y-61880952D01*
X138176190Y-61880952D01*
X138138095Y-61861904D01*
X138119047Y-61842857D01*
X138100000Y-61804761D01*
X138080952Y-61728571D01*
X138080952Y-61633333D01*
X138100000Y-61557142D01*
X138119047Y-61519047D01*
X138138095Y-61500000D01*
X138176190Y-61480952D01*
X138442857Y-61480952D02*
X138690476Y-61480952D01*
X138557142Y-61633333D01*
X138614285Y-61633333D01*
X138652380Y-61652380D01*
X138671428Y-61671428D01*
X138690476Y-61709523D01*
X138690476Y-61804761D01*
X138671428Y-61842857D01*
X138652380Y-61861904D01*
X138614285Y-61880952D01*
X138500000Y-61880952D01*
X138461904Y-61861904D01*
X138442857Y-61842857D01*
X152019047Y-67923809D02*
X152019047Y-68000000D01*
X152038095Y-68038095D01*
X152057142Y-68057142D01*
X152114285Y-68095238D01*
X152190476Y-68114285D01*
X152342857Y-68114285D01*
X152380952Y-68095238D01*
X152400000Y-68076190D01*
X152419047Y-68038095D01*
X152419047Y-67961904D01*
X152400000Y-67923809D01*
X152380952Y-67904761D01*
X152342857Y-67885714D01*
X152247619Y-67885714D01*
X152209523Y-67904761D01*
X152190476Y-67923809D01*
X152171428Y-67961904D01*
X152171428Y-68038095D01*
X152190476Y-68076190D01*
X152209523Y-68095238D01*
X152247619Y-68114285D01*
X137128571Y-69480952D02*
X137128571Y-69080952D01*
X137280952Y-69080952D01*
X137319047Y-69100000D01*
X137338095Y-69119047D01*
X137357142Y-69157142D01*
X137357142Y-69214285D01*
X137338095Y-69252380D01*
X137319047Y-69271428D01*
X137280952Y-69290476D01*
X137128571Y-69290476D01*
X137604761Y-69080952D02*
X137642857Y-69080952D01*
X137680952Y-69100000D01*
X137700000Y-69119047D01*
X137719047Y-69157142D01*
X137738095Y-69233333D01*
X137738095Y-69328571D01*
X137719047Y-69404761D01*
X137700000Y-69442857D01*
X137680952Y-69461904D01*
X137642857Y-69480952D01*
X137604761Y-69480952D01*
X137566666Y-69461904D01*
X137547619Y-69442857D01*
X137528571Y-69404761D01*
X137509523Y-69328571D01*
X137509523Y-69233333D01*
X137528571Y-69157142D01*
X137547619Y-69119047D01*
X137566666Y-69100000D01*
X137604761Y-69080952D01*
X137909523Y-69442857D02*
X137928571Y-69461904D01*
X137909523Y-69480952D01*
X137890476Y-69461904D01*
X137909523Y-69442857D01*
X137909523Y-69480952D01*
X138176190Y-69080952D02*
X138214285Y-69080952D01*
X138252380Y-69100000D01*
X138271428Y-69119047D01*
X138290476Y-69157142D01*
X138309523Y-69233333D01*
X138309523Y-69328571D01*
X138290476Y-69404761D01*
X138271428Y-69442857D01*
X138252380Y-69461904D01*
X138214285Y-69480952D01*
X138176190Y-69480952D01*
X138138095Y-69461904D01*
X138119047Y-69442857D01*
X138100000Y-69404761D01*
X138080952Y-69328571D01*
X138080952Y-69233333D01*
X138100000Y-69157142D01*
X138119047Y-69119047D01*
X138138095Y-69100000D01*
X138176190Y-69080952D01*
X138652380Y-69214285D02*
X138652380Y-69480952D01*
X138557142Y-69061904D02*
X138461904Y-69347619D01*
X138709523Y-69347619D01*
X153328571Y-74680952D02*
X153328571Y-74280952D01*
X153480952Y-74280952D01*
X153519047Y-74300000D01*
X153538095Y-74319047D01*
X153557142Y-74357142D01*
X153557142Y-74414285D01*
X153538095Y-74452380D01*
X153519047Y-74471428D01*
X153480952Y-74490476D01*
X153328571Y-74490476D01*
X153938095Y-74680952D02*
X153709523Y-74680952D01*
X153823809Y-74680952D02*
X153823809Y-74280952D01*
X153785714Y-74338095D01*
X153747619Y-74376190D01*
X153709523Y-74395238D01*
X154109523Y-74642857D02*
X154128571Y-74661904D01*
X154109523Y-74680952D01*
X154090476Y-74661904D01*
X154109523Y-74642857D01*
X154109523Y-74680952D01*
X154509523Y-74680952D02*
X154280952Y-74680952D01*
X154395238Y-74680952D02*
X154395238Y-74280952D01*
X154357142Y-74338095D01*
X154319047Y-74376190D01*
X154280952Y-74395238D01*
X154661904Y-74319047D02*
X154680952Y-74300000D01*
X154719047Y-74280952D01*
X154814285Y-74280952D01*
X154852380Y-74300000D01*
X154871428Y-74319047D01*
X154890476Y-74357142D01*
X154890476Y-74395238D01*
X154871428Y-74452380D01*
X154642857Y-74680952D01*
X154890476Y-74680952D01*
D10*
X49285720Y-92654761D02*
X49428577Y-92702380D01*
X49666672Y-92702380D01*
X49761910Y-92654761D01*
X49809529Y-92607142D01*
X49857148Y-92511904D01*
X49857148Y-92416666D01*
X49809529Y-92321428D01*
X49761910Y-92273809D01*
X49666672Y-92226190D01*
X49476196Y-92178571D01*
X49380958Y-92130952D01*
X49333339Y-92083333D01*
X49285720Y-91988095D01*
X49285720Y-91892857D01*
X49333339Y-91797619D01*
X49380958Y-91750000D01*
X49476196Y-91702380D01*
X49714291Y-91702380D01*
X49857148Y-91750000D01*
X50809529Y-92702380D02*
X50238101Y-92702380D01*
X50523815Y-92702380D02*
X50523815Y-91702380D01*
X50428577Y-91845238D01*
X50333339Y-91940476D01*
X50238101Y-91988095D01*
X51428577Y-91702380D02*
X51523815Y-91702380D01*
X51619053Y-91750000D01*
X51666672Y-91797619D01*
X51714291Y-91892857D01*
X51761910Y-92083333D01*
X51761910Y-92321428D01*
X51714291Y-92511904D01*
X51666672Y-92607142D01*
X51619053Y-92654761D01*
X51523815Y-92702380D01*
X51428577Y-92702380D01*
X51333339Y-92654761D01*
X51285720Y-92607142D01*
X51238101Y-92511904D01*
X51190482Y-92321428D01*
X51190482Y-92083333D01*
X51238101Y-91892857D01*
X51285720Y-91797619D01*
X51333339Y-91750000D01*
X51428577Y-91702380D01*
X52714291Y-92702380D02*
X52142863Y-92702380D01*
X52428577Y-92702380D02*
X52428577Y-91702380D01*
X52333339Y-91845238D01*
X52238101Y-91940476D01*
X52142863Y-91988095D01*
D14*
X133654979Y-140352613D02*
X134664373Y-136585502D01*
X131723127Y-139834975D02*
X133654979Y-140352613D01*
X131723127Y-139834975D02*
X132732521Y-136067864D01*
X91250005Y-94350000D02*
X91250005Y-90450000D01*
X89250005Y-94350000D02*
X91250005Y-94350000D01*
X89250005Y-94350000D02*
X89250005Y-90450000D01*
D10*
X163305000Y-55092500D02*
X157705000Y-55092500D01*
X157705000Y-57092500D02*
X157705000Y-55092500D01*
X163305000Y-57092500D02*
X163305000Y-55092500D01*
X163555000Y-69192500D02*
X157455000Y-69192500D01*
X163555000Y-57092500D02*
X163555000Y-69192500D01*
X157455000Y-57092500D02*
X157455000Y-69192500D01*
X163555000Y-57092500D02*
X157455000Y-57092500D01*
D14*
X71250012Y-98599994D02*
X73250012Y-98599994D01*
X73250012Y-98599994D02*
X73250012Y-94699994D01*
X71250012Y-98599994D02*
X71250012Y-94699994D01*
X89250004Y-77349994D02*
X91250004Y-77349994D01*
X89250004Y-77349994D02*
X89250004Y-73449994D01*
X91250004Y-77349994D02*
X91250004Y-73449994D01*
X53250003Y-111349998D02*
X53250003Y-107449998D01*
X53250003Y-111349998D02*
X55250003Y-111349998D01*
X55250003Y-111349998D02*
X55250003Y-107449998D01*
X107250005Y-73099995D02*
X107250005Y-69199995D01*
X107250005Y-73099995D02*
X109250005Y-73099995D01*
X109250005Y-73099995D02*
X109250005Y-69199995D01*
X127250002Y-111349992D02*
X127250002Y-107449992D01*
X125250002Y-111349992D02*
X125250002Y-107449992D01*
X125250002Y-111349992D02*
X127250002Y-111349992D01*
X109250007Y-107100004D02*
X109250007Y-103200004D01*
X107250007Y-107100004D02*
X107250007Y-103200004D01*
X107250007Y-107100004D02*
X109250007Y-107100004D01*
X91249996Y-60349992D02*
X91249996Y-56449992D01*
X89249996Y-60349992D02*
X89249996Y-56449992D01*
X89249996Y-60349992D02*
X91249996Y-60349992D01*
X111750006Y-136849998D02*
X111750006Y-132949998D01*
X113750006Y-136849998D02*
X113750006Y-132949998D01*
X111750006Y-136849998D02*
X113750006Y-136849998D01*
X125250004Y-77349988D02*
X125250004Y-73449988D01*
X125250004Y-77349988D02*
X127250004Y-77349988D01*
X127250004Y-77349988D02*
X127250004Y-73449988D01*
X35250004Y-98599997D02*
X37250004Y-98599997D01*
X37250004Y-98599997D02*
X37250004Y-94699997D01*
X35250004Y-98599997D02*
X35250004Y-94699997D01*
X150243123Y-147887654D02*
X152193123Y-144510155D01*
X150243123Y-147887654D02*
X151975174Y-148887654D01*
X151975174Y-148887654D02*
X153925174Y-145510155D01*
X53250000Y-77350000D02*
X53250000Y-73450000D01*
X55250000Y-77350000D02*
X55250000Y-73450000D01*
X53250000Y-77350000D02*
X55250000Y-77350000D01*
X71250010Y-81599988D02*
X71250010Y-77699988D01*
X73250010Y-81599988D02*
X73250010Y-77699988D01*
X71250010Y-81599988D02*
X73250010Y-81599988D01*
X125250003Y-94349993D02*
X125250003Y-90449993D01*
X127250003Y-94349993D02*
X127250003Y-90449993D01*
X125250003Y-94349993D02*
X127250003Y-94349993D01*
X109250006Y-90100002D02*
X109250006Y-86200002D01*
X107250006Y-90100002D02*
X107250006Y-86200002D01*
X107250006Y-90100002D02*
X109250006Y-90100002D01*
X37250007Y-81599997D02*
X37250007Y-77699997D01*
X35250007Y-81599997D02*
X37250007Y-81599997D01*
X35250007Y-81599997D02*
X35250007Y-77699997D01*
D15*
X163300000Y-124350000D02*
X164600000Y-124350000D01*
X165350000Y-119650000D02*
X165350000Y-118000000D01*
X162650000Y-122400000D02*
X162650000Y-120700000D01*
X166850000Y-120950000D02*
X165350000Y-120950000D01*
X165350000Y-120950000D02*
X165350000Y-119650000D01*
X165350000Y-124000000D02*
X165350000Y-120950000D01*
X166850000Y-120950000D02*
X166850000Y-119650000D01*
X164600000Y-117650000D02*
X163300000Y-117650000D01*
X166850000Y-119650000D02*
X165350000Y-119650000D01*
D14*
X71250006Y-64599999D02*
X73250006Y-64599999D01*
X73250006Y-64599999D02*
X73250006Y-60699999D01*
X71250006Y-64599999D02*
X71250006Y-60699999D01*
X53250006Y-94350000D02*
X55250006Y-94350000D01*
X53250006Y-94350000D02*
X53250006Y-90450000D01*
X55250006Y-94350000D02*
X55250006Y-90450000D01*
%LPC*%
D16*
X127334237Y-128202686D03*
X132733268Y-127371744D03*
X136993496Y-130790876D03*
D17*
X131193295Y-133119003D03*
D18*
X125880703Y-131695498D03*
X136505887Y-134542508D03*
D19*
X124170830Y-127355054D03*
D20*
X132844344Y-139514238D03*
D21*
X135896675Y-128219377D03*
D20*
X133698447Y-136326683D03*
D18*
X92500005Y-88000000D03*
D16*
X82000005Y-84250000D03*
D17*
X87000005Y-88000000D03*
D16*
X87000005Y-82050000D03*
D18*
X81500005Y-88000000D03*
D16*
X92000005Y-84250000D03*
D22*
X78725005Y-84250000D03*
D23*
X90250005Y-93750000D03*
D24*
X90275005Y-82050000D03*
D23*
X90250005Y-90450000D03*
D25*
X160505000Y-65692500D03*
X160505000Y-58692500D03*
X160505000Y-65692500D03*
X160505000Y-58692500D03*
D26*
X158205000Y-67832500D03*
X162805000Y-67832500D03*
D27*
X158205000Y-63292500D03*
X162805000Y-63292500D03*
X162805000Y-60292500D03*
X158205000Y-60292500D03*
D28*
X102600000Y-54000000D03*
D29*
X105000000Y-54000000D03*
D28*
X103302944Y-55697056D03*
X106697056Y-55697056D03*
X105000000Y-56400000D03*
X107400000Y-54000000D03*
X105000000Y-51600000D03*
X103302944Y-52302944D03*
X106697056Y-52302944D03*
D16*
X74000012Y-88499994D03*
X64000012Y-88499994D03*
D18*
X74500012Y-92249994D03*
D16*
X69000012Y-86299994D03*
D18*
X63500012Y-92249994D03*
D17*
X69000012Y-92249994D03*
D22*
X60725012Y-88499994D03*
D23*
X72250012Y-97999994D03*
D24*
X72275012Y-86299994D03*
D23*
X72250012Y-94699994D03*
D29*
X147500000Y-119000000D03*
D16*
X87000004Y-65049994D03*
D17*
X87000004Y-70999994D03*
D16*
X82000004Y-67249994D03*
X92000004Y-67249994D03*
D18*
X81500004Y-70999994D03*
X92500004Y-70999994D03*
D22*
X78725004Y-67249994D03*
D23*
X90250004Y-76749994D03*
D24*
X90275004Y-65049994D03*
D23*
X90250004Y-73449994D03*
D18*
X56500003Y-104999998D03*
D16*
X51000003Y-99049998D03*
X56000003Y-101249998D03*
D18*
X45500003Y-104999998D03*
D16*
X46000003Y-101249998D03*
D17*
X51000003Y-104999998D03*
D22*
X42725003Y-101249998D03*
D23*
X54250003Y-110749998D03*
D24*
X54275003Y-99049998D03*
D23*
X54250003Y-107449998D03*
D17*
X105000005Y-66749995D03*
D16*
X105000005Y-60799995D03*
X110000005Y-62999995D03*
X100000005Y-62999995D03*
D18*
X110500005Y-66749995D03*
X99500005Y-66749995D03*
D22*
X96725005Y-62999995D03*
D23*
X108250005Y-72499995D03*
X108250005Y-69199995D03*
D24*
X108275005Y-60799995D03*
D16*
X118000002Y-101249992D03*
X123000002Y-99049992D03*
D17*
X123000002Y-104999992D03*
D18*
X117500002Y-104999992D03*
X128500002Y-104999992D03*
D16*
X128000002Y-101249992D03*
D22*
X114725002Y-101249992D03*
D23*
X126250002Y-110749992D03*
D24*
X126275002Y-99049992D03*
D23*
X126250002Y-107449992D03*
D18*
X110500007Y-100750004D03*
D16*
X110000007Y-97000004D03*
D18*
X99500007Y-100750004D03*
D16*
X105000007Y-94800004D03*
X100000007Y-97000004D03*
D17*
X105000007Y-100750004D03*
D22*
X96725007Y-97000004D03*
D23*
X108250007Y-106500004D03*
X108250007Y-103200004D03*
D24*
X108275007Y-94800004D03*
D18*
X81499996Y-53999992D03*
D16*
X91999996Y-50249992D03*
X81999996Y-50249992D03*
D17*
X86999996Y-53999992D03*
D16*
X86999996Y-48049992D03*
D18*
X92499996Y-53999992D03*
D22*
X78724996Y-50249992D03*
D23*
X90249996Y-59749992D03*
D24*
X90274996Y-48049992D03*
D23*
X90249996Y-56449992D03*
D16*
X109500006Y-124549998D03*
X114500006Y-126749998D03*
D18*
X104000006Y-130499998D03*
D16*
X104500006Y-126749998D03*
D18*
X115000006Y-130499998D03*
D17*
X109500006Y-130499998D03*
D22*
X101225006Y-126749998D03*
D23*
X112750006Y-136249998D03*
D24*
X112775006Y-124549998D03*
D23*
X112750006Y-132949998D03*
D17*
X123000004Y-70999988D03*
D16*
X118000004Y-67249988D03*
D18*
X117500004Y-70999988D03*
D16*
X128000004Y-67249988D03*
D18*
X128500004Y-70999988D03*
D16*
X123000004Y-65049988D03*
D22*
X114725004Y-67249988D03*
D23*
X126250004Y-76749988D03*
X126250004Y-73449988D03*
D24*
X126275004Y-65049988D03*
D16*
X28000004Y-88499997D03*
X33000004Y-86299997D03*
D18*
X38500004Y-92249997D03*
D17*
X33000004Y-92249997D03*
D18*
X27500004Y-92249997D03*
D16*
X38000004Y-88499997D03*
D22*
X24725004Y-88499997D03*
D23*
X36250004Y-97999997D03*
X36250004Y-94699997D03*
D24*
X36275004Y-86299997D03*
D18*
X146706426Y-138513393D03*
D17*
X151469566Y-141263393D03*
D16*
X149014439Y-135515798D03*
X157674693Y-140515798D03*
X154444566Y-136110542D03*
D18*
X156232706Y-144013393D03*
D30*
X146178206Y-133878298D03*
D31*
X151409149Y-147868039D03*
X153059149Y-145010155D03*
D32*
X157280799Y-137748042D03*
D16*
X56000000Y-67250000D03*
D18*
X56500000Y-71000000D03*
X45500000Y-71000000D03*
D17*
X51000000Y-71000000D03*
D16*
X46000000Y-67250000D03*
X51000000Y-65050000D03*
D22*
X42725000Y-67250000D03*
D23*
X54250000Y-76750000D03*
X54250000Y-73450000D03*
D24*
X54275000Y-65050000D03*
D16*
X69000010Y-69299988D03*
X64000010Y-71499988D03*
D18*
X63500010Y-75249988D03*
X74500010Y-75249988D03*
D17*
X69000010Y-75249988D03*
D16*
X74000010Y-71499988D03*
D22*
X60725010Y-71499988D03*
D23*
X72250010Y-80999988D03*
X72250010Y-77699988D03*
D24*
X72275010Y-69299988D03*
D28*
X158802944Y-76197056D03*
X162197056Y-72802944D03*
X158100000Y-74500000D03*
D29*
X160500000Y-74500000D03*
D28*
X162900000Y-74500000D03*
X160500000Y-76900000D03*
X162197056Y-76197056D03*
X158802944Y-72802944D03*
X160500000Y-72100000D03*
D16*
X128000003Y-84249993D03*
D18*
X117500003Y-87999993D03*
D17*
X123000003Y-87999993D03*
D16*
X123000003Y-82049993D03*
D18*
X128500003Y-87999993D03*
D16*
X118000003Y-84249993D03*
D22*
X114725003Y-84249993D03*
D23*
X126250003Y-93749993D03*
D24*
X126275003Y-82049993D03*
D23*
X126250003Y-90449993D03*
D28*
X34697056Y-106697056D03*
X33000000Y-107400000D03*
D29*
X33000000Y-105000000D03*
D28*
X30600000Y-105000000D03*
X34697056Y-103302944D03*
X31302944Y-106697056D03*
X33000000Y-102600000D03*
X31302944Y-103302944D03*
X35400000Y-105000000D03*
D29*
X51000000Y-58000000D03*
D28*
X52697056Y-56302944D03*
X53400000Y-58000000D03*
X49302944Y-59697056D03*
X51000000Y-55600000D03*
X51000000Y-60400000D03*
X52697056Y-59697056D03*
X49302944Y-56302944D03*
X48600000Y-58000000D03*
X105100000Y-115500000D03*
X105802944Y-113802944D03*
X107500000Y-113100000D03*
X109197056Y-113802944D03*
X107500000Y-117900000D03*
D29*
X107500000Y-115500000D03*
D28*
X109900000Y-115500000D03*
X109197056Y-117197056D03*
X105802944Y-117197056D03*
D17*
X105000006Y-83750002D03*
D18*
X99500006Y-83750002D03*
D16*
X105000006Y-77800002D03*
D18*
X110500006Y-83750002D03*
D16*
X100000006Y-80000002D03*
X110000006Y-80000002D03*
D22*
X96725006Y-80000002D03*
D23*
X108250006Y-89500002D03*
X108250006Y-86200002D03*
D24*
X108275006Y-77800002D03*
D18*
X38500007Y-75249997D03*
D16*
X28000007Y-71499997D03*
D17*
X33000007Y-75249997D03*
D16*
X33000007Y-69299997D03*
X38000007Y-71499997D03*
D18*
X27500007Y-75249997D03*
D22*
X24725007Y-71499997D03*
D23*
X36250007Y-80999997D03*
X36250007Y-77699997D03*
D24*
X36275007Y-69299997D03*
D28*
X164000000Y-122500000D03*
X164000000Y-122500000D03*
X164000000Y-119500000D03*
X164000000Y-119500000D03*
D33*
X161900000Y-120177000D03*
D34*
X165125000Y-124750000D03*
D35*
X162875000Y-124800000D03*
X162875000Y-117200000D03*
D34*
X165125000Y-117250000D03*
D33*
X161900000Y-118677000D03*
X161900000Y-123177000D03*
D29*
X147500000Y-119000000D03*
D28*
X147500000Y-121400000D03*
X147500000Y-116600000D03*
X145802944Y-117302944D03*
X149197056Y-120697056D03*
X149900000Y-119000000D03*
X145100000Y-119000000D03*
X149197056Y-117302944D03*
X145802944Y-120697056D03*
D16*
X69000006Y-52299999D03*
D18*
X63500006Y-58249999D03*
D17*
X69000006Y-58249999D03*
D18*
X74500006Y-58249999D03*
D16*
X74000006Y-54499999D03*
X64000006Y-54499999D03*
D22*
X60725006Y-54499999D03*
D23*
X72250006Y-63999999D03*
D24*
X72275006Y-52299999D03*
D23*
X72250006Y-60699999D03*
D36*
X156500000Y-124000000D03*
D37*
X155250000Y-124000000D03*
X157750000Y-124000000D03*
D38*
X137905040Y-57880000D03*
X137905040Y-60420000D03*
X137905040Y-62960000D03*
X137905040Y-65500000D03*
X137905040Y-68040000D03*
X137905040Y-70580000D03*
X137905040Y-73120000D03*
X154094960Y-73120000D03*
X154094960Y-70580000D03*
X154094960Y-68040000D03*
X154094960Y-65500000D03*
X154094960Y-62960000D03*
X154094960Y-60420000D03*
X154094960Y-57880000D03*
D39*
X147270000Y-56928000D03*
X144730000Y-56928000D03*
X147270000Y-56928000D03*
X144730000Y-56928000D03*
X147270000Y-59468000D03*
X144730000Y-59468000D03*
X144730000Y-59468000D03*
X147270000Y-59468000D03*
X150445000Y-65183000D03*
X141555000Y-65183000D03*
X141555000Y-63278000D03*
X150445000Y-63278000D03*
X149810000Y-74708000D03*
X142190000Y-74708000D03*
X151715000Y-74708000D03*
X140285000Y-74708000D03*
D18*
X45500006Y-88000000D03*
D16*
X51000006Y-82050000D03*
X46000006Y-84250000D03*
X56000006Y-84250000D03*
D18*
X56500006Y-88000000D03*
D17*
X51000006Y-88000000D03*
D22*
X42725006Y-84250000D03*
D23*
X54250006Y-93750000D03*
X54250006Y-90450000D03*
D24*
X54275006Y-82050000D03*
M02*
