M48
; DRILL file {KiCad (6.0.5-0)} date Tuesday, 07 February 2023 at 22:55:59
; FORMAT={-:-/ absolute / metric / decimal}
; #@! TF.CreationDate,2023-02-07T22:55:59+01:00
; #@! TF.GenerationSoftware,Kicad,Pcbnew,(6.0.5-0)
; #@! TF.FileFunction,Plated,1,2,PTH
FMAT,2
METRIC
; #@! TA.AperFunction,Plated,PTH,ViaDrill
T1C0.400
; #@! TA.AperFunction,Plated,PTH,ComponentDrill
T2C0.500
; #@! TA.AperFunction,Plated,PTH,ComponentDrill
T3C0.750
; #@! TA.AperFunction,Plated,PTH,ComponentDrill
T4C0.900
; #@! TA.AperFunction,Plated,PTH,ComponentDrill
T5C1.016
; #@! TA.AperFunction,Plated,PTH,ComponentDrill
T6C3.200
%
G90
G05
T1
X32.975Y-71.5
X32.975Y-88.5
X33.0Y-81.3
X33.0Y-98.3
X50.975Y-67.25
X50.975Y-84.25
X50.975Y-101.25
X51.0Y-77.05
X51.0Y-94.05
X51.0Y-111.05
X68.975Y-54.5
X68.975Y-71.5
X68.975Y-88.5
X69.0Y-64.3
X69.0Y-81.3
X69.0Y-98.3
X86.975Y-50.25
X86.975Y-67.25
X86.975Y-84.25
X87.0Y-60.05
X87.0Y-77.05
X87.0Y-94.05
X104.975Y-63.0
X104.975Y-80.0
X104.975Y-97.0
X105.0Y-72.8
X105.0Y-89.8
X105.0Y-106.8
X109.475Y-126.75
X109.5Y-136.55
X122.975Y-67.25
X122.975Y-84.25
X122.975Y-101.25
X123.0Y-77.05
X123.0Y-94.05
X123.0Y-111.05
X129.562Y-138.881
X132.074Y-129.408
X135.0Y-75.3
X143.4Y-57.6
X143.4Y-58.6
X146.0Y-60.4
X146.0Y-61.6
X146.0Y-63.6
X146.0Y-64.6
X146.0Y-65.6
X146.0Y-66.6
X146.0Y-67.6
X146.0Y-69.0
X146.0Y-70.0
X146.0Y-71.4
X146.0Y-72.4
X146.0Y-73.8
X148.415Y-146.635
X153.293Y-138.135
X163.6Y-121.0
X164.8Y-121.0
T2
X30.6Y-105.0
X31.303Y-103.303
X31.303Y-106.697
X33.0Y-102.6
X33.0Y-107.4
X34.697Y-103.303
X34.697Y-106.697
X35.4Y-105.0
X48.6Y-58.0
X49.303Y-56.303
X49.303Y-59.697
X51.0Y-55.6
X51.0Y-60.4
X52.697Y-56.303
X52.697Y-59.697
X53.4Y-58.0
X102.6Y-54.0
X103.303Y-52.303
X103.303Y-55.697
X105.0Y-51.6
X105.0Y-56.4
X105.1Y-115.5
X105.803Y-113.803
X105.803Y-117.197
X106.697Y-52.303
X106.697Y-55.697
X107.4Y-54.0
X107.5Y-113.1
X107.5Y-117.9
X109.197Y-113.803
X109.197Y-117.197
X109.9Y-115.5
X145.1Y-119.0
X145.803Y-117.303
X145.803Y-120.697
X147.5Y-116.6
X147.5Y-121.4
X149.197Y-117.303
X149.197Y-120.697
X149.9Y-119.0
X158.1Y-74.5
X158.803Y-72.803
X158.803Y-76.197
X160.5Y-72.1
X160.5Y-76.9
X162.197Y-72.803
X162.197Y-76.197
X162.9Y-74.5
T3
X155.25Y-124.0
X156.5Y-124.0
X157.75Y-124.0
T5
X140.285Y-74.708
X141.555Y-63.278
X141.555Y-65.183
X142.19Y-74.708
X144.73Y-56.928
X144.73Y-56.928
X144.73Y-59.468
X144.73Y-59.468
X147.27Y-56.928
X147.27Y-56.928
X147.27Y-59.468
X147.27Y-59.468
X149.81Y-74.708
X150.445Y-63.278
X150.445Y-65.183
X151.715Y-74.708
T6
X33.0Y-105.0
X51.0Y-58.0
X105.0Y-54.0
X107.5Y-115.5
X147.5Y-119.0
X147.5Y-119.0
X160.5Y-74.5
T4
X158.205Y-59.992G85X158.205Y-60.592
G05
X158.205Y-62.992G85X158.205Y-63.592
G05
X158.205Y-66.983G85X158.205Y-68.682
G05
X162.805Y-59.992G85X162.805Y-60.592
G05
X162.805Y-62.992G85X162.805Y-63.592
G05
X162.805Y-66.983G85X162.805Y-68.682
G05
T0
M30
