G04 #@! TF.GenerationSoftware,KiCad,Pcbnew,(6.0.5-0)*
G04 #@! TF.CreationDate,2023-02-07T22:55:57+01:00*
G04 #@! TF.ProjectId,awokb,61776f6b-622e-46b6-9963-61645f706362,rev?*
G04 #@! TF.SameCoordinates,Original*
G04 #@! TF.FileFunction,Copper,L1,Top*
G04 #@! TF.FilePolarity,Positive*
%FSLAX46Y46*%
G04 Gerber Fmt 4.6, Leading zero omitted, Abs format (unit mm)*
G04 Created by KiCad (PCBNEW (6.0.5-0)) date 2023-02-07 22:55:57*
%MOMM*%
%LPD*%
G01*
G04 APERTURE LIST*
G04 Aperture macros list*
%AMRoundRect*
0 Rectangle with rounded corners*
0 $1 Rounding radius*
0 $2 $3 $4 $5 $6 $7 $8 $9 X,Y pos of 4 corners*
0 Add a 4 corners polygon primitive as box body*
4,1,4,$2,$3,$4,$5,$6,$7,$8,$9,$2,$3,0*
0 Add four circle primitives for the rounded corners*
1,1,$1+$1,$2,$3*
1,1,$1+$1,$4,$5*
1,1,$1+$1,$6,$7*
1,1,$1+$1,$8,$9*
0 Add four rect primitives between the rounded corners*
20,1,$1+$1,$2,$3,$4,$5,0*
20,1,$1+$1,$4,$5,$6,$7,0*
20,1,$1+$1,$6,$7,$8,$9,0*
20,1,$1+$1,$8,$9,$2,$3,0*%
%AMRotRect*
0 Rectangle, with rotation*
0 The origin of the aperture is its center*
0 $1 length*
0 $2 width*
0 $3 Rotation angle, in degrees counterclockwise*
0 Add horizontal line*
21,1,$1,$2,0,0,$3*%
%AMOutline5P*
0 Free polygon, 5 corners , with rotation*
0 The origin of the aperture is its center*
0 number of corners: always 5*
0 $1 to $10 corner X, Y*
0 $11 Rotation angle, in degrees counterclockwise*
0 create outline with 5 corners*
4,1,5,$1,$2,$3,$4,$5,$6,$7,$8,$9,$10,$1,$2,$11*%
%AMOutline6P*
0 Free polygon, 6 corners , with rotation*
0 The origin of the aperture is its center*
0 number of corners: always 6*
0 $1 to $12 corner X, Y*
0 $13 Rotation angle, in degrees counterclockwise*
0 create outline with 6 corners*
4,1,6,$1,$2,$3,$4,$5,$6,$7,$8,$9,$10,$11,$12,$1,$2,$13*%
%AMOutline7P*
0 Free polygon, 7 corners , with rotation*
0 The origin of the aperture is its center*
0 number of corners: always 7*
0 $1 to $14 corner X, Y*
0 $15 Rotation angle, in degrees counterclockwise*
0 create outline with 7 corners*
4,1,7,$1,$2,$3,$4,$5,$6,$7,$8,$9,$10,$11,$12,$13,$14,$1,$2,$15*%
%AMOutline8P*
0 Free polygon, 8 corners , with rotation*
0 The origin of the aperture is its center*
0 number of corners: always 8*
0 $1 to $16 corner X, Y*
0 $17 Rotation angle, in degrees counterclockwise*
0 create outline with 8 corners*
4,1,8,$1,$2,$3,$4,$5,$6,$7,$8,$9,$10,$11,$12,$13,$14,$15,$16,$1,$2,$17*%
G04 Aperture macros list end*
G04 #@! TA.AperFunction,SMDPad,CuDef*
%ADD10RotRect,2.600000X2.600000X165.000000*%
G04 #@! TD*
G04 #@! TA.AperFunction,SMDPad,CuDef*
%ADD11RotRect,0.900000X1.200000X75.000000*%
G04 #@! TD*
G04 #@! TA.AperFunction,SMDPad,CuDef*
%ADD12Outline5P,-1.300000X0.000000X0.000000X1.300000X1.300000X1.300000X1.300000X-1.300000X-1.300000X-1.300000X165.000000*%
G04 #@! TD*
G04 #@! TA.AperFunction,SMDPad,CuDef*
%ADD13R,2.600000X2.600000*%
G04 #@! TD*
G04 #@! TA.AperFunction,SMDPad,CuDef*
%ADD14R,1.200000X0.900000*%
G04 #@! TD*
G04 #@! TA.AperFunction,SMDPad,CuDef*
%ADD15Outline5P,-1.300000X0.000000X0.000000X1.300000X1.300000X1.300000X1.300000X-1.300000X-1.300000X-1.300000X180.000000*%
G04 #@! TD*
G04 #@! TA.AperFunction,ComponentPad*
%ADD16O,1.600000X3.300000*%
G04 #@! TD*
G04 #@! TA.AperFunction,ComponentPad*
%ADD17O,1.600000X2.200000*%
G04 #@! TD*
G04 #@! TA.AperFunction,ComponentPad*
%ADD18C,0.800000*%
G04 #@! TD*
G04 #@! TA.AperFunction,ComponentPad*
%ADD19C,6.400000*%
G04 #@! TD*
G04 #@! TA.AperFunction,SMDPad,CuDef*
%ADD20RotRect,2.600000X2.600000X150.000000*%
G04 #@! TD*
G04 #@! TA.AperFunction,SMDPad,CuDef*
%ADD21RotRect,0.900000X1.200000X60.000000*%
G04 #@! TD*
G04 #@! TA.AperFunction,SMDPad,CuDef*
%ADD22Outline5P,-1.300000X0.000000X0.000000X1.300000X1.300000X1.300000X1.300000X-1.300000X-1.300000X-1.300000X150.000000*%
G04 #@! TD*
G04 #@! TA.AperFunction,SMDPad,CuDef*
%ADD23R,2.000000X0.800000*%
G04 #@! TD*
G04 #@! TA.AperFunction,SMDPad,CuDef*
%ADD24R,0.800000X1.000000*%
G04 #@! TD*
G04 #@! TA.AperFunction,SMDPad,CuDef*
%ADD25R,0.800000X0.900000*%
G04 #@! TD*
G04 #@! TA.AperFunction,ComponentPad*
%ADD26RoundRect,0.208333X0.291667X0.541667X-0.291667X0.541667X-0.291667X-0.541667X0.291667X-0.541667X0*%
G04 #@! TD*
G04 #@! TA.AperFunction,ComponentPad*
%ADD27O,1.000000X1.500000*%
G04 #@! TD*
G04 #@! TA.AperFunction,SMDPad,CuDef*
%ADD28O,2.750000X1.800000*%
G04 #@! TD*
G04 #@! TA.AperFunction,ComponentPad*
%ADD29C,1.397000*%
G04 #@! TD*
G04 #@! TA.AperFunction,ViaPad*
%ADD30C,0.800000*%
G04 #@! TD*
G04 #@! TA.AperFunction,Conductor*
%ADD31C,0.200000*%
G04 #@! TD*
G04 #@! TA.AperFunction,Conductor*
%ADD32C,0.250000*%
G04 #@! TD*
G04 APERTURE END LIST*
D10*
X124170830Y-127355054D03*
D11*
X132844344Y-139514238D03*
D12*
X135896675Y-128219377D03*
D11*
X133698447Y-136326683D03*
D13*
X78725005Y-84250000D03*
D14*
X90250005Y-93750000D03*
D15*
X90275005Y-82050000D03*
D14*
X90250005Y-90450000D03*
D16*
X158205000Y-67832500D03*
X162805000Y-67832500D03*
D17*
X158205000Y-63292500D03*
X162805000Y-63292500D03*
X162805000Y-60292500D03*
X158205000Y-60292500D03*
D18*
X102600000Y-54000000D03*
D19*
X105000000Y-54000000D03*
D18*
X103302944Y-55697056D03*
X106697056Y-55697056D03*
X105000000Y-56400000D03*
X107400000Y-54000000D03*
X105000000Y-51600000D03*
X103302944Y-52302944D03*
X106697056Y-52302944D03*
D13*
X60725012Y-88499994D03*
D14*
X72250012Y-97999994D03*
D15*
X72275012Y-86299994D03*
D14*
X72250012Y-94699994D03*
D19*
X147500000Y-119000000D03*
D13*
X78725004Y-67249994D03*
D14*
X90250004Y-76749994D03*
D15*
X90275004Y-65049994D03*
D14*
X90250004Y-73449994D03*
D13*
X42725003Y-101249998D03*
D14*
X54250003Y-110749998D03*
D15*
X54275003Y-99049998D03*
D14*
X54250003Y-107449998D03*
D13*
X96725005Y-62999995D03*
D14*
X108250005Y-72499995D03*
X108250005Y-69199995D03*
D15*
X108275005Y-60799995D03*
D13*
X114725002Y-101249992D03*
D14*
X126250002Y-110749992D03*
D15*
X126275002Y-99049992D03*
D14*
X126250002Y-107449992D03*
D13*
X96725007Y-97000004D03*
D14*
X108250007Y-106500004D03*
X108250007Y-103200004D03*
D15*
X108275007Y-94800004D03*
D13*
X78724996Y-50249992D03*
D14*
X90249996Y-59749992D03*
D15*
X90274996Y-48049992D03*
D14*
X90249996Y-56449992D03*
D13*
X101225006Y-126749998D03*
D14*
X112750006Y-136249998D03*
D15*
X112775006Y-124549998D03*
D14*
X112750006Y-132949998D03*
D13*
X114725004Y-67249988D03*
D14*
X126250004Y-76749988D03*
X126250004Y-73449988D03*
D15*
X126275004Y-65049988D03*
D13*
X24725004Y-88499997D03*
D14*
X36250004Y-97999997D03*
X36250004Y-94699997D03*
D15*
X36275004Y-86299997D03*
D20*
X146178206Y-133878298D03*
D21*
X151409149Y-147868039D03*
X153059149Y-145010155D03*
D22*
X157280799Y-137748042D03*
D13*
X42725000Y-67250000D03*
D14*
X54250000Y-76750000D03*
X54250000Y-73450000D03*
D15*
X54275000Y-65050000D03*
D13*
X60725010Y-71499988D03*
D14*
X72250010Y-80999988D03*
X72250010Y-77699988D03*
D15*
X72275010Y-69299988D03*
D18*
X158802944Y-76197056D03*
X162197056Y-72802944D03*
X158100000Y-74500000D03*
D19*
X160500000Y-74500000D03*
D18*
X162900000Y-74500000D03*
X160500000Y-76900000D03*
X162197056Y-76197056D03*
X158802944Y-72802944D03*
X160500000Y-72100000D03*
D13*
X114725003Y-84249993D03*
D14*
X126250003Y-93749993D03*
D15*
X126275003Y-82049993D03*
D14*
X126250003Y-90449993D03*
D18*
X34697056Y-106697056D03*
X33000000Y-107400000D03*
D19*
X33000000Y-105000000D03*
D18*
X30600000Y-105000000D03*
X34697056Y-103302944D03*
X31302944Y-106697056D03*
X33000000Y-102600000D03*
X31302944Y-103302944D03*
X35400000Y-105000000D03*
D19*
X51000000Y-58000000D03*
D18*
X52697056Y-56302944D03*
X53400000Y-58000000D03*
X49302944Y-59697056D03*
X51000000Y-55600000D03*
X51000000Y-60400000D03*
X52697056Y-59697056D03*
X49302944Y-56302944D03*
X48600000Y-58000000D03*
X105100000Y-115500000D03*
X105802944Y-113802944D03*
X107500000Y-113100000D03*
X109197056Y-113802944D03*
X107500000Y-117900000D03*
D19*
X107500000Y-115500000D03*
D18*
X109900000Y-115500000D03*
X109197056Y-117197056D03*
X105802944Y-117197056D03*
D13*
X96725006Y-80000002D03*
D14*
X108250006Y-89500002D03*
X108250006Y-86200002D03*
D15*
X108275006Y-77800002D03*
D13*
X24725007Y-71499997D03*
D14*
X36250007Y-80999997D03*
X36250007Y-77699997D03*
D15*
X36275007Y-69299997D03*
D23*
X161900000Y-120177000D03*
D24*
X165125000Y-124750000D03*
D25*
X162875000Y-124800000D03*
X162875000Y-117200000D03*
D24*
X165125000Y-117250000D03*
D23*
X161900000Y-118677000D03*
X161900000Y-123177000D03*
D19*
X147500000Y-119000000D03*
D18*
X147500000Y-121400000D03*
X147500000Y-116600000D03*
X145802944Y-117302944D03*
X149197056Y-120697056D03*
X149900000Y-119000000D03*
X145100000Y-119000000D03*
X149197056Y-117302944D03*
X145802944Y-120697056D03*
D13*
X60725006Y-54499999D03*
D14*
X72250006Y-63999999D03*
D15*
X72275006Y-52299999D03*
D14*
X72250006Y-60699999D03*
D26*
X156500000Y-124000000D03*
D27*
X155250000Y-124000000D03*
X157750000Y-124000000D03*
D28*
X137905040Y-57880000D03*
X137905040Y-60420000D03*
X137905040Y-62960000D03*
X137905040Y-65500000D03*
X137905040Y-68040000D03*
X137905040Y-70580000D03*
X137905040Y-73120000D03*
X154094960Y-73120000D03*
X154094960Y-70580000D03*
X154094960Y-68040000D03*
X154094960Y-65500000D03*
X154094960Y-62960000D03*
X154094960Y-60420000D03*
X154094960Y-57880000D03*
D29*
X147270000Y-56928000D03*
X144730000Y-56928000D03*
X147270000Y-56928000D03*
X144730000Y-56928000D03*
X147270000Y-59468000D03*
X144730000Y-59468000D03*
X144730000Y-59468000D03*
X147270000Y-59468000D03*
X150445000Y-65183000D03*
X141555000Y-65183000D03*
X141555000Y-63278000D03*
X150445000Y-63278000D03*
X149810000Y-74708000D03*
X142190000Y-74708000D03*
X151715000Y-74708000D03*
X140285000Y-74708000D03*
D13*
X42725006Y-84250000D03*
D14*
X54250006Y-93750000D03*
X54250006Y-90450000D03*
D15*
X54275006Y-82050000D03*
D30*
X146000000Y-72400000D03*
X146000000Y-73800000D03*
X146000000Y-60400000D03*
X143400000Y-57600000D03*
X146000000Y-64600000D03*
X50975000Y-84250000D03*
X50975000Y-67250000D03*
X50975000Y-101250000D03*
X32975000Y-71500000D03*
X143400000Y-58600000D03*
X105000000Y-72800000D03*
X51000000Y-77050000D03*
X146000000Y-66600000D03*
X123000000Y-77050000D03*
X69000000Y-64300000D03*
X87000000Y-60050000D03*
X51000000Y-94050000D03*
X87000000Y-77050000D03*
X146000000Y-69000000D03*
X69000000Y-81300000D03*
X123000000Y-94050000D03*
X105000000Y-89800000D03*
X105000000Y-106800000D03*
X146000000Y-71400000D03*
X69000000Y-98300000D03*
X51000000Y-111050000D03*
X87000000Y-94050000D03*
X123000000Y-111050000D03*
X146000000Y-70000000D03*
X135000000Y-75300000D03*
X33000000Y-81300000D03*
X109500000Y-136550000D03*
X129561613Y-138880940D03*
X33000000Y-98300000D03*
X148414583Y-146634808D03*
X68975000Y-71500000D03*
X146000000Y-61600000D03*
X32975000Y-88500000D03*
X68975000Y-54500000D03*
X68975000Y-88500000D03*
X109475000Y-126750000D03*
X86975000Y-84250000D03*
X86975000Y-50250000D03*
X86975000Y-67250000D03*
X146000000Y-63600000D03*
X104975000Y-80000000D03*
X104975000Y-97000000D03*
X104975000Y-63000000D03*
X132073891Y-129408396D03*
X146000000Y-65600000D03*
X122975000Y-84250000D03*
X153292931Y-138135259D03*
X122975000Y-67250000D03*
X146000000Y-67600000D03*
X122975000Y-101250000D03*
X164800000Y-121000000D03*
X163600000Y-121000000D03*
D31*
X90225000Y-56450000D02*
X90225000Y-53250000D01*
X89475000Y-48825000D02*
X90250000Y-48050000D01*
X89475000Y-69500000D02*
X89475000Y-65825000D01*
X126225000Y-87250000D02*
X125475000Y-86500000D01*
X126225000Y-107450000D02*
X126225000Y-104250000D01*
X53475000Y-69500000D02*
X53475000Y-65825000D01*
X125475000Y-103500000D02*
X125475000Y-99825000D01*
X125475000Y-86500000D02*
X125475000Y-82825000D01*
X107475000Y-99250000D02*
X107475000Y-95575000D01*
X134857524Y-128679000D02*
X135806701Y-128130991D01*
X72225000Y-94700000D02*
X72225000Y-91500000D01*
X53475000Y-82825000D02*
X54250000Y-82050000D01*
X90225000Y-73450000D02*
X90225000Y-70250000D01*
X90225000Y-70250000D02*
X89475000Y-69500000D01*
X54225000Y-73450000D02*
X54225000Y-70250000D01*
X36225000Y-74500000D02*
X35475000Y-73750000D01*
X108225000Y-86200000D02*
X108225000Y-83000000D01*
X90225000Y-87250000D02*
X89475000Y-86500000D01*
X53475000Y-86500000D02*
X53475000Y-82825000D01*
X71475000Y-56750000D02*
X71475000Y-53075000D01*
X126225000Y-104250000D02*
X125475000Y-103500000D01*
X112725000Y-132950000D02*
X112725000Y-129750000D01*
X35475000Y-90750000D02*
X35475000Y-87075000D01*
X126225000Y-73450000D02*
X126225000Y-70250000D01*
X89475000Y-65825000D02*
X90250000Y-65050000D01*
X54225000Y-107450000D02*
X54225000Y-104250000D01*
X36225000Y-91500000D02*
X35475000Y-90750000D01*
X108225000Y-69200000D02*
X108225000Y-66000000D01*
X71475000Y-73750000D02*
X71475000Y-70075000D01*
X107475000Y-95575000D02*
X108250000Y-94800000D01*
X90225000Y-90450000D02*
X90225000Y-87250000D01*
X125475000Y-82825000D02*
X126250000Y-82050000D01*
X126225000Y-70250000D02*
X125475000Y-69500000D01*
X156170496Y-138151174D02*
X157229166Y-137867502D01*
X90225000Y-53250000D02*
X89475000Y-52500000D01*
X72225000Y-60700000D02*
X72225000Y-57500000D01*
X125475000Y-69500000D02*
X125475000Y-65825000D01*
X107475000Y-61575000D02*
X108250000Y-60800000D01*
X125475000Y-65825000D02*
X126250000Y-65050000D01*
X35475000Y-73750000D02*
X35475000Y-70075000D01*
X108225000Y-66000000D02*
X107475000Y-65250000D01*
X71475000Y-90750000D02*
X71475000Y-87075000D01*
X107475000Y-78575000D02*
X108250000Y-77800000D01*
X36225000Y-77700000D02*
X36225000Y-74500000D01*
X154607514Y-142358335D02*
X154332996Y-141333816D01*
X133906364Y-132228777D02*
X134857524Y-128679000D01*
X54225000Y-90450000D02*
X54225000Y-87250000D01*
X134436693Y-133147336D02*
X133906364Y-132228777D01*
X72225000Y-74500000D02*
X71475000Y-73750000D01*
X108225000Y-83000000D02*
X107475000Y-82250000D01*
X72225000Y-91500000D02*
X71475000Y-90750000D01*
X53475000Y-103500000D02*
X53475000Y-99825000D01*
X154332996Y-141333816D02*
X156170496Y-138151174D01*
X35475000Y-70075000D02*
X36250000Y-69300000D01*
X153007515Y-145129617D02*
X154607514Y-142358335D01*
X54225000Y-104250000D02*
X53475000Y-103500000D01*
X108225000Y-100000000D02*
X107475000Y-99250000D01*
X108225000Y-103200000D02*
X108225000Y-100000000D01*
X89475000Y-82825000D02*
X90250000Y-82050000D01*
X71475000Y-70075000D02*
X72250000Y-69300000D01*
X112725000Y-129750000D02*
X111975000Y-129000000D01*
X72225000Y-77700000D02*
X72225000Y-74500000D01*
X89475000Y-52500000D02*
X89475000Y-48825000D01*
X72225000Y-57500000D02*
X71475000Y-56750000D01*
X36225000Y-94700000D02*
X36225000Y-91500000D01*
X126225000Y-90450000D02*
X126225000Y-87250000D01*
X107475000Y-82250000D02*
X107475000Y-78575000D01*
X133608473Y-136238298D02*
X134436693Y-133147336D01*
X54225000Y-70250000D02*
X53475000Y-69500000D01*
X71475000Y-87075000D02*
X72250000Y-86300000D01*
X107475000Y-65250000D02*
X107475000Y-61575000D01*
X54225000Y-87250000D02*
X53475000Y-86500000D01*
X53475000Y-65825000D02*
X54250000Y-65050000D01*
X35475000Y-87075000D02*
X36250000Y-86300000D01*
X89475000Y-86500000D02*
X89475000Y-82825000D01*
X111975000Y-129000000D02*
X111975000Y-125325000D01*
X125475000Y-99825000D02*
X126250000Y-99050000D01*
X111975000Y-125325000D02*
X112750000Y-124550000D01*
X53475000Y-99825000D02*
X54250000Y-99050000D01*
X71475000Y-53075000D02*
X72250000Y-52300000D01*
D32*
X137430040Y-73120000D02*
X145280000Y-73120000D01*
X145280000Y-73120000D02*
X146000000Y-72400000D01*
X155280000Y-73120000D02*
X158200000Y-70200000D01*
X146000000Y-73800000D02*
X146680000Y-73120000D01*
X146680000Y-73120000D02*
X154569960Y-73120000D01*
X162200000Y-70200000D02*
X162805000Y-69595000D01*
X154569960Y-73120000D02*
X155280000Y-73120000D01*
X162805000Y-69595000D02*
X162805000Y-67832500D01*
X158200000Y-70200000D02*
X162200000Y-70200000D01*
X155332500Y-60420000D02*
X158205000Y-63292500D01*
X153380000Y-60420000D02*
X153000000Y-60800000D01*
X153000000Y-60800000D02*
X146800000Y-60800000D01*
X154569960Y-60420000D02*
X153380000Y-60420000D01*
X158205000Y-63292500D02*
X162805000Y-63292500D01*
X154569960Y-60420000D02*
X155332500Y-60420000D01*
X146400000Y-60400000D02*
X146000000Y-60400000D01*
X146800000Y-60800000D02*
X146400000Y-60400000D01*
X154249960Y-58200000D02*
X154569960Y-57880000D01*
X143424614Y-57600000D02*
X144024614Y-58200000D01*
X156982460Y-60292500D02*
X158205000Y-60292500D01*
X143400000Y-57600000D02*
X143424614Y-57600000D01*
X144024614Y-58200000D02*
X154249960Y-58200000D01*
X154569960Y-57880000D02*
X156982460Y-60292500D01*
X158205000Y-60292500D02*
X162805000Y-60292500D01*
D31*
X157600000Y-125600000D02*
X155400000Y-125600000D01*
X157750000Y-124000000D02*
X157750000Y-125450000D01*
X155250000Y-124000000D02*
X155250000Y-125450000D01*
X161900000Y-120177000D02*
X160423000Y-120177000D01*
X157750000Y-125450000D02*
X157600000Y-125600000D01*
X155250000Y-125450000D02*
X155400000Y-125600000D01*
X160423000Y-120177000D02*
X157750000Y-122850000D01*
X157750000Y-122850000D02*
X157750000Y-124000000D01*
D32*
X151600000Y-66800000D02*
X148400000Y-66800000D01*
X152000000Y-66400000D02*
X151600000Y-66800000D01*
X152000000Y-64400000D02*
X152000000Y-66400000D01*
X148400000Y-66800000D02*
X146200000Y-64600000D01*
X153440000Y-62960000D02*
X152000000Y-64400000D01*
X146200000Y-64600000D02*
X146000000Y-64600000D01*
X154569960Y-62960000D02*
X153440000Y-62960000D01*
D31*
X44975000Y-69500000D02*
X48475000Y-69500000D01*
X42700000Y-84250000D02*
X44950000Y-86500000D01*
D32*
X28975004Y-67250000D02*
X42725000Y-67250000D01*
X47875000Y-62100000D02*
X53900000Y-62100000D01*
X102000000Y-47600000D02*
X107300000Y-47600000D01*
D31*
X44975000Y-103500000D02*
X48475000Y-103500000D01*
X44975000Y-86500000D02*
X48475000Y-86500000D01*
D32*
X74100000Y-48600000D02*
X78600000Y-44100000D01*
D31*
X30475000Y-73750000D02*
X32725000Y-71500000D01*
D32*
X139280000Y-57880000D02*
X140000000Y-58600000D01*
X53900000Y-62100000D02*
X57000000Y-59000000D01*
D31*
X50725000Y-84250000D02*
X50975000Y-84250000D01*
X50725000Y-101250000D02*
X50975000Y-101250000D01*
D32*
X42725000Y-67250000D02*
X47875000Y-62100000D01*
D31*
X24700000Y-71500000D02*
X26950000Y-73750000D01*
D32*
X42725003Y-67250003D02*
X42725000Y-67250000D01*
D31*
X48475000Y-103500000D02*
X50725000Y-101250000D01*
D32*
X116200000Y-56500000D02*
X136050040Y-56500000D01*
D31*
X26975000Y-73750000D02*
X30475000Y-73750000D01*
D32*
X62400000Y-48600000D02*
X74100000Y-48600000D01*
D31*
X42700000Y-67250000D02*
X44950000Y-69500000D01*
D32*
X57000000Y-59000000D02*
X57000000Y-54000000D01*
X78600000Y-44100000D02*
X98500000Y-44100000D01*
X57000000Y-54000000D02*
X62400000Y-48600000D01*
X137430040Y-57880000D02*
X139280000Y-57880000D01*
D31*
X44950000Y-86500000D02*
X44975000Y-86500000D01*
X44950000Y-103500000D02*
X44975000Y-103500000D01*
D32*
X98500000Y-44100000D02*
X102000000Y-47600000D01*
D31*
X50725000Y-67250000D02*
X50975000Y-67250000D01*
X48475000Y-86500000D02*
X50725000Y-84250000D01*
X26950000Y-73750000D02*
X26975000Y-73750000D01*
D32*
X140000000Y-58600000D02*
X143400000Y-58600000D01*
D31*
X42700000Y-101250000D02*
X44950000Y-103500000D01*
D32*
X107300000Y-47600000D02*
X116200000Y-56500000D01*
X42725003Y-101249998D02*
X42725003Y-67250003D01*
D31*
X48475000Y-69500000D02*
X50725000Y-67250000D01*
D32*
X24725007Y-71499997D02*
X28975004Y-67250000D01*
D31*
X32725000Y-71500000D02*
X32975000Y-71500000D01*
X44950000Y-69500000D02*
X44975000Y-69500000D01*
D32*
X136050040Y-56500000D02*
X137430040Y-57880000D01*
D31*
X87000000Y-60050000D02*
X87300000Y-59750000D01*
D32*
X146600000Y-66600000D02*
X146000000Y-66600000D01*
D31*
X123000000Y-77050000D02*
X123300000Y-76750000D01*
X105000000Y-72800000D02*
X105300000Y-72500000D01*
D32*
X151800000Y-67600000D02*
X147600000Y-67600000D01*
X153900000Y-65500000D02*
X151800000Y-67600000D01*
D31*
X69000000Y-64300000D02*
X69300000Y-64000000D01*
X51300000Y-76750000D02*
X54225000Y-76750000D01*
X69300000Y-64000000D02*
X72225000Y-64000000D01*
X105300000Y-72500000D02*
X108225000Y-72500000D01*
X51000000Y-77050000D02*
X51300000Y-76750000D01*
D32*
X146617859Y-66617859D02*
X146600000Y-66600000D01*
D31*
X87300000Y-59750000D02*
X90225000Y-59750000D01*
X123300000Y-76750000D02*
X126225000Y-76750000D01*
D32*
X147600000Y-67600000D02*
X146617859Y-66617859D01*
X154569960Y-65500000D02*
X153900000Y-65500000D01*
D31*
X105300000Y-89500000D02*
X108225000Y-89500000D01*
X105000000Y-89800000D02*
X105300000Y-89500000D01*
D32*
X146000000Y-69000000D02*
X146680000Y-68320000D01*
D31*
X87000000Y-77050000D02*
X87300000Y-76750000D01*
X69000000Y-81300000D02*
X69300000Y-81000000D01*
X87300000Y-76750000D02*
X90225000Y-76750000D01*
X51000000Y-94050000D02*
X51300000Y-93750000D01*
X51300000Y-93750000D02*
X54225000Y-93750000D01*
X69300000Y-81000000D02*
X72225000Y-81000000D01*
X123000000Y-94050000D02*
X123300000Y-93750000D01*
X123300000Y-93750000D02*
X126225000Y-93750000D01*
D32*
X146680000Y-68320000D02*
X154569960Y-68320000D01*
D31*
X69300000Y-98000000D02*
X72225000Y-98000000D01*
X51300000Y-110750000D02*
X54225000Y-110750000D01*
X123000000Y-111050000D02*
X123300000Y-110750000D01*
X105300000Y-106500000D02*
X108225000Y-106500000D01*
X123300000Y-110750000D02*
X126225000Y-110750000D01*
X87000000Y-94050000D02*
X87300000Y-93750000D01*
D32*
X146000000Y-71400000D02*
X146680000Y-70720000D01*
D31*
X69000000Y-98300000D02*
X69300000Y-98000000D01*
D32*
X146680000Y-70720000D02*
X154569960Y-70720000D01*
D31*
X51000000Y-111050000D02*
X51300000Y-110750000D01*
X87300000Y-93750000D02*
X90225000Y-93750000D01*
X105000000Y-106800000D02*
X105300000Y-106500000D01*
D32*
X137430040Y-70720000D02*
X145280000Y-70720000D01*
D31*
X135000000Y-73010040D02*
X137430040Y-70580000D01*
X109800000Y-136250000D02*
X112725000Y-136250000D01*
X135000000Y-75300000D02*
X135000000Y-73010040D01*
X33000000Y-98300000D02*
X33300000Y-98000000D01*
X33000000Y-81300000D02*
X33300000Y-81000000D01*
X33300000Y-81000000D02*
X36225000Y-81000000D01*
X148414583Y-146634808D02*
X148824390Y-146525000D01*
X129561613Y-138880940D02*
X129929036Y-138668808D01*
X33300000Y-98000000D02*
X36225000Y-98000000D01*
X129929036Y-138668808D02*
X132754371Y-139425853D01*
X109500000Y-136550000D02*
X109800000Y-136250000D01*
X148824390Y-146525000D02*
X151357516Y-147987500D01*
D32*
X145280000Y-70720000D02*
X146000000Y-70000000D01*
X60725012Y-54500005D02*
X60725006Y-54499999D01*
X116000000Y-57100000D02*
X107100000Y-48200000D01*
X24725004Y-102925004D02*
X35700000Y-113900000D01*
D31*
X60700000Y-54500000D02*
X62950000Y-56750000D01*
X30475000Y-90750000D02*
X32725000Y-88500000D01*
X68725000Y-71500000D02*
X68975000Y-71500000D01*
X60700000Y-88500000D02*
X62950000Y-90750000D01*
D32*
X145200000Y-60800000D02*
X139000000Y-60800000D01*
X134000000Y-57100000D02*
X116000000Y-57100000D01*
D31*
X66475000Y-90750000D02*
X68725000Y-88500000D01*
X24700000Y-88500000D02*
X26950000Y-90750000D01*
X62975000Y-90750000D02*
X66475000Y-90750000D01*
X68725000Y-88500000D02*
X68975000Y-88500000D01*
D32*
X74900000Y-49500000D02*
X65100000Y-49500000D01*
X35700000Y-113900000D02*
X56700000Y-113900000D01*
D31*
X60700000Y-71500000D02*
X62950000Y-73750000D01*
X66475000Y-73750000D02*
X68725000Y-71500000D01*
D32*
X107100000Y-48200000D02*
X101700000Y-48200000D01*
D31*
X26950000Y-90750000D02*
X26975000Y-90750000D01*
D32*
X98600000Y-45100000D02*
X79300000Y-45100000D01*
X79300000Y-45100000D02*
X74900000Y-49500000D01*
X56700000Y-113900000D02*
X60725012Y-109874988D01*
X60725012Y-109874988D02*
X60725012Y-88499994D01*
X138620000Y-60420000D02*
X137430040Y-60420000D01*
D31*
X62975000Y-56750000D02*
X66475000Y-56750000D01*
X66475000Y-56750000D02*
X68725000Y-54500000D01*
D32*
X139000000Y-60800000D02*
X138620000Y-60420000D01*
X65100000Y-49500000D02*
X60725006Y-53874994D01*
D31*
X62950000Y-56750000D02*
X62975000Y-56750000D01*
X32725000Y-88500000D02*
X32975000Y-88500000D01*
X62950000Y-90750000D02*
X62975000Y-90750000D01*
D32*
X101700000Y-48200000D02*
X98600000Y-45100000D01*
D31*
X68725000Y-54500000D02*
X68975000Y-54500000D01*
X26975000Y-90750000D02*
X30475000Y-90750000D01*
D32*
X60725012Y-88499994D02*
X60725012Y-54500005D01*
X60725006Y-53874994D02*
X60725006Y-54499999D01*
D31*
X62950000Y-73750000D02*
X62975000Y-73750000D01*
D32*
X137320000Y-60420000D02*
X134000000Y-57100000D01*
D31*
X62975000Y-73750000D02*
X66475000Y-73750000D01*
D32*
X137430040Y-60420000D02*
X137320000Y-60420000D01*
X146000000Y-61600000D02*
X145200000Y-60800000D01*
X24725004Y-88499997D02*
X24725004Y-102925004D01*
X78725005Y-84250000D02*
X78725005Y-104249997D01*
D31*
X80975000Y-69500000D02*
X84475000Y-69500000D01*
X78700000Y-84250000D02*
X80950000Y-86500000D01*
D32*
X132170040Y-57700000D02*
X137430040Y-62960000D01*
D31*
X101200000Y-126750000D02*
X103450000Y-129000000D01*
X80975000Y-52500000D02*
X84475000Y-52500000D01*
X84475000Y-52500000D02*
X86725000Y-50250000D01*
D32*
X140000000Y-64400000D02*
X140000000Y-66400000D01*
X78725005Y-104249997D02*
X101225006Y-126749998D01*
D31*
X103450000Y-129000000D02*
X103475000Y-129000000D01*
X86725000Y-67250000D02*
X86975000Y-67250000D01*
D32*
X98300000Y-45700000D02*
X101400000Y-48800000D01*
D31*
X78700000Y-67250000D02*
X80950000Y-69500000D01*
X86725000Y-50250000D02*
X86975000Y-50250000D01*
X106975000Y-129000000D02*
X109225000Y-126750000D01*
X86725000Y-84250000D02*
X86975000Y-84250000D01*
D32*
X145200000Y-65000000D02*
X145200000Y-64200000D01*
X78725005Y-84250000D02*
X78725005Y-50250001D01*
X138560000Y-62960000D02*
X140000000Y-64400000D01*
X78724996Y-50249992D02*
X78724996Y-49475004D01*
X82500000Y-45700000D02*
X98300000Y-45700000D01*
X115400000Y-57700000D02*
X132170040Y-57700000D01*
D31*
X80950000Y-52500000D02*
X80975000Y-52500000D01*
D32*
X137430040Y-62960000D02*
X138560000Y-62960000D01*
D31*
X80950000Y-69500000D02*
X80975000Y-69500000D01*
D32*
X140000000Y-66400000D02*
X140400000Y-66800000D01*
D31*
X109225000Y-126750000D02*
X109475000Y-126750000D01*
X84475000Y-69500000D02*
X86725000Y-67250000D01*
X78700000Y-50250000D02*
X80950000Y-52500000D01*
D32*
X101400000Y-48800000D02*
X106500000Y-48800000D01*
X145200000Y-64200000D02*
X145800000Y-63600000D01*
X145800000Y-63600000D02*
X146000000Y-63600000D01*
D31*
X103475000Y-129000000D02*
X106975000Y-129000000D01*
X80975000Y-86500000D02*
X84475000Y-86500000D01*
D32*
X78725005Y-50250001D02*
X78724996Y-50249992D01*
X143600000Y-66800000D02*
X145200000Y-65200000D01*
X106500000Y-48800000D02*
X115400000Y-57700000D01*
D31*
X84475000Y-86500000D02*
X86725000Y-84250000D01*
X80950000Y-86500000D02*
X80975000Y-86500000D01*
D32*
X78724996Y-49475004D02*
X82500000Y-45700000D01*
X140400000Y-66800000D02*
X143600000Y-66800000D01*
X145200000Y-65200000D02*
X145200000Y-65000000D01*
D31*
X96700000Y-63000000D02*
X98950000Y-65250000D01*
D32*
X96725005Y-62999995D02*
X101425000Y-58300000D01*
X96725007Y-62999997D02*
X96725005Y-62999995D01*
X138100000Y-65500000D02*
X140200000Y-67600000D01*
X145200000Y-66800000D02*
X145200000Y-66200000D01*
X137430040Y-65500000D02*
X138100000Y-65500000D01*
X96725007Y-112425007D02*
X104300000Y-120000000D01*
D31*
X104725000Y-80000000D02*
X104975000Y-80000000D01*
D32*
X144400000Y-67600000D02*
X145200000Y-66800000D01*
D31*
X102475000Y-82250000D02*
X104725000Y-80000000D01*
X98950000Y-82250000D02*
X98975000Y-82250000D01*
D32*
X96725007Y-97000004D02*
X96725007Y-62999997D01*
D31*
X98975000Y-65250000D02*
X102475000Y-65250000D01*
X131832410Y-129343692D02*
X132073891Y-129408396D01*
X98950000Y-65250000D02*
X98975000Y-65250000D01*
X98950000Y-99250000D02*
X98975000Y-99250000D01*
D32*
X96725007Y-97000004D02*
X96725007Y-112425007D01*
X145800000Y-65600000D02*
X146000000Y-65600000D01*
X140200000Y-67600000D02*
X144400000Y-67600000D01*
D31*
X98975000Y-82250000D02*
X102475000Y-82250000D01*
X104725000Y-63000000D02*
X104975000Y-63000000D01*
X98975000Y-99250000D02*
X102475000Y-99250000D01*
X125671846Y-130022346D02*
X125695994Y-130028815D01*
D32*
X116815776Y-120000000D02*
X124170830Y-127355054D01*
D31*
X124080855Y-127266668D02*
X125671846Y-130022346D01*
D32*
X145200000Y-66200000D02*
X145800000Y-65600000D01*
D31*
X125695994Y-130028815D02*
X129076734Y-130934681D01*
X104725000Y-97000000D02*
X104975000Y-97000000D01*
D32*
X101425000Y-58300000D02*
X130230040Y-58300000D01*
X104300000Y-120000000D02*
X116815776Y-120000000D01*
D31*
X102475000Y-65250000D02*
X104725000Y-63000000D01*
X129076734Y-130934681D02*
X131832410Y-129343692D01*
X96700000Y-97000000D02*
X98950000Y-99250000D01*
D32*
X130230040Y-58300000D02*
X137430040Y-65500000D01*
D31*
X102475000Y-99250000D02*
X104725000Y-97000000D01*
X96700000Y-80000000D02*
X98950000Y-82250000D01*
D32*
X119374992Y-62600000D02*
X131990040Y-62600000D01*
X127800000Y-118900000D02*
X131199908Y-118900000D01*
D31*
X146971779Y-137083816D02*
X150002868Y-138833816D01*
X153076425Y-138010259D02*
X153292931Y-138135259D01*
X122725000Y-67250000D02*
X122975000Y-67250000D01*
X114700000Y-84250000D02*
X116950000Y-86500000D01*
X150002868Y-138833816D02*
X153076425Y-138010259D01*
D32*
X114725002Y-67249990D02*
X114725004Y-67249988D01*
D31*
X114700000Y-67250000D02*
X116950000Y-69500000D01*
X116950000Y-86500000D02*
X116975000Y-86500000D01*
X114700000Y-101250000D02*
X116950000Y-103500000D01*
D32*
X145280000Y-68320000D02*
X146000000Y-67600000D01*
X114725002Y-101249992D02*
X114725002Y-67249990D01*
D31*
X146126572Y-133997758D02*
X146950129Y-137071316D01*
X122725000Y-84250000D02*
X122975000Y-84250000D01*
X116975000Y-86500000D02*
X120475000Y-86500000D01*
X120475000Y-103500000D02*
X122725000Y-101250000D01*
X146950129Y-137071316D02*
X146971779Y-137083816D01*
D32*
X114725004Y-67249988D02*
X119374992Y-62600000D01*
D31*
X120475000Y-86500000D02*
X122725000Y-84250000D01*
X116950000Y-69500000D02*
X116975000Y-69500000D01*
D32*
X114725002Y-101249992D02*
X114725002Y-105825002D01*
D31*
X116975000Y-69500000D02*
X120475000Y-69500000D01*
D32*
X131990040Y-62600000D02*
X137430040Y-68040000D01*
X137430040Y-68320000D02*
X145280000Y-68320000D01*
D31*
X122725000Y-101250000D02*
X122975000Y-101250000D01*
X120475000Y-69500000D02*
X122725000Y-67250000D01*
D32*
X114725002Y-105825002D02*
X127800000Y-118900000D01*
D31*
X116950000Y-103500000D02*
X116975000Y-103500000D01*
D32*
X131199908Y-118900000D02*
X146178206Y-133878298D01*
D31*
X116975000Y-103500000D02*
X120475000Y-103500000D01*
X148783000Y-65183000D02*
X150445000Y-65183000D01*
X146400000Y-62800000D02*
X148783000Y-65183000D01*
X141555000Y-65183000D02*
X143217000Y-65183000D01*
X161900000Y-118677000D02*
X164677000Y-118677000D01*
X143217000Y-65183000D02*
X145600000Y-62800000D01*
X164800000Y-118800000D02*
X164800000Y-121000000D01*
X164677000Y-118677000D02*
X164800000Y-118800000D01*
X145600000Y-62800000D02*
X146400000Y-62800000D01*
D32*
X163600000Y-121000000D02*
X163600000Y-121477000D01*
X163600000Y-121477000D02*
X161900000Y-123177000D01*
D31*
X161000000Y-64200000D02*
X162000000Y-65200000D01*
X159000000Y-65200000D02*
X160000000Y-64200000D01*
X157600000Y-65200000D02*
X159000000Y-65200000D01*
X160000000Y-64200000D02*
X161000000Y-64200000D01*
X156600000Y-63000000D02*
X156600000Y-64200000D01*
X163600000Y-65200000D02*
X164600000Y-66200000D01*
X155300000Y-61700000D02*
X156600000Y-63000000D01*
X162000000Y-65200000D02*
X163600000Y-65200000D01*
X164600000Y-113400000D02*
X156500000Y-121500000D01*
X156500000Y-121500000D02*
X156500000Y-124000000D01*
X150445000Y-63278000D02*
X152023000Y-61700000D01*
X152023000Y-61700000D02*
X155300000Y-61700000D01*
X164600000Y-66200000D02*
X164600000Y-113400000D01*
X156600000Y-64200000D02*
X157600000Y-65200000D01*
M02*
