M48
; DRILL file {KiCad (6.0.5-0)} date Tuesday, 07 February 2023 at 22:55:59
; FORMAT={-:-/ absolute / metric / decimal}
; #@! TF.CreationDate,2023-02-07T22:55:59+01:00
; #@! TF.GenerationSoftware,Kicad,Pcbnew,(6.0.5-0)
; #@! TF.FileFunction,NonPlated,1,2,NPTH
FMAT,2
METRIC
; #@! TA.AperFunction,NonPlated,NPTH,ComponentDrill
T1C0.800
; #@! TA.AperFunction,NonPlated,NPTH,ComponentDrill
T2C1.500
; #@! TA.AperFunction,NonPlated,NPTH,ComponentDrill
T3C1.702
; #@! TA.AperFunction,NonPlated,NPTH,ComponentDrill
T4C3.000
; #@! TA.AperFunction,NonPlated,NPTH,ComponentDrill
T5C3.429
%
G90
G05
T1
X164.0Y-119.5
X164.0Y-119.5
X164.0Y-122.5
X164.0Y-122.5
T2
X160.505Y-58.692
X160.505Y-58.692
X160.505Y-65.692
X160.505Y-65.692
T3
X27.5Y-92.25
X27.5Y-75.25
X38.5Y-92.25
X38.5Y-75.25
X45.5Y-71.0
X45.5Y-105.0
X45.5Y-88.0
X56.5Y-71.0
X56.5Y-105.0
X56.5Y-88.0
X63.5Y-58.25
X63.5Y-75.25
X63.5Y-92.25
X74.5Y-58.25
X74.5Y-75.25
X74.5Y-92.25
X81.5Y-54.0
X81.5Y-71.0
X81.5Y-88.0
X92.5Y-54.0
X92.5Y-71.0
X92.5Y-88.0
X99.5Y-66.75
X99.5Y-83.75
X99.5Y-100.75
X104.0Y-130.5
X110.5Y-66.75
X110.5Y-83.75
X110.5Y-100.75
X115.0Y-130.5
X117.5Y-105.0
X117.5Y-88.0
X117.5Y-71.0
X125.881Y-131.695
X128.5Y-105.0
X128.5Y-88.0
X128.5Y-71.0
X136.506Y-134.543
X146.706Y-138.513
X156.233Y-144.013
T4
X28.0Y-88.5
X28.0Y-71.5
X33.0Y-86.3
X33.0Y-69.3
X38.0Y-88.5
X38.0Y-71.5
X46.0Y-67.25
X46.0Y-101.25
X46.0Y-84.25
X51.0Y-65.05
X51.0Y-99.05
X51.0Y-82.05
X56.0Y-67.25
X56.0Y-101.25
X56.0Y-84.25
X64.0Y-54.5
X64.0Y-71.5
X64.0Y-88.5
X69.0Y-52.3
X69.0Y-69.3
X69.0Y-86.3
X74.0Y-54.5
X74.0Y-71.5
X74.0Y-88.5
X82.0Y-50.25
X82.0Y-67.25
X82.0Y-84.25
X87.0Y-48.05
X87.0Y-65.05
X87.0Y-82.05
X92.0Y-50.25
X92.0Y-67.25
X92.0Y-84.25
X100.0Y-63.0
X100.0Y-80.0
X100.0Y-97.0
X104.5Y-126.75
X105.0Y-60.8
X105.0Y-77.8
X105.0Y-94.8
X109.5Y-124.55
X110.0Y-63.0
X110.0Y-80.0
X110.0Y-97.0
X114.5Y-126.75
X118.0Y-101.25
X118.0Y-84.25
X118.0Y-67.25
X123.0Y-99.05
X123.0Y-82.05
X123.0Y-65.05
X127.334Y-128.203
X128.0Y-101.25
X128.0Y-84.25
X128.0Y-67.25
X132.733Y-127.372
X136.993Y-130.791
X149.014Y-135.516
X154.445Y-136.111
X157.675Y-140.516
T5
X33.0Y-92.25
X33.0Y-75.25
X51.0Y-71.0
X51.0Y-105.0
X51.0Y-88.0
X69.0Y-58.25
X69.0Y-75.25
X69.0Y-92.25
X87.0Y-54.0
X87.0Y-71.0
X87.0Y-88.0
X105.0Y-66.75
X105.0Y-83.75
X105.0Y-100.75
X109.5Y-130.5
X123.0Y-105.0
X123.0Y-88.0
X123.0Y-71.0
X131.193Y-133.119
X151.47Y-141.263
T0
M30
