G04 #@! TF.GenerationSoftware,KiCad,Pcbnew,(6.0.5-0)*
G04 #@! TF.CreationDate,2023-02-07T22:55:57+01:00*
G04 #@! TF.ProjectId,awokb,61776f6b-622e-46b6-9963-61645f706362,rev?*
G04 #@! TF.SameCoordinates,Original*
G04 #@! TF.FileFunction,Soldermask,Bot*
G04 #@! TF.FilePolarity,Negative*
%FSLAX46Y46*%
G04 Gerber Fmt 4.6, Leading zero omitted, Abs format (unit mm)*
G04 Created by KiCad (PCBNEW (6.0.5-0)) date 2023-02-07 22:55:57*
%MOMM*%
%LPD*%
G01*
G04 APERTURE LIST*
G04 Aperture macros list*
%AMRoundRect*
0 Rectangle with rounded corners*
0 $1 Rounding radius*
0 $2 $3 $4 $5 $6 $7 $8 $9 X,Y pos of 4 corners*
0 Add a 4 corners polygon primitive as box body*
4,1,4,$2,$3,$4,$5,$6,$7,$8,$9,$2,$3,0*
0 Add four circle primitives for the rounded corners*
1,1,$1+$1,$2,$3*
1,1,$1+$1,$4,$5*
1,1,$1+$1,$6,$7*
1,1,$1+$1,$8,$9*
0 Add four rect primitives between the rounded corners*
20,1,$1+$1,$2,$3,$4,$5,0*
20,1,$1+$1,$4,$5,$6,$7,0*
20,1,$1+$1,$6,$7,$8,$9,0*
20,1,$1+$1,$8,$9,$2,$3,0*%
%AMRotRect*
0 Rectangle, with rotation*
0 The origin of the aperture is its center*
0 $1 length*
0 $2 width*
0 $3 Rotation angle, in degrees counterclockwise*
0 Add horizontal line*
21,1,$1,$2,0,0,$3*%
%AMOutline5P*
0 Free polygon, 5 corners , with rotation*
0 The origin of the aperture is its center*
0 number of corners: always 5*
0 $1 to $10 corner X, Y*
0 $11 Rotation angle, in degrees counterclockwise*
0 create outline with 5 corners*
4,1,5,$1,$2,$3,$4,$5,$6,$7,$8,$9,$10,$1,$2,$11*%
%AMOutline6P*
0 Free polygon, 6 corners , with rotation*
0 The origin of the aperture is its center*
0 number of corners: always 6*
0 $1 to $12 corner X, Y*
0 $13 Rotation angle, in degrees counterclockwise*
0 create outline with 6 corners*
4,1,6,$1,$2,$3,$4,$5,$6,$7,$8,$9,$10,$11,$12,$1,$2,$13*%
%AMOutline7P*
0 Free polygon, 7 corners , with rotation*
0 The origin of the aperture is its center*
0 number of corners: always 7*
0 $1 to $14 corner X, Y*
0 $15 Rotation angle, in degrees counterclockwise*
0 create outline with 7 corners*
4,1,7,$1,$2,$3,$4,$5,$6,$7,$8,$9,$10,$11,$12,$13,$14,$1,$2,$15*%
%AMOutline8P*
0 Free polygon, 8 corners , with rotation*
0 The origin of the aperture is its center*
0 number of corners: always 8*
0 $1 to $16 corner X, Y*
0 $17 Rotation angle, in degrees counterclockwise*
0 create outline with 8 corners*
4,1,8,$1,$2,$3,$4,$5,$6,$7,$8,$9,$10,$11,$12,$13,$14,$15,$16,$1,$2,$17*%
G04 Aperture macros list end*
%ADD10C,3.000000*%
%ADD11C,3.429000*%
%ADD12C,1.701800*%
%ADD13RotRect,2.600000X2.600000X165.000000*%
%ADD14RotRect,0.900000X1.200000X75.000000*%
%ADD15Outline5P,-1.300000X1.300000X0.000000X1.300000X1.300000X0.000000X1.300000X-1.300000X-1.300000X-1.300000X165.000000*%
%ADD16R,2.600000X2.600000*%
%ADD17R,1.200000X0.900000*%
%ADD18Outline5P,-1.300000X1.300000X0.000000X1.300000X1.300000X0.000000X1.300000X-1.300000X-1.300000X-1.300000X180.000000*%
%ADD19C,1.500000*%
%ADD20O,1.600000X3.300000*%
%ADD21O,1.600000X2.200000*%
%ADD22C,0.800000*%
%ADD23C,6.400000*%
%ADD24RotRect,2.600000X2.600000X150.000000*%
%ADD25RotRect,0.900000X1.200000X60.000000*%
%ADD26Outline5P,-1.300000X1.300000X0.000000X1.300000X1.300000X0.000000X1.300000X-1.300000X-1.300000X-1.300000X150.000000*%
%ADD27R,2.000000X0.800000*%
%ADD28R,0.800000X1.000000*%
%ADD29R,0.800000X0.900000*%
%ADD30RoundRect,0.208333X0.291667X0.541667X-0.291667X0.541667X-0.291667X-0.541667X0.291667X-0.541667X0*%
%ADD31O,1.000000X1.500000*%
%ADD32O,2.750000X1.800000*%
%ADD33C,1.397000*%
G04 APERTURE END LIST*
D10*
X127334237Y-128202686D03*
X132733268Y-127371744D03*
X136993496Y-130790876D03*
D11*
X131193295Y-133119003D03*
D12*
X125880703Y-131695498D03*
X136505887Y-134542508D03*
D13*
X140156903Y-131638509D03*
D14*
X126565827Y-137831915D03*
D15*
X129569861Y-126524112D03*
D14*
X127419929Y-134644359D03*
D12*
X92500005Y-88000000D03*
D10*
X82000005Y-84250000D03*
D11*
X87000005Y-88000000D03*
D10*
X87000005Y-82050000D03*
D12*
X81500005Y-88000000D03*
D10*
X92000005Y-84250000D03*
D16*
X95275005Y-84250000D03*
D17*
X83750005Y-93750000D03*
X83750005Y-90450000D03*
D18*
X83725005Y-82050000D03*
D19*
X160505000Y-65692500D03*
X160505000Y-58692500D03*
X160505000Y-65692500D03*
X160505000Y-58692500D03*
D20*
X158205000Y-67832500D03*
X162805000Y-67832500D03*
D21*
X158205000Y-63292500D03*
X162805000Y-63292500D03*
X162805000Y-60292500D03*
X158205000Y-60292500D03*
D22*
X102600000Y-54000000D03*
D23*
X105000000Y-54000000D03*
D22*
X103302944Y-55697056D03*
X106697056Y-55697056D03*
X105000000Y-56400000D03*
X107400000Y-54000000D03*
X105000000Y-51600000D03*
X103302944Y-52302944D03*
X106697056Y-52302944D03*
D10*
X74000012Y-88499994D03*
X64000012Y-88499994D03*
D12*
X74500012Y-92249994D03*
D10*
X69000012Y-86299994D03*
D12*
X63500012Y-92249994D03*
D11*
X69000012Y-92249994D03*
D16*
X77275012Y-88499994D03*
D17*
X65750012Y-97999994D03*
D18*
X65725012Y-86299994D03*
D17*
X65750012Y-94699994D03*
D23*
X147500000Y-119000000D03*
D10*
X87000004Y-65049994D03*
D11*
X87000004Y-70999994D03*
D10*
X82000004Y-67249994D03*
X92000004Y-67249994D03*
D12*
X81500004Y-70999994D03*
X92500004Y-70999994D03*
D16*
X95275004Y-67249994D03*
D17*
X83750004Y-76749994D03*
D18*
X83725004Y-65049994D03*
D17*
X83750004Y-73449994D03*
D12*
X56500003Y-104999998D03*
D10*
X51000003Y-99049998D03*
X56000003Y-101249998D03*
D12*
X45500003Y-104999998D03*
D10*
X46000003Y-101249998D03*
D11*
X51000003Y-104999998D03*
D16*
X59275003Y-101249998D03*
D17*
X47750003Y-110749998D03*
X47750003Y-107449998D03*
D18*
X47725003Y-99049998D03*
D11*
X105000005Y-66749995D03*
D10*
X105000005Y-60799995D03*
X110000005Y-62999995D03*
X100000005Y-62999995D03*
D12*
X110500005Y-66749995D03*
X99500005Y-66749995D03*
D16*
X113275005Y-62999995D03*
D17*
X101750005Y-72499995D03*
X101750005Y-69199995D03*
D18*
X101725005Y-60799995D03*
D10*
X118000002Y-101249992D03*
X123000002Y-99049992D03*
D11*
X123000002Y-104999992D03*
D12*
X117500002Y-104999992D03*
X128500002Y-104999992D03*
D10*
X128000002Y-101249992D03*
D16*
X131275002Y-101249992D03*
D17*
X119750002Y-110749992D03*
X119750002Y-107449992D03*
D18*
X119725002Y-99049992D03*
D12*
X110500007Y-100750004D03*
D10*
X110000007Y-97000004D03*
D12*
X99500007Y-100750004D03*
D10*
X105000007Y-94800004D03*
X100000007Y-97000004D03*
D11*
X105000007Y-100750004D03*
D16*
X113275007Y-97000004D03*
D17*
X101750007Y-106500004D03*
D18*
X101725007Y-94800004D03*
D17*
X101750007Y-103200004D03*
D12*
X81499996Y-53999992D03*
D10*
X91999996Y-50249992D03*
X81999996Y-50249992D03*
D11*
X86999996Y-53999992D03*
D10*
X86999996Y-48049992D03*
D12*
X92499996Y-53999992D03*
D16*
X95274996Y-50249992D03*
D17*
X83749996Y-59749992D03*
X83749996Y-56449992D03*
D18*
X83724996Y-48049992D03*
D10*
X109500006Y-124549998D03*
X114500006Y-126749998D03*
D12*
X104000006Y-130499998D03*
D10*
X104500006Y-126749998D03*
D12*
X115000006Y-130499998D03*
D11*
X109500006Y-130499998D03*
D16*
X117775006Y-126749998D03*
D17*
X106250006Y-136249998D03*
X106250006Y-132949998D03*
D18*
X106225006Y-124549998D03*
D11*
X123000004Y-70999988D03*
D10*
X118000004Y-67249988D03*
D12*
X117500004Y-70999988D03*
D10*
X128000004Y-67249988D03*
D12*
X128500004Y-70999988D03*
D10*
X123000004Y-65049988D03*
D16*
X131275004Y-67249988D03*
D17*
X119750004Y-76749988D03*
X119750004Y-73449988D03*
D18*
X119725004Y-65049988D03*
D10*
X28000004Y-88499997D03*
X33000004Y-86299997D03*
D12*
X38500004Y-92249997D03*
D11*
X33000004Y-92249997D03*
D12*
X27500004Y-92249997D03*
D10*
X38000004Y-88499997D03*
D16*
X41275004Y-88499997D03*
D17*
X29750004Y-97999997D03*
D18*
X29725004Y-86299997D03*
D17*
X29750004Y-94699997D03*
D12*
X146706426Y-138513393D03*
D11*
X151469566Y-141263393D03*
D10*
X149014439Y-135515798D03*
X157674693Y-140515798D03*
X154444566Y-136110542D03*
D12*
X156232706Y-144013393D03*
D24*
X160510926Y-142153298D03*
D25*
X145779983Y-144618039D03*
D26*
X151608333Y-134473042D03*
D25*
X147429983Y-141760155D03*
D10*
X56000000Y-67250000D03*
D12*
X56500000Y-71000000D03*
X45500000Y-71000000D03*
D11*
X51000000Y-71000000D03*
D10*
X46000000Y-67250000D03*
X51000000Y-65050000D03*
D16*
X59275000Y-67250000D03*
D17*
X47750000Y-76750000D03*
D18*
X47725000Y-65050000D03*
D17*
X47750000Y-73450000D03*
D10*
X69000010Y-69299988D03*
X64000010Y-71499988D03*
D12*
X63500010Y-75249988D03*
X74500010Y-75249988D03*
D11*
X69000010Y-75249988D03*
D10*
X74000010Y-71499988D03*
D16*
X77275010Y-71499988D03*
D17*
X65750010Y-80999988D03*
X65750010Y-77699988D03*
D18*
X65725010Y-69299988D03*
D22*
X158802944Y-76197056D03*
X162197056Y-72802944D03*
X158100000Y-74500000D03*
D23*
X160500000Y-74500000D03*
D22*
X162900000Y-74500000D03*
X160500000Y-76900000D03*
X162197056Y-76197056D03*
X158802944Y-72802944D03*
X160500000Y-72100000D03*
D10*
X128000003Y-84249993D03*
D12*
X117500003Y-87999993D03*
D11*
X123000003Y-87999993D03*
D10*
X123000003Y-82049993D03*
D12*
X128500003Y-87999993D03*
D10*
X118000003Y-84249993D03*
D16*
X131275003Y-84249993D03*
D17*
X119750003Y-93749993D03*
X119750003Y-90449993D03*
D18*
X119725003Y-82049993D03*
D22*
X34697056Y-106697056D03*
X33000000Y-107400000D03*
D23*
X33000000Y-105000000D03*
D22*
X30600000Y-105000000D03*
X34697056Y-103302944D03*
X31302944Y-106697056D03*
X33000000Y-102600000D03*
X31302944Y-103302944D03*
X35400000Y-105000000D03*
D23*
X51000000Y-58000000D03*
D22*
X52697056Y-56302944D03*
X53400000Y-58000000D03*
X49302944Y-59697056D03*
X51000000Y-55600000D03*
X51000000Y-60400000D03*
X52697056Y-59697056D03*
X49302944Y-56302944D03*
X48600000Y-58000000D03*
X105100000Y-115500000D03*
X105802944Y-113802944D03*
X107500000Y-113100000D03*
X109197056Y-113802944D03*
X107500000Y-117900000D03*
D23*
X107500000Y-115500000D03*
D22*
X109900000Y-115500000D03*
X109197056Y-117197056D03*
X105802944Y-117197056D03*
D11*
X105000006Y-83750002D03*
D12*
X99500006Y-83750002D03*
D10*
X105000006Y-77800002D03*
D12*
X110500006Y-83750002D03*
D10*
X100000006Y-80000002D03*
X110000006Y-80000002D03*
D16*
X113275006Y-80000002D03*
D17*
X101750006Y-89500002D03*
X101750006Y-86200002D03*
D18*
X101725006Y-77800002D03*
D12*
X38500007Y-75249997D03*
D10*
X28000007Y-71499997D03*
D11*
X33000007Y-75249997D03*
D10*
X33000007Y-69299997D03*
X38000007Y-71499997D03*
D12*
X27500007Y-75249997D03*
D16*
X41275007Y-71499997D03*
D17*
X29750007Y-80999997D03*
D18*
X29725007Y-69299997D03*
D17*
X29750007Y-77699997D03*
D22*
X164000000Y-122500000D03*
X164000000Y-122500000D03*
X164000000Y-119500000D03*
X164000000Y-119500000D03*
D27*
X161900000Y-121823000D03*
D28*
X165125000Y-117250000D03*
D29*
X162875000Y-117200000D03*
X162875000Y-124800000D03*
D28*
X165125000Y-124750000D03*
D27*
X161900000Y-123323000D03*
X161900000Y-118823000D03*
D23*
X147500000Y-119000000D03*
D22*
X147500000Y-121400000D03*
X147500000Y-116600000D03*
X145802944Y-117302944D03*
X149197056Y-120697056D03*
X149900000Y-119000000D03*
X145100000Y-119000000D03*
X149197056Y-117302944D03*
X145802944Y-120697056D03*
D10*
X69000006Y-52299999D03*
D12*
X63500006Y-58249999D03*
D11*
X69000006Y-58249999D03*
D12*
X74500006Y-58249999D03*
D10*
X74000006Y-54499999D03*
X64000006Y-54499999D03*
D16*
X77275006Y-54499999D03*
D17*
X65750006Y-63999999D03*
X65750006Y-60699999D03*
D18*
X65725006Y-52299999D03*
D30*
X156500000Y-124000000D03*
D31*
X155250000Y-124000000D03*
X157750000Y-124000000D03*
D32*
X154094960Y-57880000D03*
X154094960Y-60420000D03*
X154094960Y-62960000D03*
X154094960Y-65500000D03*
X154094960Y-68040000D03*
X154094960Y-70580000D03*
X154094960Y-73120000D03*
X137905040Y-73120000D03*
X137905040Y-70580000D03*
X137905040Y-68040000D03*
X137905040Y-65500000D03*
X137905040Y-62960000D03*
X137905040Y-60420000D03*
X137905040Y-57880000D03*
D33*
X147270000Y-56928000D03*
X144730000Y-56928000D03*
X147270000Y-56928000D03*
X144730000Y-56928000D03*
X147270000Y-59468000D03*
X144730000Y-59468000D03*
X144730000Y-59468000D03*
X147270000Y-59468000D03*
X150445000Y-65183000D03*
X141555000Y-65183000D03*
X141555000Y-63278000D03*
X150445000Y-63278000D03*
X149810000Y-74708000D03*
X142190000Y-74708000D03*
X151715000Y-74708000D03*
X140285000Y-74708000D03*
D12*
X45500006Y-88000000D03*
D10*
X51000006Y-82050000D03*
X46000006Y-84250000D03*
X56000006Y-84250000D03*
D12*
X56500006Y-88000000D03*
D11*
X51000006Y-88000000D03*
D16*
X59275006Y-84250000D03*
D17*
X47750006Y-93750000D03*
D18*
X47725006Y-82050000D03*
D17*
X47750006Y-90450000D03*
M02*
