%FSLAX45Y45*%
G04 Gerber Fmt 4.5, Leading zero omitted, Abs format (unit mm)*
G04 Created by KiCad (PCBNEW (6.0.5-0)) date 2023-02-07 22:56:01*
%MOMM*%
%LPD*%
G01*
G04 APERTURE LIST*
%TA.AperFunction,Profile*%
%ADD10C,0.100000*%
%TD*%
%ADD11C,0.200000*%
%ADD12C,0.040000*%
%ADD13C,0.050000*%
%ADD14C,0.075000*%
%ADD15C,0.090000*%
%ADD16C,0.101600*%
%ADD17C,0.320000*%
G04 APERTURE END LIST*
D10*
X7200002Y-4249998D02*
X9600002Y-4249998D01*
X3300002Y-5498957D02*
G75*
G03*
X5850002Y-4599998I-400047J5200944D01*
G01*
X7200002Y-4249998D02*
G75*
G03*
X5850002Y-4599998I-21892J-2694132D01*
G01*
X10950002Y-4599998D02*
G75*
G03*
X13500002Y-5499998I2954423J4308366D01*
G01*
X14400002Y-15449998D02*
G75*
G03*
X10950002Y-14549998I-3404422J-5987782D01*
G01*
X10950003Y-4599997D02*
G75*
G03*
X9600002Y-4249998I-1328113J-2344153D01*
G01*
X16650002Y-14149998D02*
X16650002Y-5799998D01*
X14400002Y-15449998D02*
G75*
G03*
X16650002Y-14149998I749444J1300001D01*
G01*
X3900002Y-11849998D02*
X8250002Y-11849998D01*
X9450002Y-13049998D02*
G75*
G03*
X10950002Y-14549998I1499998J-2D01*
G01*
X13500002Y-5499998D02*
X16350002Y-5499998D01*
X2100002Y-10049998D02*
G75*
G03*
X3900002Y-11849998I1800000J0D01*
G01*
X3300002Y-5498956D02*
G75*
G03*
X2100002Y-6749998I25521J-1225521D01*
G01*
X2100002Y-10049998D02*
X2100002Y-6749998D01*
X16650002Y-5799998D02*
G75*
G03*
X16350002Y-5499998I-300002J-2D01*
G01*
X9450002Y-13049998D02*
G75*
G03*
X8250002Y-11849998I-1200002J-2D01*
G01*
D11*
D12*
X3277500Y-7130000D02*
X3317500Y-7170000D01*
X3317500Y-7130000D02*
X3277500Y-7170000D01*
X3277500Y-8830000D02*
X3317500Y-8870000D01*
X3317500Y-8830000D02*
X3277500Y-8870000D01*
X3280000Y-8110000D02*
X3320000Y-8150000D01*
X3320000Y-8110000D02*
X3280000Y-8150000D01*
X3280000Y-9810000D02*
X3320000Y-9850000D01*
X3320000Y-9810000D02*
X3280000Y-9850000D01*
X5077500Y-6705000D02*
X5117500Y-6745000D01*
X5117500Y-6705000D02*
X5077500Y-6745000D01*
X5077500Y-8405000D02*
X5117500Y-8445000D01*
X5117500Y-8405000D02*
X5077500Y-8445000D01*
X5077500Y-10105000D02*
X5117500Y-10145000D01*
X5117500Y-10105000D02*
X5077500Y-10145000D01*
X5080000Y-7685000D02*
X5120000Y-7725000D01*
X5120000Y-7685000D02*
X5080000Y-7725000D01*
X5080000Y-9385000D02*
X5120000Y-9425000D01*
X5120000Y-9385000D02*
X5080000Y-9425000D01*
X5080000Y-11085000D02*
X5120000Y-11125000D01*
X5120000Y-11085000D02*
X5080000Y-11125000D01*
X6877500Y-5430000D02*
X6917500Y-5470000D01*
X6917500Y-5430000D02*
X6877500Y-5470000D01*
X6877500Y-7130000D02*
X6917500Y-7170000D01*
X6917500Y-7130000D02*
X6877500Y-7170000D01*
X6877500Y-8830000D02*
X6917500Y-8870000D01*
X6917500Y-8830000D02*
X6877500Y-8870000D01*
X6880000Y-6410000D02*
X6920000Y-6450000D01*
X6920000Y-6410000D02*
X6880000Y-6450000D01*
X6880000Y-8110000D02*
X6920000Y-8150000D01*
X6920000Y-8110000D02*
X6880000Y-8150000D01*
X6880000Y-9810000D02*
X6920000Y-9850000D01*
X6920000Y-9810000D02*
X6880000Y-9850000D01*
X8677500Y-5005000D02*
X8717500Y-5045000D01*
X8717500Y-5005000D02*
X8677500Y-5045000D01*
X8677500Y-6705000D02*
X8717500Y-6745000D01*
X8717500Y-6705000D02*
X8677500Y-6745000D01*
X8677500Y-8405000D02*
X8717500Y-8445000D01*
X8717500Y-8405000D02*
X8677500Y-8445000D01*
X8680000Y-5985000D02*
X8720000Y-6025000D01*
X8720000Y-5985000D02*
X8680000Y-6025000D01*
X8680000Y-7685000D02*
X8720000Y-7725000D01*
X8720000Y-7685000D02*
X8680000Y-7725000D01*
X8680000Y-9385000D02*
X8720000Y-9425000D01*
X8720000Y-9385000D02*
X8680000Y-9425000D01*
X10477500Y-6280000D02*
X10517500Y-6320000D01*
X10517500Y-6280000D02*
X10477500Y-6320000D01*
X10477500Y-7980000D02*
X10517500Y-8020000D01*
X10517500Y-7980000D02*
X10477500Y-8020000D01*
X10477500Y-9680000D02*
X10517500Y-9720000D01*
X10517500Y-9680000D02*
X10477500Y-9720000D01*
X10480000Y-7260000D02*
X10520000Y-7300000D01*
X10520000Y-7260000D02*
X10480000Y-7300000D01*
X10480000Y-8960000D02*
X10520000Y-9000000D01*
X10520000Y-8960000D02*
X10480000Y-9000000D01*
X10480000Y-10660000D02*
X10520000Y-10700000D01*
X10520000Y-10660000D02*
X10480000Y-10700000D01*
X10927500Y-12655000D02*
X10967500Y-12695000D01*
X10967500Y-12655000D02*
X10927500Y-12695000D01*
X10930000Y-13635000D02*
X10970000Y-13675000D01*
X10970000Y-13635000D02*
X10930000Y-13675000D01*
X12277500Y-6705000D02*
X12317500Y-6745000D01*
X12317500Y-6705000D02*
X12277500Y-6745000D01*
X12277500Y-8405000D02*
X12317500Y-8445000D01*
X12317500Y-8405000D02*
X12277500Y-8445000D01*
X12277500Y-10105000D02*
X12317500Y-10145000D01*
X12317500Y-10105000D02*
X12277500Y-10145000D01*
X12280000Y-7685000D02*
X12320000Y-7725000D01*
X12320000Y-7685000D02*
X12280000Y-7725000D01*
X12280000Y-9385000D02*
X12320000Y-9425000D01*
X12320000Y-9385000D02*
X12280000Y-9425000D01*
X12280000Y-11085000D02*
X12320000Y-11125000D01*
X12320000Y-11085000D02*
X12280000Y-11125000D01*
X12936161Y-13868094D02*
X12976161Y-13908094D01*
X12976161Y-13868094D02*
X12936161Y-13908094D01*
X13187389Y-12920840D02*
X13227389Y-12960840D01*
X13227389Y-12920840D02*
X13187389Y-12960840D01*
X13480000Y-7510000D02*
X13520000Y-7550000D01*
X13520000Y-7510000D02*
X13480000Y-7550000D01*
X14320000Y-5740000D02*
X14360000Y-5780000D01*
X14360000Y-5740000D02*
X14320000Y-5780000D01*
X14320000Y-5840000D02*
X14360000Y-5880000D01*
X14360000Y-5840000D02*
X14320000Y-5880000D01*
X14580000Y-6020000D02*
X14620000Y-6060000D01*
X14620000Y-6020000D02*
X14580000Y-6060000D01*
X14580000Y-6140000D02*
X14620000Y-6180000D01*
X14620000Y-6140000D02*
X14580000Y-6180000D01*
X14580000Y-6340000D02*
X14620000Y-6380000D01*
X14620000Y-6340000D02*
X14580000Y-6380000D01*
X14580000Y-6440000D02*
X14620000Y-6480000D01*
X14620000Y-6440000D02*
X14580000Y-6480000D01*
X14580000Y-6540000D02*
X14620000Y-6580000D01*
X14620000Y-6540000D02*
X14580000Y-6580000D01*
X14580000Y-6640000D02*
X14620000Y-6680000D01*
X14620000Y-6640000D02*
X14580000Y-6680000D01*
X14580000Y-6740000D02*
X14620000Y-6780000D01*
X14620000Y-6740000D02*
X14580000Y-6780000D01*
X14580000Y-6880000D02*
X14620000Y-6920000D01*
X14620000Y-6880000D02*
X14580000Y-6920000D01*
X14580000Y-6980000D02*
X14620000Y-7020000D01*
X14620000Y-6980000D02*
X14580000Y-7020000D01*
X14580000Y-7120000D02*
X14620000Y-7160000D01*
X14620000Y-7120000D02*
X14580000Y-7160000D01*
X14580000Y-7220000D02*
X14620000Y-7260000D01*
X14620000Y-7220000D02*
X14580000Y-7260000D01*
X14580000Y-7360000D02*
X14620000Y-7400000D01*
X14620000Y-7360000D02*
X14580000Y-7400000D01*
X14821458Y-14643481D02*
X14861458Y-14683481D01*
X14861458Y-14643481D02*
X14821458Y-14683481D01*
X15309293Y-13793526D02*
X15349293Y-13833526D01*
X15349293Y-13793526D02*
X15309293Y-13833526D01*
X16340000Y-12080000D02*
X16380000Y-12120000D01*
X16380000Y-12080000D02*
X16340000Y-12120000D01*
X16460000Y-12080000D02*
X16500000Y-12120000D01*
X16500000Y-12080000D02*
X16460000Y-12120000D01*
D13*
X3085000Y-10500000D02*
G75*
G03*
X3085000Y-10500000I-25000J0D01*
G01*
X3155294Y-10330294D02*
G75*
G03*
X3155294Y-10330294I-25000J0D01*
G01*
X3155294Y-10669706D02*
G75*
G03*
X3155294Y-10669706I-25000J0D01*
G01*
X3325000Y-10260000D02*
G75*
G03*
X3325000Y-10260000I-25000J0D01*
G01*
X3325000Y-10740000D02*
G75*
G03*
X3325000Y-10740000I-25000J0D01*
G01*
X3494706Y-10330294D02*
G75*
G03*
X3494706Y-10330294I-25000J0D01*
G01*
X3494706Y-10669706D02*
G75*
G03*
X3494706Y-10669706I-25000J0D01*
G01*
X3565000Y-10500000D02*
G75*
G03*
X3565000Y-10500000I-25000J0D01*
G01*
X4885000Y-5800000D02*
G75*
G03*
X4885000Y-5800000I-25000J0D01*
G01*
X4955294Y-5630294D02*
G75*
G03*
X4955294Y-5630294I-25000J0D01*
G01*
X4955294Y-5969706D02*
G75*
G03*
X4955294Y-5969706I-25000J0D01*
G01*
X5125000Y-5560000D02*
G75*
G03*
X5125000Y-5560000I-25000J0D01*
G01*
X5125000Y-6040000D02*
G75*
G03*
X5125000Y-6040000I-25000J0D01*
G01*
X5294706Y-5630294D02*
G75*
G03*
X5294706Y-5630294I-25000J0D01*
G01*
X5294706Y-5969706D02*
G75*
G03*
X5294706Y-5969706I-25000J0D01*
G01*
X5365000Y-5800000D02*
G75*
G03*
X5365000Y-5800000I-25000J0D01*
G01*
X10285000Y-5400000D02*
G75*
G03*
X10285000Y-5400000I-25000J0D01*
G01*
X10355294Y-5230294D02*
G75*
G03*
X10355294Y-5230294I-25000J0D01*
G01*
X10355294Y-5569706D02*
G75*
G03*
X10355294Y-5569706I-25000J0D01*
G01*
X10525000Y-5160000D02*
G75*
G03*
X10525000Y-5160000I-25000J0D01*
G01*
X10525000Y-5640000D02*
G75*
G03*
X10525000Y-5640000I-25000J0D01*
G01*
X10535000Y-11550000D02*
G75*
G03*
X10535000Y-11550000I-25000J0D01*
G01*
X10605294Y-11380294D02*
G75*
G03*
X10605294Y-11380294I-25000J0D01*
G01*
X10605294Y-11719706D02*
G75*
G03*
X10605294Y-11719706I-25000J0D01*
G01*
X10694706Y-5230294D02*
G75*
G03*
X10694706Y-5230294I-25000J0D01*
G01*
X10694706Y-5569706D02*
G75*
G03*
X10694706Y-5569706I-25000J0D01*
G01*
X10765000Y-5400000D02*
G75*
G03*
X10765000Y-5400000I-25000J0D01*
G01*
X10775000Y-11310000D02*
G75*
G03*
X10775000Y-11310000I-25000J0D01*
G01*
X10775000Y-11790000D02*
G75*
G03*
X10775000Y-11790000I-25000J0D01*
G01*
X10944706Y-11380294D02*
G75*
G03*
X10944706Y-11380294I-25000J0D01*
G01*
X10944706Y-11719706D02*
G75*
G03*
X10944706Y-11719706I-25000J0D01*
G01*
X11015000Y-11550000D02*
G75*
G03*
X11015000Y-11550000I-25000J0D01*
G01*
X14535000Y-11900000D02*
G75*
G03*
X14535000Y-11900000I-25000J0D01*
G01*
X14605294Y-11730294D02*
G75*
G03*
X14605294Y-11730294I-25000J0D01*
G01*
X14605294Y-12069706D02*
G75*
G03*
X14605294Y-12069706I-25000J0D01*
G01*
X14775000Y-11660000D02*
G75*
G03*
X14775000Y-11660000I-25000J0D01*
G01*
X14775000Y-12140000D02*
G75*
G03*
X14775000Y-12140000I-25000J0D01*
G01*
X14944706Y-11730294D02*
G75*
G03*
X14944706Y-11730294I-25000J0D01*
G01*
X14944706Y-12069706D02*
G75*
G03*
X14944706Y-12069706I-25000J0D01*
G01*
X15015000Y-11900000D02*
G75*
G03*
X15015000Y-11900000I-25000J0D01*
G01*
X15835000Y-7450000D02*
G75*
G03*
X15835000Y-7450000I-25000J0D01*
G01*
X15905294Y-7280294D02*
G75*
G03*
X15905294Y-7280294I-25000J0D01*
G01*
X15905294Y-7619706D02*
G75*
G03*
X15905294Y-7619706I-25000J0D01*
G01*
X16075000Y-7210000D02*
G75*
G03*
X16075000Y-7210000I-25000J0D01*
G01*
X16075000Y-7690000D02*
G75*
G03*
X16075000Y-7690000I-25000J0D01*
G01*
X16244706Y-7280294D02*
G75*
G03*
X16244706Y-7280294I-25000J0D01*
G01*
X16244706Y-7619706D02*
G75*
G03*
X16244706Y-7619706I-25000J0D01*
G01*
X16315000Y-7450000D02*
G75*
G03*
X16315000Y-7450000I-25000J0D01*
G01*
D14*
X15525000Y-12362500D02*
X15525000Y-12437500D01*
X15487500Y-12400000D02*
X15562500Y-12400000D01*
X15650000Y-12362500D02*
X15650000Y-12437500D01*
X15612500Y-12400000D02*
X15687500Y-12400000D01*
X15775000Y-12362500D02*
X15775000Y-12437500D01*
X15737500Y-12400000D02*
X15812500Y-12400000D01*
D15*
X15852320Y-6061070D02*
X15852320Y-5997430D01*
X15788680Y-5997430D01*
X15788680Y-6061070D01*
X15852320Y-6061070D01*
D11*
X15785500Y-5999250D02*
X15785500Y-6059250D01*
X15855500Y-5999250D02*
X15855500Y-6059250D01*
X15785500Y-6059250D02*
G75*
G03*
X15855500Y-6059250I35000J0D01*
G01*
X15855500Y-5999250D02*
G75*
G03*
X15785500Y-5999250I-35000J0D01*
G01*
D15*
X15852320Y-6361070D02*
X15852320Y-6297430D01*
X15788680Y-6297430D01*
X15788680Y-6361070D01*
X15852320Y-6361070D01*
D11*
X15785500Y-6299250D02*
X15785500Y-6359250D01*
X15855500Y-6299250D02*
X15855500Y-6359250D01*
X15785500Y-6359250D02*
G75*
G03*
X15855500Y-6359250I35000J0D01*
G01*
X15855500Y-6299250D02*
G75*
G03*
X15785500Y-6299250I-35000J0D01*
G01*
D15*
X15852320Y-6815070D02*
X15852320Y-6751430D01*
X15788680Y-6751430D01*
X15788680Y-6815070D01*
X15852320Y-6815070D01*
D11*
X15785500Y-6698250D02*
X15785500Y-6868250D01*
X15855500Y-6698250D02*
X15855500Y-6868250D01*
X15785500Y-6868250D02*
G75*
G03*
X15855500Y-6868250I35000J0D01*
G01*
X15855500Y-6698250D02*
G75*
G03*
X15785500Y-6698250I-35000J0D01*
G01*
D15*
X16312320Y-6061070D02*
X16312320Y-5997430D01*
X16248680Y-5997430D01*
X16248680Y-6061070D01*
X16312320Y-6061070D01*
D11*
X16245500Y-5999250D02*
X16245500Y-6059250D01*
X16315500Y-5999250D02*
X16315500Y-6059250D01*
X16245500Y-6059250D02*
G75*
G03*
X16315500Y-6059250I35000J0D01*
G01*
X16315500Y-5999250D02*
G75*
G03*
X16245500Y-5999250I-35000J0D01*
G01*
D15*
X16312320Y-6361070D02*
X16312320Y-6297430D01*
X16248680Y-6297430D01*
X16248680Y-6361070D01*
X16312320Y-6361070D01*
D11*
X16245500Y-6299250D02*
X16245500Y-6359250D01*
X16315500Y-6299250D02*
X16315500Y-6359250D01*
X16245500Y-6359250D02*
G75*
G03*
X16315500Y-6359250I35000J0D01*
G01*
X16315500Y-6299250D02*
G75*
G03*
X16245500Y-6299250I-35000J0D01*
G01*
D15*
X16312320Y-6815070D02*
X16312320Y-6751430D01*
X16248680Y-6751430D01*
X16248680Y-6815070D01*
X16312320Y-6815070D01*
D11*
X16245500Y-6698250D02*
X16245500Y-6868250D01*
X16315500Y-6698250D02*
X16315500Y-6868250D01*
X16245500Y-6868250D02*
G75*
G03*
X16315500Y-6868250I35000J0D01*
G01*
X16315500Y-6698250D02*
G75*
G03*
X16245500Y-6698250I-35000J0D01*
G01*
D16*
X14028500Y-7521600D02*
X14079300Y-7470800D01*
X14028500Y-7420000D01*
X13977700Y-7470800D01*
X14028500Y-7521600D01*
X14155500Y-6378600D02*
X14206300Y-6327800D01*
X14155500Y-6277000D01*
X14104700Y-6327800D01*
X14155500Y-6378600D01*
X14155500Y-6569100D02*
X14206300Y-6518300D01*
X14155500Y-6467500D01*
X14104700Y-6518300D01*
X14155500Y-6569100D01*
X14219000Y-7521600D02*
X14269800Y-7470800D01*
X14219000Y-7420000D01*
X14168200Y-7470800D01*
X14219000Y-7521600D01*
X14473000Y-5743600D02*
X14523800Y-5692800D01*
X14473000Y-5642000D01*
X14422200Y-5692800D01*
X14473000Y-5743600D01*
X14473000Y-5743600D02*
X14523800Y-5692800D01*
X14473000Y-5642000D01*
X14422200Y-5692800D01*
X14473000Y-5743600D01*
X14473000Y-5997600D02*
X14523800Y-5946800D01*
X14473000Y-5896000D01*
X14422200Y-5946800D01*
X14473000Y-5997600D01*
X14473000Y-5997600D02*
X14523800Y-5946800D01*
X14473000Y-5896000D01*
X14422200Y-5946800D01*
X14473000Y-5997600D01*
X14727000Y-5743600D02*
X14777800Y-5692800D01*
X14727000Y-5642000D01*
X14676200Y-5692800D01*
X14727000Y-5743600D01*
X14727000Y-5743600D02*
X14777800Y-5692800D01*
X14727000Y-5642000D01*
X14676200Y-5692800D01*
X14727000Y-5743600D01*
X14727000Y-5997600D02*
X14777800Y-5946800D01*
X14727000Y-5896000D01*
X14676200Y-5946800D01*
X14727000Y-5997600D01*
X14727000Y-5997600D02*
X14777800Y-5946800D01*
X14727000Y-5896000D01*
X14676200Y-5946800D01*
X14727000Y-5997600D01*
X14981000Y-7521600D02*
X15031800Y-7470800D01*
X14981000Y-7420000D01*
X14930200Y-7470800D01*
X14981000Y-7521600D01*
X15044500Y-6378600D02*
X15095300Y-6327800D01*
X15044500Y-6277000D01*
X14993700Y-6327800D01*
X15044500Y-6378600D01*
X15044500Y-6569100D02*
X15095300Y-6518300D01*
X15044500Y-6467500D01*
X14993700Y-6518300D01*
X15044500Y-6569100D01*
X15171500Y-7521600D02*
X15222300Y-7470800D01*
X15171500Y-7420000D01*
X15120700Y-7470800D01*
X15171500Y-7521600D01*
D17*
X3140000Y-10340000D02*
X3460000Y-10660000D01*
X3460000Y-10340000D02*
X3140000Y-10660000D01*
X3460000Y-10500000D02*
G75*
G03*
X3460000Y-10500000I-160000J0D01*
G01*
X4940000Y-5640000D02*
X5260000Y-5960000D01*
X5260000Y-5640000D02*
X4940000Y-5960000D01*
X5260000Y-5800000D02*
G75*
G03*
X5260000Y-5800000I-160000J0D01*
G01*
X10340000Y-5240000D02*
X10660000Y-5560000D01*
X10660000Y-5240000D02*
X10340000Y-5560000D01*
X10660000Y-5400000D02*
G75*
G03*
X10660000Y-5400000I-160000J0D01*
G01*
X10590000Y-11390000D02*
X10910000Y-11710000D01*
X10910000Y-11390000D02*
X10590000Y-11710000D01*
X10910000Y-11550000D02*
G75*
G03*
X10910000Y-11550000I-160000J0D01*
G01*
X14590000Y-11740000D02*
X14910000Y-12060000D01*
X14910000Y-11740000D02*
X14590000Y-12060000D01*
X14910000Y-11900000D02*
G75*
G03*
X14910000Y-11900000I-160000J0D01*
G01*
X14590000Y-11740000D02*
X14910000Y-12060000D01*
X14910000Y-11740000D02*
X14590000Y-12060000D01*
X14910000Y-11900000D02*
G75*
G03*
X14910000Y-11900000I-160000J0D01*
G01*
X15890000Y-7290000D02*
X16210000Y-7610000D01*
X16210000Y-7290000D02*
X15890000Y-7610000D01*
X16210000Y-7450000D02*
G75*
G03*
X16210000Y-7450000I-160000J0D01*
G01*
D11*
X2352356Y-15966029D02*
X2352356Y-15766029D01*
X2399975Y-15766029D01*
X2428546Y-15775553D01*
X2447594Y-15794601D01*
X2457117Y-15813648D01*
X2466641Y-15851744D01*
X2466641Y-15880315D01*
X2457117Y-15918410D01*
X2447594Y-15937458D01*
X2428546Y-15956505D01*
X2399975Y-15966029D01*
X2352356Y-15966029D01*
X2552356Y-15966029D02*
X2552356Y-15832696D01*
X2552356Y-15870791D02*
X2561879Y-15851744D01*
X2571403Y-15842220D01*
X2590451Y-15832696D01*
X2609498Y-15832696D01*
X2676165Y-15966029D02*
X2676165Y-15832696D01*
X2676165Y-15766029D02*
X2666641Y-15775553D01*
X2676165Y-15785077D01*
X2685689Y-15775553D01*
X2676165Y-15766029D01*
X2676165Y-15785077D01*
X2799974Y-15966029D02*
X2780927Y-15956505D01*
X2771403Y-15937458D01*
X2771403Y-15766029D01*
X2904736Y-15966029D02*
X2885689Y-15956505D01*
X2876165Y-15937458D01*
X2876165Y-15766029D01*
X3133308Y-15966029D02*
X3133308Y-15766029D01*
X3199974Y-15908886D01*
X3266641Y-15766029D01*
X3266641Y-15966029D01*
X3447594Y-15966029D02*
X3447594Y-15861267D01*
X3438070Y-15842220D01*
X3419022Y-15832696D01*
X3380927Y-15832696D01*
X3361879Y-15842220D01*
X3447594Y-15956505D02*
X3428546Y-15966029D01*
X3380927Y-15966029D01*
X3361879Y-15956505D01*
X3352355Y-15937458D01*
X3352355Y-15918410D01*
X3361879Y-15899363D01*
X3380927Y-15889839D01*
X3428546Y-15889839D01*
X3447594Y-15880315D01*
X3542832Y-15832696D02*
X3542832Y-16032696D01*
X3542832Y-15842220D02*
X3561879Y-15832696D01*
X3599974Y-15832696D01*
X3619022Y-15842220D01*
X3628546Y-15851744D01*
X3638070Y-15870791D01*
X3638070Y-15927934D01*
X3628546Y-15946982D01*
X3619022Y-15956505D01*
X3599974Y-15966029D01*
X3561879Y-15966029D01*
X3542832Y-15956505D01*
X3723784Y-15946982D02*
X3733308Y-15956505D01*
X3723784Y-15966029D01*
X3714260Y-15956505D01*
X3723784Y-15946982D01*
X3723784Y-15966029D01*
X3723784Y-15842220D02*
X3733308Y-15851744D01*
X3723784Y-15861267D01*
X3714260Y-15851744D01*
X3723784Y-15842220D01*
X3723784Y-15861267D01*
D12*
X2054736Y-16275553D02*
X2094736Y-16315553D01*
X2094736Y-16275553D02*
X2054736Y-16315553D01*
D11*
X2390451Y-16186029D02*
X2409498Y-16186029D01*
X2428546Y-16195553D01*
X2438070Y-16205077D01*
X2447594Y-16224125D01*
X2457117Y-16262220D01*
X2457117Y-16309839D01*
X2447594Y-16347934D01*
X2438070Y-16366982D01*
X2428546Y-16376505D01*
X2409498Y-16386029D01*
X2390451Y-16386029D01*
X2371403Y-16376505D01*
X2361879Y-16366982D01*
X2352356Y-16347934D01*
X2342832Y-16309839D01*
X2342832Y-16262220D01*
X2352356Y-16224125D01*
X2361879Y-16205077D01*
X2371403Y-16195553D01*
X2390451Y-16186029D01*
X2542832Y-16366982D02*
X2552356Y-16376505D01*
X2542832Y-16386029D01*
X2533308Y-16376505D01*
X2542832Y-16366982D01*
X2542832Y-16386029D01*
X2723784Y-16252696D02*
X2723784Y-16386029D01*
X2676165Y-16176505D02*
X2628546Y-16319363D01*
X2752356Y-16319363D01*
X2866641Y-16186029D02*
X2885689Y-16186029D01*
X2904736Y-16195553D01*
X2914260Y-16205077D01*
X2923784Y-16224125D01*
X2933308Y-16262220D01*
X2933308Y-16309839D01*
X2923784Y-16347934D01*
X2914260Y-16366982D01*
X2904736Y-16376505D01*
X2885689Y-16386029D01*
X2866641Y-16386029D01*
X2847594Y-16376505D01*
X2838070Y-16366982D01*
X2828546Y-16347934D01*
X2819022Y-16309839D01*
X2819022Y-16262220D01*
X2828546Y-16224125D01*
X2838070Y-16205077D01*
X2847594Y-16195553D01*
X2866641Y-16186029D01*
X3057117Y-16186029D02*
X3076165Y-16186029D01*
X3095213Y-16195553D01*
X3104736Y-16205077D01*
X3114260Y-16224125D01*
X3123784Y-16262220D01*
X3123784Y-16309839D01*
X3114260Y-16347934D01*
X3104736Y-16366982D01*
X3095213Y-16376505D01*
X3076165Y-16386029D01*
X3057117Y-16386029D01*
X3038070Y-16376505D01*
X3028546Y-16366982D01*
X3019022Y-16347934D01*
X3009498Y-16309839D01*
X3009498Y-16262220D01*
X3019022Y-16224125D01*
X3028546Y-16205077D01*
X3038070Y-16195553D01*
X3057117Y-16186029D01*
X3209498Y-16386029D02*
X3209498Y-16252696D01*
X3209498Y-16271744D02*
X3219022Y-16262220D01*
X3238070Y-16252696D01*
X3266641Y-16252696D01*
X3285689Y-16262220D01*
X3295213Y-16281267D01*
X3295213Y-16386029D01*
X3295213Y-16281267D02*
X3304736Y-16262220D01*
X3323784Y-16252696D01*
X3352355Y-16252696D01*
X3371403Y-16262220D01*
X3380927Y-16281267D01*
X3380927Y-16386029D01*
X3476165Y-16386029D02*
X3476165Y-16252696D01*
X3476165Y-16271744D02*
X3485689Y-16262220D01*
X3504736Y-16252696D01*
X3533308Y-16252696D01*
X3552355Y-16262220D01*
X3561879Y-16281267D01*
X3561879Y-16386029D01*
X3561879Y-16281267D02*
X3571403Y-16262220D01*
X3590451Y-16252696D01*
X3619022Y-16252696D01*
X3638070Y-16262220D01*
X3647594Y-16281267D01*
X3647594Y-16386029D01*
X4038070Y-16176505D02*
X3866641Y-16433648D01*
X4295213Y-16186029D02*
X4314260Y-16186029D01*
X4333308Y-16195553D01*
X4342832Y-16205077D01*
X4352356Y-16224125D01*
X4361879Y-16262220D01*
X4361879Y-16309839D01*
X4352356Y-16347934D01*
X4342832Y-16366982D01*
X4333308Y-16376505D01*
X4314260Y-16386029D01*
X4295213Y-16386029D01*
X4276165Y-16376505D01*
X4266641Y-16366982D01*
X4257117Y-16347934D01*
X4247594Y-16309839D01*
X4247594Y-16262220D01*
X4257117Y-16224125D01*
X4266641Y-16205077D01*
X4276165Y-16195553D01*
X4295213Y-16186029D01*
X4447594Y-16366982D02*
X4457117Y-16376505D01*
X4447594Y-16386029D01*
X4438070Y-16376505D01*
X4447594Y-16366982D01*
X4447594Y-16386029D01*
X4580927Y-16186029D02*
X4599975Y-16186029D01*
X4619022Y-16195553D01*
X4628546Y-16205077D01*
X4638070Y-16224125D01*
X4647594Y-16262220D01*
X4647594Y-16309839D01*
X4638070Y-16347934D01*
X4628546Y-16366982D01*
X4619022Y-16376505D01*
X4599975Y-16386029D01*
X4580927Y-16386029D01*
X4561879Y-16376505D01*
X4552356Y-16366982D01*
X4542832Y-16347934D01*
X4533308Y-16309839D01*
X4533308Y-16262220D01*
X4542832Y-16224125D01*
X4552356Y-16205077D01*
X4561879Y-16195553D01*
X4580927Y-16186029D01*
X4838070Y-16386029D02*
X4723784Y-16386029D01*
X4780927Y-16386029D02*
X4780927Y-16186029D01*
X4761879Y-16214601D01*
X4742832Y-16233648D01*
X4723784Y-16243172D01*
X5019022Y-16186029D02*
X4923784Y-16186029D01*
X4914260Y-16281267D01*
X4923784Y-16271744D01*
X4942832Y-16262220D01*
X4990451Y-16262220D01*
X5009498Y-16271744D01*
X5019022Y-16281267D01*
X5028546Y-16300315D01*
X5028546Y-16347934D01*
X5019022Y-16366982D01*
X5009498Y-16376505D01*
X4990451Y-16386029D01*
X4942832Y-16386029D01*
X4923784Y-16376505D01*
X4914260Y-16366982D01*
X5095213Y-16186029D02*
X5228546Y-16186029D01*
X5142832Y-16386029D01*
X5295213Y-16186029D02*
X5295213Y-16224125D01*
X5371403Y-16186029D02*
X5371403Y-16224125D01*
X5666641Y-16462220D02*
X5657117Y-16452696D01*
X5638070Y-16424125D01*
X5628546Y-16405077D01*
X5619022Y-16376505D01*
X5609498Y-16328886D01*
X5609498Y-16290791D01*
X5619022Y-16243172D01*
X5628546Y-16214601D01*
X5638070Y-16195553D01*
X5657117Y-16166982D01*
X5666641Y-16157458D01*
X5838070Y-16186029D02*
X5742832Y-16186029D01*
X5733308Y-16281267D01*
X5742832Y-16271744D01*
X5761879Y-16262220D01*
X5809498Y-16262220D01*
X5828546Y-16271744D01*
X5838070Y-16281267D01*
X5847594Y-16300315D01*
X5847594Y-16347934D01*
X5838070Y-16366982D01*
X5828546Y-16376505D01*
X5809498Y-16386029D01*
X5761879Y-16386029D01*
X5742832Y-16376505D01*
X5733308Y-16366982D01*
X5914260Y-16186029D02*
X6047594Y-16186029D01*
X5961879Y-16386029D01*
X6276165Y-16386029D02*
X6276165Y-16186029D01*
X6361879Y-16386029D02*
X6361879Y-16281267D01*
X6352355Y-16262220D01*
X6333308Y-16252696D01*
X6304736Y-16252696D01*
X6285689Y-16262220D01*
X6276165Y-16271744D01*
X6485689Y-16386029D02*
X6466641Y-16376505D01*
X6457117Y-16366982D01*
X6447594Y-16347934D01*
X6447594Y-16290791D01*
X6457117Y-16271744D01*
X6466641Y-16262220D01*
X6485689Y-16252696D01*
X6514260Y-16252696D01*
X6533308Y-16262220D01*
X6542832Y-16271744D01*
X6552355Y-16290791D01*
X6552355Y-16347934D01*
X6542832Y-16366982D01*
X6533308Y-16376505D01*
X6514260Y-16386029D01*
X6485689Y-16386029D01*
X6666641Y-16386029D02*
X6647594Y-16376505D01*
X6638070Y-16357458D01*
X6638070Y-16186029D01*
X6819022Y-16376505D02*
X6799974Y-16386029D01*
X6761879Y-16386029D01*
X6742832Y-16376505D01*
X6733308Y-16357458D01*
X6733308Y-16281267D01*
X6742832Y-16262220D01*
X6761879Y-16252696D01*
X6799974Y-16252696D01*
X6819022Y-16262220D01*
X6828546Y-16281267D01*
X6828546Y-16300315D01*
X6733308Y-16319363D01*
X6904736Y-16376505D02*
X6923784Y-16386029D01*
X6961879Y-16386029D01*
X6980927Y-16376505D01*
X6990451Y-16357458D01*
X6990451Y-16347934D01*
X6980927Y-16328886D01*
X6961879Y-16319363D01*
X6933308Y-16319363D01*
X6914260Y-16309839D01*
X6904736Y-16290791D01*
X6904736Y-16281267D01*
X6914260Y-16262220D01*
X6933308Y-16252696D01*
X6961879Y-16252696D01*
X6980927Y-16262220D01*
X7057117Y-16462220D02*
X7066641Y-16452696D01*
X7085689Y-16424125D01*
X7095213Y-16405077D01*
X7104736Y-16376505D01*
X7114260Y-16328886D01*
X7114260Y-16290791D01*
X7104736Y-16243172D01*
X7095213Y-16214601D01*
X7085689Y-16195553D01*
X7066641Y-16166982D01*
X7057117Y-16157458D01*
D13*
X2094736Y-16559553D02*
G75*
G03*
X2094736Y-16559553I-25000J0D01*
G01*
D11*
X2390451Y-16450029D02*
X2409498Y-16450029D01*
X2428546Y-16459553D01*
X2438070Y-16469077D01*
X2447594Y-16488125D01*
X2457117Y-16526220D01*
X2457117Y-16573839D01*
X2447594Y-16611934D01*
X2438070Y-16630982D01*
X2428546Y-16640505D01*
X2409498Y-16650029D01*
X2390451Y-16650029D01*
X2371403Y-16640505D01*
X2361879Y-16630982D01*
X2352356Y-16611934D01*
X2342832Y-16573839D01*
X2342832Y-16526220D01*
X2352356Y-16488125D01*
X2361879Y-16469077D01*
X2371403Y-16459553D01*
X2390451Y-16450029D01*
X2542832Y-16630982D02*
X2552356Y-16640505D01*
X2542832Y-16650029D01*
X2533308Y-16640505D01*
X2542832Y-16630982D01*
X2542832Y-16650029D01*
X2733308Y-16450029D02*
X2638070Y-16450029D01*
X2628546Y-16545267D01*
X2638070Y-16535744D01*
X2657117Y-16526220D01*
X2704737Y-16526220D01*
X2723784Y-16535744D01*
X2733308Y-16545267D01*
X2742832Y-16564315D01*
X2742832Y-16611934D01*
X2733308Y-16630982D01*
X2723784Y-16640505D01*
X2704737Y-16650029D01*
X2657117Y-16650029D01*
X2638070Y-16640505D01*
X2628546Y-16630982D01*
X2866641Y-16450029D02*
X2885689Y-16450029D01*
X2904736Y-16459553D01*
X2914260Y-16469077D01*
X2923784Y-16488125D01*
X2933308Y-16526220D01*
X2933308Y-16573839D01*
X2923784Y-16611934D01*
X2914260Y-16630982D01*
X2904736Y-16640505D01*
X2885689Y-16650029D01*
X2866641Y-16650029D01*
X2847594Y-16640505D01*
X2838070Y-16630982D01*
X2828546Y-16611934D01*
X2819022Y-16573839D01*
X2819022Y-16526220D01*
X2828546Y-16488125D01*
X2838070Y-16469077D01*
X2847594Y-16459553D01*
X2866641Y-16450029D01*
X3057117Y-16450029D02*
X3076165Y-16450029D01*
X3095213Y-16459553D01*
X3104736Y-16469077D01*
X3114260Y-16488125D01*
X3123784Y-16526220D01*
X3123784Y-16573839D01*
X3114260Y-16611934D01*
X3104736Y-16630982D01*
X3095213Y-16640505D01*
X3076165Y-16650029D01*
X3057117Y-16650029D01*
X3038070Y-16640505D01*
X3028546Y-16630982D01*
X3019022Y-16611934D01*
X3009498Y-16573839D01*
X3009498Y-16526220D01*
X3019022Y-16488125D01*
X3028546Y-16469077D01*
X3038070Y-16459553D01*
X3057117Y-16450029D01*
X3209498Y-16650029D02*
X3209498Y-16516696D01*
X3209498Y-16535744D02*
X3219022Y-16526220D01*
X3238070Y-16516696D01*
X3266641Y-16516696D01*
X3285689Y-16526220D01*
X3295213Y-16545267D01*
X3295213Y-16650029D01*
X3295213Y-16545267D02*
X3304736Y-16526220D01*
X3323784Y-16516696D01*
X3352355Y-16516696D01*
X3371403Y-16526220D01*
X3380927Y-16545267D01*
X3380927Y-16650029D01*
X3476165Y-16650029D02*
X3476165Y-16516696D01*
X3476165Y-16535744D02*
X3485689Y-16526220D01*
X3504736Y-16516696D01*
X3533308Y-16516696D01*
X3552355Y-16526220D01*
X3561879Y-16545267D01*
X3561879Y-16650029D01*
X3561879Y-16545267D02*
X3571403Y-16526220D01*
X3590451Y-16516696D01*
X3619022Y-16516696D01*
X3638070Y-16526220D01*
X3647594Y-16545267D01*
X3647594Y-16650029D01*
X4038070Y-16440505D02*
X3866641Y-16697648D01*
X4295213Y-16450029D02*
X4314260Y-16450029D01*
X4333308Y-16459553D01*
X4342832Y-16469077D01*
X4352356Y-16488125D01*
X4361879Y-16526220D01*
X4361879Y-16573839D01*
X4352356Y-16611934D01*
X4342832Y-16630982D01*
X4333308Y-16640505D01*
X4314260Y-16650029D01*
X4295213Y-16650029D01*
X4276165Y-16640505D01*
X4266641Y-16630982D01*
X4257117Y-16611934D01*
X4247594Y-16573839D01*
X4247594Y-16526220D01*
X4257117Y-16488125D01*
X4266641Y-16469077D01*
X4276165Y-16459553D01*
X4295213Y-16450029D01*
X4447594Y-16630982D02*
X4457117Y-16640505D01*
X4447594Y-16650029D01*
X4438070Y-16640505D01*
X4447594Y-16630982D01*
X4447594Y-16650029D01*
X4580927Y-16450029D02*
X4599975Y-16450029D01*
X4619022Y-16459553D01*
X4628546Y-16469077D01*
X4638070Y-16488125D01*
X4647594Y-16526220D01*
X4647594Y-16573839D01*
X4638070Y-16611934D01*
X4628546Y-16630982D01*
X4619022Y-16640505D01*
X4599975Y-16650029D01*
X4580927Y-16650029D01*
X4561879Y-16640505D01*
X4552356Y-16630982D01*
X4542832Y-16611934D01*
X4533308Y-16573839D01*
X4533308Y-16526220D01*
X4542832Y-16488125D01*
X4552356Y-16469077D01*
X4561879Y-16459553D01*
X4580927Y-16450029D01*
X4838070Y-16650029D02*
X4723784Y-16650029D01*
X4780927Y-16650029D02*
X4780927Y-16450029D01*
X4761879Y-16478601D01*
X4742832Y-16497648D01*
X4723784Y-16507172D01*
X4933308Y-16650029D02*
X4971403Y-16650029D01*
X4990451Y-16640505D01*
X4999975Y-16630982D01*
X5019022Y-16602410D01*
X5028546Y-16564315D01*
X5028546Y-16488125D01*
X5019022Y-16469077D01*
X5009498Y-16459553D01*
X4990451Y-16450029D01*
X4952356Y-16450029D01*
X4933308Y-16459553D01*
X4923784Y-16469077D01*
X4914260Y-16488125D01*
X4914260Y-16535744D01*
X4923784Y-16554791D01*
X4933308Y-16564315D01*
X4952356Y-16573839D01*
X4990451Y-16573839D01*
X5009498Y-16564315D01*
X5019022Y-16554791D01*
X5028546Y-16535744D01*
X5095213Y-16450029D02*
X5228546Y-16450029D01*
X5142832Y-16650029D01*
X5295213Y-16450029D02*
X5295213Y-16488125D01*
X5371403Y-16450029D02*
X5371403Y-16488125D01*
X5666641Y-16726220D02*
X5657117Y-16716696D01*
X5638070Y-16688125D01*
X5628546Y-16669077D01*
X5619022Y-16640505D01*
X5609498Y-16592886D01*
X5609498Y-16554791D01*
X5619022Y-16507172D01*
X5628546Y-16478601D01*
X5638070Y-16459553D01*
X5657117Y-16430982D01*
X5666641Y-16421458D01*
X5828546Y-16516696D02*
X5828546Y-16650029D01*
X5780927Y-16440505D02*
X5733308Y-16583363D01*
X5857117Y-16583363D01*
X5961879Y-16535744D02*
X5942832Y-16526220D01*
X5933308Y-16516696D01*
X5923784Y-16497648D01*
X5923784Y-16488125D01*
X5933308Y-16469077D01*
X5942832Y-16459553D01*
X5961879Y-16450029D01*
X5999974Y-16450029D01*
X6019022Y-16459553D01*
X6028546Y-16469077D01*
X6038070Y-16488125D01*
X6038070Y-16497648D01*
X6028546Y-16516696D01*
X6019022Y-16526220D01*
X5999974Y-16535744D01*
X5961879Y-16535744D01*
X5942832Y-16545267D01*
X5933308Y-16554791D01*
X5923784Y-16573839D01*
X5923784Y-16611934D01*
X5933308Y-16630982D01*
X5942832Y-16640505D01*
X5961879Y-16650029D01*
X5999974Y-16650029D01*
X6019022Y-16640505D01*
X6028546Y-16630982D01*
X6038070Y-16611934D01*
X6038070Y-16573839D01*
X6028546Y-16554791D01*
X6019022Y-16545267D01*
X5999974Y-16535744D01*
X6276165Y-16650029D02*
X6276165Y-16450029D01*
X6361879Y-16650029D02*
X6361879Y-16545267D01*
X6352355Y-16526220D01*
X6333308Y-16516696D01*
X6304736Y-16516696D01*
X6285689Y-16526220D01*
X6276165Y-16535744D01*
X6485689Y-16650029D02*
X6466641Y-16640505D01*
X6457117Y-16630982D01*
X6447594Y-16611934D01*
X6447594Y-16554791D01*
X6457117Y-16535744D01*
X6466641Y-16526220D01*
X6485689Y-16516696D01*
X6514260Y-16516696D01*
X6533308Y-16526220D01*
X6542832Y-16535744D01*
X6552355Y-16554791D01*
X6552355Y-16611934D01*
X6542832Y-16630982D01*
X6533308Y-16640505D01*
X6514260Y-16650029D01*
X6485689Y-16650029D01*
X6666641Y-16650029D02*
X6647594Y-16640505D01*
X6638070Y-16621458D01*
X6638070Y-16450029D01*
X6819022Y-16640505D02*
X6799974Y-16650029D01*
X6761879Y-16650029D01*
X6742832Y-16640505D01*
X6733308Y-16621458D01*
X6733308Y-16545267D01*
X6742832Y-16526220D01*
X6761879Y-16516696D01*
X6799974Y-16516696D01*
X6819022Y-16526220D01*
X6828546Y-16545267D01*
X6828546Y-16564315D01*
X6733308Y-16583363D01*
X6904736Y-16640505D02*
X6923784Y-16650029D01*
X6961879Y-16650029D01*
X6980927Y-16640505D01*
X6990451Y-16621458D01*
X6990451Y-16611934D01*
X6980927Y-16592886D01*
X6961879Y-16583363D01*
X6933308Y-16583363D01*
X6914260Y-16573839D01*
X6904736Y-16554791D01*
X6904736Y-16545267D01*
X6914260Y-16526220D01*
X6933308Y-16516696D01*
X6961879Y-16516696D01*
X6980927Y-16526220D01*
X7057117Y-16726220D02*
X7066641Y-16716696D01*
X7085689Y-16688125D01*
X7095213Y-16669077D01*
X7104736Y-16640505D01*
X7114260Y-16592886D01*
X7114260Y-16554791D01*
X7104736Y-16507172D01*
X7095213Y-16478601D01*
X7085689Y-16459553D01*
X7066641Y-16430982D01*
X7057117Y-16421458D01*
D14*
X2057236Y-16786053D02*
X2057236Y-16861053D01*
X2019736Y-16823553D02*
X2094736Y-16823553D01*
D11*
X2390451Y-16714029D02*
X2409498Y-16714029D01*
X2428546Y-16723553D01*
X2438070Y-16733077D01*
X2447594Y-16752125D01*
X2457117Y-16790220D01*
X2457117Y-16837839D01*
X2447594Y-16875934D01*
X2438070Y-16894982D01*
X2428546Y-16904506D01*
X2409498Y-16914029D01*
X2390451Y-16914029D01*
X2371403Y-16904506D01*
X2361879Y-16894982D01*
X2352356Y-16875934D01*
X2342832Y-16837839D01*
X2342832Y-16790220D01*
X2352356Y-16752125D01*
X2361879Y-16733077D01*
X2371403Y-16723553D01*
X2390451Y-16714029D01*
X2542832Y-16894982D02*
X2552356Y-16904506D01*
X2542832Y-16914029D01*
X2533308Y-16904506D01*
X2542832Y-16894982D01*
X2542832Y-16914029D01*
X2619022Y-16714029D02*
X2752356Y-16714029D01*
X2666641Y-16914029D01*
X2923784Y-16714029D02*
X2828546Y-16714029D01*
X2819022Y-16809267D01*
X2828546Y-16799744D01*
X2847594Y-16790220D01*
X2895213Y-16790220D01*
X2914260Y-16799744D01*
X2923784Y-16809267D01*
X2933308Y-16828315D01*
X2933308Y-16875934D01*
X2923784Y-16894982D01*
X2914260Y-16904506D01*
X2895213Y-16914029D01*
X2847594Y-16914029D01*
X2828546Y-16904506D01*
X2819022Y-16894982D01*
X3057117Y-16714029D02*
X3076165Y-16714029D01*
X3095213Y-16723553D01*
X3104736Y-16733077D01*
X3114260Y-16752125D01*
X3123784Y-16790220D01*
X3123784Y-16837839D01*
X3114260Y-16875934D01*
X3104736Y-16894982D01*
X3095213Y-16904506D01*
X3076165Y-16914029D01*
X3057117Y-16914029D01*
X3038070Y-16904506D01*
X3028546Y-16894982D01*
X3019022Y-16875934D01*
X3009498Y-16837839D01*
X3009498Y-16790220D01*
X3019022Y-16752125D01*
X3028546Y-16733077D01*
X3038070Y-16723553D01*
X3057117Y-16714029D01*
X3209498Y-16914029D02*
X3209498Y-16780696D01*
X3209498Y-16799744D02*
X3219022Y-16790220D01*
X3238070Y-16780696D01*
X3266641Y-16780696D01*
X3285689Y-16790220D01*
X3295213Y-16809267D01*
X3295213Y-16914029D01*
X3295213Y-16809267D02*
X3304736Y-16790220D01*
X3323784Y-16780696D01*
X3352355Y-16780696D01*
X3371403Y-16790220D01*
X3380927Y-16809267D01*
X3380927Y-16914029D01*
X3476165Y-16914029D02*
X3476165Y-16780696D01*
X3476165Y-16799744D02*
X3485689Y-16790220D01*
X3504736Y-16780696D01*
X3533308Y-16780696D01*
X3552355Y-16790220D01*
X3561879Y-16809267D01*
X3561879Y-16914029D01*
X3561879Y-16809267D02*
X3571403Y-16790220D01*
X3590451Y-16780696D01*
X3619022Y-16780696D01*
X3638070Y-16790220D01*
X3647594Y-16809267D01*
X3647594Y-16914029D01*
X4038070Y-16704505D02*
X3866641Y-16961648D01*
X4295213Y-16714029D02*
X4314260Y-16714029D01*
X4333308Y-16723553D01*
X4342832Y-16733077D01*
X4352356Y-16752125D01*
X4361879Y-16790220D01*
X4361879Y-16837839D01*
X4352356Y-16875934D01*
X4342832Y-16894982D01*
X4333308Y-16904506D01*
X4314260Y-16914029D01*
X4295213Y-16914029D01*
X4276165Y-16904506D01*
X4266641Y-16894982D01*
X4257117Y-16875934D01*
X4247594Y-16837839D01*
X4247594Y-16790220D01*
X4257117Y-16752125D01*
X4266641Y-16733077D01*
X4276165Y-16723553D01*
X4295213Y-16714029D01*
X4447594Y-16894982D02*
X4457117Y-16904506D01*
X4447594Y-16914029D01*
X4438070Y-16904506D01*
X4447594Y-16894982D01*
X4447594Y-16914029D01*
X4580927Y-16714029D02*
X4599975Y-16714029D01*
X4619022Y-16723553D01*
X4628546Y-16733077D01*
X4638070Y-16752125D01*
X4647594Y-16790220D01*
X4647594Y-16837839D01*
X4638070Y-16875934D01*
X4628546Y-16894982D01*
X4619022Y-16904506D01*
X4599975Y-16914029D01*
X4580927Y-16914029D01*
X4561879Y-16904506D01*
X4552356Y-16894982D01*
X4542832Y-16875934D01*
X4533308Y-16837839D01*
X4533308Y-16790220D01*
X4542832Y-16752125D01*
X4552356Y-16733077D01*
X4561879Y-16723553D01*
X4580927Y-16714029D01*
X4723784Y-16733077D02*
X4733308Y-16723553D01*
X4752356Y-16714029D01*
X4799975Y-16714029D01*
X4819022Y-16723553D01*
X4828546Y-16733077D01*
X4838070Y-16752125D01*
X4838070Y-16771172D01*
X4828546Y-16799744D01*
X4714260Y-16914029D01*
X4838070Y-16914029D01*
X4933308Y-16914029D02*
X4971403Y-16914029D01*
X4990451Y-16904506D01*
X4999975Y-16894982D01*
X5019022Y-16866410D01*
X5028546Y-16828315D01*
X5028546Y-16752125D01*
X5019022Y-16733077D01*
X5009498Y-16723553D01*
X4990451Y-16714029D01*
X4952356Y-16714029D01*
X4933308Y-16723553D01*
X4923784Y-16733077D01*
X4914260Y-16752125D01*
X4914260Y-16799744D01*
X4923784Y-16818791D01*
X4933308Y-16828315D01*
X4952356Y-16837839D01*
X4990451Y-16837839D01*
X5009498Y-16828315D01*
X5019022Y-16818791D01*
X5028546Y-16799744D01*
X5209498Y-16714029D02*
X5114260Y-16714029D01*
X5104736Y-16809267D01*
X5114260Y-16799744D01*
X5133308Y-16790220D01*
X5180927Y-16790220D01*
X5199975Y-16799744D01*
X5209498Y-16809267D01*
X5219022Y-16828315D01*
X5219022Y-16875934D01*
X5209498Y-16894982D01*
X5199975Y-16904506D01*
X5180927Y-16914029D01*
X5133308Y-16914029D01*
X5114260Y-16904506D01*
X5104736Y-16894982D01*
X5295213Y-16714029D02*
X5295213Y-16752125D01*
X5371403Y-16714029D02*
X5371403Y-16752125D01*
X5666641Y-16990220D02*
X5657117Y-16980696D01*
X5638070Y-16952125D01*
X5628546Y-16933077D01*
X5619022Y-16904506D01*
X5609498Y-16856887D01*
X5609498Y-16818791D01*
X5619022Y-16771172D01*
X5628546Y-16742601D01*
X5638070Y-16723553D01*
X5657117Y-16694982D01*
X5666641Y-16685458D01*
X5723784Y-16714029D02*
X5847594Y-16714029D01*
X5780927Y-16790220D01*
X5809498Y-16790220D01*
X5828546Y-16799744D01*
X5838070Y-16809267D01*
X5847594Y-16828315D01*
X5847594Y-16875934D01*
X5838070Y-16894982D01*
X5828546Y-16904506D01*
X5809498Y-16914029D01*
X5752355Y-16914029D01*
X5733308Y-16904506D01*
X5723784Y-16894982D01*
X6085689Y-16914029D02*
X6085689Y-16714029D01*
X6171403Y-16914029D02*
X6171403Y-16809267D01*
X6161879Y-16790220D01*
X6142832Y-16780696D01*
X6114260Y-16780696D01*
X6095213Y-16790220D01*
X6085689Y-16799744D01*
X6295213Y-16914029D02*
X6276165Y-16904506D01*
X6266641Y-16894982D01*
X6257117Y-16875934D01*
X6257117Y-16818791D01*
X6266641Y-16799744D01*
X6276165Y-16790220D01*
X6295213Y-16780696D01*
X6323784Y-16780696D01*
X6342832Y-16790220D01*
X6352355Y-16799744D01*
X6361879Y-16818791D01*
X6361879Y-16875934D01*
X6352355Y-16894982D01*
X6342832Y-16904506D01*
X6323784Y-16914029D01*
X6295213Y-16914029D01*
X6476165Y-16914029D02*
X6457117Y-16904506D01*
X6447594Y-16885458D01*
X6447594Y-16714029D01*
X6628546Y-16904506D02*
X6609498Y-16914029D01*
X6571403Y-16914029D01*
X6552355Y-16904506D01*
X6542832Y-16885458D01*
X6542832Y-16809267D01*
X6552355Y-16790220D01*
X6571403Y-16780696D01*
X6609498Y-16780696D01*
X6628546Y-16790220D01*
X6638070Y-16809267D01*
X6638070Y-16828315D01*
X6542832Y-16847363D01*
X6714260Y-16904506D02*
X6733308Y-16914029D01*
X6771403Y-16914029D01*
X6790451Y-16904506D01*
X6799974Y-16885458D01*
X6799974Y-16875934D01*
X6790451Y-16856887D01*
X6771403Y-16847363D01*
X6742832Y-16847363D01*
X6723784Y-16837839D01*
X6714260Y-16818791D01*
X6714260Y-16809267D01*
X6723784Y-16790220D01*
X6742832Y-16780696D01*
X6771403Y-16780696D01*
X6790451Y-16790220D01*
X6866641Y-16990220D02*
X6876165Y-16980696D01*
X6895213Y-16952125D01*
X6904736Y-16933077D01*
X6914260Y-16904506D01*
X6923784Y-16856887D01*
X6923784Y-16818791D01*
X6914260Y-16771172D01*
X6904736Y-16742601D01*
X6895213Y-16723553D01*
X6876165Y-16694982D01*
X6866641Y-16685458D01*
D15*
X2081557Y-17119373D02*
X2081557Y-17055733D01*
X2017916Y-17055733D01*
X2017916Y-17119373D01*
X2081557Y-17119373D01*
D11*
X2390451Y-16978029D02*
X2409498Y-16978029D01*
X2428546Y-16987553D01*
X2438070Y-16997077D01*
X2447594Y-17016125D01*
X2457117Y-17054220D01*
X2457117Y-17101839D01*
X2447594Y-17139934D01*
X2438070Y-17158982D01*
X2428546Y-17168506D01*
X2409498Y-17178029D01*
X2390451Y-17178029D01*
X2371403Y-17168506D01*
X2361879Y-17158982D01*
X2352356Y-17139934D01*
X2342832Y-17101839D01*
X2342832Y-17054220D01*
X2352356Y-17016125D01*
X2361879Y-16997077D01*
X2371403Y-16987553D01*
X2390451Y-16978029D01*
X2542832Y-17158982D02*
X2552356Y-17168506D01*
X2542832Y-17178029D01*
X2533308Y-17168506D01*
X2542832Y-17158982D01*
X2542832Y-17178029D01*
X2647594Y-17178029D02*
X2685689Y-17178029D01*
X2704737Y-17168506D01*
X2714260Y-17158982D01*
X2733308Y-17130410D01*
X2742832Y-17092315D01*
X2742832Y-17016125D01*
X2733308Y-16997077D01*
X2723784Y-16987553D01*
X2704737Y-16978029D01*
X2666641Y-16978029D01*
X2647594Y-16987553D01*
X2638070Y-16997077D01*
X2628546Y-17016125D01*
X2628546Y-17063744D01*
X2638070Y-17082791D01*
X2647594Y-17092315D01*
X2666641Y-17101839D01*
X2704737Y-17101839D01*
X2723784Y-17092315D01*
X2733308Y-17082791D01*
X2742832Y-17063744D01*
X2866641Y-16978029D02*
X2885689Y-16978029D01*
X2904736Y-16987553D01*
X2914260Y-16997077D01*
X2923784Y-17016125D01*
X2933308Y-17054220D01*
X2933308Y-17101839D01*
X2923784Y-17139934D01*
X2914260Y-17158982D01*
X2904736Y-17168506D01*
X2885689Y-17178029D01*
X2866641Y-17178029D01*
X2847594Y-17168506D01*
X2838070Y-17158982D01*
X2828546Y-17139934D01*
X2819022Y-17101839D01*
X2819022Y-17054220D01*
X2828546Y-17016125D01*
X2838070Y-16997077D01*
X2847594Y-16987553D01*
X2866641Y-16978029D01*
X3057117Y-16978029D02*
X3076165Y-16978029D01*
X3095213Y-16987553D01*
X3104736Y-16997077D01*
X3114260Y-17016125D01*
X3123784Y-17054220D01*
X3123784Y-17101839D01*
X3114260Y-17139934D01*
X3104736Y-17158982D01*
X3095213Y-17168506D01*
X3076165Y-17178029D01*
X3057117Y-17178029D01*
X3038070Y-17168506D01*
X3028546Y-17158982D01*
X3019022Y-17139934D01*
X3009498Y-17101839D01*
X3009498Y-17054220D01*
X3019022Y-17016125D01*
X3028546Y-16997077D01*
X3038070Y-16987553D01*
X3057117Y-16978029D01*
X3209498Y-17178029D02*
X3209498Y-17044696D01*
X3209498Y-17063744D02*
X3219022Y-17054220D01*
X3238070Y-17044696D01*
X3266641Y-17044696D01*
X3285689Y-17054220D01*
X3295213Y-17073267D01*
X3295213Y-17178029D01*
X3295213Y-17073267D02*
X3304736Y-17054220D01*
X3323784Y-17044696D01*
X3352355Y-17044696D01*
X3371403Y-17054220D01*
X3380927Y-17073267D01*
X3380927Y-17178029D01*
X3476165Y-17178029D02*
X3476165Y-17044696D01*
X3476165Y-17063744D02*
X3485689Y-17054220D01*
X3504736Y-17044696D01*
X3533308Y-17044696D01*
X3552355Y-17054220D01*
X3561879Y-17073267D01*
X3561879Y-17178029D01*
X3561879Y-17073267D02*
X3571403Y-17054220D01*
X3590451Y-17044696D01*
X3619022Y-17044696D01*
X3638070Y-17054220D01*
X3647594Y-17073267D01*
X3647594Y-17178029D01*
X4038070Y-16968506D02*
X3866641Y-17225648D01*
X4295213Y-16978029D02*
X4314260Y-16978029D01*
X4333308Y-16987553D01*
X4342832Y-16997077D01*
X4352356Y-17016125D01*
X4361879Y-17054220D01*
X4361879Y-17101839D01*
X4352356Y-17139934D01*
X4342832Y-17158982D01*
X4333308Y-17168506D01*
X4314260Y-17178029D01*
X4295213Y-17178029D01*
X4276165Y-17168506D01*
X4266641Y-17158982D01*
X4257117Y-17139934D01*
X4247594Y-17101839D01*
X4247594Y-17054220D01*
X4257117Y-17016125D01*
X4266641Y-16997077D01*
X4276165Y-16987553D01*
X4295213Y-16978029D01*
X4447594Y-17158982D02*
X4457117Y-17168506D01*
X4447594Y-17178029D01*
X4438070Y-17168506D01*
X4447594Y-17158982D01*
X4447594Y-17178029D01*
X4580927Y-16978029D02*
X4599975Y-16978029D01*
X4619022Y-16987553D01*
X4628546Y-16997077D01*
X4638070Y-17016125D01*
X4647594Y-17054220D01*
X4647594Y-17101839D01*
X4638070Y-17139934D01*
X4628546Y-17158982D01*
X4619022Y-17168506D01*
X4599975Y-17178029D01*
X4580927Y-17178029D01*
X4561879Y-17168506D01*
X4552356Y-17158982D01*
X4542832Y-17139934D01*
X4533308Y-17101839D01*
X4533308Y-17054220D01*
X4542832Y-17016125D01*
X4552356Y-16997077D01*
X4561879Y-16987553D01*
X4580927Y-16978029D01*
X4714260Y-16978029D02*
X4838070Y-16978029D01*
X4771403Y-17054220D01*
X4799975Y-17054220D01*
X4819022Y-17063744D01*
X4828546Y-17073267D01*
X4838070Y-17092315D01*
X4838070Y-17139934D01*
X4828546Y-17158982D01*
X4819022Y-17168506D01*
X4799975Y-17178029D01*
X4742832Y-17178029D01*
X4723784Y-17168506D01*
X4714260Y-17158982D01*
X5019022Y-16978029D02*
X4923784Y-16978029D01*
X4914260Y-17073267D01*
X4923784Y-17063744D01*
X4942832Y-17054220D01*
X4990451Y-17054220D01*
X5009498Y-17063744D01*
X5019022Y-17073267D01*
X5028546Y-17092315D01*
X5028546Y-17139934D01*
X5019022Y-17158982D01*
X5009498Y-17168506D01*
X4990451Y-17178029D01*
X4942832Y-17178029D01*
X4923784Y-17168506D01*
X4914260Y-17158982D01*
X5199975Y-17044696D02*
X5199975Y-17178029D01*
X5152356Y-16968506D02*
X5104736Y-17111363D01*
X5228546Y-17111363D01*
X5295213Y-16978029D02*
X5295213Y-17016125D01*
X5371403Y-16978029D02*
X5371403Y-17016125D01*
X5666641Y-17254220D02*
X5657117Y-17244696D01*
X5638070Y-17216125D01*
X5628546Y-17197077D01*
X5619022Y-17168506D01*
X5609498Y-17120887D01*
X5609498Y-17082791D01*
X5619022Y-17035172D01*
X5628546Y-17006601D01*
X5638070Y-16987553D01*
X5657117Y-16958982D01*
X5666641Y-16949458D01*
X5780927Y-16978029D02*
X5799974Y-16978029D01*
X5819022Y-16987553D01*
X5828546Y-16997077D01*
X5838070Y-17016125D01*
X5847594Y-17054220D01*
X5847594Y-17101839D01*
X5838070Y-17139934D01*
X5828546Y-17158982D01*
X5819022Y-17168506D01*
X5799974Y-17178029D01*
X5780927Y-17178029D01*
X5761879Y-17168506D01*
X5752355Y-17158982D01*
X5742832Y-17139934D01*
X5733308Y-17101839D01*
X5733308Y-17054220D01*
X5742832Y-17016125D01*
X5752355Y-16997077D01*
X5761879Y-16987553D01*
X5780927Y-16978029D01*
X6085689Y-17178029D02*
X6085689Y-16978029D01*
X6171403Y-17178029D02*
X6171403Y-17073267D01*
X6161879Y-17054220D01*
X6142832Y-17044696D01*
X6114260Y-17044696D01*
X6095213Y-17054220D01*
X6085689Y-17063744D01*
X6295213Y-17178029D02*
X6276165Y-17168506D01*
X6266641Y-17158982D01*
X6257117Y-17139934D01*
X6257117Y-17082791D01*
X6266641Y-17063744D01*
X6276165Y-17054220D01*
X6295213Y-17044696D01*
X6323784Y-17044696D01*
X6342832Y-17054220D01*
X6352355Y-17063744D01*
X6361879Y-17082791D01*
X6361879Y-17139934D01*
X6352355Y-17158982D01*
X6342832Y-17168506D01*
X6323784Y-17178029D01*
X6295213Y-17178029D01*
X6476165Y-17178029D02*
X6457117Y-17168506D01*
X6447594Y-17149458D01*
X6447594Y-16978029D01*
X6628546Y-17168506D02*
X6609498Y-17178029D01*
X6571403Y-17178029D01*
X6552355Y-17168506D01*
X6542832Y-17149458D01*
X6542832Y-17073267D01*
X6552355Y-17054220D01*
X6571403Y-17044696D01*
X6609498Y-17044696D01*
X6628546Y-17054220D01*
X6638070Y-17073267D01*
X6638070Y-17092315D01*
X6542832Y-17111363D01*
X6714260Y-17168506D02*
X6733308Y-17178029D01*
X6771403Y-17178029D01*
X6790451Y-17168506D01*
X6799974Y-17149458D01*
X6799974Y-17139934D01*
X6790451Y-17120887D01*
X6771403Y-17111363D01*
X6742832Y-17111363D01*
X6723784Y-17101839D01*
X6714260Y-17082791D01*
X6714260Y-17073267D01*
X6723784Y-17054220D01*
X6742832Y-17044696D01*
X6771403Y-17044696D01*
X6790451Y-17054220D01*
X7038070Y-17101839D02*
X7190451Y-17101839D01*
X7114260Y-17178029D02*
X7114260Y-17025648D01*
X7523784Y-16978029D02*
X7485689Y-16978029D01*
X7466641Y-16987553D01*
X7457117Y-16997077D01*
X7438070Y-17025648D01*
X7428546Y-17063744D01*
X7428546Y-17139934D01*
X7438070Y-17158982D01*
X7447594Y-17168506D01*
X7466641Y-17178029D01*
X7504736Y-17178029D01*
X7523784Y-17168506D01*
X7533308Y-17158982D01*
X7542832Y-17139934D01*
X7542832Y-17092315D01*
X7533308Y-17073267D01*
X7523784Y-17063744D01*
X7504736Y-17054220D01*
X7466641Y-17054220D01*
X7447594Y-17063744D01*
X7438070Y-17073267D01*
X7428546Y-17092315D01*
X7771403Y-17168506D02*
X7790451Y-17178029D01*
X7828546Y-17178029D01*
X7847594Y-17168506D01*
X7857117Y-17149458D01*
X7857117Y-17139934D01*
X7847594Y-17120887D01*
X7828546Y-17111363D01*
X7799974Y-17111363D01*
X7780927Y-17101839D01*
X7771403Y-17082791D01*
X7771403Y-17073267D01*
X7780927Y-17054220D01*
X7799974Y-17044696D01*
X7828546Y-17044696D01*
X7847594Y-17054220D01*
X7971403Y-17178029D02*
X7952355Y-17168506D01*
X7942832Y-17149458D01*
X7942832Y-16978029D01*
X8076165Y-17178029D02*
X8057117Y-17168506D01*
X8047594Y-17158982D01*
X8038070Y-17139934D01*
X8038070Y-17082791D01*
X8047594Y-17063744D01*
X8057117Y-17054220D01*
X8076165Y-17044696D01*
X8104736Y-17044696D01*
X8123784Y-17054220D01*
X8133308Y-17063744D01*
X8142832Y-17082791D01*
X8142832Y-17139934D01*
X8133308Y-17158982D01*
X8123784Y-17168506D01*
X8104736Y-17178029D01*
X8076165Y-17178029D01*
X8199974Y-17044696D02*
X8276165Y-17044696D01*
X8228546Y-16978029D02*
X8228546Y-17149458D01*
X8238070Y-17168506D01*
X8257117Y-17178029D01*
X8276165Y-17178029D01*
X8333308Y-17168506D02*
X8352355Y-17178029D01*
X8390451Y-17178029D01*
X8409498Y-17168506D01*
X8419022Y-17149458D01*
X8419022Y-17139934D01*
X8409498Y-17120887D01*
X8390451Y-17111363D01*
X8361879Y-17111363D01*
X8342832Y-17101839D01*
X8333308Y-17082791D01*
X8333308Y-17073267D01*
X8342832Y-17054220D01*
X8361879Y-17044696D01*
X8390451Y-17044696D01*
X8409498Y-17054220D01*
X8485689Y-17254220D02*
X8495213Y-17244696D01*
X8514260Y-17216125D01*
X8523784Y-17197077D01*
X8533308Y-17168506D01*
X8542832Y-17120887D01*
X8542832Y-17082791D01*
X8533308Y-17035172D01*
X8523784Y-17006601D01*
X8514260Y-16987553D01*
X8495213Y-16958982D01*
X8485689Y-16949458D01*
D16*
X2043936Y-17402353D02*
X2094736Y-17351553D01*
X2043936Y-17300753D01*
X1993136Y-17351553D01*
X2043936Y-17402353D01*
D11*
X2457117Y-17442029D02*
X2342832Y-17442029D01*
X2399975Y-17442029D02*
X2399975Y-17242029D01*
X2380927Y-17270601D01*
X2361879Y-17289648D01*
X2342832Y-17299172D01*
X2542832Y-17422982D02*
X2552356Y-17432506D01*
X2542832Y-17442029D01*
X2533308Y-17432506D01*
X2542832Y-17422982D01*
X2542832Y-17442029D01*
X2676165Y-17242029D02*
X2695213Y-17242029D01*
X2714260Y-17251553D01*
X2723784Y-17261077D01*
X2733308Y-17280125D01*
X2742832Y-17318220D01*
X2742832Y-17365839D01*
X2733308Y-17403934D01*
X2723784Y-17422982D01*
X2714260Y-17432506D01*
X2695213Y-17442029D01*
X2676165Y-17442029D01*
X2657117Y-17432506D01*
X2647594Y-17422982D01*
X2638070Y-17403934D01*
X2628546Y-17365839D01*
X2628546Y-17318220D01*
X2638070Y-17280125D01*
X2647594Y-17261077D01*
X2657117Y-17251553D01*
X2676165Y-17242029D01*
X2933308Y-17442029D02*
X2819022Y-17442029D01*
X2876165Y-17442029D02*
X2876165Y-17242029D01*
X2857117Y-17270601D01*
X2838070Y-17289648D01*
X2819022Y-17299172D01*
X3104736Y-17242029D02*
X3066641Y-17242029D01*
X3047594Y-17251553D01*
X3038070Y-17261077D01*
X3019022Y-17289648D01*
X3009498Y-17327744D01*
X3009498Y-17403934D01*
X3019022Y-17422982D01*
X3028546Y-17432506D01*
X3047594Y-17442029D01*
X3085689Y-17442029D01*
X3104736Y-17432506D01*
X3114260Y-17422982D01*
X3123784Y-17403934D01*
X3123784Y-17356315D01*
X3114260Y-17337267D01*
X3104736Y-17327744D01*
X3085689Y-17318220D01*
X3047594Y-17318220D01*
X3028546Y-17327744D01*
X3019022Y-17337267D01*
X3009498Y-17356315D01*
X3209498Y-17442029D02*
X3209498Y-17308696D01*
X3209498Y-17327744D02*
X3219022Y-17318220D01*
X3238070Y-17308696D01*
X3266641Y-17308696D01*
X3285689Y-17318220D01*
X3295213Y-17337267D01*
X3295213Y-17442029D01*
X3295213Y-17337267D02*
X3304736Y-17318220D01*
X3323784Y-17308696D01*
X3352355Y-17308696D01*
X3371403Y-17318220D01*
X3380927Y-17337267D01*
X3380927Y-17442029D01*
X3476165Y-17442029D02*
X3476165Y-17308696D01*
X3476165Y-17327744D02*
X3485689Y-17318220D01*
X3504736Y-17308696D01*
X3533308Y-17308696D01*
X3552355Y-17318220D01*
X3561879Y-17337267D01*
X3561879Y-17442029D01*
X3561879Y-17337267D02*
X3571403Y-17318220D01*
X3590451Y-17308696D01*
X3619022Y-17308696D01*
X3638070Y-17318220D01*
X3647594Y-17337267D01*
X3647594Y-17442029D01*
X4038070Y-17232506D02*
X3866641Y-17489648D01*
X4295213Y-17242029D02*
X4314260Y-17242029D01*
X4333308Y-17251553D01*
X4342832Y-17261077D01*
X4352356Y-17280125D01*
X4361879Y-17318220D01*
X4361879Y-17365839D01*
X4352356Y-17403934D01*
X4342832Y-17422982D01*
X4333308Y-17432506D01*
X4314260Y-17442029D01*
X4295213Y-17442029D01*
X4276165Y-17432506D01*
X4266641Y-17422982D01*
X4257117Y-17403934D01*
X4247594Y-17365839D01*
X4247594Y-17318220D01*
X4257117Y-17280125D01*
X4266641Y-17261077D01*
X4276165Y-17251553D01*
X4295213Y-17242029D01*
X4447594Y-17422982D02*
X4457117Y-17432506D01*
X4447594Y-17442029D01*
X4438070Y-17432506D01*
X4447594Y-17422982D01*
X4447594Y-17442029D01*
X4580927Y-17242029D02*
X4599975Y-17242029D01*
X4619022Y-17251553D01*
X4628546Y-17261077D01*
X4638070Y-17280125D01*
X4647594Y-17318220D01*
X4647594Y-17365839D01*
X4638070Y-17403934D01*
X4628546Y-17422982D01*
X4619022Y-17432506D01*
X4599975Y-17442029D01*
X4580927Y-17442029D01*
X4561879Y-17432506D01*
X4552356Y-17422982D01*
X4542832Y-17403934D01*
X4533308Y-17365839D01*
X4533308Y-17318220D01*
X4542832Y-17280125D01*
X4552356Y-17261077D01*
X4561879Y-17251553D01*
X4580927Y-17242029D01*
X4819022Y-17308696D02*
X4819022Y-17442029D01*
X4771403Y-17232506D02*
X4723784Y-17375363D01*
X4847594Y-17375363D01*
X4961879Y-17242029D02*
X4980927Y-17242029D01*
X4999975Y-17251553D01*
X5009498Y-17261077D01*
X5019022Y-17280125D01*
X5028546Y-17318220D01*
X5028546Y-17365839D01*
X5019022Y-17403934D01*
X5009498Y-17422982D01*
X4999975Y-17432506D01*
X4980927Y-17442029D01*
X4961879Y-17442029D01*
X4942832Y-17432506D01*
X4933308Y-17422982D01*
X4923784Y-17403934D01*
X4914260Y-17365839D01*
X4914260Y-17318220D01*
X4923784Y-17280125D01*
X4933308Y-17261077D01*
X4942832Y-17251553D01*
X4961879Y-17242029D01*
X5152356Y-17242029D02*
X5171403Y-17242029D01*
X5190451Y-17251553D01*
X5199975Y-17261077D01*
X5209498Y-17280125D01*
X5219022Y-17318220D01*
X5219022Y-17365839D01*
X5209498Y-17403934D01*
X5199975Y-17422982D01*
X5190451Y-17432506D01*
X5171403Y-17442029D01*
X5152356Y-17442029D01*
X5133308Y-17432506D01*
X5123784Y-17422982D01*
X5114260Y-17403934D01*
X5104736Y-17365839D01*
X5104736Y-17318220D01*
X5114260Y-17280125D01*
X5123784Y-17261077D01*
X5133308Y-17251553D01*
X5152356Y-17242029D01*
X5295213Y-17242029D02*
X5295213Y-17280125D01*
X5371403Y-17242029D02*
X5371403Y-17280125D01*
X5666641Y-17518220D02*
X5657117Y-17508696D01*
X5638070Y-17480125D01*
X5628546Y-17461077D01*
X5619022Y-17432506D01*
X5609498Y-17384887D01*
X5609498Y-17346791D01*
X5619022Y-17299172D01*
X5628546Y-17270601D01*
X5638070Y-17251553D01*
X5657117Y-17222982D01*
X5666641Y-17213458D01*
X5847594Y-17442029D02*
X5733308Y-17442029D01*
X5790451Y-17442029D02*
X5790451Y-17242029D01*
X5771403Y-17270601D01*
X5752355Y-17289648D01*
X5733308Y-17299172D01*
X6019022Y-17242029D02*
X5980927Y-17242029D01*
X5961879Y-17251553D01*
X5952355Y-17261077D01*
X5933308Y-17289648D01*
X5923784Y-17327744D01*
X5923784Y-17403934D01*
X5933308Y-17422982D01*
X5942832Y-17432506D01*
X5961879Y-17442029D01*
X5999974Y-17442029D01*
X6019022Y-17432506D01*
X6028546Y-17422982D01*
X6038070Y-17403934D01*
X6038070Y-17356315D01*
X6028546Y-17337267D01*
X6019022Y-17327744D01*
X5999974Y-17318220D01*
X5961879Y-17318220D01*
X5942832Y-17327744D01*
X5933308Y-17337267D01*
X5923784Y-17356315D01*
X6276165Y-17442029D02*
X6276165Y-17242029D01*
X6361879Y-17442029D02*
X6361879Y-17337267D01*
X6352355Y-17318220D01*
X6333308Y-17308696D01*
X6304736Y-17308696D01*
X6285689Y-17318220D01*
X6276165Y-17327744D01*
X6485689Y-17442029D02*
X6466641Y-17432506D01*
X6457117Y-17422982D01*
X6447594Y-17403934D01*
X6447594Y-17346791D01*
X6457117Y-17327744D01*
X6466641Y-17318220D01*
X6485689Y-17308696D01*
X6514260Y-17308696D01*
X6533308Y-17318220D01*
X6542832Y-17327744D01*
X6552355Y-17346791D01*
X6552355Y-17403934D01*
X6542832Y-17422982D01*
X6533308Y-17432506D01*
X6514260Y-17442029D01*
X6485689Y-17442029D01*
X6666641Y-17442029D02*
X6647594Y-17432506D01*
X6638070Y-17413458D01*
X6638070Y-17242029D01*
X6819022Y-17432506D02*
X6799974Y-17442029D01*
X6761879Y-17442029D01*
X6742832Y-17432506D01*
X6733308Y-17413458D01*
X6733308Y-17337267D01*
X6742832Y-17318220D01*
X6761879Y-17308696D01*
X6799974Y-17308696D01*
X6819022Y-17318220D01*
X6828546Y-17337267D01*
X6828546Y-17356315D01*
X6733308Y-17375363D01*
X6904736Y-17432506D02*
X6923784Y-17442029D01*
X6961879Y-17442029D01*
X6980927Y-17432506D01*
X6990451Y-17413458D01*
X6990451Y-17403934D01*
X6980927Y-17384887D01*
X6961879Y-17375363D01*
X6933308Y-17375363D01*
X6914260Y-17365839D01*
X6904736Y-17346791D01*
X6904736Y-17337267D01*
X6914260Y-17318220D01*
X6933308Y-17308696D01*
X6961879Y-17308696D01*
X6980927Y-17318220D01*
X7057117Y-17518220D02*
X7066641Y-17508696D01*
X7085689Y-17480125D01*
X7095213Y-17461077D01*
X7104736Y-17432506D01*
X7114260Y-17384887D01*
X7114260Y-17346791D01*
X7104736Y-17299172D01*
X7095213Y-17270601D01*
X7085689Y-17251553D01*
X7066641Y-17222982D01*
X7057117Y-17213458D01*
X1894736Y-17515553D02*
X2094736Y-17715553D01*
X2094736Y-17515553D02*
X1894736Y-17715553D01*
X2094736Y-17615553D02*
G75*
G03*
X2094736Y-17615553I-100000J0D01*
G01*
X2333308Y-17506029D02*
X2457117Y-17506029D01*
X2390451Y-17582220D01*
X2419022Y-17582220D01*
X2438070Y-17591744D01*
X2447594Y-17601267D01*
X2457117Y-17620315D01*
X2457117Y-17667934D01*
X2447594Y-17686982D01*
X2438070Y-17696506D01*
X2419022Y-17706029D01*
X2361879Y-17706029D01*
X2342832Y-17696506D01*
X2333308Y-17686982D01*
X2542832Y-17686982D02*
X2552356Y-17696506D01*
X2542832Y-17706029D01*
X2533308Y-17696506D01*
X2542832Y-17686982D01*
X2542832Y-17706029D01*
X2628546Y-17525077D02*
X2638070Y-17515553D01*
X2657117Y-17506029D01*
X2704737Y-17506029D01*
X2723784Y-17515553D01*
X2733308Y-17525077D01*
X2742832Y-17544125D01*
X2742832Y-17563172D01*
X2733308Y-17591744D01*
X2619022Y-17706029D01*
X2742832Y-17706029D01*
X2866641Y-17506029D02*
X2885689Y-17506029D01*
X2904736Y-17515553D01*
X2914260Y-17525077D01*
X2923784Y-17544125D01*
X2933308Y-17582220D01*
X2933308Y-17629839D01*
X2923784Y-17667934D01*
X2914260Y-17686982D01*
X2904736Y-17696506D01*
X2885689Y-17706029D01*
X2866641Y-17706029D01*
X2847594Y-17696506D01*
X2838070Y-17686982D01*
X2828546Y-17667934D01*
X2819022Y-17629839D01*
X2819022Y-17582220D01*
X2828546Y-17544125D01*
X2838070Y-17525077D01*
X2847594Y-17515553D01*
X2866641Y-17506029D01*
X3057117Y-17506029D02*
X3076165Y-17506029D01*
X3095213Y-17515553D01*
X3104736Y-17525077D01*
X3114260Y-17544125D01*
X3123784Y-17582220D01*
X3123784Y-17629839D01*
X3114260Y-17667934D01*
X3104736Y-17686982D01*
X3095213Y-17696506D01*
X3076165Y-17706029D01*
X3057117Y-17706029D01*
X3038070Y-17696506D01*
X3028546Y-17686982D01*
X3019022Y-17667934D01*
X3009498Y-17629839D01*
X3009498Y-17582220D01*
X3019022Y-17544125D01*
X3028546Y-17525077D01*
X3038070Y-17515553D01*
X3057117Y-17506029D01*
X3209498Y-17706029D02*
X3209498Y-17572696D01*
X3209498Y-17591744D02*
X3219022Y-17582220D01*
X3238070Y-17572696D01*
X3266641Y-17572696D01*
X3285689Y-17582220D01*
X3295213Y-17601267D01*
X3295213Y-17706029D01*
X3295213Y-17601267D02*
X3304736Y-17582220D01*
X3323784Y-17572696D01*
X3352355Y-17572696D01*
X3371403Y-17582220D01*
X3380927Y-17601267D01*
X3380927Y-17706029D01*
X3476165Y-17706029D02*
X3476165Y-17572696D01*
X3476165Y-17591744D02*
X3485689Y-17582220D01*
X3504736Y-17572696D01*
X3533308Y-17572696D01*
X3552355Y-17582220D01*
X3561879Y-17601267D01*
X3561879Y-17706029D01*
X3561879Y-17601267D02*
X3571403Y-17582220D01*
X3590451Y-17572696D01*
X3619022Y-17572696D01*
X3638070Y-17582220D01*
X3647594Y-17601267D01*
X3647594Y-17706029D01*
X4038070Y-17496506D02*
X3866641Y-17753648D01*
X4295213Y-17506029D02*
X4314260Y-17506029D01*
X4333308Y-17515553D01*
X4342832Y-17525077D01*
X4352356Y-17544125D01*
X4361879Y-17582220D01*
X4361879Y-17629839D01*
X4352356Y-17667934D01*
X4342832Y-17686982D01*
X4333308Y-17696506D01*
X4314260Y-17706029D01*
X4295213Y-17706029D01*
X4276165Y-17696506D01*
X4266641Y-17686982D01*
X4257117Y-17667934D01*
X4247594Y-17629839D01*
X4247594Y-17582220D01*
X4257117Y-17544125D01*
X4266641Y-17525077D01*
X4276165Y-17515553D01*
X4295213Y-17506029D01*
X4447594Y-17686982D02*
X4457117Y-17696506D01*
X4447594Y-17706029D01*
X4438070Y-17696506D01*
X4447594Y-17686982D01*
X4447594Y-17706029D01*
X4647594Y-17706029D02*
X4533308Y-17706029D01*
X4590451Y-17706029D02*
X4590451Y-17506029D01*
X4571403Y-17534601D01*
X4552356Y-17553648D01*
X4533308Y-17563172D01*
X4723784Y-17525077D02*
X4733308Y-17515553D01*
X4752356Y-17506029D01*
X4799975Y-17506029D01*
X4819022Y-17515553D01*
X4828546Y-17525077D01*
X4838070Y-17544125D01*
X4838070Y-17563172D01*
X4828546Y-17591744D01*
X4714260Y-17706029D01*
X4838070Y-17706029D01*
X5009498Y-17506029D02*
X4971403Y-17506029D01*
X4952356Y-17515553D01*
X4942832Y-17525077D01*
X4923784Y-17553648D01*
X4914260Y-17591744D01*
X4914260Y-17667934D01*
X4923784Y-17686982D01*
X4933308Y-17696506D01*
X4952356Y-17706029D01*
X4990451Y-17706029D01*
X5009498Y-17696506D01*
X5019022Y-17686982D01*
X5028546Y-17667934D01*
X5028546Y-17620315D01*
X5019022Y-17601267D01*
X5009498Y-17591744D01*
X4990451Y-17582220D01*
X4952356Y-17582220D01*
X4933308Y-17591744D01*
X4923784Y-17601267D01*
X4914260Y-17620315D01*
X5152356Y-17506029D02*
X5171403Y-17506029D01*
X5190451Y-17515553D01*
X5199975Y-17525077D01*
X5209498Y-17544125D01*
X5219022Y-17582220D01*
X5219022Y-17629839D01*
X5209498Y-17667934D01*
X5199975Y-17686982D01*
X5190451Y-17696506D01*
X5171403Y-17706029D01*
X5152356Y-17706029D01*
X5133308Y-17696506D01*
X5123784Y-17686982D01*
X5114260Y-17667934D01*
X5104736Y-17629839D01*
X5104736Y-17582220D01*
X5114260Y-17544125D01*
X5123784Y-17525077D01*
X5133308Y-17515553D01*
X5152356Y-17506029D01*
X5295213Y-17506029D02*
X5295213Y-17544125D01*
X5371403Y-17506029D02*
X5371403Y-17544125D01*
X5666641Y-17782220D02*
X5657117Y-17772696D01*
X5638070Y-17744125D01*
X5628546Y-17725077D01*
X5619022Y-17696506D01*
X5609498Y-17648887D01*
X5609498Y-17610791D01*
X5619022Y-17563172D01*
X5628546Y-17534601D01*
X5638070Y-17515553D01*
X5657117Y-17486982D01*
X5666641Y-17477458D01*
X5723784Y-17506029D02*
X5857117Y-17506029D01*
X5771403Y-17706029D01*
X6085689Y-17706029D02*
X6085689Y-17506029D01*
X6171403Y-17706029D02*
X6171403Y-17601267D01*
X6161879Y-17582220D01*
X6142832Y-17572696D01*
X6114260Y-17572696D01*
X6095213Y-17582220D01*
X6085689Y-17591744D01*
X6295213Y-17706029D02*
X6276165Y-17696506D01*
X6266641Y-17686982D01*
X6257117Y-17667934D01*
X6257117Y-17610791D01*
X6266641Y-17591744D01*
X6276165Y-17582220D01*
X6295213Y-17572696D01*
X6323784Y-17572696D01*
X6342832Y-17582220D01*
X6352355Y-17591744D01*
X6361879Y-17610791D01*
X6361879Y-17667934D01*
X6352355Y-17686982D01*
X6342832Y-17696506D01*
X6323784Y-17706029D01*
X6295213Y-17706029D01*
X6476165Y-17706029D02*
X6457117Y-17696506D01*
X6447594Y-17677458D01*
X6447594Y-17506029D01*
X6628546Y-17696506D02*
X6609498Y-17706029D01*
X6571403Y-17706029D01*
X6552355Y-17696506D01*
X6542832Y-17677458D01*
X6542832Y-17601267D01*
X6552355Y-17582220D01*
X6571403Y-17572696D01*
X6609498Y-17572696D01*
X6628546Y-17582220D01*
X6638070Y-17601267D01*
X6638070Y-17620315D01*
X6542832Y-17639363D01*
X6714260Y-17696506D02*
X6733308Y-17706029D01*
X6771403Y-17706029D01*
X6790451Y-17696506D01*
X6799974Y-17677458D01*
X6799974Y-17667934D01*
X6790451Y-17648887D01*
X6771403Y-17639363D01*
X6742832Y-17639363D01*
X6723784Y-17629839D01*
X6714260Y-17610791D01*
X6714260Y-17601267D01*
X6723784Y-17582220D01*
X6742832Y-17572696D01*
X6771403Y-17572696D01*
X6790451Y-17582220D01*
X6866641Y-17782220D02*
X6876165Y-17772696D01*
X6895213Y-17744125D01*
X6904736Y-17725077D01*
X6914260Y-17696506D01*
X6923784Y-17648887D01*
X6923784Y-17610791D01*
X6914260Y-17563172D01*
X6904736Y-17534601D01*
X6895213Y-17515553D01*
X6876165Y-17486982D01*
X6866641Y-17477458D01*
M02*
