G04 #@! TF.GenerationSoftware,KiCad,Pcbnew,(6.0.5-0)*
G04 #@! TF.CreationDate,2023-02-07T22:55:57+01:00*
G04 #@! TF.ProjectId,awokb,61776f6b-622e-46b6-9963-61645f706362,rev?*
G04 #@! TF.SameCoordinates,Original*
G04 #@! TF.FileFunction,Legend,Bot*
G04 #@! TF.FilePolarity,Positive*
%FSLAX46Y46*%
G04 Gerber Fmt 4.6, Leading zero omitted, Abs format (unit mm)*
G04 Created by KiCad (PCBNEW (6.0.5-0)) date 2023-02-07 22:55:57*
%MOMM*%
%LPD*%
G01*
G04 APERTURE LIST*
G04 Aperture macros list*
%AMRoundRect*
0 Rectangle with rounded corners*
0 $1 Rounding radius*
0 $2 $3 $4 $5 $6 $7 $8 $9 X,Y pos of 4 corners*
0 Add a 4 corners polygon primitive as box body*
4,1,4,$2,$3,$4,$5,$6,$7,$8,$9,$2,$3,0*
0 Add four circle primitives for the rounded corners*
1,1,$1+$1,$2,$3*
1,1,$1+$1,$4,$5*
1,1,$1+$1,$6,$7*
1,1,$1+$1,$8,$9*
0 Add four rect primitives between the rounded corners*
20,1,$1+$1,$2,$3,$4,$5,0*
20,1,$1+$1,$4,$5,$6,$7,0*
20,1,$1+$1,$6,$7,$8,$9,0*
20,1,$1+$1,$8,$9,$2,$3,0*%
%AMRotRect*
0 Rectangle, with rotation*
0 The origin of the aperture is its center*
0 $1 length*
0 $2 width*
0 $3 Rotation angle, in degrees counterclockwise*
0 Add horizontal line*
21,1,$1,$2,0,0,$3*%
%AMOutline5P*
0 Free polygon, 5 corners , with rotation*
0 The origin of the aperture is its center*
0 number of corners: always 5*
0 $1 to $10 corner X, Y*
0 $11 Rotation angle, in degrees counterclockwise*
0 create outline with 5 corners*
4,1,5,$1,$2,$3,$4,$5,$6,$7,$8,$9,$10,$1,$2,$11*%
%AMOutline6P*
0 Free polygon, 6 corners , with rotation*
0 The origin of the aperture is its center*
0 number of corners: always 6*
0 $1 to $12 corner X, Y*
0 $13 Rotation angle, in degrees counterclockwise*
0 create outline with 6 corners*
4,1,6,$1,$2,$3,$4,$5,$6,$7,$8,$9,$10,$11,$12,$1,$2,$13*%
%AMOutline7P*
0 Free polygon, 7 corners , with rotation*
0 The origin of the aperture is its center*
0 number of corners: always 7*
0 $1 to $14 corner X, Y*
0 $15 Rotation angle, in degrees counterclockwise*
0 create outline with 7 corners*
4,1,7,$1,$2,$3,$4,$5,$6,$7,$8,$9,$10,$11,$12,$13,$14,$1,$2,$15*%
%AMOutline8P*
0 Free polygon, 8 corners , with rotation*
0 The origin of the aperture is its center*
0 number of corners: always 8*
0 $1 to $16 corner X, Y*
0 $17 Rotation angle, in degrees counterclockwise*
0 create outline with 8 corners*
4,1,8,$1,$2,$3,$4,$5,$6,$7,$8,$9,$10,$11,$12,$13,$14,$15,$16,$1,$2,$17*%
G04 Aperture macros list end*
%ADD10C,0.125000*%
%ADD11C,0.150000*%
%ADD12C,0.062500*%
%ADD13C,0.120000*%
%ADD14C,0.127000*%
%ADD15C,3.000000*%
%ADD16C,3.429000*%
%ADD17C,1.701800*%
%ADD18RotRect,2.600000X2.600000X165.000000*%
%ADD19RotRect,0.900000X1.200000X75.000000*%
%ADD20Outline5P,-1.300000X1.300000X0.000000X1.300000X1.300000X0.000000X1.300000X-1.300000X-1.300000X-1.300000X165.000000*%
%ADD21R,2.600000X2.600000*%
%ADD22R,1.200000X0.900000*%
%ADD23Outline5P,-1.300000X1.300000X0.000000X1.300000X1.300000X0.000000X1.300000X-1.300000X-1.300000X-1.300000X180.000000*%
%ADD24C,1.500000*%
%ADD25O,1.600000X3.300000*%
%ADD26O,1.600000X2.200000*%
%ADD27C,0.800000*%
%ADD28C,6.400000*%
%ADD29RotRect,2.600000X2.600000X150.000000*%
%ADD30RotRect,0.900000X1.200000X60.000000*%
%ADD31Outline5P,-1.300000X1.300000X0.000000X1.300000X1.300000X0.000000X1.300000X-1.300000X-1.300000X-1.300000X150.000000*%
%ADD32R,2.000000X0.800000*%
%ADD33R,0.800000X1.000000*%
%ADD34R,0.800000X0.900000*%
%ADD35RoundRect,0.208333X0.291667X0.541667X-0.291667X0.541667X-0.291667X-0.541667X0.291667X-0.541667X0*%
%ADD36O,1.000000X1.500000*%
%ADD37O,2.750000X1.800000*%
%ADD38C,1.397000*%
G04 APERTURE END LIST*
D10*
X164373809Y-107319047D02*
X164373809Y-107557142D01*
X164873809Y-107557142D01*
X164373809Y-107080952D02*
X164397619Y-107128571D01*
X164445238Y-107152380D01*
X164873809Y-107152380D01*
X164707142Y-106676190D02*
X164373809Y-106676190D01*
X164707142Y-106890476D02*
X164445238Y-106890476D01*
X164397619Y-106866666D01*
X164373809Y-106819047D01*
X164373809Y-106747619D01*
X164397619Y-106700000D01*
X164421428Y-106676190D01*
X164373809Y-106438095D02*
X164707142Y-106438095D01*
X164897619Y-106390476D02*
X164826190Y-106461904D01*
X164397619Y-106223809D02*
X164373809Y-106176190D01*
X164373809Y-106080952D01*
X164397619Y-106033333D01*
X164445238Y-106009523D01*
X164469047Y-106009523D01*
X164516666Y-106033333D01*
X164540476Y-106080952D01*
X164540476Y-106152380D01*
X164564285Y-106200000D01*
X164611904Y-106223809D01*
X164635714Y-106223809D01*
X164683333Y-106200000D01*
X164707142Y-106152380D01*
X164707142Y-106080952D01*
X164683333Y-106033333D01*
X164373809Y-105414285D02*
X164873809Y-105414285D01*
X164516666Y-105247619D01*
X164873809Y-105080952D01*
X164373809Y-105080952D01*
X164397619Y-104652380D02*
X164373809Y-104700000D01*
X164373809Y-104795238D01*
X164397619Y-104842857D01*
X164445238Y-104866666D01*
X164635714Y-104866666D01*
X164683333Y-104842857D01*
X164707142Y-104795238D01*
X164707142Y-104700000D01*
X164683333Y-104652380D01*
X164635714Y-104628571D01*
X164588095Y-104628571D01*
X164540476Y-104866666D01*
X164373809Y-104414285D02*
X164707142Y-104414285D01*
X164611904Y-104414285D02*
X164659523Y-104390476D01*
X164683333Y-104366666D01*
X164707142Y-104319047D01*
X164707142Y-104271428D01*
X164373809Y-104033333D02*
X164397619Y-104080952D01*
X164445238Y-104104761D01*
X164873809Y-104104761D01*
X164373809Y-103771428D02*
X164397619Y-103819047D01*
X164421428Y-103842857D01*
X164469047Y-103866666D01*
X164611904Y-103866666D01*
X164659523Y-103842857D01*
X164683333Y-103819047D01*
X164707142Y-103771428D01*
X164707142Y-103700000D01*
X164683333Y-103652380D01*
X164659523Y-103628571D01*
X164611904Y-103604761D01*
X164469047Y-103604761D01*
X164421428Y-103628571D01*
X164397619Y-103652380D01*
X164373809Y-103700000D01*
X164373809Y-103771428D01*
X164397619Y-103414285D02*
X164373809Y-103366666D01*
X164373809Y-103271428D01*
X164397619Y-103223809D01*
X164445238Y-103200000D01*
X164469047Y-103200000D01*
X164516666Y-103223809D01*
X164540476Y-103271428D01*
X164540476Y-103342857D01*
X164564285Y-103390476D01*
X164611904Y-103414285D01*
X164635714Y-103414285D01*
X164683333Y-103390476D01*
X164707142Y-103342857D01*
X164707142Y-103271428D01*
X164683333Y-103223809D01*
X164373809Y-102604761D02*
X164873809Y-102604761D01*
X164873809Y-102414285D01*
X164850000Y-102366666D01*
X164826190Y-102342857D01*
X164778571Y-102319047D01*
X164707142Y-102319047D01*
X164659523Y-102342857D01*
X164635714Y-102366666D01*
X164611904Y-102414285D01*
X164611904Y-102604761D01*
X164373809Y-102104761D02*
X164707142Y-102104761D01*
X164873809Y-102104761D02*
X164850000Y-102128571D01*
X164826190Y-102104761D01*
X164850000Y-102080952D01*
X164873809Y-102104761D01*
X164826190Y-102104761D01*
X164397619Y-101676190D02*
X164373809Y-101723809D01*
X164373809Y-101819047D01*
X164397619Y-101866666D01*
X164445238Y-101890476D01*
X164635714Y-101890476D01*
X164683333Y-101866666D01*
X164707142Y-101819047D01*
X164707142Y-101723809D01*
X164683333Y-101676190D01*
X164635714Y-101652380D01*
X164588095Y-101652380D01*
X164540476Y-101890476D01*
X164373809Y-101438095D02*
X164707142Y-101438095D01*
X164611904Y-101438095D02*
X164659523Y-101414285D01*
X164683333Y-101390476D01*
X164707142Y-101342857D01*
X164707142Y-101295238D01*
X164373809Y-101128571D02*
X164707142Y-101128571D01*
X164873809Y-101128571D02*
X164850000Y-101152380D01*
X164826190Y-101128571D01*
X164850000Y-101104761D01*
X164873809Y-101128571D01*
X164826190Y-101128571D01*
X164826190Y-100533333D02*
X164850000Y-100509523D01*
X164873809Y-100461904D01*
X164873809Y-100342857D01*
X164850000Y-100295238D01*
X164826190Y-100271428D01*
X164778571Y-100247619D01*
X164730952Y-100247619D01*
X164659523Y-100271428D01*
X164373809Y-100557142D01*
X164373809Y-100247619D01*
X164873809Y-99938095D02*
X164873809Y-99890476D01*
X164850000Y-99842857D01*
X164826190Y-99819047D01*
X164778571Y-99795238D01*
X164683333Y-99771428D01*
X164564285Y-99771428D01*
X164469047Y-99795238D01*
X164421428Y-99819047D01*
X164397619Y-99842857D01*
X164373809Y-99890476D01*
X164373809Y-99938095D01*
X164397619Y-99985714D01*
X164421428Y-100009523D01*
X164469047Y-100033333D01*
X164564285Y-100057142D01*
X164683333Y-100057142D01*
X164778571Y-100033333D01*
X164826190Y-100009523D01*
X164850000Y-99985714D01*
X164873809Y-99938095D01*
X164826190Y-99580952D02*
X164850000Y-99557142D01*
X164873809Y-99509523D01*
X164873809Y-99390476D01*
X164850000Y-99342857D01*
X164826190Y-99319047D01*
X164778571Y-99295238D01*
X164730952Y-99295238D01*
X164659523Y-99319047D01*
X164373809Y-99604761D01*
X164373809Y-99295238D01*
X164873809Y-99128571D02*
X164873809Y-98819047D01*
X164683333Y-98985714D01*
X164683333Y-98914285D01*
X164659523Y-98866666D01*
X164635714Y-98842857D01*
X164588095Y-98819047D01*
X164469047Y-98819047D01*
X164421428Y-98842857D01*
X164397619Y-98866666D01*
X164373809Y-98914285D01*
X164373809Y-99057142D01*
X164397619Y-99104761D01*
X164421428Y-99128571D01*
D11*
X164433333Y-96890476D02*
X164433333Y-96414285D01*
X164147619Y-96985714D02*
X165147619Y-96652380D01*
X164147619Y-96319047D01*
X164814285Y-95985714D02*
X164147619Y-95985714D01*
X164719047Y-95985714D02*
X164766666Y-95938095D01*
X164814285Y-95842857D01*
X164814285Y-95700000D01*
X164766666Y-95604761D01*
X164671428Y-95557142D01*
X164147619Y-95557142D01*
X165147619Y-94128571D02*
X165147619Y-93938095D01*
X165100000Y-93842857D01*
X165004761Y-93747619D01*
X164814285Y-93700000D01*
X164480952Y-93700000D01*
X164290476Y-93747619D01*
X164195238Y-93842857D01*
X164147619Y-93938095D01*
X164147619Y-94128571D01*
X164195238Y-94223809D01*
X164290476Y-94319047D01*
X164480952Y-94366666D01*
X164814285Y-94366666D01*
X165004761Y-94319047D01*
X165100000Y-94223809D01*
X165147619Y-94128571D01*
X164814285Y-93414285D02*
X164814285Y-93033333D01*
X165147619Y-93271428D02*
X164290476Y-93271428D01*
X164195238Y-93223809D01*
X164147619Y-93128571D01*
X164147619Y-93033333D01*
X164814285Y-92842857D02*
X164814285Y-92461904D01*
X165147619Y-92700000D02*
X164290476Y-92700000D01*
X164195238Y-92652380D01*
X164147619Y-92557142D01*
X164147619Y-92461904D01*
X164195238Y-91747619D02*
X164147619Y-91842857D01*
X164147619Y-92033333D01*
X164195238Y-92128571D01*
X164290476Y-92176190D01*
X164671428Y-92176190D01*
X164766666Y-92128571D01*
X164814285Y-92033333D01*
X164814285Y-91842857D01*
X164766666Y-91747619D01*
X164671428Y-91700000D01*
X164576190Y-91700000D01*
X164480952Y-92176190D01*
X164147619Y-91271428D02*
X164814285Y-91271428D01*
X164623809Y-91271428D02*
X164719047Y-91223809D01*
X164766666Y-91176190D01*
X164814285Y-91080952D01*
X164814285Y-90985714D01*
X164147619Y-89890476D02*
X165147619Y-89890476D01*
X164147619Y-89319047D02*
X164719047Y-89747619D01*
X165147619Y-89319047D02*
X164576190Y-89890476D01*
X164195238Y-88509523D02*
X164147619Y-88604761D01*
X164147619Y-88795238D01*
X164195238Y-88890476D01*
X164290476Y-88938095D01*
X164671428Y-88938095D01*
X164766666Y-88890476D01*
X164814285Y-88795238D01*
X164814285Y-88604761D01*
X164766666Y-88509523D01*
X164671428Y-88461904D01*
X164576190Y-88461904D01*
X164480952Y-88938095D01*
X164814285Y-88128571D02*
X164147619Y-87890476D01*
X164814285Y-87652380D02*
X164147619Y-87890476D01*
X163909523Y-87985714D01*
X163861904Y-88033333D01*
X163814285Y-88128571D01*
X164147619Y-87271428D02*
X165147619Y-87271428D01*
X164766666Y-87271428D02*
X164814285Y-87176190D01*
X164814285Y-86985714D01*
X164766666Y-86890476D01*
X164719047Y-86842857D01*
X164623809Y-86795238D01*
X164338095Y-86795238D01*
X164242857Y-86842857D01*
X164195238Y-86890476D01*
X164147619Y-86985714D01*
X164147619Y-87176190D01*
X164195238Y-87271428D01*
X164147619Y-86223809D02*
X164195238Y-86319047D01*
X164242857Y-86366666D01*
X164338095Y-86414285D01*
X164623809Y-86414285D01*
X164719047Y-86366666D01*
X164766666Y-86319047D01*
X164814285Y-86223809D01*
X164814285Y-86080952D01*
X164766666Y-85985714D01*
X164719047Y-85938095D01*
X164623809Y-85890476D01*
X164338095Y-85890476D01*
X164242857Y-85938095D01*
X164195238Y-85985714D01*
X164147619Y-86080952D01*
X164147619Y-86223809D01*
X164147619Y-85033333D02*
X164671428Y-85033333D01*
X164766666Y-85080952D01*
X164814285Y-85176190D01*
X164814285Y-85366666D01*
X164766666Y-85461904D01*
X164195238Y-85033333D02*
X164147619Y-85128571D01*
X164147619Y-85366666D01*
X164195238Y-85461904D01*
X164290476Y-85509523D01*
X164385714Y-85509523D01*
X164480952Y-85461904D01*
X164528571Y-85366666D01*
X164528571Y-85128571D01*
X164576190Y-85033333D01*
X164147619Y-84557142D02*
X164814285Y-84557142D01*
X164623809Y-84557142D02*
X164719047Y-84509523D01*
X164766666Y-84461904D01*
X164814285Y-84366666D01*
X164814285Y-84271428D01*
X164147619Y-83509523D02*
X165147619Y-83509523D01*
X164195238Y-83509523D02*
X164147619Y-83604761D01*
X164147619Y-83795238D01*
X164195238Y-83890476D01*
X164242857Y-83938095D01*
X164338095Y-83985714D01*
X164623809Y-83985714D01*
X164719047Y-83938095D01*
X164766666Y-83890476D01*
X164814285Y-83795238D01*
X164814285Y-83604761D01*
X164766666Y-83509523D01*
X164147619Y-82271428D02*
X164814285Y-82271428D01*
X164623809Y-82271428D02*
X164719047Y-82223809D01*
X164766666Y-82176190D01*
X164814285Y-82080952D01*
X164814285Y-81985714D01*
X164195238Y-81271428D02*
X164147619Y-81366666D01*
X164147619Y-81557142D01*
X164195238Y-81652380D01*
X164290476Y-81700000D01*
X164671428Y-81700000D01*
X164766666Y-81652380D01*
X164814285Y-81557142D01*
X164814285Y-81366666D01*
X164766666Y-81271428D01*
X164671428Y-81223809D01*
X164576190Y-81223809D01*
X164480952Y-81700000D01*
X164814285Y-80890476D02*
X164147619Y-80652380D01*
X164814285Y-80414285D01*
X165052380Y-80080952D02*
X165100000Y-80033333D01*
X165147619Y-79938095D01*
X165147619Y-79700000D01*
X165100000Y-79604761D01*
X165052380Y-79557142D01*
X164957142Y-79509523D01*
X164861904Y-79509523D01*
X164719047Y-79557142D01*
X164147619Y-80128571D01*
X164147619Y-79509523D01*
D12*
X160119047Y-120113095D02*
X160119047Y-120291666D01*
X160130952Y-120327380D01*
X160154761Y-120351190D01*
X160190476Y-120363095D01*
X160214285Y-120363095D01*
X160000000Y-120267857D02*
X159809523Y-120267857D01*
X159904761Y-120363095D02*
X159904761Y-120172619D01*
X160804761Y-63050000D02*
X160842857Y-63030952D01*
X160900000Y-63030952D01*
X160957142Y-63050000D01*
X160995238Y-63088095D01*
X161014285Y-63126190D01*
X161033333Y-63202380D01*
X161033333Y-63259523D01*
X161014285Y-63335714D01*
X160995238Y-63373809D01*
X160957142Y-63411904D01*
X160900000Y-63430952D01*
X160861904Y-63430952D01*
X160804761Y-63411904D01*
X160785714Y-63392857D01*
X160785714Y-63259523D01*
X160861904Y-63259523D01*
X160614285Y-63430952D02*
X160614285Y-63030952D01*
X160385714Y-63430952D01*
X160385714Y-63030952D01*
X160195238Y-63430952D02*
X160195238Y-63030952D01*
X160100000Y-63030952D01*
X160042857Y-63050000D01*
X160004761Y-63088095D01*
X159985714Y-63126190D01*
X159966666Y-63202380D01*
X159966666Y-63259523D01*
X159985714Y-63335714D01*
X160004761Y-63373809D01*
X160042857Y-63411904D01*
X160100000Y-63430952D01*
X160195238Y-63430952D01*
X161278571Y-67930952D02*
X161411904Y-67740476D01*
X161507142Y-67930952D02*
X161507142Y-67530952D01*
X161354761Y-67530952D01*
X161316666Y-67550000D01*
X161297619Y-67569047D01*
X161278571Y-67607142D01*
X161278571Y-67664285D01*
X161297619Y-67702380D01*
X161316666Y-67721428D01*
X161354761Y-67740476D01*
X161507142Y-67740476D01*
X161164285Y-67530952D02*
X160935714Y-67530952D01*
X161050000Y-67930952D02*
X161050000Y-67530952D01*
X160576190Y-60030952D02*
X160766666Y-60030952D01*
X160785714Y-60221428D01*
X160766666Y-60202380D01*
X160728571Y-60183333D01*
X160633333Y-60183333D01*
X160595238Y-60202380D01*
X160576190Y-60221428D01*
X160557142Y-60259523D01*
X160557142Y-60354761D01*
X160576190Y-60392857D01*
X160595238Y-60411904D01*
X160633333Y-60430952D01*
X160728571Y-60430952D01*
X160766666Y-60411904D01*
X160785714Y-60392857D01*
X160442857Y-60030952D02*
X160309523Y-60430952D01*
X160176190Y-60030952D01*
X160065476Y-123363095D02*
X159934523Y-123196428D01*
X160065476Y-123196428D02*
X159934523Y-123363095D01*
X160136904Y-118732142D02*
X160101190Y-118744047D01*
X160089285Y-118755952D01*
X160077380Y-118779761D01*
X160077380Y-118815476D01*
X160089285Y-118839285D01*
X160101190Y-118851190D01*
X160125000Y-118863095D01*
X160220238Y-118863095D01*
X160220238Y-118613095D01*
X160136904Y-118613095D01*
X160113095Y-118625000D01*
X160101190Y-118636904D01*
X160089285Y-118660714D01*
X160089285Y-118684523D01*
X160101190Y-118708333D01*
X160113095Y-118720238D01*
X160136904Y-118732142D01*
X160220238Y-118732142D01*
X159970238Y-118767857D02*
X159779761Y-118767857D01*
X159875000Y-118863095D02*
X159875000Y-118672619D01*
X160064285Y-67530952D02*
X159835714Y-67530952D01*
X159950000Y-67930952D02*
X159950000Y-67530952D01*
X159473809Y-67930952D02*
X159607142Y-67740476D01*
X159702380Y-67930952D02*
X159702380Y-67530952D01*
X159550000Y-67530952D01*
X159511904Y-67550000D01*
X159492857Y-67569047D01*
X159473809Y-67607142D01*
X159473809Y-67664285D01*
X159492857Y-67702380D01*
X159511904Y-67721428D01*
X159550000Y-67740476D01*
X159702380Y-67740476D01*
D11*
X128542201Y-136389528D02*
X128692515Y-136380505D01*
X128922497Y-136442129D01*
X129002165Y-136512775D01*
X129035837Y-136571096D01*
X129057184Y-136675414D01*
X129032535Y-136767407D01*
X128961889Y-136847075D01*
X128903568Y-136880747D01*
X128799250Y-136902094D01*
X128602939Y-136898791D01*
X128498622Y-136920138D01*
X128440301Y-136953810D01*
X128369655Y-137033478D01*
X128345005Y-137125471D01*
X128366352Y-137229789D01*
X128400024Y-137288110D01*
X128479692Y-137358756D01*
X128709675Y-137420380D01*
X128859989Y-137411357D01*
X130026412Y-136737922D02*
X129474455Y-136590026D01*
X129750434Y-136663974D02*
X129491615Y-137629900D01*
X129436596Y-137467261D01*
X129369252Y-137350619D01*
X129289584Y-137279973D01*
X130089569Y-137790121D02*
X130687523Y-137950342D01*
X130464145Y-137496098D01*
X130602135Y-137533072D01*
X130706452Y-137511725D01*
X130764773Y-137478053D01*
X130835419Y-137398385D01*
X130897043Y-137168402D01*
X130875696Y-137064085D01*
X130842024Y-137005764D01*
X130762356Y-136935118D01*
X130486377Y-136861169D01*
X130382059Y-136882516D01*
X130323738Y-136916188D01*
X131009498Y-138036615D02*
X131607452Y-138196837D01*
X131384075Y-137742592D01*
X131522064Y-137779566D01*
X131626382Y-137758219D01*
X131684703Y-137724547D01*
X131755349Y-137644879D01*
X131816972Y-137414897D01*
X131795625Y-137310579D01*
X131761953Y-137252258D01*
X131682285Y-137181612D01*
X131406306Y-137107664D01*
X131301989Y-137129011D01*
X131243668Y-137162682D01*
X88714290Y-92654761D02*
X88571433Y-92702380D01*
X88333338Y-92702380D01*
X88238100Y-92654761D01*
X88190481Y-92607142D01*
X88142862Y-92511904D01*
X88142862Y-92416666D01*
X88190481Y-92321428D01*
X88238100Y-92273809D01*
X88333338Y-92226190D01*
X88523814Y-92178571D01*
X88619052Y-92130952D01*
X88666671Y-92083333D01*
X88714290Y-91988095D01*
X88714290Y-91892857D01*
X88666671Y-91797619D01*
X88619052Y-91750000D01*
X88523814Y-91702380D01*
X88285719Y-91702380D01*
X88142862Y-91750000D01*
X87190481Y-92702380D02*
X87761909Y-92702380D01*
X87476195Y-92702380D02*
X87476195Y-91702380D01*
X87571433Y-91845238D01*
X87666671Y-91940476D01*
X87761909Y-91988095D01*
X86809528Y-91797619D02*
X86761909Y-91750000D01*
X86666671Y-91702380D01*
X86428576Y-91702380D01*
X86333338Y-91750000D01*
X86285719Y-91797619D01*
X86238100Y-91892857D01*
X86238100Y-91988095D01*
X86285719Y-92130952D01*
X86857147Y-92702380D01*
X86238100Y-92702380D01*
X85857147Y-91797619D02*
X85809528Y-91750000D01*
X85714290Y-91702380D01*
X85476195Y-91702380D01*
X85380957Y-91750000D01*
X85333338Y-91797619D01*
X85285719Y-91892857D01*
X85285719Y-91988095D01*
X85333338Y-92130952D01*
X85904766Y-92702380D01*
X85285719Y-92702380D01*
X70714297Y-96904755D02*
X70571440Y-96952374D01*
X70333345Y-96952374D01*
X70238107Y-96904755D01*
X70190488Y-96857136D01*
X70142869Y-96761898D01*
X70142869Y-96666660D01*
X70190488Y-96571422D01*
X70238107Y-96523803D01*
X70333345Y-96476184D01*
X70523821Y-96428565D01*
X70619059Y-96380946D01*
X70666678Y-96333327D01*
X70714297Y-96238089D01*
X70714297Y-96142851D01*
X70666678Y-96047613D01*
X70619059Y-95999994D01*
X70523821Y-95952374D01*
X70285726Y-95952374D01*
X70142869Y-95999994D01*
X69190488Y-96952374D02*
X69761916Y-96952374D01*
X69476202Y-96952374D02*
X69476202Y-95952374D01*
X69571440Y-96095232D01*
X69666678Y-96190470D01*
X69761916Y-96238089D01*
X68238107Y-96952374D02*
X68809535Y-96952374D01*
X68523821Y-96952374D02*
X68523821Y-95952374D01*
X68619059Y-96095232D01*
X68714297Y-96190470D01*
X68809535Y-96238089D01*
X67857154Y-96047613D02*
X67809535Y-95999994D01*
X67714297Y-95952374D01*
X67476202Y-95952374D01*
X67380964Y-95999994D01*
X67333345Y-96047613D01*
X67285726Y-96142851D01*
X67285726Y-96238089D01*
X67333345Y-96380946D01*
X67904773Y-96952374D01*
X67285726Y-96952374D01*
X88714289Y-75654755D02*
X88571432Y-75702374D01*
X88333337Y-75702374D01*
X88238099Y-75654755D01*
X88190480Y-75607136D01*
X88142861Y-75511898D01*
X88142861Y-75416660D01*
X88190480Y-75321422D01*
X88238099Y-75273803D01*
X88333337Y-75226184D01*
X88523813Y-75178565D01*
X88619051Y-75130946D01*
X88666670Y-75083327D01*
X88714289Y-74988089D01*
X88714289Y-74892851D01*
X88666670Y-74797613D01*
X88619051Y-74749994D01*
X88523813Y-74702374D01*
X88285718Y-74702374D01*
X88142861Y-74749994D01*
X87190480Y-75702374D02*
X87761908Y-75702374D01*
X87476194Y-75702374D02*
X87476194Y-74702374D01*
X87571432Y-74845232D01*
X87666670Y-74940470D01*
X87761908Y-74988089D01*
X86809527Y-74797613D02*
X86761908Y-74749994D01*
X86666670Y-74702374D01*
X86428575Y-74702374D01*
X86333337Y-74749994D01*
X86285718Y-74797613D01*
X86238099Y-74892851D01*
X86238099Y-74988089D01*
X86285718Y-75130946D01*
X86857146Y-75702374D01*
X86238099Y-75702374D01*
X85285718Y-75702374D02*
X85857146Y-75702374D01*
X85571432Y-75702374D02*
X85571432Y-74702374D01*
X85666670Y-74845232D01*
X85761908Y-74940470D01*
X85857146Y-74988089D01*
X52714288Y-109654759D02*
X52571431Y-109702378D01*
X52333336Y-109702378D01*
X52238098Y-109654759D01*
X52190479Y-109607140D01*
X52142860Y-109511902D01*
X52142860Y-109416664D01*
X52190479Y-109321426D01*
X52238098Y-109273807D01*
X52333336Y-109226188D01*
X52523812Y-109178569D01*
X52619050Y-109130950D01*
X52666669Y-109083331D01*
X52714288Y-108988093D01*
X52714288Y-108892855D01*
X52666669Y-108797617D01*
X52619050Y-108749998D01*
X52523812Y-108702378D01*
X52285717Y-108702378D01*
X52142860Y-108749998D01*
X51190479Y-109702378D02*
X51761907Y-109702378D01*
X51476193Y-109702378D02*
X51476193Y-108702378D01*
X51571431Y-108845236D01*
X51666669Y-108940474D01*
X51761907Y-108988093D01*
X50571431Y-108702378D02*
X50476193Y-108702378D01*
X50380955Y-108749998D01*
X50333336Y-108797617D01*
X50285717Y-108892855D01*
X50238098Y-109083331D01*
X50238098Y-109321426D01*
X50285717Y-109511902D01*
X50333336Y-109607140D01*
X50380955Y-109654759D01*
X50476193Y-109702378D01*
X50571431Y-109702378D01*
X50666669Y-109654759D01*
X50714288Y-109607140D01*
X50761907Y-109511902D01*
X50809526Y-109321426D01*
X50809526Y-109083331D01*
X50761907Y-108892855D01*
X50714288Y-108797617D01*
X50666669Y-108749998D01*
X50571431Y-108702378D01*
X49857145Y-108797617D02*
X49809526Y-108749998D01*
X49714288Y-108702378D01*
X49476193Y-108702378D01*
X49380955Y-108749998D01*
X49333336Y-108797617D01*
X49285717Y-108892855D01*
X49285717Y-108988093D01*
X49333336Y-109130950D01*
X49904764Y-109702378D01*
X49285717Y-109702378D01*
X106714290Y-71404756D02*
X106571433Y-71452375D01*
X106333338Y-71452375D01*
X106238100Y-71404756D01*
X106190481Y-71357137D01*
X106142862Y-71261899D01*
X106142862Y-71166661D01*
X106190481Y-71071423D01*
X106238100Y-71023804D01*
X106333338Y-70976185D01*
X106523814Y-70928566D01*
X106619052Y-70880947D01*
X106666671Y-70833328D01*
X106714290Y-70738090D01*
X106714290Y-70642852D01*
X106666671Y-70547614D01*
X106619052Y-70499995D01*
X106523814Y-70452375D01*
X106285719Y-70452375D01*
X106142862Y-70499995D01*
X105190481Y-71452375D02*
X105761909Y-71452375D01*
X105476195Y-71452375D02*
X105476195Y-70452375D01*
X105571433Y-70595233D01*
X105666671Y-70690471D01*
X105761909Y-70738090D01*
X104857147Y-70452375D02*
X104238100Y-70452375D01*
X104571433Y-70833328D01*
X104428576Y-70833328D01*
X104333338Y-70880947D01*
X104285719Y-70928566D01*
X104238100Y-71023804D01*
X104238100Y-71261899D01*
X104285719Y-71357137D01*
X104333338Y-71404756D01*
X104428576Y-71452375D01*
X104714290Y-71452375D01*
X104809528Y-71404756D01*
X104857147Y-71357137D01*
X103619052Y-70452375D02*
X103523814Y-70452375D01*
X103428576Y-70499995D01*
X103380957Y-70547614D01*
X103333338Y-70642852D01*
X103285719Y-70833328D01*
X103285719Y-71071423D01*
X103333338Y-71261899D01*
X103380957Y-71357137D01*
X103428576Y-71404756D01*
X103523814Y-71452375D01*
X103619052Y-71452375D01*
X103714290Y-71404756D01*
X103761909Y-71357137D01*
X103809528Y-71261899D01*
X103857147Y-71071423D01*
X103857147Y-70833328D01*
X103809528Y-70642852D01*
X103761909Y-70547614D01*
X103714290Y-70499995D01*
X103619052Y-70452375D01*
X124714287Y-109654753D02*
X124571430Y-109702372D01*
X124333335Y-109702372D01*
X124238097Y-109654753D01*
X124190478Y-109607134D01*
X124142859Y-109511896D01*
X124142859Y-109416658D01*
X124190478Y-109321420D01*
X124238097Y-109273801D01*
X124333335Y-109226182D01*
X124523811Y-109178563D01*
X124619049Y-109130944D01*
X124666668Y-109083325D01*
X124714287Y-108988087D01*
X124714287Y-108892849D01*
X124666668Y-108797611D01*
X124619049Y-108749992D01*
X124523811Y-108702372D01*
X124285716Y-108702372D01*
X124142859Y-108749992D01*
X123190478Y-109702372D02*
X123761906Y-109702372D01*
X123476192Y-109702372D02*
X123476192Y-108702372D01*
X123571430Y-108845230D01*
X123666668Y-108940468D01*
X123761906Y-108988087D01*
X122333335Y-109035706D02*
X122333335Y-109702372D01*
X122571430Y-108654753D02*
X122809525Y-109369039D01*
X122190478Y-109369039D01*
X121857144Y-108797611D02*
X121809525Y-108749992D01*
X121714287Y-108702372D01*
X121476192Y-108702372D01*
X121380954Y-108749992D01*
X121333335Y-108797611D01*
X121285716Y-108892849D01*
X121285716Y-108988087D01*
X121333335Y-109130944D01*
X121904763Y-109702372D01*
X121285716Y-109702372D01*
X106714292Y-105404765D02*
X106571435Y-105452384D01*
X106333340Y-105452384D01*
X106238102Y-105404765D01*
X106190483Y-105357146D01*
X106142864Y-105261908D01*
X106142864Y-105166670D01*
X106190483Y-105071432D01*
X106238102Y-105023813D01*
X106333340Y-104976194D01*
X106523816Y-104928575D01*
X106619054Y-104880956D01*
X106666673Y-104833337D01*
X106714292Y-104738099D01*
X106714292Y-104642861D01*
X106666673Y-104547623D01*
X106619054Y-104500004D01*
X106523816Y-104452384D01*
X106285721Y-104452384D01*
X106142864Y-104500004D01*
X105190483Y-105452384D02*
X105761911Y-105452384D01*
X105476197Y-105452384D02*
X105476197Y-104452384D01*
X105571435Y-104595242D01*
X105666673Y-104690480D01*
X105761911Y-104738099D01*
X104857149Y-104452384D02*
X104238102Y-104452384D01*
X104571435Y-104833337D01*
X104428578Y-104833337D01*
X104333340Y-104880956D01*
X104285721Y-104928575D01*
X104238102Y-105023813D01*
X104238102Y-105261908D01*
X104285721Y-105357146D01*
X104333340Y-105404765D01*
X104428578Y-105452384D01*
X104714292Y-105452384D01*
X104809530Y-105404765D01*
X104857149Y-105357146D01*
X103857149Y-104547623D02*
X103809530Y-104500004D01*
X103714292Y-104452384D01*
X103476197Y-104452384D01*
X103380959Y-104500004D01*
X103333340Y-104547623D01*
X103285721Y-104642861D01*
X103285721Y-104738099D01*
X103333340Y-104880956D01*
X103904768Y-105452384D01*
X103285721Y-105452384D01*
X88714281Y-58654753D02*
X88571424Y-58702372D01*
X88333329Y-58702372D01*
X88238091Y-58654753D01*
X88190472Y-58607134D01*
X88142853Y-58511896D01*
X88142853Y-58416658D01*
X88190472Y-58321420D01*
X88238091Y-58273801D01*
X88333329Y-58226182D01*
X88523805Y-58178563D01*
X88619043Y-58130944D01*
X88666662Y-58083325D01*
X88714281Y-57988087D01*
X88714281Y-57892849D01*
X88666662Y-57797611D01*
X88619043Y-57749992D01*
X88523805Y-57702372D01*
X88285710Y-57702372D01*
X88142853Y-57749992D01*
X87190472Y-58702372D02*
X87761900Y-58702372D01*
X87476186Y-58702372D02*
X87476186Y-57702372D01*
X87571424Y-57845230D01*
X87666662Y-57940468D01*
X87761900Y-57988087D01*
X86809519Y-57797611D02*
X86761900Y-57749992D01*
X86666662Y-57702372D01*
X86428567Y-57702372D01*
X86333329Y-57749992D01*
X86285710Y-57797611D01*
X86238091Y-57892849D01*
X86238091Y-57988087D01*
X86285710Y-58130944D01*
X86857138Y-58702372D01*
X86238091Y-58702372D01*
X85619043Y-57702372D02*
X85523805Y-57702372D01*
X85428567Y-57749992D01*
X85380948Y-57797611D01*
X85333329Y-57892849D01*
X85285710Y-58083325D01*
X85285710Y-58321420D01*
X85333329Y-58511896D01*
X85380948Y-58607134D01*
X85428567Y-58654753D01*
X85523805Y-58702372D01*
X85619043Y-58702372D01*
X85714281Y-58654753D01*
X85761900Y-58607134D01*
X85809519Y-58511896D01*
X85857138Y-58321420D01*
X85857138Y-58083325D01*
X85809519Y-57892849D01*
X85761900Y-57797611D01*
X85714281Y-57749992D01*
X85619043Y-57702372D01*
X111214291Y-135154759D02*
X111071434Y-135202378D01*
X110833339Y-135202378D01*
X110738101Y-135154759D01*
X110690482Y-135107140D01*
X110642863Y-135011902D01*
X110642863Y-134916664D01*
X110690482Y-134821426D01*
X110738101Y-134773807D01*
X110833339Y-134726188D01*
X111023815Y-134678569D01*
X111119053Y-134630950D01*
X111166672Y-134583331D01*
X111214291Y-134488093D01*
X111214291Y-134392855D01*
X111166672Y-134297617D01*
X111119053Y-134249998D01*
X111023815Y-134202378D01*
X110785720Y-134202378D01*
X110642863Y-134249998D01*
X109690482Y-135202378D02*
X110261910Y-135202378D01*
X109976196Y-135202378D02*
X109976196Y-134202378D01*
X110071434Y-134345236D01*
X110166672Y-134440474D01*
X110261910Y-134488093D01*
X109309529Y-134297617D02*
X109261910Y-134249998D01*
X109166672Y-134202378D01*
X108928577Y-134202378D01*
X108833339Y-134249998D01*
X108785720Y-134297617D01*
X108738101Y-134392855D01*
X108738101Y-134488093D01*
X108785720Y-134630950D01*
X109357148Y-135202378D01*
X108738101Y-135202378D01*
X108404767Y-134202378D02*
X107785720Y-134202378D01*
X108119053Y-134583331D01*
X107976196Y-134583331D01*
X107880958Y-134630950D01*
X107833339Y-134678569D01*
X107785720Y-134773807D01*
X107785720Y-135011902D01*
X107833339Y-135107140D01*
X107880958Y-135154759D01*
X107976196Y-135202378D01*
X108261910Y-135202378D01*
X108357148Y-135154759D01*
X108404767Y-135107140D01*
X124714289Y-75654749D02*
X124571432Y-75702368D01*
X124333337Y-75702368D01*
X124238099Y-75654749D01*
X124190480Y-75607130D01*
X124142861Y-75511892D01*
X124142861Y-75416654D01*
X124190480Y-75321416D01*
X124238099Y-75273797D01*
X124333337Y-75226178D01*
X124523813Y-75178559D01*
X124619051Y-75130940D01*
X124666670Y-75083321D01*
X124714289Y-74988083D01*
X124714289Y-74892845D01*
X124666670Y-74797607D01*
X124619051Y-74749988D01*
X124523813Y-74702368D01*
X124285718Y-74702368D01*
X124142861Y-74749988D01*
X123190480Y-75702368D02*
X123761908Y-75702368D01*
X123476194Y-75702368D02*
X123476194Y-74702368D01*
X123571432Y-74845226D01*
X123666670Y-74940464D01*
X123761908Y-74988083D01*
X122333337Y-75035702D02*
X122333337Y-75702368D01*
X122571432Y-74654749D02*
X122809527Y-75369035D01*
X122190480Y-75369035D01*
X121619051Y-74702368D02*
X121523813Y-74702368D01*
X121428575Y-74749988D01*
X121380956Y-74797607D01*
X121333337Y-74892845D01*
X121285718Y-75083321D01*
X121285718Y-75321416D01*
X121333337Y-75511892D01*
X121380956Y-75607130D01*
X121428575Y-75654749D01*
X121523813Y-75702368D01*
X121619051Y-75702368D01*
X121714289Y-75654749D01*
X121761908Y-75607130D01*
X121809527Y-75511892D01*
X121857146Y-75321416D01*
X121857146Y-75083321D01*
X121809527Y-74892845D01*
X121761908Y-74797607D01*
X121714289Y-74749988D01*
X121619051Y-74702368D01*
X34714289Y-96904758D02*
X34571432Y-96952377D01*
X34333337Y-96952377D01*
X34238099Y-96904758D01*
X34190480Y-96857139D01*
X34142861Y-96761901D01*
X34142861Y-96666663D01*
X34190480Y-96571425D01*
X34238099Y-96523806D01*
X34333337Y-96476187D01*
X34523813Y-96428568D01*
X34619051Y-96380949D01*
X34666670Y-96333330D01*
X34714289Y-96238092D01*
X34714289Y-96142854D01*
X34666670Y-96047616D01*
X34619051Y-95999997D01*
X34523813Y-95952377D01*
X34285718Y-95952377D01*
X34142861Y-95999997D01*
X33190480Y-96952377D02*
X33761908Y-96952377D01*
X33476194Y-96952377D02*
X33476194Y-95952377D01*
X33571432Y-96095235D01*
X33666670Y-96190473D01*
X33761908Y-96238092D01*
X32238099Y-96952377D02*
X32809527Y-96952377D01*
X32523813Y-96952377D02*
X32523813Y-95952377D01*
X32619051Y-96095235D01*
X32714289Y-96190473D01*
X32809527Y-96238092D01*
X31904765Y-95952377D02*
X31285718Y-95952377D01*
X31619051Y-96333330D01*
X31476194Y-96333330D01*
X31380956Y-96380949D01*
X31333337Y-96428568D01*
X31285718Y-96523806D01*
X31285718Y-96761901D01*
X31333337Y-96857139D01*
X31380956Y-96904758D01*
X31476194Y-96952377D01*
X31761908Y-96952377D01*
X31857146Y-96904758D01*
X31904765Y-96857139D01*
X148062331Y-143736324D02*
X148209859Y-143766513D01*
X148416055Y-143885560D01*
X148474725Y-143974419D01*
X148492154Y-144039468D01*
X148485775Y-144145756D01*
X148438156Y-144228234D01*
X148349297Y-144286903D01*
X148284248Y-144304333D01*
X148177960Y-144297953D01*
X147989193Y-144243955D01*
X147882905Y-144237575D01*
X147817856Y-144255005D01*
X147728998Y-144313674D01*
X147681379Y-144396152D01*
X147674999Y-144502441D01*
X147692429Y-144567489D01*
X147751098Y-144656348D01*
X147957295Y-144775395D01*
X148104822Y-144805585D01*
X149405799Y-144456989D02*
X148910927Y-144171275D01*
X149158363Y-144314132D02*
X148658363Y-145180157D01*
X148647313Y-145008820D01*
X148612453Y-144878723D01*
X148553784Y-144789864D01*
X149814773Y-145462911D02*
X150148106Y-144885560D01*
X149418100Y-145673778D02*
X149569047Y-144936140D01*
X150105157Y-145245664D01*
X150019260Y-145965872D02*
X150555371Y-146275395D01*
X150457172Y-145778814D01*
X150580890Y-145850243D01*
X150687178Y-145856623D01*
X150752227Y-145839193D01*
X150841085Y-145780524D01*
X150960133Y-145574327D01*
X150966513Y-145468039D01*
X150949083Y-145402990D01*
X150890414Y-145314132D01*
X150642978Y-145171275D01*
X150536690Y-145164895D01*
X150471641Y-145182325D01*
X52714285Y-75654761D02*
X52571428Y-75702380D01*
X52333333Y-75702380D01*
X52238095Y-75654761D01*
X52190476Y-75607142D01*
X52142857Y-75511904D01*
X52142857Y-75416666D01*
X52190476Y-75321428D01*
X52238095Y-75273809D01*
X52333333Y-75226190D01*
X52523809Y-75178571D01*
X52619047Y-75130952D01*
X52666666Y-75083333D01*
X52714285Y-74988095D01*
X52714285Y-74892857D01*
X52666666Y-74797619D01*
X52619047Y-74750000D01*
X52523809Y-74702380D01*
X52285714Y-74702380D01*
X52142857Y-74750000D01*
X51190476Y-75702380D02*
X51761904Y-75702380D01*
X51476190Y-75702380D02*
X51476190Y-74702380D01*
X51571428Y-74845238D01*
X51666666Y-74940476D01*
X51761904Y-74988095D01*
X50571428Y-74702380D02*
X50476190Y-74702380D01*
X50380952Y-74750000D01*
X50333333Y-74797619D01*
X50285714Y-74892857D01*
X50238095Y-75083333D01*
X50238095Y-75321428D01*
X50285714Y-75511904D01*
X50333333Y-75607142D01*
X50380952Y-75654761D01*
X50476190Y-75702380D01*
X50571428Y-75702380D01*
X50666666Y-75654761D01*
X50714285Y-75607142D01*
X50761904Y-75511904D01*
X50809523Y-75321428D01*
X50809523Y-75083333D01*
X50761904Y-74892857D01*
X50714285Y-74797619D01*
X50666666Y-74750000D01*
X50571428Y-74702380D01*
X49619047Y-74702380D02*
X49523809Y-74702380D01*
X49428571Y-74750000D01*
X49380952Y-74797619D01*
X49333333Y-74892857D01*
X49285714Y-75083333D01*
X49285714Y-75321428D01*
X49333333Y-75511904D01*
X49380952Y-75607142D01*
X49428571Y-75654761D01*
X49523809Y-75702380D01*
X49619047Y-75702380D01*
X49714285Y-75654761D01*
X49761904Y-75607142D01*
X49809523Y-75511904D01*
X49857142Y-75321428D01*
X49857142Y-75083333D01*
X49809523Y-74892857D01*
X49761904Y-74797619D01*
X49714285Y-74750000D01*
X49619047Y-74702380D01*
X70714295Y-79904749D02*
X70571438Y-79952368D01*
X70333343Y-79952368D01*
X70238105Y-79904749D01*
X70190486Y-79857130D01*
X70142867Y-79761892D01*
X70142867Y-79666654D01*
X70190486Y-79571416D01*
X70238105Y-79523797D01*
X70333343Y-79476178D01*
X70523819Y-79428559D01*
X70619057Y-79380940D01*
X70666676Y-79333321D01*
X70714295Y-79238083D01*
X70714295Y-79142845D01*
X70666676Y-79047607D01*
X70619057Y-78999988D01*
X70523819Y-78952368D01*
X70285724Y-78952368D01*
X70142867Y-78999988D01*
X69190486Y-79952368D02*
X69761914Y-79952368D01*
X69476200Y-79952368D02*
X69476200Y-78952368D01*
X69571438Y-79095226D01*
X69666676Y-79190464D01*
X69761914Y-79238083D01*
X68238105Y-79952368D02*
X68809533Y-79952368D01*
X68523819Y-79952368D02*
X68523819Y-78952368D01*
X68619057Y-79095226D01*
X68714295Y-79190464D01*
X68809533Y-79238083D01*
X67285724Y-79952368D02*
X67857152Y-79952368D01*
X67571438Y-79952368D02*
X67571438Y-78952368D01*
X67666676Y-79095226D01*
X67761914Y-79190464D01*
X67857152Y-79238083D01*
X124714288Y-92654754D02*
X124571431Y-92702373D01*
X124333336Y-92702373D01*
X124238098Y-92654754D01*
X124190479Y-92607135D01*
X124142860Y-92511897D01*
X124142860Y-92416659D01*
X124190479Y-92321421D01*
X124238098Y-92273802D01*
X124333336Y-92226183D01*
X124523812Y-92178564D01*
X124619050Y-92130945D01*
X124666669Y-92083326D01*
X124714288Y-91988088D01*
X124714288Y-91892850D01*
X124666669Y-91797612D01*
X124619050Y-91749993D01*
X124523812Y-91702373D01*
X124285717Y-91702373D01*
X124142860Y-91749993D01*
X123190479Y-92702373D02*
X123761907Y-92702373D01*
X123476193Y-92702373D02*
X123476193Y-91702373D01*
X123571431Y-91845231D01*
X123666669Y-91940469D01*
X123761907Y-91988088D01*
X122333336Y-92035707D02*
X122333336Y-92702373D01*
X122571431Y-91654754D02*
X122809526Y-92369040D01*
X122190479Y-92369040D01*
X121285717Y-92702373D02*
X121857145Y-92702373D01*
X121571431Y-92702373D02*
X121571431Y-91702373D01*
X121666669Y-91845231D01*
X121761907Y-91940469D01*
X121857145Y-91988088D01*
X106714291Y-88404763D02*
X106571434Y-88452382D01*
X106333339Y-88452382D01*
X106238101Y-88404763D01*
X106190482Y-88357144D01*
X106142863Y-88261906D01*
X106142863Y-88166668D01*
X106190482Y-88071430D01*
X106238101Y-88023811D01*
X106333339Y-87976192D01*
X106523815Y-87928573D01*
X106619053Y-87880954D01*
X106666672Y-87833335D01*
X106714291Y-87738097D01*
X106714291Y-87642859D01*
X106666672Y-87547621D01*
X106619053Y-87500002D01*
X106523815Y-87452382D01*
X106285720Y-87452382D01*
X106142863Y-87500002D01*
X105190482Y-88452382D02*
X105761910Y-88452382D01*
X105476196Y-88452382D02*
X105476196Y-87452382D01*
X105571434Y-87595240D01*
X105666672Y-87690478D01*
X105761910Y-87738097D01*
X104857148Y-87452382D02*
X104238101Y-87452382D01*
X104571434Y-87833335D01*
X104428577Y-87833335D01*
X104333339Y-87880954D01*
X104285720Y-87928573D01*
X104238101Y-88023811D01*
X104238101Y-88261906D01*
X104285720Y-88357144D01*
X104333339Y-88404763D01*
X104428577Y-88452382D01*
X104714291Y-88452382D01*
X104809529Y-88404763D01*
X104857148Y-88357144D01*
X103285720Y-88452382D02*
X103857148Y-88452382D01*
X103571434Y-88452382D02*
X103571434Y-87452382D01*
X103666672Y-87595240D01*
X103761910Y-87690478D01*
X103857148Y-87738097D01*
X34714292Y-79904758D02*
X34571435Y-79952377D01*
X34333340Y-79952377D01*
X34238102Y-79904758D01*
X34190483Y-79857139D01*
X34142864Y-79761901D01*
X34142864Y-79666663D01*
X34190483Y-79571425D01*
X34238102Y-79523806D01*
X34333340Y-79476187D01*
X34523816Y-79428568D01*
X34619054Y-79380949D01*
X34666673Y-79333330D01*
X34714292Y-79238092D01*
X34714292Y-79142854D01*
X34666673Y-79047616D01*
X34619054Y-78999997D01*
X34523816Y-78952377D01*
X34285721Y-78952377D01*
X34142864Y-78999997D01*
X33190483Y-79952377D02*
X33761911Y-79952377D01*
X33476197Y-79952377D02*
X33476197Y-78952377D01*
X33571435Y-79095235D01*
X33666673Y-79190473D01*
X33761911Y-79238092D01*
X32571435Y-78952377D02*
X32476197Y-78952377D01*
X32380959Y-78999997D01*
X32333340Y-79047616D01*
X32285721Y-79142854D01*
X32238102Y-79333330D01*
X32238102Y-79571425D01*
X32285721Y-79761901D01*
X32333340Y-79857139D01*
X32380959Y-79904758D01*
X32476197Y-79952377D01*
X32571435Y-79952377D01*
X32666673Y-79904758D01*
X32714292Y-79857139D01*
X32761911Y-79761901D01*
X32809530Y-79571425D01*
X32809530Y-79333330D01*
X32761911Y-79142854D01*
X32714292Y-79047616D01*
X32666673Y-78999997D01*
X32571435Y-78952377D01*
X31904768Y-78952377D02*
X31285721Y-78952377D01*
X31619054Y-79333330D01*
X31476197Y-79333330D01*
X31380959Y-79380949D01*
X31333340Y-79428568D01*
X31285721Y-79523806D01*
X31285721Y-79761901D01*
X31333340Y-79857139D01*
X31380959Y-79904758D01*
X31476197Y-79952377D01*
X31761911Y-79952377D01*
X31857149Y-79904758D01*
X31904768Y-79857139D01*
X70714291Y-62904760D02*
X70571434Y-62952379D01*
X70333339Y-62952379D01*
X70238101Y-62904760D01*
X70190482Y-62857141D01*
X70142863Y-62761903D01*
X70142863Y-62666665D01*
X70190482Y-62571427D01*
X70238101Y-62523808D01*
X70333339Y-62476189D01*
X70523815Y-62428570D01*
X70619053Y-62380951D01*
X70666672Y-62333332D01*
X70714291Y-62238094D01*
X70714291Y-62142856D01*
X70666672Y-62047618D01*
X70619053Y-61999999D01*
X70523815Y-61952379D01*
X70285720Y-61952379D01*
X70142863Y-61999999D01*
X69190482Y-62952379D02*
X69761910Y-62952379D01*
X69476196Y-62952379D02*
X69476196Y-61952379D01*
X69571434Y-62095237D01*
X69666672Y-62190475D01*
X69761910Y-62238094D01*
X68238101Y-62952379D02*
X68809529Y-62952379D01*
X68523815Y-62952379D02*
X68523815Y-61952379D01*
X68619053Y-62095237D01*
X68714291Y-62190475D01*
X68809529Y-62238094D01*
X67619053Y-61952379D02*
X67523815Y-61952379D01*
X67428577Y-61999999D01*
X67380958Y-62047618D01*
X67333339Y-62142856D01*
X67285720Y-62333332D01*
X67285720Y-62571427D01*
X67333339Y-62761903D01*
X67380958Y-62857141D01*
X67428577Y-62904760D01*
X67523815Y-62952379D01*
X67619053Y-62952379D01*
X67714291Y-62904760D01*
X67761910Y-62857141D01*
X67809529Y-62761903D01*
X67857148Y-62571427D01*
X67857148Y-62333332D01*
X67809529Y-62142856D01*
X67761910Y-62047618D01*
X67714291Y-61999999D01*
X67619053Y-61952379D01*
X154880952Y-122678571D02*
X155642857Y-122678571D01*
X155261904Y-122297619D02*
X155261904Y-123059523D01*
X156119047Y-122678571D02*
X156880952Y-122678571D01*
X157357142Y-122678571D02*
X158119047Y-122678571D01*
X157738095Y-122297619D02*
X157738095Y-123059523D01*
D12*
X152480952Y-63114285D02*
X152500000Y-63095238D01*
X152519047Y-63057142D01*
X152519047Y-62961904D01*
X152500000Y-62923809D01*
X152480952Y-62904761D01*
X152442857Y-62885714D01*
X152404761Y-62885714D01*
X152347619Y-62904761D01*
X152119047Y-63133333D01*
X152119047Y-62885714D01*
X145547619Y-55961904D02*
X145490476Y-55980952D01*
X145395238Y-55980952D01*
X145357142Y-55961904D01*
X145338095Y-55942857D01*
X145319047Y-55904761D01*
X145319047Y-55866666D01*
X145338095Y-55828571D01*
X145357142Y-55809523D01*
X145395238Y-55790476D01*
X145471428Y-55771428D01*
X145509523Y-55752380D01*
X145528571Y-55733333D01*
X145547619Y-55695238D01*
X145547619Y-55657142D01*
X145528571Y-55619047D01*
X145509523Y-55600000D01*
X145471428Y-55580952D01*
X145376190Y-55580952D01*
X145319047Y-55600000D01*
X145185714Y-55580952D02*
X145090476Y-55980952D01*
X145014285Y-55695238D01*
X144938095Y-55980952D01*
X144842857Y-55580952D01*
X144690476Y-55980952D02*
X144690476Y-55580952D01*
X144595238Y-55580952D01*
X144538095Y-55600000D01*
X144500000Y-55638095D01*
X144480952Y-55676190D01*
X144461904Y-55752380D01*
X144461904Y-55809523D01*
X144480952Y-55885714D01*
X144500000Y-55923809D01*
X144538095Y-55961904D01*
X144595238Y-55980952D01*
X144690476Y-55980952D01*
X144290476Y-55980952D02*
X144290476Y-55580952D01*
X144023809Y-55580952D02*
X143947619Y-55580952D01*
X143909523Y-55600000D01*
X143871428Y-55638095D01*
X143852380Y-55714285D01*
X143852380Y-55847619D01*
X143871428Y-55923809D01*
X143909523Y-55961904D01*
X143947619Y-55980952D01*
X144023809Y-55980952D01*
X144061904Y-55961904D01*
X144100000Y-55923809D01*
X144119047Y-55847619D01*
X144119047Y-55714285D01*
X144100000Y-55638095D01*
X144061904Y-55600000D01*
X144023809Y-55580952D01*
X138671428Y-72080952D02*
X138671428Y-71680952D01*
X138519047Y-71680952D01*
X138480952Y-71700000D01*
X138461904Y-71719047D01*
X138442857Y-71757142D01*
X138442857Y-71814285D01*
X138461904Y-71852380D01*
X138480952Y-71871428D01*
X138519047Y-71890476D01*
X138671428Y-71890476D01*
X138061904Y-72080952D02*
X138290476Y-72080952D01*
X138176190Y-72080952D02*
X138176190Y-71680952D01*
X138214285Y-71738095D01*
X138252380Y-71776190D01*
X138290476Y-71795238D01*
X137890476Y-72042857D02*
X137871428Y-72061904D01*
X137890476Y-72080952D01*
X137909523Y-72061904D01*
X137890476Y-72042857D01*
X137890476Y-72080952D01*
X137490476Y-72080952D02*
X137719047Y-72080952D01*
X137604761Y-72080952D02*
X137604761Y-71680952D01*
X137642857Y-71738095D01*
X137680952Y-71776190D01*
X137719047Y-71795238D01*
X137357142Y-71680952D02*
X137109523Y-71680952D01*
X137242857Y-71833333D01*
X137185714Y-71833333D01*
X137147619Y-71852380D01*
X137128571Y-71871428D01*
X137109523Y-71909523D01*
X137109523Y-72004761D01*
X137128571Y-72042857D01*
X137147619Y-72061904D01*
X137185714Y-72080952D01*
X137300000Y-72080952D01*
X137338095Y-72061904D01*
X137357142Y-72042857D01*
X152119047Y-60285714D02*
X152119047Y-60514285D01*
X152119047Y-60400000D02*
X152519047Y-60400000D01*
X152461904Y-60438095D01*
X152423809Y-60476190D01*
X152404761Y-60514285D01*
X138671428Y-69480952D02*
X138671428Y-69080952D01*
X138519047Y-69080952D01*
X138480952Y-69100000D01*
X138461904Y-69119047D01*
X138442857Y-69157142D01*
X138442857Y-69214285D01*
X138461904Y-69252380D01*
X138480952Y-69271428D01*
X138519047Y-69290476D01*
X138671428Y-69290476D01*
X138061904Y-69480952D02*
X138290476Y-69480952D01*
X138176190Y-69480952D02*
X138176190Y-69080952D01*
X138214285Y-69138095D01*
X138252380Y-69176190D01*
X138290476Y-69195238D01*
X137890476Y-69442857D02*
X137871428Y-69461904D01*
X137890476Y-69480952D01*
X137909523Y-69461904D01*
X137890476Y-69442857D01*
X137890476Y-69480952D01*
X137490476Y-69480952D02*
X137719047Y-69480952D01*
X137604761Y-69480952D02*
X137604761Y-69080952D01*
X137642857Y-69138095D01*
X137680952Y-69176190D01*
X137719047Y-69195238D01*
X137147619Y-69214285D02*
X137147619Y-69480952D01*
X137242857Y-69061904D02*
X137338095Y-69347619D01*
X137090476Y-69347619D01*
X152519047Y-73023809D02*
X152519047Y-73100000D01*
X152500000Y-73138095D01*
X152480952Y-73157142D01*
X152423809Y-73195238D01*
X152347619Y-73214285D01*
X152195238Y-73214285D01*
X152157142Y-73195238D01*
X152138095Y-73176190D01*
X152119047Y-73138095D01*
X152119047Y-73061904D01*
X152138095Y-73023809D01*
X152157142Y-73004761D01*
X152195238Y-72985714D01*
X152290476Y-72985714D01*
X152328571Y-73004761D01*
X152347619Y-73023809D01*
X152366666Y-73061904D01*
X152366666Y-73138095D01*
X152347619Y-73176190D01*
X152328571Y-73195238D01*
X152290476Y-73214285D01*
X138204761Y-61500000D02*
X138242857Y-61480952D01*
X138300000Y-61480952D01*
X138357142Y-61500000D01*
X138395238Y-61538095D01*
X138414285Y-61576190D01*
X138433333Y-61652380D01*
X138433333Y-61709523D01*
X138414285Y-61785714D01*
X138395238Y-61823809D01*
X138357142Y-61861904D01*
X138300000Y-61880952D01*
X138261904Y-61880952D01*
X138204761Y-61861904D01*
X138185714Y-61842857D01*
X138185714Y-61709523D01*
X138261904Y-61709523D01*
X138014285Y-61880952D02*
X138014285Y-61480952D01*
X137785714Y-61880952D01*
X137785714Y-61480952D01*
X137595238Y-61880952D02*
X137595238Y-61480952D01*
X137500000Y-61480952D01*
X137442857Y-61500000D01*
X137404761Y-61538095D01*
X137385714Y-61576190D01*
X137366666Y-61652380D01*
X137366666Y-61709523D01*
X137385714Y-61785714D01*
X137404761Y-61823809D01*
X137442857Y-61861904D01*
X137500000Y-61880952D01*
X137595238Y-61880952D01*
X154871428Y-69480952D02*
X154871428Y-69080952D01*
X154719047Y-69080952D01*
X154680952Y-69100000D01*
X154661904Y-69119047D01*
X154642857Y-69157142D01*
X154642857Y-69214285D01*
X154661904Y-69252380D01*
X154680952Y-69271428D01*
X154719047Y-69290476D01*
X154871428Y-69290476D01*
X154395238Y-69080952D02*
X154357142Y-69080952D01*
X154319047Y-69100000D01*
X154300000Y-69119047D01*
X154280952Y-69157142D01*
X154261904Y-69233333D01*
X154261904Y-69328571D01*
X154280952Y-69404761D01*
X154300000Y-69442857D01*
X154319047Y-69461904D01*
X154357142Y-69480952D01*
X154395238Y-69480952D01*
X154433333Y-69461904D01*
X154452380Y-69442857D01*
X154471428Y-69404761D01*
X154490476Y-69328571D01*
X154490476Y-69233333D01*
X154471428Y-69157142D01*
X154452380Y-69119047D01*
X154433333Y-69100000D01*
X154395238Y-69080952D01*
X154090476Y-69442857D02*
X154071428Y-69461904D01*
X154090476Y-69480952D01*
X154109523Y-69461904D01*
X154090476Y-69442857D01*
X154090476Y-69480952D01*
X153823809Y-69080952D02*
X153785714Y-69080952D01*
X153747619Y-69100000D01*
X153728571Y-69119047D01*
X153709523Y-69157142D01*
X153690476Y-69233333D01*
X153690476Y-69328571D01*
X153709523Y-69404761D01*
X153728571Y-69442857D01*
X153747619Y-69461904D01*
X153785714Y-69480952D01*
X153823809Y-69480952D01*
X153861904Y-69461904D01*
X153880952Y-69442857D01*
X153900000Y-69404761D01*
X153919047Y-69328571D01*
X153919047Y-69233333D01*
X153900000Y-69157142D01*
X153880952Y-69119047D01*
X153861904Y-69100000D01*
X153823809Y-69080952D01*
X153347619Y-69214285D02*
X153347619Y-69480952D01*
X153442857Y-69061904D02*
X153538095Y-69347619D01*
X153290476Y-69347619D01*
X147880952Y-60880952D02*
X148014285Y-60690476D01*
X148109523Y-60880952D02*
X148109523Y-60480952D01*
X147957142Y-60480952D01*
X147919047Y-60500000D01*
X147900000Y-60519047D01*
X147880952Y-60557142D01*
X147880952Y-60614285D01*
X147900000Y-60652380D01*
X147919047Y-60671428D01*
X147957142Y-60690476D01*
X148109523Y-60690476D01*
X147709523Y-60671428D02*
X147576190Y-60671428D01*
X147519047Y-60880952D02*
X147709523Y-60880952D01*
X147709523Y-60480952D01*
X147519047Y-60480952D01*
X147366666Y-60861904D02*
X147309523Y-60880952D01*
X147214285Y-60880952D01*
X147176190Y-60861904D01*
X147157142Y-60842857D01*
X147138095Y-60804761D01*
X147138095Y-60766666D01*
X147157142Y-60728571D01*
X147176190Y-60709523D01*
X147214285Y-60690476D01*
X147290476Y-60671428D01*
X147328571Y-60652380D01*
X147347619Y-60633333D01*
X147366666Y-60595238D01*
X147366666Y-60557142D01*
X147347619Y-60519047D01*
X147328571Y-60500000D01*
X147290476Y-60480952D01*
X147195238Y-60480952D01*
X147138095Y-60500000D01*
X146966666Y-60671428D02*
X146833333Y-60671428D01*
X146776190Y-60880952D02*
X146966666Y-60880952D01*
X146966666Y-60480952D01*
X146776190Y-60480952D01*
X146661904Y-60480952D02*
X146433333Y-60480952D01*
X146547619Y-60880952D02*
X146547619Y-60480952D01*
X139580952Y-72966666D02*
X139580952Y-73233333D01*
X139980952Y-73061904D01*
X152519047Y-57919047D02*
X152519047Y-57880952D01*
X152500000Y-57842857D01*
X152480952Y-57823809D01*
X152442857Y-57804761D01*
X152366666Y-57785714D01*
X152271428Y-57785714D01*
X152195238Y-57804761D01*
X152157142Y-57823809D01*
X152138095Y-57842857D01*
X152119047Y-57880952D01*
X152119047Y-57919047D01*
X152138095Y-57957142D01*
X152157142Y-57976190D01*
X152195238Y-57995238D01*
X152271428Y-58014285D01*
X152366666Y-58014285D01*
X152442857Y-57995238D01*
X152480952Y-57976190D01*
X152500000Y-57957142D01*
X152519047Y-57919047D01*
X154871428Y-66980952D02*
X154871428Y-66580952D01*
X154719047Y-66580952D01*
X154680952Y-66600000D01*
X154661904Y-66619047D01*
X154642857Y-66657142D01*
X154642857Y-66714285D01*
X154661904Y-66752380D01*
X154680952Y-66771428D01*
X154719047Y-66790476D01*
X154871428Y-66790476D01*
X154395238Y-66580952D02*
X154357142Y-66580952D01*
X154319047Y-66600000D01*
X154300000Y-66619047D01*
X154280952Y-66657142D01*
X154261904Y-66733333D01*
X154261904Y-66828571D01*
X154280952Y-66904761D01*
X154300000Y-66942857D01*
X154319047Y-66961904D01*
X154357142Y-66980952D01*
X154395238Y-66980952D01*
X154433333Y-66961904D01*
X154452380Y-66942857D01*
X154471428Y-66904761D01*
X154490476Y-66828571D01*
X154490476Y-66733333D01*
X154471428Y-66657142D01*
X154452380Y-66619047D01*
X154433333Y-66600000D01*
X154395238Y-66580952D01*
X154090476Y-66942857D02*
X154071428Y-66961904D01*
X154090476Y-66980952D01*
X154109523Y-66961904D01*
X154090476Y-66942857D01*
X154090476Y-66980952D01*
X153919047Y-66619047D02*
X153900000Y-66600000D01*
X153861904Y-66580952D01*
X153766666Y-66580952D01*
X153728571Y-66600000D01*
X153709523Y-66619047D01*
X153690476Y-66657142D01*
X153690476Y-66695238D01*
X153709523Y-66752380D01*
X153938095Y-66980952D01*
X153690476Y-66980952D01*
X153500000Y-66980952D02*
X153423809Y-66980952D01*
X153385714Y-66961904D01*
X153366666Y-66942857D01*
X153328571Y-66885714D01*
X153309523Y-66809523D01*
X153309523Y-66657142D01*
X153328571Y-66619047D01*
X153347619Y-66600000D01*
X153385714Y-66580952D01*
X153461904Y-66580952D01*
X153500000Y-66600000D01*
X153519047Y-66619047D01*
X153538095Y-66657142D01*
X153538095Y-66752380D01*
X153519047Y-66790476D01*
X153500000Y-66809523D01*
X153461904Y-66828571D01*
X153385714Y-66828571D01*
X153347619Y-66809523D01*
X153328571Y-66790476D01*
X153309523Y-66752380D01*
X138671428Y-74680952D02*
X138671428Y-74280952D01*
X138519047Y-74280952D01*
X138480952Y-74300000D01*
X138461904Y-74319047D01*
X138442857Y-74357142D01*
X138442857Y-74414285D01*
X138461904Y-74452380D01*
X138480952Y-74471428D01*
X138519047Y-74490476D01*
X138671428Y-74490476D01*
X138061904Y-74680952D02*
X138290476Y-74680952D01*
X138176190Y-74680952D02*
X138176190Y-74280952D01*
X138214285Y-74338095D01*
X138252380Y-74376190D01*
X138290476Y-74395238D01*
X137890476Y-74642857D02*
X137871428Y-74661904D01*
X137890476Y-74680952D01*
X137909523Y-74661904D01*
X137890476Y-74642857D01*
X137890476Y-74680952D01*
X137490476Y-74680952D02*
X137719047Y-74680952D01*
X137604761Y-74680952D02*
X137604761Y-74280952D01*
X137642857Y-74338095D01*
X137680952Y-74376190D01*
X137719047Y-74395238D01*
X137338095Y-74319047D02*
X137319047Y-74300000D01*
X137280952Y-74280952D01*
X137185714Y-74280952D01*
X137147619Y-74300000D01*
X137128571Y-74319047D01*
X137109523Y-74357142D01*
X137109523Y-74395238D01*
X137128571Y-74452380D01*
X137357142Y-74680952D01*
X137109523Y-74680952D01*
X152519047Y-65633333D02*
X152519047Y-65385714D01*
X152366666Y-65519047D01*
X152366666Y-65461904D01*
X152347619Y-65423809D01*
X152328571Y-65404761D01*
X152290476Y-65385714D01*
X152195238Y-65385714D01*
X152157142Y-65404761D01*
X152138095Y-65423809D01*
X152119047Y-65461904D01*
X152119047Y-65576190D01*
X152138095Y-65614285D01*
X152157142Y-65633333D01*
D11*
X143847619Y-63128571D02*
X143704761Y-63176190D01*
X143657142Y-63223809D01*
X143609523Y-63319047D01*
X143609523Y-63461904D01*
X143657142Y-63557142D01*
X143704761Y-63604761D01*
X143800000Y-63652380D01*
X144180952Y-63652380D01*
X144180952Y-62652380D01*
X143847619Y-62652380D01*
X143752380Y-62700000D01*
X143704761Y-62747619D01*
X143657142Y-62842857D01*
X143657142Y-62938095D01*
X143704761Y-63033333D01*
X143752380Y-63080952D01*
X143847619Y-63128571D01*
X144180952Y-63128571D01*
X143180952Y-63271428D02*
X142419047Y-63271428D01*
D12*
X138395238Y-64080952D02*
X138147619Y-64080952D01*
X138280952Y-64233333D01*
X138223809Y-64233333D01*
X138185714Y-64252380D01*
X138166666Y-64271428D01*
X138147619Y-64309523D01*
X138147619Y-64404761D01*
X138166666Y-64442857D01*
X138185714Y-64461904D01*
X138223809Y-64480952D01*
X138338095Y-64480952D01*
X138376190Y-64461904D01*
X138395238Y-64442857D01*
X138033333Y-64080952D02*
X137900000Y-64480952D01*
X137766666Y-64080952D01*
X137671428Y-64080952D02*
X137423809Y-64080952D01*
X137557142Y-64233333D01*
X137500000Y-64233333D01*
X137461904Y-64252380D01*
X137442857Y-64271428D01*
X137423809Y-64309523D01*
X137423809Y-64404761D01*
X137442857Y-64442857D01*
X137461904Y-64461904D01*
X137500000Y-64480952D01*
X137614285Y-64480952D01*
X137652380Y-64461904D01*
X137671428Y-64442857D01*
X139752380Y-70561904D02*
X139733333Y-70523809D01*
X139714285Y-70504761D01*
X139676190Y-70485714D01*
X139657142Y-70485714D01*
X139619047Y-70504761D01*
X139600000Y-70523809D01*
X139580952Y-70561904D01*
X139580952Y-70638095D01*
X139600000Y-70676190D01*
X139619047Y-70695238D01*
X139657142Y-70714285D01*
X139676190Y-70714285D01*
X139714285Y-70695238D01*
X139733333Y-70676190D01*
X139752380Y-70638095D01*
X139752380Y-70561904D01*
X139771428Y-70523809D01*
X139790476Y-70504761D01*
X139828571Y-70485714D01*
X139904761Y-70485714D01*
X139942857Y-70504761D01*
X139961904Y-70523809D01*
X139980952Y-70561904D01*
X139980952Y-70638095D01*
X139961904Y-70676190D01*
X139942857Y-70695238D01*
X139904761Y-70714285D01*
X139828571Y-70714285D01*
X139790476Y-70695238D01*
X139771428Y-70676190D01*
X139752380Y-70638095D01*
X139980952Y-65423809D02*
X139980952Y-65195238D01*
X139980952Y-65309523D02*
X139580952Y-65309523D01*
X139638095Y-65271428D01*
X139676190Y-65233333D01*
X139695238Y-65195238D01*
X139580952Y-65671428D02*
X139580952Y-65709523D01*
X139600000Y-65747619D01*
X139619047Y-65766666D01*
X139657142Y-65785714D01*
X139733333Y-65804761D01*
X139828571Y-65804761D01*
X139904761Y-65785714D01*
X139942857Y-65766666D01*
X139961904Y-65747619D01*
X139980952Y-65709523D01*
X139980952Y-65671428D01*
X139961904Y-65633333D01*
X139942857Y-65614285D01*
X139904761Y-65595238D01*
X139828571Y-65576190D01*
X139733333Y-65576190D01*
X139657142Y-65595238D01*
X139619047Y-65614285D01*
X139600000Y-65633333D01*
X139580952Y-65671428D01*
X148204761Y-55961904D02*
X148147619Y-55980952D01*
X148052380Y-55980952D01*
X148014285Y-55961904D01*
X147995238Y-55942857D01*
X147976190Y-55904761D01*
X147976190Y-55866666D01*
X147995238Y-55828571D01*
X148014285Y-55809523D01*
X148052380Y-55790476D01*
X148128571Y-55771428D01*
X148166666Y-55752380D01*
X148185714Y-55733333D01*
X148204761Y-55695238D01*
X148204761Y-55657142D01*
X148185714Y-55619047D01*
X148166666Y-55600000D01*
X148128571Y-55580952D01*
X148033333Y-55580952D01*
X147976190Y-55600000D01*
X147842857Y-55580952D02*
X147747619Y-55980952D01*
X147671428Y-55695238D01*
X147595238Y-55980952D01*
X147500000Y-55580952D01*
X147119047Y-55942857D02*
X147138095Y-55961904D01*
X147195238Y-55980952D01*
X147233333Y-55980952D01*
X147290476Y-55961904D01*
X147328571Y-55923809D01*
X147347619Y-55885714D01*
X147366666Y-55809523D01*
X147366666Y-55752380D01*
X147347619Y-55676190D01*
X147328571Y-55638095D01*
X147290476Y-55600000D01*
X147233333Y-55580952D01*
X147195238Y-55580952D01*
X147138095Y-55600000D01*
X147119047Y-55619047D01*
X146757142Y-55980952D02*
X146947619Y-55980952D01*
X146947619Y-55580952D01*
X146623809Y-55980952D02*
X146623809Y-55580952D01*
X146395238Y-55980952D02*
X146566666Y-55752380D01*
X146395238Y-55580952D02*
X146623809Y-55809523D01*
X154871428Y-59380952D02*
X154871428Y-58980952D01*
X154719047Y-58980952D01*
X154680952Y-59000000D01*
X154661904Y-59019047D01*
X154642857Y-59057142D01*
X154642857Y-59114285D01*
X154661904Y-59152380D01*
X154680952Y-59171428D01*
X154719047Y-59190476D01*
X154871428Y-59190476D01*
X154395238Y-58980952D02*
X154357142Y-58980952D01*
X154319047Y-59000000D01*
X154300000Y-59019047D01*
X154280952Y-59057142D01*
X154261904Y-59133333D01*
X154261904Y-59228571D01*
X154280952Y-59304761D01*
X154300000Y-59342857D01*
X154319047Y-59361904D01*
X154357142Y-59380952D01*
X154395238Y-59380952D01*
X154433333Y-59361904D01*
X154452380Y-59342857D01*
X154471428Y-59304761D01*
X154490476Y-59228571D01*
X154490476Y-59133333D01*
X154471428Y-59057142D01*
X154452380Y-59019047D01*
X154433333Y-59000000D01*
X154395238Y-58980952D01*
X154090476Y-59342857D02*
X154071428Y-59361904D01*
X154090476Y-59380952D01*
X154109523Y-59361904D01*
X154090476Y-59342857D01*
X154090476Y-59380952D01*
X153823809Y-58980952D02*
X153785714Y-58980952D01*
X153747619Y-59000000D01*
X153728571Y-59019047D01*
X153709523Y-59057142D01*
X153690476Y-59133333D01*
X153690476Y-59228571D01*
X153709523Y-59304761D01*
X153728571Y-59342857D01*
X153747619Y-59361904D01*
X153785714Y-59380952D01*
X153823809Y-59380952D01*
X153861904Y-59361904D01*
X153880952Y-59342857D01*
X153900000Y-59304761D01*
X153919047Y-59228571D01*
X153919047Y-59133333D01*
X153900000Y-59057142D01*
X153880952Y-59019047D01*
X153861904Y-59000000D01*
X153823809Y-58980952D01*
X153538095Y-59019047D02*
X153519047Y-59000000D01*
X153480952Y-58980952D01*
X153385714Y-58980952D01*
X153347619Y-59000000D01*
X153328571Y-59019047D01*
X153309523Y-59057142D01*
X153309523Y-59095238D01*
X153328571Y-59152380D01*
X153557142Y-59380952D01*
X153309523Y-59380952D01*
X150571428Y-75980952D02*
X150571428Y-75580952D01*
X150419047Y-75580952D01*
X150380952Y-75600000D01*
X150361904Y-75619047D01*
X150342857Y-75657142D01*
X150342857Y-75714285D01*
X150361904Y-75752380D01*
X150380952Y-75771428D01*
X150419047Y-75790476D01*
X150571428Y-75790476D01*
X150095238Y-75580952D02*
X150057142Y-75580952D01*
X150019047Y-75600000D01*
X150000000Y-75619047D01*
X149980952Y-75657142D01*
X149961904Y-75733333D01*
X149961904Y-75828571D01*
X149980952Y-75904761D01*
X150000000Y-75942857D01*
X150019047Y-75961904D01*
X150057142Y-75980952D01*
X150095238Y-75980952D01*
X150133333Y-75961904D01*
X150152380Y-75942857D01*
X150171428Y-75904761D01*
X150190476Y-75828571D01*
X150190476Y-75733333D01*
X150171428Y-75657142D01*
X150152380Y-75619047D01*
X150133333Y-75600000D01*
X150095238Y-75580952D01*
X149790476Y-75942857D02*
X149771428Y-75961904D01*
X149790476Y-75980952D01*
X149809523Y-75961904D01*
X149790476Y-75942857D01*
X149790476Y-75980952D01*
X149390476Y-75980952D02*
X149619047Y-75980952D01*
X149504761Y-75980952D02*
X149504761Y-75580952D01*
X149542857Y-75638095D01*
X149580952Y-75676190D01*
X149619047Y-75695238D01*
X149142857Y-75580952D02*
X149104761Y-75580952D01*
X149066666Y-75600000D01*
X149047619Y-75619047D01*
X149028571Y-75657142D01*
X149009523Y-75733333D01*
X149009523Y-75828571D01*
X149028571Y-75904761D01*
X149047619Y-75942857D01*
X149066666Y-75961904D01*
X149104761Y-75980952D01*
X149142857Y-75980952D01*
X149180952Y-75961904D01*
X149200000Y-75942857D01*
X149219047Y-75904761D01*
X149238095Y-75828571D01*
X149238095Y-75733333D01*
X149219047Y-75657142D01*
X149200000Y-75619047D01*
X149180952Y-75600000D01*
X149142857Y-75580952D01*
X154871428Y-72080952D02*
X154871428Y-71680952D01*
X154719047Y-71680952D01*
X154680952Y-71700000D01*
X154661904Y-71719047D01*
X154642857Y-71757142D01*
X154642857Y-71814285D01*
X154661904Y-71852380D01*
X154680952Y-71871428D01*
X154719047Y-71890476D01*
X154871428Y-71890476D01*
X154395238Y-71680952D02*
X154357142Y-71680952D01*
X154319047Y-71700000D01*
X154300000Y-71719047D01*
X154280952Y-71757142D01*
X154261904Y-71833333D01*
X154261904Y-71928571D01*
X154280952Y-72004761D01*
X154300000Y-72042857D01*
X154319047Y-72061904D01*
X154357142Y-72080952D01*
X154395238Y-72080952D01*
X154433333Y-72061904D01*
X154452380Y-72042857D01*
X154471428Y-72004761D01*
X154490476Y-71928571D01*
X154490476Y-71833333D01*
X154471428Y-71757142D01*
X154452380Y-71719047D01*
X154433333Y-71700000D01*
X154395238Y-71680952D01*
X154090476Y-72042857D02*
X154071428Y-72061904D01*
X154090476Y-72080952D01*
X154109523Y-72061904D01*
X154090476Y-72042857D01*
X154090476Y-72080952D01*
X153823809Y-71680952D02*
X153785714Y-71680952D01*
X153747619Y-71700000D01*
X153728571Y-71719047D01*
X153709523Y-71757142D01*
X153690476Y-71833333D01*
X153690476Y-71928571D01*
X153709523Y-72004761D01*
X153728571Y-72042857D01*
X153747619Y-72061904D01*
X153785714Y-72080952D01*
X153823809Y-72080952D01*
X153861904Y-72061904D01*
X153880952Y-72042857D01*
X153900000Y-72004761D01*
X153919047Y-71928571D01*
X153919047Y-71833333D01*
X153900000Y-71757142D01*
X153880952Y-71719047D01*
X153861904Y-71700000D01*
X153823809Y-71680952D01*
X153328571Y-71680952D02*
X153519047Y-71680952D01*
X153538095Y-71871428D01*
X153519047Y-71852380D01*
X153480952Y-71833333D01*
X153385714Y-71833333D01*
X153347619Y-71852380D01*
X153328571Y-71871428D01*
X153309523Y-71909523D01*
X153309523Y-72004761D01*
X153328571Y-72042857D01*
X153347619Y-72061904D01*
X153385714Y-72080952D01*
X153480952Y-72080952D01*
X153519047Y-72061904D01*
X153538095Y-72042857D01*
X152471428Y-75980952D02*
X152471428Y-75580952D01*
X152319047Y-75580952D01*
X152280952Y-75600000D01*
X152261904Y-75619047D01*
X152242857Y-75657142D01*
X152242857Y-75714285D01*
X152261904Y-75752380D01*
X152280952Y-75771428D01*
X152319047Y-75790476D01*
X152471428Y-75790476D01*
X151995238Y-75580952D02*
X151957142Y-75580952D01*
X151919047Y-75600000D01*
X151900000Y-75619047D01*
X151880952Y-75657142D01*
X151861904Y-75733333D01*
X151861904Y-75828571D01*
X151880952Y-75904761D01*
X151900000Y-75942857D01*
X151919047Y-75961904D01*
X151957142Y-75980952D01*
X151995238Y-75980952D01*
X152033333Y-75961904D01*
X152052380Y-75942857D01*
X152071428Y-75904761D01*
X152090476Y-75828571D01*
X152090476Y-75733333D01*
X152071428Y-75657142D01*
X152052380Y-75619047D01*
X152033333Y-75600000D01*
X151995238Y-75580952D01*
X151690476Y-75942857D02*
X151671428Y-75961904D01*
X151690476Y-75980952D01*
X151709523Y-75961904D01*
X151690476Y-75942857D01*
X151690476Y-75980952D01*
X151423809Y-75580952D02*
X151385714Y-75580952D01*
X151347619Y-75600000D01*
X151328571Y-75619047D01*
X151309523Y-75657142D01*
X151290476Y-75733333D01*
X151290476Y-75828571D01*
X151309523Y-75904761D01*
X151328571Y-75942857D01*
X151347619Y-75961904D01*
X151385714Y-75980952D01*
X151423809Y-75980952D01*
X151461904Y-75961904D01*
X151480952Y-75942857D01*
X151500000Y-75904761D01*
X151519047Y-75828571D01*
X151519047Y-75733333D01*
X151500000Y-75657142D01*
X151480952Y-75619047D01*
X151461904Y-75600000D01*
X151423809Y-75580952D01*
X151100000Y-75980952D02*
X151023809Y-75980952D01*
X150985714Y-75961904D01*
X150966666Y-75942857D01*
X150928571Y-75885714D01*
X150909523Y-75809523D01*
X150909523Y-75657142D01*
X150928571Y-75619047D01*
X150947619Y-75600000D01*
X150985714Y-75580952D01*
X151061904Y-75580952D01*
X151100000Y-75600000D01*
X151119047Y-75619047D01*
X151138095Y-75657142D01*
X151138095Y-75752380D01*
X151119047Y-75790476D01*
X151100000Y-75809523D01*
X151061904Y-75828571D01*
X150985714Y-75828571D01*
X150947619Y-75809523D01*
X150928571Y-75790476D01*
X150909523Y-75752380D01*
X138671428Y-66980952D02*
X138671428Y-66580952D01*
X138519047Y-66580952D01*
X138480952Y-66600000D01*
X138461904Y-66619047D01*
X138442857Y-66657142D01*
X138442857Y-66714285D01*
X138461904Y-66752380D01*
X138480952Y-66771428D01*
X138519047Y-66790476D01*
X138671428Y-66790476D01*
X138061904Y-66980952D02*
X138290476Y-66980952D01*
X138176190Y-66980952D02*
X138176190Y-66580952D01*
X138214285Y-66638095D01*
X138252380Y-66676190D01*
X138290476Y-66695238D01*
X137890476Y-66942857D02*
X137871428Y-66961904D01*
X137890476Y-66980952D01*
X137909523Y-66961904D01*
X137890476Y-66942857D01*
X137890476Y-66980952D01*
X137490476Y-66980952D02*
X137719047Y-66980952D01*
X137604761Y-66980952D02*
X137604761Y-66580952D01*
X137642857Y-66638095D01*
X137680952Y-66676190D01*
X137719047Y-66695238D01*
X137128571Y-66580952D02*
X137319047Y-66580952D01*
X137338095Y-66771428D01*
X137319047Y-66752380D01*
X137280952Y-66733333D01*
X137185714Y-66733333D01*
X137147619Y-66752380D01*
X137128571Y-66771428D01*
X137109523Y-66809523D01*
X137109523Y-66904761D01*
X137128571Y-66942857D01*
X137147619Y-66961904D01*
X137185714Y-66980952D01*
X137280952Y-66980952D01*
X137319047Y-66961904D01*
X137338095Y-66942857D01*
X145104761Y-60500000D02*
X145142857Y-60480952D01*
X145200000Y-60480952D01*
X145257142Y-60500000D01*
X145295238Y-60538095D01*
X145314285Y-60576190D01*
X145333333Y-60652380D01*
X145333333Y-60709523D01*
X145314285Y-60785714D01*
X145295238Y-60823809D01*
X145257142Y-60861904D01*
X145200000Y-60880952D01*
X145161904Y-60880952D01*
X145104761Y-60861904D01*
X145085714Y-60842857D01*
X145085714Y-60709523D01*
X145161904Y-60709523D01*
X144914285Y-60880952D02*
X144914285Y-60480952D01*
X144685714Y-60880952D01*
X144685714Y-60480952D01*
X144495238Y-60880952D02*
X144495238Y-60480952D01*
X144400000Y-60480952D01*
X144342857Y-60500000D01*
X144304761Y-60538095D01*
X144285714Y-60576190D01*
X144266666Y-60652380D01*
X144266666Y-60709523D01*
X144285714Y-60785714D01*
X144304761Y-60823809D01*
X144342857Y-60861904D01*
X144400000Y-60880952D01*
X144495238Y-60880952D01*
X137976190Y-58980952D02*
X138166666Y-58980952D01*
X138185714Y-59171428D01*
X138166666Y-59152380D01*
X138128571Y-59133333D01*
X138033333Y-59133333D01*
X137995238Y-59152380D01*
X137976190Y-59171428D01*
X137957142Y-59209523D01*
X137957142Y-59304761D01*
X137976190Y-59342857D01*
X137995238Y-59361904D01*
X138033333Y-59380952D01*
X138128571Y-59380952D01*
X138166666Y-59361904D01*
X138185714Y-59342857D01*
X137842857Y-58980952D02*
X137709523Y-59380952D01*
X137576190Y-58980952D01*
X152519047Y-70504761D02*
X152519047Y-70695238D01*
X152328571Y-70714285D01*
X152347619Y-70695238D01*
X152366666Y-70657142D01*
X152366666Y-70561904D01*
X152347619Y-70523809D01*
X152328571Y-70504761D01*
X152290476Y-70485714D01*
X152195238Y-70485714D01*
X152157142Y-70504761D01*
X152138095Y-70523809D01*
X152119047Y-70561904D01*
X152119047Y-70657142D01*
X152138095Y-70695238D01*
X152157142Y-70714285D01*
X154871428Y-61880952D02*
X154871428Y-61480952D01*
X154719047Y-61480952D01*
X154680952Y-61500000D01*
X154661904Y-61519047D01*
X154642857Y-61557142D01*
X154642857Y-61614285D01*
X154661904Y-61652380D01*
X154680952Y-61671428D01*
X154719047Y-61690476D01*
X154871428Y-61690476D01*
X154395238Y-61480952D02*
X154357142Y-61480952D01*
X154319047Y-61500000D01*
X154300000Y-61519047D01*
X154280952Y-61557142D01*
X154261904Y-61633333D01*
X154261904Y-61728571D01*
X154280952Y-61804761D01*
X154300000Y-61842857D01*
X154319047Y-61861904D01*
X154357142Y-61880952D01*
X154395238Y-61880952D01*
X154433333Y-61861904D01*
X154452380Y-61842857D01*
X154471428Y-61804761D01*
X154490476Y-61728571D01*
X154490476Y-61633333D01*
X154471428Y-61557142D01*
X154452380Y-61519047D01*
X154433333Y-61500000D01*
X154395238Y-61480952D01*
X154090476Y-61842857D02*
X154071428Y-61861904D01*
X154090476Y-61880952D01*
X154109523Y-61861904D01*
X154090476Y-61842857D01*
X154090476Y-61880952D01*
X153823809Y-61480952D02*
X153785714Y-61480952D01*
X153747619Y-61500000D01*
X153728571Y-61519047D01*
X153709523Y-61557142D01*
X153690476Y-61633333D01*
X153690476Y-61728571D01*
X153709523Y-61804761D01*
X153728571Y-61842857D01*
X153747619Y-61861904D01*
X153785714Y-61880952D01*
X153823809Y-61880952D01*
X153861904Y-61861904D01*
X153880952Y-61842857D01*
X153900000Y-61804761D01*
X153919047Y-61728571D01*
X153919047Y-61633333D01*
X153900000Y-61557142D01*
X153880952Y-61519047D01*
X153861904Y-61500000D01*
X153823809Y-61480952D01*
X153557142Y-61480952D02*
X153309523Y-61480952D01*
X153442857Y-61633333D01*
X153385714Y-61633333D01*
X153347619Y-61652380D01*
X153328571Y-61671428D01*
X153309523Y-61709523D01*
X153309523Y-61804761D01*
X153328571Y-61842857D01*
X153347619Y-61861904D01*
X153385714Y-61880952D01*
X153500000Y-61880952D01*
X153538095Y-61861904D01*
X153557142Y-61842857D01*
X139980952Y-67923809D02*
X139980952Y-68000000D01*
X139961904Y-68038095D01*
X139942857Y-68057142D01*
X139885714Y-68095238D01*
X139809523Y-68114285D01*
X139657142Y-68114285D01*
X139619047Y-68095238D01*
X139600000Y-68076190D01*
X139580952Y-68038095D01*
X139580952Y-67961904D01*
X139600000Y-67923809D01*
X139619047Y-67904761D01*
X139657142Y-67885714D01*
X139752380Y-67885714D01*
X139790476Y-67904761D01*
X139809523Y-67923809D01*
X139828571Y-67961904D01*
X139828571Y-68038095D01*
X139809523Y-68076190D01*
X139790476Y-68095238D01*
X139752380Y-68114285D01*
X154871428Y-64480952D02*
X154871428Y-64080952D01*
X154719047Y-64080952D01*
X154680952Y-64100000D01*
X154661904Y-64119047D01*
X154642857Y-64157142D01*
X154642857Y-64214285D01*
X154661904Y-64252380D01*
X154680952Y-64271428D01*
X154719047Y-64290476D01*
X154871428Y-64290476D01*
X154395238Y-64080952D02*
X154357142Y-64080952D01*
X154319047Y-64100000D01*
X154300000Y-64119047D01*
X154280952Y-64157142D01*
X154261904Y-64233333D01*
X154261904Y-64328571D01*
X154280952Y-64404761D01*
X154300000Y-64442857D01*
X154319047Y-64461904D01*
X154357142Y-64480952D01*
X154395238Y-64480952D01*
X154433333Y-64461904D01*
X154452380Y-64442857D01*
X154471428Y-64404761D01*
X154490476Y-64328571D01*
X154490476Y-64233333D01*
X154471428Y-64157142D01*
X154452380Y-64119047D01*
X154433333Y-64100000D01*
X154395238Y-64080952D01*
X154090476Y-64442857D02*
X154071428Y-64461904D01*
X154090476Y-64480952D01*
X154109523Y-64461904D01*
X154090476Y-64442857D01*
X154090476Y-64480952D01*
X153919047Y-64119047D02*
X153900000Y-64100000D01*
X153861904Y-64080952D01*
X153766666Y-64080952D01*
X153728571Y-64100000D01*
X153709523Y-64119047D01*
X153690476Y-64157142D01*
X153690476Y-64195238D01*
X153709523Y-64252380D01*
X153938095Y-64480952D01*
X153690476Y-64480952D01*
X153461904Y-64252380D02*
X153500000Y-64233333D01*
X153519047Y-64214285D01*
X153538095Y-64176190D01*
X153538095Y-64157142D01*
X153519047Y-64119047D01*
X153500000Y-64100000D01*
X153461904Y-64080952D01*
X153385714Y-64080952D01*
X153347619Y-64100000D01*
X153328571Y-64119047D01*
X153309523Y-64157142D01*
X153309523Y-64176190D01*
X153328571Y-64214285D01*
X153347619Y-64233333D01*
X153385714Y-64252380D01*
X153461904Y-64252380D01*
X153500000Y-64271428D01*
X153519047Y-64290476D01*
X153538095Y-64328571D01*
X153538095Y-64404761D01*
X153519047Y-64442857D01*
X153500000Y-64461904D01*
X153461904Y-64480952D01*
X153385714Y-64480952D01*
X153347619Y-64461904D01*
X153328571Y-64442857D01*
X153309523Y-64404761D01*
X153309523Y-64328571D01*
X153328571Y-64290476D01*
X153347619Y-64271428D01*
X153385714Y-64252380D01*
D11*
X143847619Y-65128571D02*
X143704761Y-65176190D01*
X143657142Y-65223809D01*
X143609523Y-65319047D01*
X143609523Y-65461904D01*
X143657142Y-65557142D01*
X143704761Y-65604761D01*
X143800000Y-65652380D01*
X144180952Y-65652380D01*
X144180952Y-64652380D01*
X143847619Y-64652380D01*
X143752380Y-64700000D01*
X143704761Y-64747619D01*
X143657142Y-64842857D01*
X143657142Y-64938095D01*
X143704761Y-65033333D01*
X143752380Y-65080952D01*
X143847619Y-65128571D01*
X144180952Y-65128571D01*
X143180952Y-65271428D02*
X142419047Y-65271428D01*
X142800000Y-65652380D02*
X142800000Y-64890476D01*
D12*
X154871428Y-74680952D02*
X154871428Y-74280952D01*
X154719047Y-74280952D01*
X154680952Y-74300000D01*
X154661904Y-74319047D01*
X154642857Y-74357142D01*
X154642857Y-74414285D01*
X154661904Y-74452380D01*
X154680952Y-74471428D01*
X154719047Y-74490476D01*
X154871428Y-74490476D01*
X154261904Y-74680952D02*
X154490476Y-74680952D01*
X154376190Y-74680952D02*
X154376190Y-74280952D01*
X154414285Y-74338095D01*
X154452380Y-74376190D01*
X154490476Y-74395238D01*
X154090476Y-74642857D02*
X154071428Y-74661904D01*
X154090476Y-74680952D01*
X154109523Y-74661904D01*
X154090476Y-74642857D01*
X154090476Y-74680952D01*
X153690476Y-74680952D02*
X153919047Y-74680952D01*
X153804761Y-74680952D02*
X153804761Y-74280952D01*
X153842857Y-74338095D01*
X153880952Y-74376190D01*
X153919047Y-74395238D01*
X153309523Y-74680952D02*
X153538095Y-74680952D01*
X153423809Y-74680952D02*
X153423809Y-74280952D01*
X153461904Y-74338095D01*
X153500000Y-74376190D01*
X153538095Y-74395238D01*
X152385714Y-68023809D02*
X152119047Y-68023809D01*
X152538095Y-68119047D02*
X152252380Y-68214285D01*
X152252380Y-67966666D01*
D11*
X52714291Y-92654761D02*
X52571434Y-92702380D01*
X52333339Y-92702380D01*
X52238101Y-92654761D01*
X52190482Y-92607142D01*
X52142863Y-92511904D01*
X52142863Y-92416666D01*
X52190482Y-92321428D01*
X52238101Y-92273809D01*
X52333339Y-92226190D01*
X52523815Y-92178571D01*
X52619053Y-92130952D01*
X52666672Y-92083333D01*
X52714291Y-91988095D01*
X52714291Y-91892857D01*
X52666672Y-91797619D01*
X52619053Y-91750000D01*
X52523815Y-91702380D01*
X52285720Y-91702380D01*
X52142863Y-91750000D01*
X51190482Y-92702380D02*
X51761910Y-92702380D01*
X51476196Y-92702380D02*
X51476196Y-91702380D01*
X51571434Y-91845238D01*
X51666672Y-91940476D01*
X51761910Y-91988095D01*
X50571434Y-91702380D02*
X50476196Y-91702380D01*
X50380958Y-91750000D01*
X50333339Y-91797619D01*
X50285720Y-91892857D01*
X50238101Y-92083333D01*
X50238101Y-92321428D01*
X50285720Y-92511904D01*
X50333339Y-92607142D01*
X50380958Y-92654761D01*
X50476196Y-92702380D01*
X50571434Y-92702380D01*
X50666672Y-92654761D01*
X50714291Y-92607142D01*
X50761910Y-92511904D01*
X50809529Y-92321428D01*
X50809529Y-92083333D01*
X50761910Y-91892857D01*
X50714291Y-91797619D01*
X50666672Y-91750000D01*
X50571434Y-91702380D01*
X49285720Y-92702380D02*
X49857148Y-92702380D01*
X49571434Y-92702380D02*
X49571434Y-91702380D01*
X49666672Y-91845238D01*
X49761910Y-91940476D01*
X49857148Y-91988095D01*
D13*
X126454004Y-134385540D02*
X125444609Y-138152651D01*
X128385855Y-134903178D02*
X127376461Y-138670289D01*
X125444609Y-138152651D02*
X127376461Y-138670289D01*
X84750005Y-90450000D02*
X84750005Y-94350000D01*
X82750005Y-90450000D02*
X82750005Y-94350000D01*
X82750005Y-94350000D02*
X84750005Y-94350000D01*
D11*
X163545000Y-57092500D02*
X163545000Y-69192500D01*
X157695000Y-55092500D02*
X163295000Y-55092500D01*
X157445000Y-57092500D02*
X163545000Y-57092500D01*
X157445000Y-69192500D02*
X163545000Y-69192500D01*
X157445000Y-57092500D02*
X157445000Y-69192500D01*
X157695000Y-57092500D02*
X157695000Y-55092500D01*
X163295000Y-57092500D02*
X163295000Y-55092500D01*
D13*
X64750012Y-94699994D02*
X64750012Y-98599994D01*
X64750012Y-98599994D02*
X66750012Y-98599994D01*
X66750012Y-94699994D02*
X66750012Y-98599994D01*
X84750004Y-73449994D02*
X84750004Y-77349994D01*
X82750004Y-77349994D02*
X84750004Y-77349994D01*
X82750004Y-73449994D02*
X82750004Y-77349994D01*
X46750003Y-107449998D02*
X46750003Y-111349998D01*
X48750003Y-107449998D02*
X48750003Y-111349998D01*
X46750003Y-111349998D02*
X48750003Y-111349998D01*
X100750005Y-73099995D02*
X102750005Y-73099995D01*
X102750005Y-69199995D02*
X102750005Y-73099995D01*
X100750005Y-69199995D02*
X100750005Y-73099995D01*
X120750002Y-107449992D02*
X120750002Y-111349992D01*
X118750002Y-107449992D02*
X118750002Y-111349992D01*
X118750002Y-111349992D02*
X120750002Y-111349992D01*
X100750007Y-103200004D02*
X100750007Y-107100004D01*
X102750007Y-103200004D02*
X102750007Y-107100004D01*
X100750007Y-107100004D02*
X102750007Y-107100004D01*
X84749996Y-56449992D02*
X84749996Y-60349992D01*
X82749996Y-60349992D02*
X84749996Y-60349992D01*
X82749996Y-56449992D02*
X82749996Y-60349992D01*
X107250006Y-132949998D02*
X107250006Y-136849998D01*
X105250006Y-136849998D02*
X107250006Y-136849998D01*
X105250006Y-132949998D02*
X105250006Y-136849998D01*
X118750004Y-73449988D02*
X118750004Y-77349988D01*
X120750004Y-73449988D02*
X120750004Y-77349988D01*
X118750004Y-77349988D02*
X120750004Y-77349988D01*
X28750004Y-94699997D02*
X28750004Y-98599997D01*
X30750004Y-94699997D02*
X30750004Y-98599997D01*
X28750004Y-98599997D02*
X30750004Y-98599997D01*
X148296009Y-142260155D02*
X146346009Y-145637654D01*
X146563958Y-141260155D02*
X144613958Y-144637654D01*
X144613958Y-144637654D02*
X146346009Y-145637654D01*
X46750000Y-73450000D02*
X46750000Y-77350000D01*
X48750000Y-73450000D02*
X48750000Y-77350000D01*
X46750000Y-77350000D02*
X48750000Y-77350000D01*
X64750010Y-77699988D02*
X64750010Y-81599988D01*
X66750010Y-77699988D02*
X66750010Y-81599988D01*
X64750010Y-81599988D02*
X66750010Y-81599988D01*
X118750003Y-94349993D02*
X120750003Y-94349993D01*
X120750003Y-90449993D02*
X120750003Y-94349993D01*
X118750003Y-90449993D02*
X118750003Y-94349993D01*
X100750006Y-86200002D02*
X100750006Y-90100002D01*
X102750006Y-86200002D02*
X102750006Y-90100002D01*
X100750006Y-90100002D02*
X102750006Y-90100002D01*
X28750007Y-77699997D02*
X28750007Y-81599997D01*
X30750007Y-77699997D02*
X30750007Y-81599997D01*
X28750007Y-81599997D02*
X30750007Y-81599997D01*
D14*
X165350000Y-118000000D02*
X165350000Y-121050000D01*
X166850000Y-121050000D02*
X165350000Y-121050000D01*
X163300000Y-117650000D02*
X164600000Y-117650000D01*
X166850000Y-121050000D02*
X166850000Y-122350000D01*
X162650000Y-119600000D02*
X162650000Y-121300000D01*
X165350000Y-122350000D02*
X165350000Y-124000000D01*
X165350000Y-121050000D02*
X165350000Y-122350000D01*
X164600000Y-124350000D02*
X163300000Y-124350000D01*
X166850000Y-122350000D02*
X165350000Y-122350000D01*
D13*
X64750006Y-60699999D02*
X64750006Y-64599999D01*
X66750006Y-60699999D02*
X66750006Y-64599999D01*
X64750006Y-64599999D02*
X66750006Y-64599999D01*
X46750006Y-90450000D02*
X46750006Y-94350000D01*
X46750006Y-94350000D02*
X48750006Y-94350000D01*
X48750006Y-90450000D02*
X48750006Y-94350000D01*
%LPC*%
D15*
X127334237Y-128202686D03*
X132733268Y-127371744D03*
X136993496Y-130790876D03*
D16*
X131193295Y-133119003D03*
D17*
X125880703Y-131695498D03*
X136505887Y-134542508D03*
D18*
X140156903Y-131638509D03*
D19*
X126565827Y-137831915D03*
D20*
X129569861Y-126524112D03*
D19*
X127419929Y-134644359D03*
D17*
X92500005Y-88000000D03*
D15*
X82000005Y-84250000D03*
D16*
X87000005Y-88000000D03*
D15*
X87000005Y-82050000D03*
D17*
X81500005Y-88000000D03*
D15*
X92000005Y-84250000D03*
D21*
X95275005Y-84250000D03*
D22*
X83750005Y-93750000D03*
X83750005Y-90450000D03*
D23*
X83725005Y-82050000D03*
D24*
X160505000Y-65692500D03*
X160505000Y-58692500D03*
X160505000Y-65692500D03*
X160505000Y-58692500D03*
D25*
X158205000Y-67832500D03*
X162805000Y-67832500D03*
D26*
X158205000Y-63292500D03*
X162805000Y-63292500D03*
X162805000Y-60292500D03*
X158205000Y-60292500D03*
D27*
X102600000Y-54000000D03*
D28*
X105000000Y-54000000D03*
D27*
X103302944Y-55697056D03*
X106697056Y-55697056D03*
X105000000Y-56400000D03*
X107400000Y-54000000D03*
X105000000Y-51600000D03*
X103302944Y-52302944D03*
X106697056Y-52302944D03*
D15*
X74000012Y-88499994D03*
X64000012Y-88499994D03*
D17*
X74500012Y-92249994D03*
D15*
X69000012Y-86299994D03*
D17*
X63500012Y-92249994D03*
D16*
X69000012Y-92249994D03*
D21*
X77275012Y-88499994D03*
D22*
X65750012Y-97999994D03*
D23*
X65725012Y-86299994D03*
D22*
X65750012Y-94699994D03*
D28*
X147500000Y-119000000D03*
D15*
X87000004Y-65049994D03*
D16*
X87000004Y-70999994D03*
D15*
X82000004Y-67249994D03*
X92000004Y-67249994D03*
D17*
X81500004Y-70999994D03*
X92500004Y-70999994D03*
D21*
X95275004Y-67249994D03*
D22*
X83750004Y-76749994D03*
D23*
X83725004Y-65049994D03*
D22*
X83750004Y-73449994D03*
D17*
X56500003Y-104999998D03*
D15*
X51000003Y-99049998D03*
X56000003Y-101249998D03*
D17*
X45500003Y-104999998D03*
D15*
X46000003Y-101249998D03*
D16*
X51000003Y-104999998D03*
D21*
X59275003Y-101249998D03*
D22*
X47750003Y-110749998D03*
X47750003Y-107449998D03*
D23*
X47725003Y-99049998D03*
D16*
X105000005Y-66749995D03*
D15*
X105000005Y-60799995D03*
X110000005Y-62999995D03*
X100000005Y-62999995D03*
D17*
X110500005Y-66749995D03*
X99500005Y-66749995D03*
D21*
X113275005Y-62999995D03*
D22*
X101750005Y-72499995D03*
X101750005Y-69199995D03*
D23*
X101725005Y-60799995D03*
D15*
X118000002Y-101249992D03*
X123000002Y-99049992D03*
D16*
X123000002Y-104999992D03*
D17*
X117500002Y-104999992D03*
X128500002Y-104999992D03*
D15*
X128000002Y-101249992D03*
D21*
X131275002Y-101249992D03*
D22*
X119750002Y-110749992D03*
X119750002Y-107449992D03*
D23*
X119725002Y-99049992D03*
D17*
X110500007Y-100750004D03*
D15*
X110000007Y-97000004D03*
D17*
X99500007Y-100750004D03*
D15*
X105000007Y-94800004D03*
X100000007Y-97000004D03*
D16*
X105000007Y-100750004D03*
D21*
X113275007Y-97000004D03*
D22*
X101750007Y-106500004D03*
D23*
X101725007Y-94800004D03*
D22*
X101750007Y-103200004D03*
D17*
X81499996Y-53999992D03*
D15*
X91999996Y-50249992D03*
X81999996Y-50249992D03*
D16*
X86999996Y-53999992D03*
D15*
X86999996Y-48049992D03*
D17*
X92499996Y-53999992D03*
D21*
X95274996Y-50249992D03*
D22*
X83749996Y-59749992D03*
X83749996Y-56449992D03*
D23*
X83724996Y-48049992D03*
D15*
X109500006Y-124549998D03*
X114500006Y-126749998D03*
D17*
X104000006Y-130499998D03*
D15*
X104500006Y-126749998D03*
D17*
X115000006Y-130499998D03*
D16*
X109500006Y-130499998D03*
D21*
X117775006Y-126749998D03*
D22*
X106250006Y-136249998D03*
X106250006Y-132949998D03*
D23*
X106225006Y-124549998D03*
D16*
X123000004Y-70999988D03*
D15*
X118000004Y-67249988D03*
D17*
X117500004Y-70999988D03*
D15*
X128000004Y-67249988D03*
D17*
X128500004Y-70999988D03*
D15*
X123000004Y-65049988D03*
D21*
X131275004Y-67249988D03*
D22*
X119750004Y-76749988D03*
X119750004Y-73449988D03*
D23*
X119725004Y-65049988D03*
D15*
X28000004Y-88499997D03*
X33000004Y-86299997D03*
D17*
X38500004Y-92249997D03*
D16*
X33000004Y-92249997D03*
D17*
X27500004Y-92249997D03*
D15*
X38000004Y-88499997D03*
D21*
X41275004Y-88499997D03*
D22*
X29750004Y-97999997D03*
D23*
X29725004Y-86299997D03*
D22*
X29750004Y-94699997D03*
D17*
X146706426Y-138513393D03*
D16*
X151469566Y-141263393D03*
D15*
X149014439Y-135515798D03*
X157674693Y-140515798D03*
X154444566Y-136110542D03*
D17*
X156232706Y-144013393D03*
D29*
X160510926Y-142153298D03*
D30*
X145779983Y-144618039D03*
D31*
X151608333Y-134473042D03*
D30*
X147429983Y-141760155D03*
D15*
X56000000Y-67250000D03*
D17*
X56500000Y-71000000D03*
X45500000Y-71000000D03*
D16*
X51000000Y-71000000D03*
D15*
X46000000Y-67250000D03*
X51000000Y-65050000D03*
D21*
X59275000Y-67250000D03*
D22*
X47750000Y-76750000D03*
D23*
X47725000Y-65050000D03*
D22*
X47750000Y-73450000D03*
D15*
X69000010Y-69299988D03*
X64000010Y-71499988D03*
D17*
X63500010Y-75249988D03*
X74500010Y-75249988D03*
D16*
X69000010Y-75249988D03*
D15*
X74000010Y-71499988D03*
D21*
X77275010Y-71499988D03*
D22*
X65750010Y-80999988D03*
X65750010Y-77699988D03*
D23*
X65725010Y-69299988D03*
D27*
X158802944Y-76197056D03*
X162197056Y-72802944D03*
X158100000Y-74500000D03*
D28*
X160500000Y-74500000D03*
D27*
X162900000Y-74500000D03*
X160500000Y-76900000D03*
X162197056Y-76197056D03*
X158802944Y-72802944D03*
X160500000Y-72100000D03*
D15*
X128000003Y-84249993D03*
D17*
X117500003Y-87999993D03*
D16*
X123000003Y-87999993D03*
D15*
X123000003Y-82049993D03*
D17*
X128500003Y-87999993D03*
D15*
X118000003Y-84249993D03*
D21*
X131275003Y-84249993D03*
D22*
X119750003Y-93749993D03*
X119750003Y-90449993D03*
D23*
X119725003Y-82049993D03*
D27*
X34697056Y-106697056D03*
X33000000Y-107400000D03*
D28*
X33000000Y-105000000D03*
D27*
X30600000Y-105000000D03*
X34697056Y-103302944D03*
X31302944Y-106697056D03*
X33000000Y-102600000D03*
X31302944Y-103302944D03*
X35400000Y-105000000D03*
D28*
X51000000Y-58000000D03*
D27*
X52697056Y-56302944D03*
X53400000Y-58000000D03*
X49302944Y-59697056D03*
X51000000Y-55600000D03*
X51000000Y-60400000D03*
X52697056Y-59697056D03*
X49302944Y-56302944D03*
X48600000Y-58000000D03*
X105100000Y-115500000D03*
X105802944Y-113802944D03*
X107500000Y-113100000D03*
X109197056Y-113802944D03*
X107500000Y-117900000D03*
D28*
X107500000Y-115500000D03*
D27*
X109900000Y-115500000D03*
X109197056Y-117197056D03*
X105802944Y-117197056D03*
D16*
X105000006Y-83750002D03*
D17*
X99500006Y-83750002D03*
D15*
X105000006Y-77800002D03*
D17*
X110500006Y-83750002D03*
D15*
X100000006Y-80000002D03*
X110000006Y-80000002D03*
D21*
X113275006Y-80000002D03*
D22*
X101750006Y-89500002D03*
X101750006Y-86200002D03*
D23*
X101725006Y-77800002D03*
D17*
X38500007Y-75249997D03*
D15*
X28000007Y-71499997D03*
D16*
X33000007Y-75249997D03*
D15*
X33000007Y-69299997D03*
X38000007Y-71499997D03*
D17*
X27500007Y-75249997D03*
D21*
X41275007Y-71499997D03*
D22*
X29750007Y-80999997D03*
D23*
X29725007Y-69299997D03*
D22*
X29750007Y-77699997D03*
D27*
X164000000Y-122500000D03*
X164000000Y-122500000D03*
X164000000Y-119500000D03*
X164000000Y-119500000D03*
D32*
X161900000Y-121823000D03*
D33*
X165125000Y-117250000D03*
D34*
X162875000Y-117200000D03*
X162875000Y-124800000D03*
D33*
X165125000Y-124750000D03*
D32*
X161900000Y-123323000D03*
X161900000Y-118823000D03*
D28*
X147500000Y-119000000D03*
D27*
X147500000Y-121400000D03*
X147500000Y-116600000D03*
X145802944Y-117302944D03*
X149197056Y-120697056D03*
X149900000Y-119000000D03*
X145100000Y-119000000D03*
X149197056Y-117302944D03*
X145802944Y-120697056D03*
D15*
X69000006Y-52299999D03*
D17*
X63500006Y-58249999D03*
D16*
X69000006Y-58249999D03*
D17*
X74500006Y-58249999D03*
D15*
X74000006Y-54499999D03*
X64000006Y-54499999D03*
D21*
X77275006Y-54499999D03*
D22*
X65750006Y-63999999D03*
X65750006Y-60699999D03*
D23*
X65725006Y-52299999D03*
D35*
X156500000Y-124000000D03*
D36*
X155250000Y-124000000D03*
X157750000Y-124000000D03*
D37*
X154094960Y-57880000D03*
X154094960Y-60420000D03*
X154094960Y-62960000D03*
X154094960Y-65500000D03*
X154094960Y-68040000D03*
X154094960Y-70580000D03*
X154094960Y-73120000D03*
X137905040Y-73120000D03*
X137905040Y-70580000D03*
X137905040Y-68040000D03*
X137905040Y-65500000D03*
X137905040Y-62960000D03*
X137905040Y-60420000D03*
X137905040Y-57880000D03*
D38*
X147270000Y-56928000D03*
X144730000Y-56928000D03*
X147270000Y-56928000D03*
X144730000Y-56928000D03*
X147270000Y-59468000D03*
X144730000Y-59468000D03*
X144730000Y-59468000D03*
X147270000Y-59468000D03*
X150445000Y-65183000D03*
X141555000Y-65183000D03*
X141555000Y-63278000D03*
X150445000Y-63278000D03*
X149810000Y-74708000D03*
X142190000Y-74708000D03*
X151715000Y-74708000D03*
X140285000Y-74708000D03*
D17*
X45500006Y-88000000D03*
D15*
X51000006Y-82050000D03*
X46000006Y-84250000D03*
X56000006Y-84250000D03*
D17*
X56500006Y-88000000D03*
D16*
X51000006Y-88000000D03*
D21*
X59275006Y-84250000D03*
D22*
X47750006Y-93750000D03*
D23*
X47725006Y-82050000D03*
D22*
X47750006Y-90450000D03*
M02*
